<?xml version="1.0" standalone="no"?>
<!DOCTYPE svg PUBLIC "-//W3C//DTD SVG 1.1//EN" "http://www.w3.org/Graphics/SVG/1.1/DTD/svg11.dtd" >
<svg xmlns="http://www.w3.org/2000/svg" xmlns:xlink="http://www.w3.org/1999/xlink" version="1.1">
<metadata>
Created by FontForge 20190801 at Fri Jul 12 09:18:08 2019
 By www-data
Copyright 2019 BlackFoundry
</metadata>
<defs>
<font id="GrtskTeraMedium" horiz-adv-x="327" >
  <font-face 
    font-family="GrtskTeraMedium"
    font-weight="500"
    font-stretch="normal"
    units-per-em="1000"
    panose-1="0 0 0 0 0 0 0 0 0 0"
    ascent="750"
    descent="-250"
    x-height="546"
    cap-height="700"
    bbox="-123 -214 1515 971"
    underline-thickness="83"
    underline-position="-200"
    unicode-range="U+000D-F6C3"
  />
<missing-glyph horiz-adv-x="1019" 
d="M116 0v700h787v-700h-787zM253 109h513v482h-513v-482z" />
    <glyph glyph-name=".notdef" horiz-adv-x="1019" 
d="M116 0v700h787v-700h-787zM253 109h513v482h-513v-482z" />
    <glyph glyph-name=".null" horiz-adv-x="0" 
 />
    <glyph glyph-name=".null" horiz-adv-x="0" 
 />
    <glyph glyph-name="nonmarkingreturn" horiz-adv-x="333" 
 />
    <glyph glyph-name="CR" unicode="&#xd;" horiz-adv-x="0" 
 />
    <glyph glyph-name="space" unicode=" " horiz-adv-x="288" 
 />
    <glyph glyph-name="exclam" unicode="!" horiz-adv-x="366" 
d="M243 200h-120l-9 500h137zM113 0v124h139v-124h-139z" />
    <glyph glyph-name="quotedbl" unicode="&#x22;" horiz-adv-x="554" 
d="M98 399l-7 301h127l-6 -301h-114zM342 399l-7 301h127l-6 -301h-114z" />
    <glyph glyph-name="numbersign" unicode="#" horiz-adv-x="1000" 
d="M125 0l52 168h-149v96h179l53 172h-173v96h203l52 168h131l-52 -168h268l52 168h131l-52 -168h151v-96h-181l-53 -172h175v-96h-205l-52 -168h-131l52 168h-268l-52 -168h-131zM338 264h268l53 172h-268z" />
    <glyph glyph-name="dollar" unicode="$" horiz-adv-x="888" 
d="M48 213l139 21q26 -128 218 -140v206l-71 5q-132 12 -197.5 58.5t-65.5 133.5q0 95 86.5 152t247.5 62v69h76v-70q292 -13 335 -210l-139 -20q-29 115 -196 126v-197l87 -6q136 -13 200.5 -59.5t64.5 -135.5q0 -101 -89 -157.5t-263 -61.5v-69h-76v70q-316 14 -357 223z
M380 416l25 -2v194q-195 -7 -195 -98q0 -45 39 -65t131 -29zM520 292l-39 3v-203q213 7 213 103q0 46 -38.5 67t-135.5 30z" />
    <glyph glyph-name="percent" unicode="%" horiz-adv-x="1034" 
d="M254 710q94 0 149 -45.5t55 -119.5q0 -73 -55 -119t-149 -46t-149.5 46t-55.5 119q0 74 55 119.5t150 45.5zM805 700h145l-721 -700h-146zM254 465q46 0 72 21.5t26 58.5t-25.5 58.5t-72.5 21.5q-48 0 -74 -21.5t-26 -58.5t26.5 -58.5t73.5 -21.5zM781 319q94 0 149 -46
t55 -119q0 -74 -55 -119t-149 -45t-149.5 45t-55.5 119q0 73 55.5 119t149.5 46zM781 74q47 0 73 21.5t26 58.5t-26 58.5t-73 21.5t-73 -21.5t-26 -58.5t26 -58.5t73 -21.5z" />
    <glyph glyph-name="ampersand" unicode="&#x26;" horiz-adv-x="948" 
d="M376 -11q-164 0 -244 53.5t-80 142.5q0 66 46.5 112t156.5 81h2q-56 46 -77 80.5t-21 75.5q0 80 68.5 128.5t189.5 48.5q118 0 186 -48t68 -126q0 -61 -44.5 -103t-151.5 -79l195 -139q40 57 57 137l130 -16q-18 -111 -88 -191l205 -146h-188l-102 72q-127 -83 -308 -83z
M291 533q0 -26 19 -49.5t73 -62.5l19 7q82 27 110.5 50.5t28.5 56.5q0 36 -32 57t-92 21t-93 -22t-33 -58zM192 191q0 -47 48 -74t145 -27q121 0 203 50l-240 171l-21 -7q-78 -26 -106.5 -51t-28.5 -62z" />
    <glyph glyph-name="quotesingle" unicode="'" horiz-adv-x="309" 
d="M98 399l-7 301h127l-6 -301h-114z" />
    <glyph glyph-name="parenleft" unicode="(" horiz-adv-x="414" 
d="M256 -150q-164 204 -164 425q0 219 164 425h123q-83 -116 -120.5 -217.5t-37.5 -207.5t37.5 -207.5t120.5 -217.5h-123z" />
    <glyph glyph-name="parenright" unicode=")" horiz-adv-x="414" 
d="M158 700q164 -205 164 -425t-164 -425h-124q83 115 120.5 216.5t37.5 208.5q0 106 -37.5 207.5t-120.5 217.5h124z" />
    <glyph glyph-name="asterisk" unicode="*" horiz-adv-x="515" 
d="M428 361l-80 -61l-91 136l-91 -136l-80 61l106 115l-155 34l31 96l150 -58l-13 154h104l-13 -154l150 58l31 -96l-155 -34z" />
    <glyph glyph-name="plus" unicode="+" horiz-adv-x="603" 
d="M546 306h-192v-163h-106v163h-192v95h192v162h106v-162h192v-95z" />
    <glyph glyph-name="comma" unicode="," horiz-adv-x="322" 
d="M91 130h139v-129q0 -92 -36 -130.5t-123 -39.5l-6 73q51 0 68 17.5t17 69.5v9h-59v130z" />
    <glyph glyph-name="hyphen" unicode="-" horiz-adv-x="496" 
d="M51 234v114h393v-114h-393z" />
    <glyph glyph-name="period" unicode="." horiz-adv-x="322" 
d="M91 0v130h139v-130h-139z" />
    <glyph glyph-name="slash" unicode="/" horiz-adv-x="474" 
d="M15 -150l285 850h136l-286 -850h-135z" />
    <glyph glyph-name="zero" unicode="0" horiz-adv-x="920" 
d="M460 -11q-189 0 -295 95.5t-106 265.5t106 265.5t295 95.5q190 0 296 -95.5t106 -265.5t-106.5 -265.5t-295.5 -95.5zM460 98q126 0 193.5 65.5t67.5 186.5t-67.5 186.5t-193.5 65.5t-193.5 -65.5t-67.5 -186.5q0 -122 67 -187t194 -65z" />
    <glyph glyph-name="one" unicode="1" horiz-adv-x="760" 
d="M51 0v108h292v476l-276 -50v112l292 54h121v-592h254v-108h-683z" />
    <glyph glyph-name="two" unicode="2" horiz-adv-x="795" 
d="M63 107l365 208q100 57 134 94.5t34 83.5q0 53 -49.5 82t-145.5 29q-203 0 -217 -140l-135 22q17 109 107 167t246 58q160 0 248.5 -57t88.5 -157q0 -76 -50.5 -133.5t-194.5 -133.5l-211 -122h470v-108h-690v107z" />
    <glyph glyph-name="three" unicode="3" horiz-adv-x="831" 
d="M774 194q0 -100 -91.5 -152.5t-268.5 -52.5q-168 0 -258.5 50t-112.5 155l138 26q21 -129 234 -129t213 111q0 48 -39.5 74t-115.5 26h-189v103h188q72 0 109.5 26t37.5 73q0 104 -206 104q-201 0 -226 -125l-130 28q22 97 112.5 148.5t245.5 51.5q166 0 255.5 -49
t89.5 -139q0 -122 -137 -163q151 -35 151 -166z" />
    <glyph glyph-name="four" unicode="4" horiz-adv-x="851" 
d="M690 0h-133v137h-527v100l523 463h137v-459h139v-104h-139v-137zM184 241h373v326z" />
    <glyph glyph-name="five" unicode="5" horiz-adv-x="821" 
d="M412 -11q-301 0 -357 178l136 29q29 -100 221 -100q217 0 217 132q0 65 -54 100t-161 35q-156 0 -212 -62l-119 13l41 386h596v-103h-482l-23 -196q91 57 234 57q150 0 234 -59t84 -170q1 -115 -90.5 -177.5t-264.5 -62.5z" />
    <glyph glyph-name="six" unicode="6" horiz-adv-x="858" 
d="M59 341q0 176 102.5 273t290.5 97q140 0 229 -45t116 -131l-135 -28q-32 99 -211 99q-250 0 -254 -262q39 45 113.5 70.5t172.5 25.5q154 0 238 -57t84 -163q0 -109 -94.5 -170t-265.5 -61q-188 0 -287 91t-99 261zM446 94q107 0 164 33.5t57 91.5q0 59 -57 91.5
t-164 32.5q-106 0 -165.5 -31.5t-59.5 -83.5q0 -62 59.5 -98t165.5 -36z" />
    <glyph glyph-name="seven" unicode="7" horiz-adv-x="725" 
d="M699 593l-388 -593h-160l397 591h-521v109h672v-107z" />
    <glyph glyph-name="eight" unicode="8" horiz-adv-x="865" 
d="M432 -11q-183 0 -281 54t-98 150q0 59 46 102t131 66q-146 48 -146 160q0 88 92 139t256 51t256.5 -51t92.5 -140q0 -112 -145 -160q85 -22 130 -64.5t45 -102.5q0 -96 -98 -150t-281 -54zM642 510q0 101 -210 101t-210 -101q0 -100 210 -100t210 100zM432 88
q236 0 236 109t-236 109t-236 -109t236 -109z" />
    <glyph glyph-name="nine" unicode="9" horiz-adv-x="859" 
d="M799 359q0 -176 -102 -273t-290 -97q-141 0 -229.5 45t-116.5 131l135 28q34 -99 211 -99q252 0 255 263q-84 -97 -286 -97q-154 0 -238.5 57t-84.5 163q0 109 94.5 170t265.5 61q189 0 287.5 -91t98.5 -261zM413 606q-108 0 -165 -33.5t-57 -91.5q0 -59 57 -91.5
t165 -32.5q106 0 165 31t59 84q0 62 -59.5 98t-164.5 36z" />
    <glyph glyph-name="colon" unicode=":" horiz-adv-x="322" 
d="M91 416v130h139v-130h-139zM91 0v130h139v-130h-139z" />
    <glyph glyph-name="semicolon" unicode=";" horiz-adv-x="322" 
d="M91 416v130h139v-130h-139zM91 130h139v-129q0 -92 -36 -130.5t-123 -39.5l-6 73q51 0 68 17.5t17 69.5v9h-59v130z" />
    <glyph glyph-name="less" unicode="&#x3c;" horiz-adv-x="603" 
d="M54 303v95l489 202v-112l-351 -134l351 -135v-119z" />
    <glyph glyph-name="equal" unicode="=" horiz-adv-x="603" 
d="M546 418h-490v95h490v-95zM546 194h-490v95h490v-95z" />
    <glyph glyph-name="greater" unicode="&#x3e;" horiz-adv-x="603" 
d="M548 398v-95l-489 -203v113l350 135l-350 134v118z" />
    <glyph glyph-name="question" unicode="?" horiz-adv-x="772" 
d="M388 603q-198 0 -214 -146l-135 24q14 109 106 169.5t243 60.5q158 0 245 -55.5t87 -146.5q0 -56 -28.5 -94.5t-69.5 -59.5t-82.5 -39.5t-71 -46.5t-31.5 -69h-135q3 60 33 101.5t70.5 63t81 39t68.5 41.5t28 58q0 46 -48 73t-147 27zM300 0v124h139v-124h-139z" />
    <glyph glyph-name="at" unicode="@" horiz-adv-x="1186" 
d="M904 -8q-65 0 -106.5 25t-52.5 71q-74 -99 -223 -99q-92 0 -143 38.5t-51 103.5q0 66 49.5 102.5t160.5 45.5l202 16v7q0 111 -132 111q-130 0 -143 -92l-117 14q16 79 84 120t177 41q249 0 249 -189v-185q0 -67 65 -67q61 0 101.5 58t40.5 163q0 167 -123 268t-341 101
q-224 0 -352.5 -116t-128.5 -303q0 -177 118 -279.5t342 -102.5q149 0 275 55l21 -48q-135 -62 -296 -62q-251 0 -386.5 118t-135.5 319q0 211 148 342.5t395 131.5q240 0 383.5 -116.5t143.5 -307.5q0 -129 -60 -206.5t-164 -77.5zM447 140q0 -32 24 -50t71 -18
q84 0 142 42t58 102v7l-204 -18q-91 -8 -91 -65z" />
    <glyph glyph-name="A" unicode="A" horiz-adv-x="916" 
d="M756 0l-88 167h-426l-88 -167h-144l377 700h140l378 -700h-149zM297 272h315l-157 298z" />
    <glyph glyph-name="B" unicode="B" horiz-adv-x="936" 
d="M116 0v700h494q108 0 169.5 -47t61.5 -131q0 -55 -30.5 -97.5t-89.5 -62.5q73 -18 112 -62.5t39 -109.5q0 -90 -64.5 -140t-182.5 -50h-509zM585 599h-335v-194h336q55 0 87.5 26t32.5 73q0 46 -31 70.5t-90 24.5zM598 303h-348v-202h351q130 0 130 99q0 50 -35 76.5
t-98 26.5z" />
    <glyph glyph-name="C" unicode="C" horiz-adv-x="945" 
d="M59 350q0 165 116.5 263t315.5 98q168 0 271 -61.5t134 -178.5l-142 -28q-42 159 -263 159q-141 0 -216.5 -66t-75.5 -186q0 -121 75 -186.5t217 -65.5q233 0 266 164l140 -27q-28 -120 -132 -183t-274 -63q-204 0 -318 97t-114 264z" />
    <glyph glyph-name="D" unicode="D" horiz-adv-x="979" 
d="M116 0v700h400q191 0 295 -93t104 -258t-104 -257t-295 -92h-400zM521 109q124 0 188.5 62.5t64.5 177.5q0 116 -64.5 179t-188.5 63h-268v-482h268z" />
    <glyph glyph-name="E" unicode="E" horiz-adv-x="840" 
d="M116 0v700h661v-106h-527v-184h471v-105h-471v-199h534v-106h-668z" />
    <glyph glyph-name="F" unicode="F" horiz-adv-x="821" 
d="M116 0v700h661v-109h-524v-209h468v-109h-468v-273h-137z" />
    <glyph glyph-name="G" unicode="G" horiz-adv-x="1000" 
d="M59 349q0 168 118.5 265t327.5 97q167 0 269.5 -57t134.5 -165l-137 -29q-45 142 -268 142q-148 0 -226.5 -65.5t-78.5 -187.5q0 -121 77.5 -186t225.5 -65q124 0 195.5 43t88.5 122h-296v100h431v-363h-101l-12 131q-94 -142 -321 -142q-201 0 -314.5 96.5t-113.5 263.5
z" />
    <glyph glyph-name="H" unicode="H" horiz-adv-x="1022" 
d="M116 0v700h137v-284h516v284h137v-700h-137v306h-516v-306h-137z" />
    <glyph glyph-name="I" unicode="I" horiz-adv-x="369" 
d="M116 0v700h137v-700h-137z" />
    <glyph glyph-name="J" unicode="J" horiz-adv-x="551" 
d="M445 251q0 -135 -65 -198.5t-209 -63.5q-66 0 -140 13l-5 111q66 -11 121 -11q88 0 124.5 33.5t36.5 112.5v452h137v-449z" />
    <glyph glyph-name="K" unicode="K" horiz-adv-x="896" 
d="M116 0v700h135v-328l433 328h185l-422 -320l449 -380h-197l-359 299l-89 -68v-231h-135z" />
    <glyph glyph-name="L" unicode="L" horiz-adv-x="759" 
d="M116 0v700h137v-591h472v-109h-609z" />
    <glyph glyph-name="M" unicode="M" horiz-adv-x="1182" 
d="M116 0v700h146l331 -463l328 463h145v-700h-128v530l-287 -411h-119l-288 406v-525h-128z" />
    <glyph glyph-name="N" unicode="N" horiz-adv-x="1007" 
d="M116 0v700h135l514 -549v549h126v-700h-135l-514 547v-547h-126z" />
    <glyph glyph-name="O" unicode="O" horiz-adv-x="995" 
d="M497 -11q-205 0 -321.5 97t-116.5 263q0 167 116 264.5t322 97.5q207 0 323 -97.5t116 -264.5q0 -166 -116 -263t-323 -97zM497 98q147 0 223 66t76 185q0 121 -76 187t-223 66q-146 0 -222 -66t-76 -187q0 -120 76 -185.5t222 -65.5z" />
    <glyph glyph-name="P" unicode="P" horiz-adv-x="880" 
d="M116 0v700h445q126 0 199.5 -66t73.5 -179q0 -111 -74.5 -176t-203.5 -65h-303v-214h-137zM536 592h-283v-270h283q77 0 118 34t41 99q0 66 -41 101.5t-118 35.5z" />
    <glyph glyph-name="Q" unicode="Q" horiz-adv-x="1004" 
d="M497 -11q-205 0 -321.5 97t-116.5 263q0 167 116 264.5t322 97.5q207 0 323 -97.5t116 -264.5q0 -192 -149 -287l125 -144h-152l-82 95q-80 -24 -181 -24zM497 98q53 0 105 10l-129 150h145l90 -104q88 65 88 195q0 121 -76 187t-223 66q-146 0 -222 -66t-76 -187
q0 -120 76 -185.5t222 -65.5z" />
    <glyph glyph-name="R" unicode="R" horiz-adv-x="905" 
d="M116 0v700h461q123 0 189 -58t66 -162q0 -94 -59 -150.5t-166 -63.5l247 -266h-171l-237 257h-193v-257h-137zM554 594h-301v-231h301q68 0 104.5 29.5t36.5 85.5q0 116 -141 116z" />
    <glyph glyph-name="S" unicode="S" horiz-adv-x="887" 
d="M48 213l139 21q28 -139 264 -139q243 0 243 99q0 46 -38 66.5t-136 31.5l-184 13q-133 14 -199 60t-66 133q0 100 94.5 156.5t269.5 56.5q335 0 381 -211l-139 -20q-15 64 -74 94.5t-170 30.5q-223 0 -223 -95q0 -44 38.5 -63.5t131.5 -29.5l188 -14q136 -15 200.5 -60.5
t64.5 -135.5q0 -106 -97.5 -162t-286.5 -56q-357 0 -401 224z" />
    <glyph glyph-name="T" unicode="T" horiz-adv-x="829" 
d="M345 0v591h-318v109h775v-109h-320v-591h-137z" />
    <glyph glyph-name="U" unicode="U" horiz-adv-x="955" 
d="M858 307q0 -152 -100 -235t-281 -83q-180 0 -280 83t-100 235v393h137v-392q0 -103 62.5 -156.5t180.5 -53.5q119 0 181.5 53.5t62.5 156.5v392h137v-393z" />
    <glyph glyph-name="V" unicode="V" horiz-adv-x="881" 
d="M168 700l275 -558l278 558h146l-357 -700h-140l-356 700h154z" />
    <glyph glyph-name="W" unicode="W" horiz-adv-x="1280" 
d="M284 0l-269 700h146l196 -543l216 543h134l218 -541l196 541h144l-270 -700h-135l-222 547l-222 -547h-132z" />
    <glyph glyph-name="X" unicode="X" horiz-adv-x="827" 
d="M177 0h-163l310 358l-304 342h170l228 -261l224 261h163l-306 -347l313 -353h-169l-236 270z" />
    <glyph glyph-name="Y" unicode="Y" horiz-adv-x="819" 
d="M340 0v279l-334 421h168l238 -307l241 307h161l-337 -424v-276h-137z" />
    <glyph glyph-name="Z" unicode="Z" horiz-adv-x="816" 
d="M51 0v104l526 488h-523v108h712v-101l-530 -491h530v-108h-715z" />
    <glyph glyph-name="bracketleft" unicode="[" horiz-adv-x="443" 
d="M116 -150v850h309v-96h-182v-658h182v-96h-309z" />
    <glyph glyph-name="backslash" unicode="\" horiz-adv-x="474" 
d="M459 -150h-136l-285 850h135z" />
    <glyph glyph-name="bracketright" unicode="]" horiz-adv-x="443" 
d="M326 -150h-308v96h182v658h-182v96h308v-850z" />
    <glyph glyph-name="asciicircum" unicode="^" horiz-adv-x="613" 
d="M239 700h134l196 -420h-129l-136 317l-135 -317h-126z" />
    <glyph glyph-name="underscore" unicode="_" horiz-adv-x="610" 
d="M34 -113v113h541v-113h-541z" />
    <glyph glyph-name="grave" unicode="`" horiz-adv-x="500" 
d="M304 609h-110l-195 159h169z" />
    <glyph glyph-name="a" unicode="a" horiz-adv-x="760" 
d="M57 384q42 173 311 173q156 0 228 -51t72 -159v-215q0 -46 42 -46q8 0 22 2l-3 -88q-30 -9 -62 -9q-116 0 -119 111q-44 -53 -118.5 -83t-164.5 -30q-109 0 -169.5 42.5t-60.5 118.5t57.5 117t180.5 50l273 19v1q0 66 -42.5 95.5t-137.5 29.5q-168 0 -183 -98zM161 157
q0 -74 127 -74q108 0 184 44.5t76 111.5v15l-273 -20q-114 -9 -114 -77z" />
    <glyph glyph-name="b" unicode="b" horiz-adv-x="857" 
d="M214 0h-116v750h130v-307q88 114 265 114q142 0 225 -77.5t83 -206.5t-82.5 -206.5t-225.5 -77.5q-181 0 -270 118zM452 91q105 0 160.5 48.5t55.5 133.5q0 84 -56 133t-160 49q-103 0 -163.5 -50t-60.5 -133q0 -82 60 -131.5t164 -49.5z" />
    <glyph glyph-name="c" unicode="c" horiz-adv-x="778" 
d="M738 358l-129 -24q-26 122 -203 122q-107 0 -162 -47.5t-55 -136.5q0 -87 55.5 -134.5t162.5 -47.5q179 0 205 124l128 -24q-22 -97 -108.5 -149t-224.5 -52q-165 0 -258 76t-93 207q0 132 92.5 208.5t257.5 76.5q138 0 224 -51t108 -148z" />
    <glyph glyph-name="d" unicode="d" horiz-adv-x="857" 
d="M364 -11q-143 0 -225.5 77.5t-82.5 206.5t82.5 206.5t225.5 77.5q173 0 264 -112v305h130v-750h-117l-9 106q-42 -55 -111 -86t-157 -31zM404 91q104 0 164 49.5t60 131.5q0 83 -60 133t-164 50t-159.5 -49t-55.5 -133q0 -85 55 -133.5t160 -48.5z" />
    <glyph glyph-name="e" unicode="e" horiz-adv-x="803" 
d="M411 -11q-167 0 -261 76.5t-94 208.5q0 129 93.5 206t257.5 77q159 0 252 -73.5t93 -196.5q0 -22 -5 -47h-563q11 -74 68 -114t159 -40q178 0 212 93l125 -22q-28 -84 -109 -126t-228 -42zM408 462q-191 0 -221 -137h436q-11 66 -66 101.5t-149 35.5z" />
    <glyph glyph-name="f" unicode="f" horiz-adv-x="517" 
d="M15 546h119v12q0 203 243 203q67 0 132 -13l-4 -96q-51 10 -111 10q-70 0 -100.5 -24t-30.5 -80v-12h244v-98h-244v-448h-129v448h-119v98z" />
    <glyph glyph-name="g" unicode="g" horiz-adv-x="775" 
d="M375 557q151 0 232 -52q50 75 152 66l-6 -106q-57 9 -97 -9q20 -34 20 -74q0 -81 -79.5 -126t-221.5 -45q-74 0 -131 12q-56 -10 -56 -48q0 -48 87 -49l262 -6q214 -4 214 -142q0 -189 -380 -189q-345 0 -345 146q0 91 125 114q-40 11 -62 37t-22 61q0 76 95 104
q-89 45 -89 131q0 82 80 128.5t222 46.5zM546 382q0 44 -44.5 68t-126.5 24t-127 -24t-45 -68q0 -43 44.5 -65.5t127.5 -22.5q171 0 171 88zM159 -45q0 -42 52.5 -60.5t164.5 -18.5q247 0 247 89q0 57 -97 58l-265 2q-102 -5 -102 -70z" />
    <glyph glyph-name="h" unicode="h" horiz-adv-x="832" 
d="M98 0v750h130v-317q42 58 110 91t152 33q119 0 185 -62.5t66 -171.5v-323h-130v297q0 71 -42.5 112t-120.5 41q-98 0 -159 -52.5t-61 -139.5v-258h-130z" />
    <glyph glyph-name="i" unicode="i" 
d="M96 622v117h135v-117h-135zM99 0v546h129v-546h-129z" />
    <glyph glyph-name="j" unicode="j" 
d="M96 622v117h135v-117h-135zM98 -11v557h130v-550q0 -110 -48 -158.5t-152 -48.5q-39 0 -84 8l-4 98q37 -5 60 -5q52 0 75 23t23 76z" />
    <glyph glyph-name="k" unicode="k" horiz-adv-x="742" 
d="M98 0v750h129v-444l318 240h172l-327 -242l350 -304h-179l-264 234l-70 -55v-179h-129z" />
    <glyph glyph-name="l" unicode="l" 
d="M228 0h-130v750h130v-750z" />
    <glyph glyph-name="m" unicode="m" horiz-adv-x="1242" 
d="M98 0v546h117l9 -112q37 58 98.5 90.5t136.5 32.5q80 0 135.5 -34t78.5 -97q38 62 102 96.5t145 34.5q108 0 170 -62t62 -169v-326h-131v302q0 69 -37 108t-107 39q-85 0 -136 -51.5t-51 -137.5v-260h-130v304q0 68 -38 106.5t-108 38.5q-84 0 -135 -52t-51 -137v-260
h-130z" />
    <glyph glyph-name="n" unicode="n" horiz-adv-x="832" 
d="M98 0v546h116l10 -119q41 61 110.5 95.5t155.5 34.5q119 0 185 -62.5t66 -171.5v-323h-130v297q0 71 -42.5 112t-120.5 41q-98 0 -159 -52.5t-61 -139.5v-258h-130z" />
    <glyph glyph-name="o" unicode="o" horiz-adv-x="818" 
d="M409 -11q-167 0 -260 76t-93 208t93 208t260 76q168 0 261 -76t93 -208q0 -133 -93 -208.5t-261 -75.5zM409 90q110 0 165.5 47t55.5 136t-55.5 136t-165.5 47t-165 -47t-55 -136t55.5 -136t164.5 -47z" />
    <glyph glyph-name="p" unicode="p" horiz-adv-x="857" 
d="M492 -11q-85 0 -153.5 29.5t-110.5 82.5v-301h-130v746h117l8 -108q42 56 111 87.5t158 31.5q143 0 226 -77.5t83 -206.5t-82.5 -206.5t-226.5 -77.5zM452 91q105 0 160.5 48.5t55.5 133.5q0 84 -56 133t-160 49t-164 -50t-60 -133q0 -82 60 -131.5t164 -49.5z" />
    <glyph glyph-name="q" unicode="q" horiz-adv-x="857" 
d="M364 -11q-143 0 -225.5 77.5t-82.5 206.5t82.5 206.5t225.5 77.5q88 0 157.5 -31t111.5 -87l8 107h117v-746h-130v300q-90 -111 -264 -111zM404 91q104 0 164 49.5t60 131.5q0 83 -60 133t-164 50t-159.5 -49t-55.5 -133q0 -85 55 -133.5t160 -48.5z" />
    <glyph glyph-name="r" unicode="r" horiz-adv-x="546" 
d="M98 0v546h117l10 -140q43 69 115 109.5t157 40.5q20 0 26 -1l-4 -132q-21 6 -54 6q-104 0 -170 -55t-67 -156v-218h-130z" />
    <glyph glyph-name="s" unicode="s" horiz-adv-x="734" 
d="M359 465q-175 0 -175 -67q0 -31 28.5 -45.5t102.5 -20.5l134 -8q127 -11 182 -47.5t55 -109.5q0 -85 -81 -131.5t-237 -46.5q-150 0 -227.5 42.5t-99.5 134.5l124 18q19 -103 201 -103q193 0 193 72q0 34 -27.5 49t-98.5 21l-135 8q-125 10 -181.5 47.5t-56.5 109.5
q0 79 78.5 124t220.5 45t218.5 -40.5t95.5 -126.5l-121 -18q-10 48 -56 70.5t-137 22.5z" />
    <glyph glyph-name="t" unicode="t" horiz-adv-x="553" 
d="M127 193v255h-115v98h75q23 0 33.5 2.5t19 18.5t11.5 41t6 78h101v-140h253v-98h-253v-240q0 -65 29 -91t102 -26q62 0 130 14l-4 -100q-80 -16 -159 -16q-118 0 -173.5 47t-55.5 157z" />
    <glyph glyph-name="u" unicode="u" horiz-adv-x="813" 
d="M585 289v257h130v-546h-116l-10 116q-40 -60 -106.5 -93.5t-148.5 -33.5q-114 0 -180 60t-66 171v326h130v-305q0 -71 41 -107.5t113 -36.5q93 0 153.5 51t59.5 141z" />
    <glyph glyph-name="v" unicode="v" horiz-adv-x="704" 
d="M299 0l-290 546h144l203 -404l204 404h135l-289 -546h-107z" />
    <glyph glyph-name="w" unicode="w" horiz-adv-x="1060" 
d="M243 0l-230 546h135l159 -402l170 402h109l174 -400l158 400h129l-231 -546h-107l-178 413l-180 -413h-108z" />
    <glyph glyph-name="x" unicode="x" horiz-adv-x="720" 
d="M168 0h-154l262 282l-251 264h159l179 -189l181 189h151l-255 -266l266 -280h-160l-190 203z" />
    <glyph glyph-name="y" unicode="y" horiz-adv-x="700" 
d="M554 546h136l-286 -573q-53 -103 -106.5 -143.5t-141.5 -40.5q-50 0 -89 12l-5 98q32 -7 69 -7q61 0 94.5 24.5t69.5 96.5l-285 533h144l207 -409z" />
    <glyph glyph-name="z" unicode="z" horiz-adv-x="684" 
d="M49 0v97l419 352h-413v97h582v-97l-419 -352h421v-97h-590z" />
    <glyph glyph-name="braceleft" unicode="{" horiz-adv-x="480" 
d="M157 275q71 -13 103.5 -52.5t32.5 -115.5v-62q0 -56 19.5 -78t69.5 -22q37 0 74 5l5 -96q-43 -7 -94 -7q-101 0 -149 43t-48 136v90q0 58 -27 80.5t-113 31.5v93q86 9 113 32t27 81v89q0 94 48 137t149 43q41 0 94 -7l-5 -96q-37 5 -74 5q-49 0 -69 -22.5t-20 -77.5v-67
q0 -73 -32.5 -111.5t-103.5 -51.5z" />
    <glyph glyph-name="bar" unicode="|" horiz-adv-x="360" 
d="M245 -170h-129v930h129v-930z" />
    <glyph glyph-name="braceright" unicode="}" horiz-adv-x="480" 
d="M450 321v-93q-86 -9 -113 -31.5t-27 -80.5v-90q0 -93 -48 -136t-149 -43q-52 0 -94 7l4 96q38 -5 75 -5q49 0 68.5 22t19.5 78v62q0 75 32.5 115t104.5 53q-72 13 -104.5 51.5t-32.5 111.5v67q0 55 -19.5 77.5t-68.5 22.5q-37 0 -75 -5l-4 96q52 7 94 7q101 0 149 -43
t48 -137v-89q0 -58 27 -81t113 -32z" />
    <glyph glyph-name="asciitilde" unicode="~" horiz-adv-x="603" 
d="M184 343q-58 0 -128 -42v98q75 41 136 41q51 0 121.5 -32t104.5 -32q57 0 128 42v-98q-75 -41 -135 -41q-50 0 -120 32t-107 32z" />
    <glyph glyph-name="uni00A0" unicode="&#xa0;" horiz-adv-x="288" 
 />
    <glyph glyph-name="exclamdown" unicode="&#xa1;" horiz-adv-x="366" 
d="M252 546v-124h-139v124h139zM123 346h120l8 -499h-137z" />
    <glyph glyph-name="cent" unicode="&#xa2;" horiz-adv-x="776" 
d="M244 -80l28 85q-104 27 -160 96.5t-56 170.5q0 132 92.5 208.5t257.5 76.5q17 0 49 -2l21 65h76l-25 -75q176 -38 211 -187l-129 -24q-18 86 -115 112l-118 -356q10 -1 31 -1q179 0 205 125l128 -24q-22 -97 -108.5 -149t-224.5 -52q-33 0 -63 3l-24 -72h-76zM189 272
q0 -130 116 -168l117 352h-16q-107 0 -162 -47.5t-55 -136.5z" />
    <glyph glyph-name="sterling" unicode="&#xa3;" horiz-adv-x="822" 
d="M47 288v76h119q-45 78 -45 140q0 94 84.5 150.5t226.5 56.5q145 0 227.5 -48t108.5 -148l-147 -24q-24 115 -187 115q-85 0 -127.5 -28t-42.5 -78q0 -12 3 -25t5 -21.5t10 -24.5l10 -20t13.5 -23.5t12.5 -21.5h341v-76h-306q7 -28 7 -51q0 -42 -22 -77t-62 -56h494v-104
h-723v104h34q64 0 102.5 31.5t38.5 82.5q0 33 -15 70h-160z" />
    <glyph glyph-name="currency" unicode="&#xa4;" horiz-adv-x="560" 
d="M280 175q-54 0 -99 21l-87 -87l-66 67l84 83q-24 39 -24 91t24 90l-84 84l66 66l88 -88q43 20 98 20t97 -20l88 88l67 -66l-85 -85q24 -37 24 -89t-23 -90l84 -84l-67 -67l-87 87q-45 -21 -98 -21zM280 260q47 0 74 24.5t27 65.5t-27 64.5t-74 23.5t-74 -23.5t-27 -64.5
t27 -65.5t74 -24.5z" />
    <glyph glyph-name="yen" unicode="&#xa5;" horiz-adv-x="835" 
d="M68 219v72h271l-73 92h-207v72h150l-195 245h168l239 -308l240 308h161l-195 -245h147v-72h-204l-73 -92h267v-72h-279v-219h-137v219h-280z" />
    <glyph glyph-name="brokenbar" unicode="&#xa6;" horiz-adv-x="360" 
d="M245 355h-129v405h129v-405zM245 -170h-129v425h129v-425z" />
    <glyph glyph-name="section" unicode="&#xa7;" horiz-adv-x="845" 
d="M430 -211q-175 0 -269 52.5t-113 161.5l143 17q24 -132 243 -132q208 0 208 93q0 38 -34.5 58t-137.5 36l-154 19q-126 19 -179.5 60.5t-53.5 112.5q0 94 109 145q-115 44 -115 147q0 93 89.5 147.5t254.5 54.5q331 0 364 -201l-143 -17q-12 62 -65.5 90.5t-157.5 28.5
q-200 0 -200 -91q0 -32 31.5 -52t119.5 -34l169 -23q127 -21 181 -61.5t54 -113.5q0 -95 -97 -148q59 -24 83 -59t24 -87q0 -96 -91 -150t-263 -54zM532 176q27 -4 51 -9q58 39 58 91q0 42 -37 65.5t-127 37.5l-173 23q-14 2 -22 4q-66 -38 -66 -90q0 -42 36.5 -65
t129.5 -38z" />
    <glyph glyph-name="dieresis" unicode="&#xa8;" horiz-adv-x="500" 
d="M305 622v122h138v-122h-138zM56 622v122h138v-122h-138z" />
    <glyph glyph-name="copyright" unicode="&#xa9;" horiz-adv-x="1002" 
d="M501 -51q-208 0 -329.5 111t-121.5 289t122 290t329 112t328.5 -111.5t121.5 -289.5t-121.5 -289.5t-328.5 -111.5zM501 4q183 0 286 94.5t103 251.5t-103 251.5t-286 94.5q-184 0 -286.5 -95t-102.5 -252q0 -156 103 -250.5t286 -94.5zM710 406l-81 -12q-22 76 -121 76
q-61 0 -95.5 -32t-34.5 -87t34.5 -86.5t95.5 -31.5q106 0 123 78l80 -10q-14 -63 -67.5 -97t-135.5 -34q-98 0 -155.5 49t-57.5 132t58 132t155 49q167 0 202 -126z" />
    <glyph glyph-name="ordfeminine" unicode="&#xaa;" horiz-adv-x="507" 
d="M65 602q24 105 189 105q180 0 180 -127v-126q0 -21 22 -21q10 0 14 1l-3 -61q-15 -4 -42 -4q-76 0 -82 58q-51 -59 -155 -59q-66 0 -101.5 26t-35.5 70q0 43 33 67.5t109 30.5l148 10v8q0 64 -90 64q-85 0 -94 -52zM146 471q0 -41 64 -41q54 0 93 25t39 62v5l-145 -12
q-51 -4 -51 -39z" />
    <glyph glyph-name="guillemotleft" unicode="&#xab;" horiz-adv-x="815" 
d="M374 163v-129l-328 174v134l328 173v-125l-245 -114zM753 163v-129l-328 174v134l328 173v-125l-245 -114z" />
    <glyph glyph-name="logicalnot" unicode="&#xac;" horiz-adv-x="603" 
d="M56 401h490v-263h-107v168h-383v95z" />
    <glyph glyph-name="uni00AD" unicode="&#xad;" horiz-adv-x="0" 
 />
    <glyph glyph-name="registered" unicode="&#xae;" horiz-adv-x="962" 
d="M481 -11q-198 0 -314.5 101.5t-116.5 258.5q0 159 116.5 260.5t314.5 101.5q197 0 313.5 -101.5t116.5 -259.5t-116.5 -259.5t-313.5 -101.5zM481 43q174 0 271 84t97 223q0 138 -97 222t-271 84q-175 0 -272 -84t-97 -223t97.5 -222.5t271.5 -83.5zM314 175v352h234
q63 0 96.5 -28.5t33.5 -79.5q0 -43 -25 -70.5t-70 -35.5l116 -138h-89l-106 128h-117v-128h-73zM540 469h-153v-108h153q66 0 66 54t-66 54z" />
    <glyph glyph-name="macron" unicode="&#xaf;" horiz-adv-x="500" 
d="M54 629v88h392v-88h-392z" />
    <glyph glyph-name="degree" unicode="&#xb0;" horiz-adv-x="561" 
d="M281 710q94 0 149 -45.5t55 -119.5q0 -73 -55 -119t-149 -46t-149.5 46t-55.5 119q0 74 55 119.5t150 45.5zM281 463q47 0 73.5 22.5t26.5 59.5q0 38 -26.5 60t-73.5 22q-48 0 -74.5 -22t-26.5 -60q0 -37 26.5 -59.5t74.5 -22.5z" />
    <glyph glyph-name="plusminus" unicode="&#xb1;" horiz-adv-x="603" 
d="M546 346h-192v-163h-106v163h-192v95h192v162h106v-162h192v-95zM546 10h-490v95h490v-95z" />
    <glyph glyph-name="twosuperior" unicode="&#xb2;" horiz-adv-x="450" 
d="M34 524l215 97q42 22 55 37t13 35q0 52 -94 52q-96 0 -104 -64l-90 14q9 56 58.5 86.5t133.5 30.5q92 0 141 -30.5t49 -84.5q0 -41 -28 -70t-110 -63l-91 -39h231v-68h-379v67z" />
    <glyph glyph-name="threesuperior" unicode="&#xb3;" horiz-adv-x="452" 
d="M420 557q0 -49 -50 -77t-148 -28q-180 0 -197 101l88 13q9 -50 109 -50q103 0 103 47q0 40 -64 40h-105v62h106q59 0 59 39q0 44 -97 44t-108 -50l-86 13q10 48 59.5 74.5t133.5 26.5q92 0 141 -25.5t49 -72.5q0 -56 -65 -77q72 -18 72 -80z" />
    <glyph glyph-name="acute" unicode="&#xb4;" horiz-adv-x="500" 
d="M195 609l137 159h168l-195 -159h-110z" />
    <glyph glyph-name="paragraph" unicode="&#xb6;" horiz-adv-x="893" 
d="M464 -150h-132v456h-72q-95 0 -151.5 53t-56.5 141q0 91 56.5 145.5t151.5 54.5h204v-850zM778 -150h-132v850h132v-850z" />
    <glyph glyph-name="periodcentered" unicode="&#xb7;" horiz-adv-x="500" 
d="M178 285v134h143v-134h-143z" />
    <glyph glyph-name="cedilla" unicode="&#xb8;" horiz-adv-x="500" 
d="M456 -122q0 -91 -171 -91q-69 0 -143 15l4 60q73 -14 122 -14q82 0 82 31q0 26 -41 26q-27 0 -49 -13l-65 9l17 105h83l-9 -57q30 9 59 9q54 0 82.5 -21t28.5 -59z" />
    <glyph glyph-name="onesuperior" unicode="&#xb9;" horiz-adv-x="414" 
d="M34 457v70h140v207l-133 -22v69l149 26h76v-280h123v-70h-355z" />
    <glyph glyph-name="ordmasculine" unicode="&#xba;" horiz-adv-x="541" 
d="M270 368q-101 0 -156 46t-55 124t55 123.5t156 45.5q102 0 157 -45.5t55 -123.5t-55 -124t-157 -46zM270 435q56 0 85 27t29 76q0 48 -29 75t-85 27t-84.5 -27t-28.5 -75q0 -49 28.5 -76t84.5 -27z" />
    <glyph glyph-name="guillemotright" unicode="&#xbb;" horiz-adv-x="815" 
d="M389 208l-328 -174v125l246 115l-246 113v128l328 -173v-134zM768 208l-328 -174v125l246 115l-246 113v128l328 -173v-134z" />
    <glyph glyph-name="onequarter" unicode="&#xbc;" horiz-adv-x="1143" 
d="M34 350v70h140v207l-133 -22v69l149 26h76v-280h123v-70h-355zM315 0h-124l679 700h124zM1048 0h-86v64h-270v57l277 230h79v-223h70v-64h-70v-64zM790 128h172v144z" />
    <glyph glyph-name="onehalf" unicode="&#xbd;" horiz-adv-x="1161" 
d="M34 350v70h140v207l-133 -22v69l149 26h76v-280h123v-70h-355zM315 0h-124l679 700h124zM745 67l215 97q42 22 55 37t13 35q0 52 -94 52q-96 0 -104 -64l-90 14q9 56 58.5 86.5t133.5 30.5q92 0 141 -30.5t49 -84.5q0 -41 -28 -70t-110 -63l-91 -39h231v-68h-379v67z" />
    <glyph glyph-name="threequarters" unicode="&#xbe;" horiz-adv-x="1135" 
d="M420 450q0 -49 -50 -77t-148 -28q-180 0 -197 101l88 13q9 -50 109 -50q103 0 103 47q0 40 -64 40h-105v62h106q59 0 59 39q0 44 -97 44t-108 -50l-86 13q10 48 59.5 74.5t133.5 26.5q92 0 141 -25.5t49 -72.5q0 -56 -65 -77q72 -18 72 -80zM308 0h-124l679 700h124z
M1041 0h-86v64h-270v57l277 230h79v-223h70v-64h-70v-64zM783 128h172v144z" />
    <glyph glyph-name="questiondown" unicode="&#xbf;" horiz-adv-x="772" 
d="M472 546v-124h-139v124h139zM384 -56q198 0 214 144l135 -24q-14 -108 -106 -168t-243 -60q-158 0 -245 55.5t-87 145.5q0 56 28.5 94.5t69.5 59t82.5 39t71 47t31.5 69.5h135q-3 -60 -33 -102t-70.5 -63.5t-81 -38.5t-68.5 -41t-28 -58q0 -45 47.5 -72t147.5 -27z" />
    <glyph glyph-name="Agrave" unicode="&#xc0;" horiz-adv-x="916" 
d="M512 762h-110l-195 159h169zM756 0l-88 167h-426l-88 -167h-144l377 700h140l378 -700h-149zM297 272h315l-157 298z" />
    <glyph glyph-name="Aacute" unicode="&#xc1;" horiz-adv-x="916" 
d="M403 762l137 159h168l-195 -159h-110zM756 0l-88 167h-426l-88 -167h-144l377 700h140l378 -700h-149zM297 272h315l-157 298z" />
    <glyph glyph-name="Acircumflex" unicode="&#xc2;" horiz-adv-x="916" 
d="M580 762l-124 96l-123 -96h-100l149 159h153l148 -159h-103zM756 0l-88 167h-426l-88 -167h-144l377 700h140l378 -700h-149zM297 272h315l-157 298z" />
    <glyph glyph-name="Atilde" unicode="&#xc3;" horiz-adv-x="916" 
d="M653 918q18 -164 -99 -164q-28 0 -55 13.5t-45 29.5t-38.5 29.5t-37.5 13.5q-43 0 -33 -75h-84q-17 165 101 165q34 0 67.5 -22t60.5 -43.5t46 -21.5q43 0 32 75h85zM756 0l-88 167h-426l-88 -167h-144l377 700h140l378 -700h-149zM297 272h315l-157 298z" />
    <glyph glyph-name="Adieresis" unicode="&#xc4;" horiz-adv-x="916" 
d="M513 775v122h138v-122h-138zM264 775v122h138v-122h-138zM756 0l-88 167h-426l-88 -167h-144l377 700h140l378 -700h-149zM297 272h315l-157 298z" />
    <glyph glyph-name="Aring" unicode="&#xc5;" horiz-adv-x="916" 
d="M459 747q-68 0 -107.5 30t-39.5 82q0 50 39.5 80t107.5 30q67 0 105.5 -29.5t38.5 -80.5q0 -52 -38.5 -82t-105.5 -30zM459 803q76 0 76 56q0 53 -76 53q-78 0 -78 -53q0 -56 78 -56zM756 0l-88 167h-426l-88 -167h-144l377 700h140l378 -700h-149zM297 272h315l-157 298
z" />
    <glyph glyph-name="AE" unicode="&#xc6;" horiz-adv-x="1398" 
d="M700 0v173h-413l-134 -173h-153l539 700h795v-106h-499v-184h444v-104h-444v-200h507v-106h-642zM367 276h333v318h-86z" />
    <glyph glyph-name="Ccedilla" unicode="&#xc7;" horiz-adv-x="945" 
d="M59 350q0 165 116.5 263t315.5 98q168 0 271 -61.5t134 -178.5l-142 -28q-42 159 -263 159q-141 0 -216.5 -66t-75.5 -186q0 -121 75 -186.5t217 -65.5q233 0 266 164l140 -27q-27 -117 -127 -180t-263 -66l-6 -40q30 9 59 9q54 0 82.5 -21t28.5 -59q0 -91 -171 -91
q-70 0 -143 15l4 60q73 -14 122 -14q82 0 82 31q0 26 -41 26q-27 0 -49 -13l-65 9l15 91q-174 16 -270 110.5t-96 247.5z" />
    <glyph glyph-name="Egrave" unicode="&#xc8;" horiz-adv-x="840" 
d="M502 762h-110l-195 159h169zM116 0v700h661v-106h-527v-184h471v-105h-471v-199h534v-106h-668z" />
    <glyph glyph-name="Eacute" unicode="&#xc9;" horiz-adv-x="840" 
d="M376 762l137 159h168l-195 -159h-110zM116 0v700h661v-106h-527v-184h471v-105h-471v-199h534v-106h-668z" />
    <glyph glyph-name="Ecircumflex" unicode="&#xca;" horiz-adv-x="840" 
d="M567 762l-124 96l-123 -96h-100l149 159h153l148 -159h-103zM116 0v700h661v-106h-527v-184h471v-105h-471v-199h534v-106h-668z" />
    <glyph glyph-name="Edieresis" unicode="&#xcb;" horiz-adv-x="840" 
d="M501 775v122h138v-122h-138zM252 775v122h138v-122h-138zM116 0v700h661v-106h-527v-184h471v-105h-471v-199h534v-106h-668z" />
    <glyph glyph-name="Igrave" unicode="&#xcc;" horiz-adv-x="369" 
d="M239 762h-110l-195 159h169zM116 0v700h137v-700h-137z" />
    <glyph glyph-name="Iacute" unicode="&#xcd;" horiz-adv-x="369" 
d="M130 762l137 159h168l-195 -159h-110zM116 0v700h137v-700h-137z" />
    <glyph glyph-name="Icircumflex" unicode="&#xce;" horiz-adv-x="369" 
d="M307 762l-124 96l-123 -96h-100l149 159h153l148 -159h-103zM116 0v700h137v-700h-137z" />
    <glyph glyph-name="Idieresis" unicode="&#xcf;" horiz-adv-x="369" 
d="M240 775v122h138v-122h-138zM-9 775v122h138v-122h-138zM116 0v700h137v-700h-137z" />
    <glyph glyph-name="Eth" unicode="&#xd0;" horiz-adv-x="990" 
d="M127 0v309h-118v84h118v307h400q191 0 295 -93t104 -258t-104 -257t-295 -92h-400zM532 109q124 0 188.5 62.5t64.5 177.5q0 116 -64.5 179t-188.5 63h-268v-198h208v-84h-208v-200h268z" />
    <glyph glyph-name="Ntilde" unicode="&#xd1;" horiz-adv-x="1007" 
d="M701 918q18 -164 -99 -164q-28 0 -55 13.5t-45 29.5t-38.5 29.5t-37.5 13.5q-43 0 -33 -75h-84q-17 165 101 165q34 0 67.5 -22t60.5 -43.5t46 -21.5q43 0 32 75h85zM116 0v700h135l514 -549v549h126v-700h-135l-514 547v-547h-126z" />
    <glyph glyph-name="Ograve" unicode="&#xd2;" horiz-adv-x="995" 
d="M551 762h-110l-195 159h169zM497 -11q-205 0 -321.5 97t-116.5 263q0 167 116 264.5t322 97.5q207 0 323 -97.5t116 -264.5q0 -166 -116 -263t-323 -97zM497 98q147 0 223 66t76 185q0 121 -76 187t-223 66q-146 0 -222 -66t-76 -187q0 -120 76 -185.5t222 -65.5z" />
    <glyph glyph-name="Oacute" unicode="&#xd3;" horiz-adv-x="995" 
d="M442 762l137 159h168l-195 -159h-110zM497 -11q-205 0 -321.5 97t-116.5 263q0 167 116 264.5t322 97.5q207 0 323 -97.5t116 -264.5q0 -166 -116 -263t-323 -97zM497 98q147 0 223 66t76 185q0 121 -76 187t-223 66q-146 0 -222 -66t-76 -187q0 -120 76 -185.5
t222 -65.5z" />
    <glyph glyph-name="Ocircumflex" unicode="&#xd4;" horiz-adv-x="995" 
d="M619 762l-124 96l-123 -96h-100l149 159h153l148 -159h-103zM497 -11q-205 0 -321.5 97t-116.5 263q0 167 116 264.5t322 97.5q207 0 323 -97.5t116 -264.5q0 -166 -116 -263t-323 -97zM497 98q147 0 223 66t76 185q0 121 -76 187t-223 66q-146 0 -222 -66t-76 -187
q0 -120 76 -185.5t222 -65.5z" />
    <glyph glyph-name="Otilde" unicode="&#xd5;" horiz-adv-x="995" 
d="M692 918q18 -164 -99 -164q-28 0 -55 13.5t-45 29.5t-38.5 29.5t-37.5 13.5q-43 0 -33 -75h-84q-16 165 101 165q34 0 67.5 -22t60.5 -43.5t46 -21.5q43 0 32 75h85zM497 -11q-205 0 -321.5 97t-116.5 263q0 167 116 264.5t322 97.5q207 0 323 -97.5t116 -264.5
q0 -166 -116 -263t-323 -97zM497 98q147 0 223 66t76 185q0 121 -76 187t-223 66q-146 0 -222 -66t-76 -187q0 -120 76 -185.5t222 -65.5z" />
    <glyph glyph-name="Odieresis" unicode="&#xd6;" horiz-adv-x="995" 
d="M552 775v122h138v-122h-138zM303 775v122h138v-122h-138zM497 -11q-205 0 -321.5 97t-116.5 263q0 167 116 264.5t322 97.5q207 0 323 -97.5t116 -264.5q0 -166 -116 -263t-323 -97zM497 98q147 0 223 66t76 185q0 121 -76 187t-223 66q-146 0 -222 -66t-76 -187
q0 -120 76 -185.5t222 -65.5z" />
    <glyph glyph-name="multiply" unicode="&#xd7;" horiz-adv-x="603" 
d="M463 147l-162 144l-162 -144l-66 70l156 138l-155 138l66 70l161 -143l162 144l66 -70l-156 -139l155 -138z" />
    <glyph glyph-name="Oslash" unicode="&#xd8;" horiz-adv-x="995" 
d="M90 0l85 86q-116 96 -116 263t116 264.5t322 97.5q146 0 250 -51l40 40h120l-87 -87q116 -96 116 -264q0 -166 -116 -263t-323 -97q-143 0 -248 50l-39 -39h-120zM199 349q0 -109 64 -175l397 399q-67 29 -163 29q-146 0 -222 -66t-76 -187zM497 98q147 0 223 65.5
t76 185.5q0 112 -64 175l-396 -398q67 -28 161 -28z" />
    <glyph glyph-name="Ugrave" unicode="&#xd9;" horiz-adv-x="955" 
d="M534 762h-110l-195 159h169zM858 307q0 -152 -100 -235t-281 -83q-180 0 -280 83t-100 235v393h137v-392q0 -103 62.5 -156.5t180.5 -53.5q119 0 181.5 53.5t62.5 156.5v392h137v-393z" />
    <glyph glyph-name="Uacute" unicode="&#xda;" horiz-adv-x="955" 
d="M422 762l137 159h168l-195 -159h-110zM858 307q0 -152 -100 -235t-281 -83q-180 0 -280 83t-100 235v393h137v-392q0 -103 62.5 -156.5t180.5 -53.5q119 0 181.5 53.5t62.5 156.5v392h137v-393z" />
    <glyph glyph-name="Ucircumflex" unicode="&#xdb;" horiz-adv-x="955" 
d="M599 762l-124 96l-123 -96h-100l149 159h153l148 -159h-103zM858 307q0 -152 -100 -235t-281 -83q-180 0 -280 83t-100 235v393h137v-392q0 -103 62.5 -156.5t180.5 -53.5q119 0 181.5 53.5t62.5 156.5v392h137v-393z" />
    <glyph glyph-name="Udieresis" unicode="&#xdc;" horiz-adv-x="955" 
d="M532 775v122h138v-122h-138zM283 775v122h138v-122h-138zM858 307q0 -152 -100 -235t-281 -83q-180 0 -280 83t-100 235v393h137v-392q0 -103 62.5 -156.5t180.5 -53.5q119 0 181.5 53.5t62.5 156.5v392h137v-393z" />
    <glyph glyph-name="Yacute" unicode="&#xdd;" horiz-adv-x="819" 
d="M355 762l137 159h168l-195 -159h-110zM340 0v279l-334 421h168l238 -307l241 307h161l-337 -424v-276h-137z" />
    <glyph glyph-name="Thorn" unicode="&#xde;" horiz-adv-x="880" 
d="M116 0v700h137v-103h308q127 0 200 -65.5t73 -178.5q0 -112 -74.5 -177t-203.5 -65h-303v-111h-137zM536 489h-283v-270h283q77 0 118 34.5t41 98.5q0 66 -41 101.5t-118 35.5z" />
    <glyph glyph-name="germandbls" unicode="&#xdf;" horiz-adv-x="903" 
d="M89 0v486q0 128 101.5 201.5t272.5 73.5q148 0 225.5 -53t77.5 -144q0 -52 -29 -92t-85 -61q99 -15 149.5 -65t50.5 -129q0 -107 -90 -167.5t-252 -60.5q-120 0 -212 34l25 100q79 -32 175 -32q221 0 221 128q0 123 -193 123h-173v102h128q79 0 119.5 28t40.5 80
q0 109 -180 109q-115 0 -179 -42.5t-64 -124.5v-494h-129z" />
    <glyph glyph-name="agrave" unicode="&#xe0;" horiz-adv-x="760" 
d="M440 609h-110l-195 159h169zM57 384q42 173 311 173q156 0 228 -51t72 -159v-215q0 -46 42 -46q8 0 22 2l-3 -88q-30 -9 -62 -9q-116 0 -119 111q-44 -53 -118.5 -83t-164.5 -30q-109 0 -169.5 42.5t-60.5 118.5t57.5 117t180.5 50l273 19v1q0 66 -42.5 95.5t-137.5 29.5
q-168 0 -183 -98zM161 157q0 -74 127 -74q108 0 184 44.5t76 111.5v15l-273 -20q-114 -9 -114 -77z" />
    <glyph glyph-name="aacute" unicode="&#xe1;" horiz-adv-x="760" 
d="M331 609l137 159h168l-195 -159h-110zM57 384q42 173 311 173q156 0 228 -51t72 -159v-215q0 -46 42 -46q8 0 22 2l-3 -88q-30 -9 -62 -9q-116 0 -119 111q-44 -53 -118.5 -83t-164.5 -30q-109 0 -169.5 42.5t-60.5 118.5t57.5 117t180.5 50l273 19v1q0 66 -42.5 95.5
t-137.5 29.5q-168 0 -183 -98zM161 157q0 -74 127 -74q108 0 184 44.5t76 111.5v15l-273 -20q-114 -9 -114 -77z" />
    <glyph glyph-name="acircumflex" unicode="&#xe2;" horiz-adv-x="760" 
d="M508 609l-124 96l-123 -96h-100l149 159h153l148 -159h-103zM57 384q42 173 311 173q156 0 228 -51t72 -159v-215q0 -46 42 -46q8 0 22 2l-3 -88q-30 -9 -62 -9q-116 0 -119 111q-44 -53 -118.5 -83t-164.5 -30q-109 0 -169.5 42.5t-60.5 118.5t57.5 117t180.5 50l273 19
v1q0 66 -42.5 95.5t-137.5 29.5q-168 0 -183 -98zM161 157q0 -74 127 -74q108 0 184 44.5t76 111.5v15l-273 -20q-114 -9 -114 -77z" />
    <glyph glyph-name="atilde" unicode="&#xe3;" horiz-adv-x="760" 
d="M581 765q18 -164 -99 -164q-28 0 -55 13.5t-45 29.5t-38.5 29.5t-37.5 13.5q-43 0 -33 -75h-84q-17 165 101 165q27 0 54 -13.5t45 -30t38.5 -30t36.5 -13.5q43 0 32 75h85zM57 384q42 173 311 173q156 0 228 -51t72 -159v-215q0 -46 42 -46q8 0 22 2l-3 -88
q-30 -9 -62 -9q-116 0 -119 111q-44 -53 -118.5 -83t-164.5 -30q-109 0 -169.5 42.5t-60.5 118.5t57.5 117t180.5 50l273 19v1q0 66 -42.5 95.5t-137.5 29.5q-168 0 -183 -98zM161 157q0 -74 127 -74q108 0 184 44.5t76 111.5v15l-273 -20q-114 -9 -114 -77z" />
    <glyph glyph-name="adieresis" unicode="&#xe4;" horiz-adv-x="760" 
d="M441 622v122h138v-122h-138zM192 622v122h138v-122h-138zM57 384q42 173 311 173q156 0 228 -51t72 -159v-215q0 -46 42 -46q8 0 22 2l-3 -88q-30 -9 -62 -9q-116 0 -119 111q-44 -53 -118.5 -83t-164.5 -30q-109 0 -169.5 42.5t-60.5 118.5t57.5 117t180.5 50l273 19v1
q0 66 -42.5 95.5t-137.5 29.5q-168 0 -183 -98zM161 157q0 -74 127 -74q108 0 184 44.5t76 111.5v15l-273 -20q-114 -9 -114 -77z" />
    <glyph glyph-name="aring" unicode="&#xe5;" horiz-adv-x="760" 
d="M387 594q-68 0 -107.5 30t-39.5 82q0 50 39.5 80t107.5 30q67 0 105.5 -29.5t38.5 -80.5q0 -52 -38.5 -82t-105.5 -30zM387 650q76 0 76 56q0 53 -76 53q-78 0 -78 -53q0 -56 78 -56zM57 384q42 173 311 173q156 0 228 -51t72 -159v-215q0 -46 42 -46q8 0 22 2l-3 -88
q-30 -9 -62 -9q-116 0 -119 111q-44 -53 -118.5 -83t-164.5 -30q-109 0 -169.5 42.5t-60.5 118.5t57.5 117t180.5 50l273 19v1q0 66 -42.5 95.5t-137.5 29.5q-168 0 -183 -98zM161 157q0 -74 127 -74q108 0 184 44.5t76 111.5v15l-273 -20q-114 -9 -114 -77z" />
    <glyph glyph-name="ae" unicode="&#xe6;" horiz-adv-x="1266" 
d="M293 -11q-132 0 -195 42.5t-63 118.5t57.5 117t180.5 50l273 19q-2 66 -43 96t-135 30q-168 0 -184 -98l-126 20q43 173 312 173q185 0 253 -93q83 93 261 93q153 0 242 -74t89 -196q0 -27 -4 -47h-540q21 -154 217 -154q166 0 198 93l126 -22q-56 -168 -324 -168
q-198 0 -287 119q-96 -119 -308 -119zM884 462q-182 0 -210 -137h412q-12 66 -65.5 101.5t-136.5 35.5zM161 157q0 -74 135 -74q114 0 184 44.5t68 112.5v14l-273 -20q-114 -9 -114 -77z" />
    <glyph glyph-name="ccedilla" unicode="&#xe7;" horiz-adv-x="778" 
d="M738 358l-129 -24q-26 122 -203 122q-107 0 -162 -47.5t-55 -136.5q0 -87 55.5 -134.5t162.5 -47.5q179 0 205 124l128 -24q-22 -96 -106 -147.5t-218 -53.5l-6 -40q30 9 59 9q54 0 82.5 -21t28.5 -59q0 -91 -171 -91q-70 0 -143 15l4 60q73 -14 122 -14q82 0 82 31
q0 26 -41 26q-27 0 -49 -13l-65 9l15 92q-132 16 -205 89.5t-73 189.5q0 132 92.5 208.5t257.5 76.5q138 0 224 -51t108 -148z" />
    <glyph glyph-name="egrave" unicode="&#xe8;" horiz-adv-x="803" 
d="M456 609h-110l-195 159h169zM411 -11q-167 0 -261 76.5t-94 208.5q0 129 93.5 206t257.5 77q159 0 252 -73.5t93 -196.5q0 -22 -5 -47h-563q11 -74 68 -114t159 -40q178 0 212 93l125 -22q-28 -84 -109 -126t-228 -42zM408 462q-191 0 -221 -137h436q-11 66 -66 101.5
t-149 35.5z" />
    <glyph glyph-name="eacute" unicode="&#xe9;" horiz-adv-x="803" 
d="M347 609l137 159h168l-195 -159h-110zM411 -11q-167 0 -261 76.5t-94 208.5q0 129 93.5 206t257.5 77q159 0 252 -73.5t93 -196.5q0 -22 -5 -47h-563q11 -74 68 -114t159 -40q178 0 212 93l125 -22q-28 -84 -109 -126t-228 -42zM408 462q-191 0 -221 -137h436
q-11 66 -66 101.5t-149 35.5z" />
    <glyph glyph-name="ecircumflex" unicode="&#xea;" horiz-adv-x="803" 
d="M524 609l-124 96l-123 -96h-100l149 159h153l148 -159h-103zM411 -11q-167 0 -261 76.5t-94 208.5q0 129 93.5 206t257.5 77q159 0 252 -73.5t93 -196.5q0 -22 -5 -47h-563q11 -74 68 -114t159 -40q178 0 212 93l125 -22q-28 -84 -109 -126t-228 -42zM408 462
q-191 0 -221 -137h436q-11 66 -66 101.5t-149 35.5z" />
    <glyph glyph-name="edieresis" unicode="&#xeb;" horiz-adv-x="803" 
d="M457 622v122h138v-122h-138zM208 622v122h138v-122h-138zM411 -11q-167 0 -261 76.5t-94 208.5q0 129 93.5 206t257.5 77q159 0 252 -73.5t93 -196.5q0 -22 -5 -47h-563q11 -74 68 -114t159 -40q178 0 212 93l125 -22q-28 -84 -109 -126t-228 -42zM408 462
q-191 0 -221 -137h436q-11 66 -66 101.5t-149 35.5z" />
    <glyph glyph-name="igrave" unicode="&#xec;" 
d="M218 609h-110l-195 159h169zM98 0v546h130v-546h-130z" />
    <glyph glyph-name="iacute" unicode="&#xed;" 
d="M109 609l137 159h168l-195 -159h-110zM98 0v546h130v-546h-130z" />
    <glyph glyph-name="icircumflex" unicode="&#xee;" 
d="M286 609l-124 96l-123 -96h-100l149 159h153l148 -159h-103zM98 0v546h130v-546h-130z" />
    <glyph glyph-name="idieresis" unicode="&#xef;" 
d="M219 622v122h138v-122h-138zM-30 622v122h138v-122h-138zM98 0v546h130v-546h-130z" />
    <glyph glyph-name="eth" unicode="&#xf0;" horiz-adv-x="817" 
d="M401 -11q-163 0 -253 67t-90 182q0 113 85 179.5t239 66.5q156 0 234 -81q-25 92 -124 187l-174 -53v77l108 32q-47 38 -123 91l146 23q47 -33 98 -77l161 48v-76l-100 -30q80 -84 114 -168t34 -178q0 -136 -90 -213t-265 -77zM405 89q107 0 160 39t53 110t-53.5 109.5
t-159.5 38.5q-108 0 -161.5 -38.5t-53.5 -110.5q0 -71 54 -109.5t161 -38.5z" />
    <glyph glyph-name="ntilde" unicode="&#xf1;" horiz-adv-x="832" 
d="M611 765q18 -164 -99 -164q-28 0 -55 13.5t-45 29.5t-38.5 29.5t-37.5 13.5q-43 0 -33 -75h-84q-17 165 101 165q27 0 54 -13.5t45 -30t38.5 -30t36.5 -13.5q43 0 32 75h85zM98 0v546h116l10 -119q41 61 110.5 95.5t155.5 34.5q119 0 185 -62.5t66 -171.5v-323h-130v297
q0 71 -42.5 112t-120.5 41q-98 0 -159 -52.5t-61 -139.5v-258h-130z" />
    <glyph glyph-name="ograve" unicode="&#xf2;" horiz-adv-x="818" 
d="M463 609h-110l-195 159h169zM409 -11q-167 0 -260 76t-93 208t93 208t260 76q168 0 261 -76t93 -208q0 -133 -93 -208.5t-261 -75.5zM409 90q110 0 165.5 47t55.5 136t-55.5 136t-165.5 47t-165 -47t-55 -136t55.5 -136t164.5 -47z" />
    <glyph glyph-name="oacute" unicode="&#xf3;" horiz-adv-x="818" 
d="M354 609l137 159h168l-195 -159h-110zM409 -11q-167 0 -260 76t-93 208t93 208t260 76q168 0 261 -76t93 -208q0 -133 -93 -208.5t-261 -75.5zM409 90q110 0 165.5 47t55.5 136t-55.5 136t-165.5 47t-165 -47t-55 -136t55.5 -136t164.5 -47z" />
    <glyph glyph-name="ocircumflex" unicode="&#xf4;" horiz-adv-x="818" 
d="M531 609l-124 96l-123 -96h-100l149 159h153l148 -159h-103zM409 -11q-167 0 -260 76t-93 208t93 208t260 76q168 0 261 -76t93 -208q0 -133 -93 -208.5t-261 -75.5zM409 90q110 0 165.5 47t55.5 136t-55.5 136t-165.5 47t-165 -47t-55 -136t55.5 -136t164.5 -47z" />
    <glyph glyph-name="otilde" unicode="&#xf5;" horiz-adv-x="818" 
d="M604 765q18 -164 -99 -164q-28 0 -55 13.5t-45 29.5t-38.5 29.5t-37.5 13.5q-43 0 -33 -75h-84q-16 165 101 165q27 0 54 -13.5t45 -30t38.5 -30t36.5 -13.5q43 0 32 75h85zM409 -11q-167 0 -260 76t-93 208t93 208t260 76q168 0 261 -76t93 -208q0 -133 -93 -208.5
t-261 -75.5zM409 90q110 0 165.5 47t55.5 136t-55.5 136t-165.5 47t-165 -47t-55 -136t55.5 -136t164.5 -47z" />
    <glyph glyph-name="odieresis" unicode="&#xf6;" horiz-adv-x="818" 
d="M464 622v122h138v-122h-138zM215 622v122h138v-122h-138zM409 -11q-167 0 -260 76t-93 208t93 208t260 76q168 0 261 -76t93 -208q0 -133 -93 -208.5t-261 -75.5zM409 90q110 0 165.5 47t55.5 136t-55.5 136t-165.5 47t-165 -47t-55 -136t55.5 -136t164.5 -47z" />
    <glyph glyph-name="divide" unicode="&#xf7;" horiz-adv-x="603" 
d="M235 494v116h132v-116h-132zM546 306h-490v95h490v-95zM235 97v116h132v-116h-132z" />
    <glyph glyph-name="oslash" unicode="&#xf8;" horiz-adv-x="818" 
d="M61 0l79 73q-84 75 -84 200q0 132 93 208t260 76q122 0 208 -42l34 31h106l-78 -72q84 -75 84 -201q0 -133 -93 -208.5t-261 -75.5q-124 0 -208 43l-34 -32h-106zM187 273q0 -75 39 -120l307 283q-48 22 -124 22q-110 0 -166 -47.5t-56 -137.5zM409 88q111 0 167 47.5
t56 137.5q0 74 -39 121l-308 -284q48 -22 124 -22z" />
    <glyph glyph-name="ugrave" unicode="&#xf9;" horiz-adv-x="813" 
d="M460 609h-110l-195 159h169zM585 289v257h130v-546h-116l-10 116q-40 -60 -106.5 -93.5t-148.5 -33.5q-114 0 -180 60t-66 171v326h130v-305q0 -71 41 -107.5t113 -36.5q93 0 153.5 51t59.5 141z" />
    <glyph glyph-name="uacute" unicode="&#xfa;" horiz-adv-x="813" 
d="M351 609l137 159h168l-195 -159h-110zM585 289v257h130v-546h-116l-10 116q-40 -60 -106.5 -93.5t-148.5 -33.5q-114 0 -180 60t-66 171v326h130v-305q0 -71 41 -107.5t113 -36.5q93 0 153.5 51t59.5 141z" />
    <glyph glyph-name="ucircumflex" unicode="&#xfb;" horiz-adv-x="813" 
d="M528 609l-124 96l-123 -96h-100l149 159h153l148 -159h-103zM585 289v257h130v-546h-116l-10 116q-40 -60 -106.5 -93.5t-148.5 -33.5q-114 0 -180 60t-66 171v326h130v-305q0 -71 41 -107.5t113 -36.5q93 0 153.5 51t59.5 141z" />
    <glyph glyph-name="udieresis" unicode="&#xfc;" horiz-adv-x="813" 
d="M461 622v122h138v-122h-138zM212 622v122h138v-122h-138zM585 289v257h130v-546h-116l-10 116q-40 -60 -106.5 -93.5t-148.5 -33.5q-114 0 -180 60t-66 171v326h130v-305q0 -71 41 -107.5t113 -36.5q93 0 153.5 51t59.5 141z" />
    <glyph glyph-name="yacute" unicode="&#xfd;" horiz-adv-x="700" 
d="M295 609l137 159h168l-195 -159h-110zM554 546h136l-286 -573q-53 -103 -106.5 -143.5t-141.5 -40.5q-50 0 -89 12l-5 98q32 -7 69 -7q61 0 94.5 24.5t69.5 96.5l-285 533h144l207 -409z" />
    <glyph glyph-name="thorn" unicode="&#xfe;" horiz-adv-x="857" 
d="M492 -11q-175 0 -264 113v-302h-130v950h130v-307q88 114 264 114q143 0 226 -77.5t83 -206.5t-82.5 -206.5t-226.5 -77.5zM452 91q105 0 160.5 48.5t55.5 133.5q0 84 -56 133t-160 49t-164 -50t-60 -133q0 -82 60 -131.5t164 -49.5z" />
    <glyph glyph-name="ydieresis" unicode="&#xff;" horiz-adv-x="700" 
d="M405 622v122h138v-122h-138zM156 622v122h138v-122h-138zM554 546h136l-286 -573q-53 -103 -106.5 -143.5t-141.5 -40.5q-50 0 -89 12l-5 98q32 -7 69 -7q61 0 94.5 24.5t69.5 96.5l-285 533h144l207 -409z" />
    <glyph glyph-name="Amacron" unicode="&#x100;" horiz-adv-x="916" 
d="M262 782v88h392v-88h-392zM756 0l-88 167h-426l-88 -167h-144l377 700h140l378 -700h-149zM297 272h315l-157 298z" />
    <glyph glyph-name="amacron" unicode="&#x101;" horiz-adv-x="760" 
d="M190 629v88h392v-88h-392zM57 384q42 173 311 173q156 0 228 -51t72 -159v-215q0 -46 42 -46q8 0 22 2l-3 -88q-30 -9 -62 -9q-116 0 -119 111q-44 -53 -118.5 -83t-164.5 -30q-109 0 -169.5 42.5t-60.5 118.5t57.5 117t180.5 50l273 19v1q0 66 -42.5 95.5t-137.5 29.5
q-168 0 -183 -98zM161 157q0 -74 127 -74q108 0 184 44.5t76 111.5v15l-273 -20q-114 -9 -114 -77z" />
    <glyph glyph-name="Abreve" unicode="&#x102;" horiz-adv-x="916" 
d="M550 915h99q0 -156 -191 -156q-192 0 -192 156h99q0 -83 93 -83q92 0 92 83zM756 0l-88 167h-426l-88 -167h-144l377 700h140l378 -700h-149zM297 272h315l-157 298z" />
    <glyph glyph-name="abreve" unicode="&#x103;" horiz-adv-x="760" 
d="M478 762h99q0 -156 -191 -156q-192 0 -192 156h99q0 -83 93 -83q92 0 92 83zM57 384q42 173 311 173q156 0 228 -51t72 -159v-215q0 -46 42 -46q8 0 22 2l-3 -88q-30 -9 -62 -9q-116 0 -119 111q-44 -53 -118.5 -83t-164.5 -30q-109 0 -169.5 42.5t-60.5 118.5t57.5 117
t180.5 50l273 19v1q0 66 -42.5 95.5t-137.5 29.5q-168 0 -183 -98zM161 157q0 -74 127 -74q108 0 184 44.5t76 111.5v15l-273 -20q-114 -9 -114 -77z" />
    <glyph glyph-name="Aogonek" unicode="&#x104;" horiz-adv-x="916" 
d="M651 -114q0 79 101 121l-86 162h-423l-89 -169h-144l377 700h140l378 -700q-149 -28 -149 -82q0 -37 60 -37q41 0 92 15l-4 -93q-48 -17 -111 -17q-68 0 -105 26t-37 74zM297 272h315l-157 298z" />
    <glyph glyph-name="aogonek" unicode="&#x105;" horiz-adv-x="760" 
d="M727 -197q-48 -17 -109 -17q-70 0 -107 26t-37 75q0 82 116 123q-42 28 -42 95q-44 -55 -118 -85.5t-165 -30.5q-109 0 -169.5 42.5t-60.5 118.5t57.5 116.5t180.5 49.5l273 19v2q0 66 -42 95.5t-136 29.5q-170 0 -185 -98l-126 20q42 173 313 173q155 0 226.5 -51
t71.5 -159v-215q0 -46 42 -46q8 0 22 2l-3 -88q-103 -34 -123 -45q-27 -16 -27 -37q0 -37 61 -37q42 0 91 15zM161 157q0 -74 127 -74q108 0 184 44.5t76 111.5v15l-273 -20q-114 -10 -114 -77z" />
    <glyph glyph-name="Cacute" unicode="&#x106;" horiz-adv-x="945" 
d="M424 762l137 159h168l-195 -159h-110zM59 350q0 165 116.5 263t315.5 98q168 0 271 -61.5t134 -178.5l-142 -28q-42 159 -263 159q-141 0 -216.5 -66t-75.5 -186q0 -121 75 -186.5t217 -65.5q233 0 266 164l140 -27q-28 -120 -132 -183t-274 -63q-204 0 -318 97t-114 264
z" />
    <glyph glyph-name="cacute" unicode="&#x107;" horiz-adv-x="778" 
d="M334 609l137 159h168l-195 -159h-110zM738 358l-129 -24q-26 122 -203 122q-107 0 -162 -47.5t-55 -136.5q0 -87 55.5 -134.5t162.5 -47.5q179 0 205 124l128 -24q-22 -97 -108.5 -149t-224.5 -52q-165 0 -258 76t-93 207q0 132 92.5 208.5t257.5 76.5q138 0 224 -51
t108 -148z" />
    <glyph glyph-name="Ccircumflex" unicode="&#x108;" horiz-adv-x="945" 
d="M603 762l-124 96l-123 -96h-100l149 159h153l148 -159h-103zM59 350q0 165 116.5 263t315.5 98q168 0 271 -61.5t134 -178.5l-142 -28q-42 159 -263 159q-141 0 -216.5 -66t-75.5 -186q0 -121 75 -186.5t217 -65.5q233 0 266 164l140 -27q-28 -120 -132 -183t-274 -63
q-204 0 -318 97t-114 264z" />
    <glyph glyph-name="ccircumflex" unicode="&#x109;" horiz-adv-x="778" 
d="M514 609l-124 96l-123 -96h-100l149 159h153l148 -159h-103zM738 358l-129 -24q-26 122 -203 122q-107 0 -162 -47.5t-55 -136.5q0 -87 55.5 -134.5t162.5 -47.5q179 0 205 124l128 -24q-22 -97 -108.5 -149t-224.5 -52q-165 0 -258 76t-93 207q0 132 92.5 208.5
t257.5 76.5q138 0 224 -51t108 -148z" />
    <glyph glyph-name="Cdotaccent" unicode="&#x10a;" horiz-adv-x="945" 
d="M413 775v129h135v-129h-135zM59 350q0 165 116.5 263t315.5 98q168 0 271 -61.5t134 -178.5l-142 -28q-42 159 -263 159q-141 0 -216.5 -66t-75.5 -186q0 -121 75 -186.5t217 -65.5q233 0 266 164l140 -27q-28 -120 -132 -183t-274 -63q-204 0 -318 97t-114 264z" />
    <glyph glyph-name="cdotaccent" unicode="&#x10b;" horiz-adv-x="778" 
d="M326 622v129h135v-129h-135zM738 358l-129 -24q-26 122 -203 122q-107 0 -162 -47.5t-55 -136.5q0 -87 55.5 -134.5t162.5 -47.5q179 0 205 124l128 -24q-22 -97 -108.5 -149t-224.5 -52q-165 0 -258 76t-93 207q0 132 92.5 208.5t257.5 76.5q138 0 224 -51t108 -148z
" />
    <glyph glyph-name="Ccaron" unicode="&#x10c;" horiz-adv-x="945" 
d="M706 921l-150 -159h-153l-147 159h103l124 -96l122 96h101zM59 350q0 165 116.5 263t315.5 98q168 0 271 -61.5t134 -178.5l-142 -28q-42 159 -263 159q-141 0 -216.5 -66t-75.5 -186q0 -121 75 -186.5t217 -65.5q233 0 266 164l140 -27q-28 -120 -132 -183t-274 -63
q-204 0 -318 97t-114 264z" />
    <glyph glyph-name="ccaron" unicode="&#x10d;" horiz-adv-x="778" 
d="M617 768l-150 -159h-153l-147 159h103l124 -96l122 96h101zM738 358l-129 -24q-26 122 -203 122q-107 0 -162 -47.5t-55 -136.5q0 -87 55.5 -134.5t162.5 -47.5q179 0 205 124l128 -24q-22 -97 -108.5 -149t-224.5 -52q-165 0 -258 76t-93 207q0 132 92.5 208.5
t257.5 76.5q138 0 224 -51t108 -148z" />
    <glyph glyph-name="Dcaron" unicode="&#x10e;" horiz-adv-x="979" 
d="M714 921l-150 -159h-153l-147 159h103l124 -96l122 96h101zM116 0v700h400q191 0 295 -93t104 -258t-104 -257t-295 -92h-400zM521 109q124 0 188.5 62.5t64.5 177.5q0 116 -64.5 179t-188.5 63h-268v-482h268z" />
    <glyph glyph-name="dcaron" unicode="&#x10f;" horiz-adv-x="940" 
d="M364 -11q-143 0 -225.5 77.5t-82.5 206.5t82.5 206.5t225.5 77.5q173 0 264 -112v305h130v-750h-117l-9 106q-42 -55 -111 -86t-157 -31zM857 533v217h129l-43 -217h-86zM404 91q104 0 164 49.5t60 131.5q0 83 -60 133t-164 50t-159.5 -49t-55.5 -133q0 -85 55 -133.5
t160 -48.5z" />
    <glyph glyph-name="Dcroat" unicode="&#x110;" horiz-adv-x="990" 
d="M127 0v309h-118v84h118v307h400q191 0 295 -93t104 -258t-104 -257t-295 -92h-400zM532 109q124 0 188.5 62.5t64.5 177.5q0 116 -64.5 179t-188.5 63h-268v-198h208v-84h-208v-200h268z" />
    <glyph glyph-name="dcroat" unicode="&#x111;" horiz-adv-x="857" 
d="M364 -11q-143 0 -225.5 75.5t-82.5 201.5t82.5 202t225.5 76q86 0 154 -29t110 -82v174h-201v72h201v71h130v-71h93v-72h-93v-607h-117l-8 105q-89 -116 -269 -116zM404 91q104 0 164 47.5t60 127.5t-60 128.5t-164 48.5t-159.5 -47.5t-55.5 -129.5q0 -81 55.5 -128
t159.5 -47z" />
    <glyph glyph-name="Emacron" unicode="&#x112;" horiz-adv-x="840" 
d="M248 782v88h392v-88h-392zM116 0v700h661v-106h-527v-184h471v-105h-471v-199h534v-106h-668z" />
    <glyph glyph-name="emacron" unicode="&#x113;" horiz-adv-x="803" 
d="M206 629v88h392v-88h-392zM411 -11q-167 0 -261 76.5t-94 208.5q0 129 93.5 206t257.5 77q159 0 252 -73.5t93 -196.5q0 -22 -5 -47h-563q11 -74 68 -114t159 -40q178 0 212 93l125 -22q-28 -84 -109 -126t-228 -42zM408 462q-191 0 -221 -137h436q-11 66 -66 101.5
t-149 35.5z" />
    <glyph glyph-name="Ebreve" unicode="&#x114;" horiz-adv-x="840" 
d="M537 915h99q0 -156 -191 -156q-192 0 -192 156h99q0 -83 93 -83q92 0 92 83zM116 0v700h661v-106h-527v-184h471v-105h-471v-199h534v-106h-668z" />
    <glyph glyph-name="ebreve" unicode="&#x115;" horiz-adv-x="803" 
d="M494 762h99q0 -156 -191 -156q-192 0 -192 156h99q0 -83 93 -83q92 0 92 83zM411 -11q-167 0 -261 76.5t-94 208.5q0 129 93.5 206t257.5 77q159 0 252 -73.5t93 -196.5q0 -22 -5 -47h-563q11 -74 68 -114t159 -40q178 0 212 93l125 -22q-28 -84 -109 -126t-228 -42z
M408 462q-191 0 -221 -137h436q-11 66 -66 101.5t-149 35.5z" />
    <glyph glyph-name="Edotaccent" unicode="&#x116;" horiz-adv-x="840" 
d="M378 775v129h135v-129h-135zM116 0v700h661v-106h-527v-184h471v-105h-471v-199h534v-106h-668z" />
    <glyph glyph-name="edotaccent" unicode="&#x117;" horiz-adv-x="803" 
d="M334 622v129h135v-129h-135zM411 -11q-167 0 -261 76.5t-94 208.5q0 129 93.5 206t257.5 77q159 0 252 -73.5t93 -196.5q0 -22 -5 -47h-563q11 -74 68 -114t159 -40q178 0 212 93l125 -22q-28 -84 -109 -126t-228 -42zM408 462q-191 0 -221 -137h436q-11 66 -66 101.5
t-149 35.5z" />
    <glyph glyph-name="Eogonek" unicode="&#x118;" horiz-adv-x="840" 
d="M116 0v700h661v-106h-527v-184h471v-105h-471v-199h534v-106h-1q-150 -28 -150 -81q0 -38 61 -38q42 0 91 15l-3 -93q-49 -17 -109 -17q-144 0 -144 100q0 72 86 114h-499z" />
    <glyph glyph-name="eogonek" unicode="&#x119;" horiz-adv-x="803" 
d="M744 -197q-49 -17 -109 -17q-70 0 -107 26t-37 75q0 61 67 118q-60 -16 -147 -16q-167 0 -261 76.5t-94 208.5q0 129 93.5 206t257.5 77q159 0 252 -73.5t93 -196.5q0 -22 -5 -47h-563q11 -74 68 -114t159 -40q178 0 212 93l125 -22q-21 -57 -60.5 -105t-66 -77.5
t-26.5 -54.5q0 -39 61 -39q42 0 91 15zM408 462q-191 0 -221 -137h436q-11 66 -66 101.5t-149 35.5z" />
    <glyph glyph-name="Ecaron" unicode="&#x11a;" horiz-adv-x="840" 
d="M670 921l-150 -159h-153l-147 159h103l124 -96l122 96h101zM116 0v700h661v-106h-527v-184h471v-105h-471v-199h534v-106h-668z" />
    <glyph glyph-name="ecaron" unicode="&#x11b;" horiz-adv-x="803" 
d="M627 768l-150 -159h-153l-147 159h103l124 -96l122 96h101zM411 -11q-167 0 -261 76.5t-94 208.5q0 129 93.5 206t257.5 77q159 0 252 -73.5t93 -196.5q0 -22 -5 -47h-563q11 -74 68 -114t159 -40q178 0 212 93l125 -22q-28 -84 -109 -126t-228 -42zM408 462
q-191 0 -221 -137h436q-11 66 -66 101.5t-149 35.5z" />
    <glyph glyph-name="Gcircumflex" unicode="&#x11c;" horiz-adv-x="1000" 
d="M616 762l-124 96l-123 -96h-100l149 159h153l148 -159h-103zM59 349q0 168 118.5 265t327.5 97q167 0 269.5 -57t134.5 -165l-137 -29q-45 142 -268 142q-148 0 -226.5 -65.5t-78.5 -187.5q0 -121 77.5 -186t225.5 -65q124 0 195.5 43t88.5 122h-296v100h431v-363h-101
l-12 131q-94 -142 -321 -142q-201 0 -314.5 96.5t-113.5 263.5z" />
    <glyph glyph-name="gcircumflex" unicode="&#x11d;" horiz-adv-x="775" 
d="M499 609l-124 96l-123 -96h-100l149 159h153l148 -159h-103zM375 557q151 0 232 -52q50 75 152 66l-6 -106q-57 9 -97 -9q20 -34 20 -74q0 -81 -79.5 -126t-221.5 -45q-74 0 -131 12q-56 -10 -56 -48q0 -48 87 -49l262 -6q214 -4 214 -142q0 -189 -380 -189
q-345 0 -345 146q0 91 125 114q-40 11 -62 37t-22 61q0 76 95 104q-89 45 -89 131q0 82 80 128.5t222 46.5zM546 382q0 44 -44.5 68t-126.5 24t-127 -24t-45 -68q0 -43 44.5 -65.5t127.5 -22.5q171 0 171 88zM159 -45q0 -42 52.5 -60.5t164.5 -18.5q247 0 247 89
q0 57 -97 58l-265 2q-102 -5 -102 -70z" />
    <glyph glyph-name="Gbreve" unicode="&#x11e;" horiz-adv-x="1000" 
d="M586 915h99q0 -156 -191 -156q-192 0 -192 156h99q0 -83 93 -83q92 0 92 83zM59 349q0 168 118.5 265t327.5 97q167 0 269.5 -57t134.5 -165l-137 -29q-45 142 -268 142q-148 0 -226.5 -65.5t-78.5 -187.5q0 -121 77.5 -186t225.5 -65q124 0 195.5 43t88.5 122h-296v100
h431v-363h-101l-12 131q-94 -142 -321 -142q-201 0 -314.5 96.5t-113.5 263.5z" />
    <glyph glyph-name="gbreve" unicode="&#x11f;" horiz-adv-x="775" 
d="M469 762h99q0 -156 -191 -156q-192 0 -192 156h99q0 -83 93 -83q92 0 92 83zM375 557q151 0 232 -52q50 75 152 66l-6 -106q-57 9 -97 -9q20 -34 20 -74q0 -81 -79.5 -126t-221.5 -45q-74 0 -131 12q-56 -10 -56 -48q0 -48 87 -49l262 -6q214 -4 214 -142
q0 -189 -380 -189q-345 0 -345 146q0 91 125 114q-40 11 -62 37t-22 61q0 76 95 104q-89 45 -89 131q0 82 80 128.5t222 46.5zM546 382q0 44 -44.5 68t-126.5 24t-127 -24t-45 -68q0 -43 44.5 -65.5t127.5 -22.5q171 0 171 88zM159 -45q0 -42 52.5 -60.5t164.5 -18.5
q247 0 247 89q0 57 -97 58l-265 2q-102 -5 -102 -70z" />
    <glyph glyph-name="Gdotaccent" unicode="&#x120;" horiz-adv-x="1000" 
d="M426 775v129h135v-129h-135zM59 349q0 168 118.5 265t327.5 97q167 0 269.5 -57t134.5 -165l-137 -29q-45 142 -268 142q-148 0 -226.5 -65.5t-78.5 -187.5q0 -121 77.5 -186t225.5 -65q124 0 195.5 43t88.5 122h-296v100h431v-363h-101l-12 131q-94 -142 -321 -142
q-201 0 -314.5 96.5t-113.5 263.5z" />
    <glyph glyph-name="gdotaccent" unicode="&#x121;" horiz-adv-x="775" 
d="M308 622v129h135v-129h-135zM375 557q151 0 232 -52q50 75 152 66l-6 -106q-57 9 -97 -9q20 -34 20 -74q0 -81 -79.5 -126t-221.5 -45q-74 0 -131 12q-56 -10 -56 -48q0 -48 87 -49l262 -6q214 -4 214 -142q0 -189 -380 -189q-345 0 -345 146q0 91 125 114q-40 11 -62 37
t-22 61q0 76 95 104q-89 45 -89 131q0 82 80 128.5t222 46.5zM546 382q0 44 -44.5 68t-126.5 24t-127 -24t-45 -68q0 -43 44.5 -65.5t127.5 -22.5q171 0 171 88zM159 -45q0 -42 52.5 -60.5t164.5 -18.5q247 0 247 89q0 57 -97 58l-265 2q-102 -5 -102 -70z" />
    <glyph glyph-name="Gcommaaccent" unicode="&#x122;" horiz-adv-x="1000" 
d="M59 349q0 168 118.5 265t327.5 97q167 0 269.5 -57t134.5 -165l-137 -29q-45 142 -268 142q-148 0 -226.5 -65.5t-78.5 -187.5q0 -121 77.5 -186t225.5 -65q124 0 195.5 43t88.5 122h-296v100h431v-363h-101l-12 131q-94 -142 -321 -142q-201 0 -314.5 96.5t-113.5 263.5
zM317 -209l89 147h153l-140 -147h-102z" />
    <glyph glyph-name="gcommaaccent" unicode="&#x123;" horiz-adv-x="775" 
d="M562 764l-107 -155h-158l162 155h103zM375 557q151 0 232 -52q50 75 152 66l-6 -106q-57 9 -97 -9q20 -34 20 -74q0 -81 -79.5 -126t-221.5 -45q-74 0 -131 12q-56 -10 -56 -48q0 -48 87 -49l262 -6q214 -4 214 -142q0 -189 -380 -189q-345 0 -345 146q0 91 125 114
q-40 11 -62 37t-22 61q0 76 95 104q-89 45 -89 131q0 82 80 128.5t222 46.5zM546 382q0 44 -44.5 68t-126.5 24t-127 -24t-45 -68q0 -43 44.5 -65.5t127.5 -22.5q171 0 171 88zM159 -45q0 -42 52.5 -60.5t164.5 -18.5q247 0 247 89q0 57 -97 58l-265 2q-102 -5 -102 -70z
" />
    <glyph glyph-name="Hcircumflex" unicode="&#x124;" horiz-adv-x="1022" 
d="M634 762l-124 96l-123 -96h-100l149 159h153l148 -159h-103zM116 0v700h137v-284h516v284h137v-700h-137v306h-516v-306h-137z" />
    <glyph glyph-name="hcircumflex" unicode="&#x125;" horiz-adv-x="832" 
d="M445 812l-124 96l-123 -96h-100l149 159h153l148 -159h-103zM98 0v750h130v-317q42 58 110 91t152 33q119 0 185 -62.5t66 -171.5v-323h-130v297q0 71 -42.5 112t-120.5 41q-98 0 -159 -52.5t-61 -139.5v-258h-130z" />
    <glyph glyph-name="Hbar" unicode="&#x126;" horiz-adv-x="1022" 
d="M116 0v522h-110v72h110v106h137v-106h516v106h137v-106h110v-72h-110v-522h-137v306h-516v-306h-137zM253 415h516v107h-516v-107z" />
    <glyph glyph-name="hbar" unicode="&#x127;" horiz-adv-x="832" 
d="M98 0v607h-93v72h93v71h130v-71h201v-72h-201v-186q42 58 110 90.5t152 32.5q119 0 185 -62t66 -171v-311h-130v284q0 72 -42.5 112.5t-120.5 40.5q-98 0 -159 -52.5t-61 -139.5v-245h-130z" />
    <glyph glyph-name="Itilde" unicode="&#x128;" horiz-adv-x="369" 
d="M380 918q18 -164 -99 -164q-28 0 -55 13.5t-45 29.5t-38.5 29.5t-37.5 13.5q-43 0 -33 -75h-84q-16 165 101 165q34 0 67.5 -22t60.5 -43.5t46 -21.5q43 0 32 75h85zM116 0v700h137v-700h-137z" />
    <glyph glyph-name="itilde" unicode="&#x129;" 
d="M359 765q18 -164 -99 -164q-28 0 -55 13.5t-45 29.5t-38.5 29.5t-37.5 13.5q-43 0 -33 -75h-84q-17 165 101 165q27 0 54 -13.5t45 -30t38.5 -30t36.5 -13.5q43 0 32 75h85zM98 0v546h130v-546h-130z" />
    <glyph glyph-name="Imacron" unicode="&#x12a;" horiz-adv-x="369" 
d="M-11 782v88h392v-88h-392zM116 0v700h137v-700h-137z" />
    <glyph glyph-name="imacron" unicode="&#x12b;" 
d="M-32 629v88h392v-88h-392zM98 0v546h130v-546h-130z" />
    <glyph glyph-name="Ibreve" unicode="&#x12c;" horiz-adv-x="369" 
d="M277 915h99q0 -156 -191 -156q-192 0 -192 156h99q0 -83 93 -83q92 0 92 83zM116 0v700h137v-700h-137z" />
    <glyph glyph-name="ibreve" unicode="&#x12d;" 
d="M256 762h99q0 -156 -191 -156q-192 0 -192 156h99q0 -83 93 -83q92 0 92 83zM98 0v546h130v-546h-130z" />
    <glyph glyph-name="Iogonek" unicode="&#x12e;" horiz-adv-x="369" 
d="M27 -113q0 77 89 121v692h137v-700q-122 -28 -122 -81q0 -38 67 -38q43 0 94 15l-3 -93q-53 -17 -114 -17q-71 0 -109.5 26t-38.5 75z" />
    <glyph glyph-name="iogonek" unicode="&#x12f;" 
d="M96 622v117h135v-117h-135zM3 -114q0 80 96 125v535h129v-546q-121 -28 -121 -82q0 -37 66 -37q43 0 95 15l-4 -93q-51 -17 -114 -17q-71 0 -109 26t-38 74z" />
    <glyph glyph-name="Idotaccent" unicode="&#x130;" horiz-adv-x="369" 
d="M117 775v129h135v-129h-135zM116 0v700h137v-700h-137z" />
    <glyph glyph-name="dotlessi" unicode="&#x131;" 
d="M98 0v546h130v-546h-130z" />
    <glyph glyph-name="IJ" unicode="&#x132;" horiz-adv-x="920" 
d="M116 0v700h137v-700h-137zM814 251q0 -135 -65 -198.5t-209 -63.5q-66 0 -140 13l-5 111q66 -11 121 -11q88 0 124.5 33.5t36.5 112.5v452h137v-449z" />
    <glyph glyph-name="ij" unicode="&#x133;" horiz-adv-x="654" 
d="M96 622v117h135v-117h-135zM423 622v117h135v-117h-135zM99 0v546h129v-546h-129zM425 -11v557h130v-550q0 -110 -48 -158.5t-152 -48.5q-39 0 -84 8l-4 98q37 -5 60 -5q52 0 75 23t23 76z" />
    <glyph glyph-name="Jcircumflex" unicode="&#x134;" horiz-adv-x="551" 
d="M499 762l-124 96l-123 -96h-100l149 159h153l148 -159h-103zM445 251q0 -135 -65 -198.5t-209 -63.5q-66 0 -140 13l-5 111q66 -11 121 -11q88 0 124.5 33.5t36.5 112.5v452h137v-449z" />
    <glyph glyph-name="jcircumflex" unicode="&#x135;" 
d="M286 609l-124 96l-123 -96h-100l149 159h153l148 -159h-103zM98 -11v557h130v-550q0 -110 -48 -158.5t-152 -48.5q-39 0 -84 8l-4 98q37 -5 60 -5q52 0 75 23t23 76z" />
    <glyph glyph-name="Kcommaaccent" unicode="&#x136;" horiz-adv-x="896" 
d="M116 0v700h135v-328l433 328h185l-422 -320l449 -380h-197l-359 299l-89 -68v-231h-135zM294 -209l89 147h153l-140 -147h-102z" />
    <glyph glyph-name="kcommaaccent" unicode="&#x137;" horiz-adv-x="742" 
d="M98 0v750h129v-444l318 240h172l-327 -242l350 -304h-179l-264 234l-70 -55v-179h-129zM230 -209l89 147h153l-140 -147h-102z" />
    <glyph glyph-name="kgreenlandic" unicode="&#x138;" horiz-adv-x="742" 
d="M98 0v546h129v-240l318 240h172l-327 -242l350 -304h-177l-266 234l-70 -55v-179h-129z" />
    <glyph glyph-name="Lacute" unicode="&#x139;" horiz-adv-x="759" 
d="M130 762l137 159h168l-195 -159h-110zM116 0v700h137v-591h472v-109h-609z" />
    <glyph glyph-name="lacute" unicode="&#x13a;" 
d="M109 812l137 159h168l-195 -159h-110zM228 0h-130v750h130v-750z" />
    <glyph glyph-name="Lcommaaccent" unicode="&#x13b;" horiz-adv-x="759" 
d="M116 0v700h137v-591h472v-109h-609zM252 -209l89 147h153l-140 -147h-102z" />
    <glyph glyph-name="lcommaaccent" unicode="&#x13c;" 
d="M228 0h-130v750h130v-750zM-4 -209l89 147h153l-140 -147h-102z" />
    <glyph glyph-name="Lcaron" unicode="&#x13d;" horiz-adv-x="759" 
d="M116 0v700h137v-591h472v-109h-609zM413 483v217h129l-43 -217h-86z" />
    <glyph glyph-name="lcaron" unicode="&#x13e;" horiz-adv-x="410" 
d="M228 0h-130v750h130v-750zM327 533v217h129l-43 -217h-86z" />
    <glyph glyph-name="Ldot" unicode="&#x13f;" horiz-adv-x="759" 
d="M116 0v700h137v-591h472v-109h-609zM491 315v134h143v-134h-143z" />
    <glyph glyph-name="ldot" unicode="&#x140;" horiz-adv-x="459" 
d="M228 0h-130v750h130v-750zM321 304v134h143v-134h-143z" />
    <glyph glyph-name="Lslash" unicode="&#x141;" horiz-adv-x="772" 
d="M129 0v291l-118 -36v87l118 36v322h137v-279l193 59v-88l-193 -59v-224h472v-109h-609z" />
    <glyph glyph-name="lslash" unicode="&#x142;" horiz-adv-x="367" 
d="M248 0h-130v308l-111 -37v79l111 37v363h130v-319l112 37v-79l-112 -37v-352z" />
    <glyph glyph-name="Nacute" unicode="&#x143;" horiz-adv-x="1007" 
d="M451 762l137 159h168l-195 -159h-110zM116 0v700h135l514 -549v549h126v-700h-135l-514 547v-547h-126z" />
    <glyph glyph-name="nacute" unicode="&#x144;" horiz-adv-x="832" 
d="M361 609l137 159h168l-195 -159h-110zM98 0v546h116l10 -119q41 61 110.5 95.5t155.5 34.5q119 0 185 -62.5t66 -171.5v-323h-130v297q0 71 -42.5 112t-120.5 41q-98 0 -159 -52.5t-61 -139.5v-258h-130z" />
    <glyph glyph-name="Ncommaaccent" unicode="&#x145;" horiz-adv-x="1007" 
d="M116 0v700h135l514 -549v549h126v-700h-135l-514 547v-547h-126zM337 -209l89 147h153l-140 -147h-102z" />
    <glyph glyph-name="ncommaaccent" unicode="&#x146;" horiz-adv-x="832" 
d="M98 0v546h116l10 -119q41 61 110.5 95.5t155.5 34.5q119 0 185 -62.5t66 -171.5v-323h-130v297q0 71 -42.5 112t-120.5 41q-98 0 -159 -52.5t-61 -139.5v-258h-130zM259 -209l89 147h153l-140 -147h-102z" />
    <glyph glyph-name="Ncaron" unicode="&#x147;" horiz-adv-x="1007" 
d="M731 921l-150 -159h-153l-147 159h103l124 -96l122 96h101zM116 0v700h135l514 -549v549h126v-700h-135l-514 547v-547h-126z" />
    <glyph glyph-name="ncaron" unicode="&#x148;" horiz-adv-x="832" 
d="M641 768l-150 -159h-153l-147 159h103l124 -96l122 96h101zM98 0v546h116l10 -119q41 61 110.5 95.5t155.5 34.5q119 0 185 -62.5t66 -171.5v-323h-130v297q0 71 -42.5 112t-120.5 41q-98 0 -159 -52.5t-61 -139.5v-258h-130z" />
    <glyph glyph-name="napostrophe" unicode="&#x149;" horiz-adv-x="832" 
d="M99 602l89 147h153l-140 -147h-102zM98 0v546h116l10 -119q41 61 110.5 95.5t155.5 34.5q119 0 185 -62.5t66 -171.5v-323h-130v297q0 71 -42.5 112t-120.5 41q-98 0 -159 -52.5t-61 -139.5v-258h-130z" />
    <glyph glyph-name="Eng" unicode="&#x14a;" horiz-adv-x="1007" 
d="M116 0v700h135l514 -542v542h126v-662q0 -134 -62 -191.5t-204 -57.5q-65 0 -129 13l-4 102q59 -11 114 -11q76 0 113 25.5t44 83.5l-521 547v-549h-126z" />
    <glyph glyph-name="eng" unicode="&#x14b;" horiz-adv-x="832" 
d="M98 0v546h116l10 -119q41 61 110.5 95.5t155.5 34.5q119 0 185 -62.5t66 -171.5v-327q0 -110 -48 -158.5t-152 -48.5q-38 0 -83 8l-5 98q37 -5 60 -5q52 0 75 23t23 76v308q0 71 -42.5 112t-120.5 41q-98 0 -159 -52.5t-61 -139.5v-258h-130z" />
    <glyph glyph-name="Omacron" unicode="&#x14c;" horiz-adv-x="995" 
d="M301 782v88h392v-88h-392zM497 -11q-205 0 -321.5 97t-116.5 263q0 167 116 264.5t322 97.5q207 0 323 -97.5t116 -264.5q0 -166 -116 -263t-323 -97zM497 98q147 0 223 66t76 185q0 121 -76 187t-223 66q-146 0 -222 -66t-76 -187q0 -120 76 -185.5t222 -65.5z" />
    <glyph glyph-name="omacron" unicode="&#x14d;" horiz-adv-x="818" 
d="M213 629v88h392v-88h-392zM409 -11q-167 0 -260 76t-93 208t93 208t260 76q168 0 261 -76t93 -208q0 -133 -93 -208.5t-261 -75.5zM409 90q110 0 165.5 47t55.5 136t-55.5 136t-165.5 47t-165 -47t-55 -136t55.5 -136t164.5 -47z" />
    <glyph glyph-name="Obreve" unicode="&#x14e;" horiz-adv-x="995" 
d="M589 915h99q0 -156 -191 -156q-192 0 -192 156h99q0 -83 93 -83q92 0 92 83zM497 -11q-205 0 -321.5 97t-116.5 263q0 167 116 264.5t322 97.5q207 0 323 -97.5t116 -264.5q0 -166 -116 -263t-323 -97zM497 98q147 0 223 66t76 185q0 121 -76 187t-223 66
q-146 0 -222 -66t-76 -187q0 -120 76 -185.5t222 -65.5z" />
    <glyph glyph-name="obreve" unicode="&#x14f;" horiz-adv-x="818" 
d="M501 762h99q0 -156 -191 -156q-192 0 -192 156h99q0 -83 93 -83q92 0 92 83zM409 -11q-167 0 -260 76t-93 208t93 208t260 76q168 0 261 -76t93 -208q0 -133 -93 -208.5t-261 -75.5zM409 90q110 0 165.5 47t55.5 136t-55.5 136t-165.5 47t-165 -47t-55 -136t55.5 -136
t164.5 -47z" />
    <glyph glyph-name="Ohungarumlaut" unicode="&#x150;" horiz-adv-x="995" 
d="M330 762l103 159h143l-145 -159h-101zM547 762l103 159h143l-146 -159h-100zM497 -11q-205 0 -321.5 97t-116.5 263q0 167 116 264.5t322 97.5q207 0 323 -97.5t116 -264.5q0 -166 -116 -263t-323 -97zM497 98q147 0 223 66t76 185q0 121 -76 187t-223 66
q-146 0 -222 -66t-76 -187q0 -120 76 -185.5t222 -65.5z" />
    <glyph glyph-name="ohungarumlaut" unicode="&#x151;" horiz-adv-x="818" 
d="M238 609l103 159h143l-145 -159h-101zM455 609l103 159h143l-146 -159h-100zM409 -11q-167 0 -260 76t-93 208t93 208t260 76q168 0 261 -76t93 -208q0 -133 -93 -208.5t-261 -75.5zM409 90q110 0 165.5 47t55.5 136t-55.5 136t-165.5 47t-165 -47t-55 -136t55.5 -136
t164.5 -47z" />
    <glyph glyph-name="OE" unicode="&#x152;" horiz-adv-x="1400" 
d="M59 349q0 162 118.5 256.5t328.5 94.5h830v-106h-499v-184h444v-104h-444v-200h507v-106h-838q-210 0 -328.5 93.5t-118.5 255.5zM506 105h196v489h-196q-150 0 -228.5 -63.5t-78.5 -181.5q0 -117 78.5 -180.5t228.5 -63.5z" />
    <glyph glyph-name="oe" unicode="&#x153;" horiz-adv-x="1359" 
d="M403 -11q-164 0 -255.5 76t-91.5 208t91.5 208t255.5 76q199 0 288 -115q88 115 281 115q154 0 245 -73.5t91 -196.5q0 -22 -5 -47h-546q21 -154 220 -154q170 0 202 93l125 -22q-28 -85 -107.5 -126.5t-219.5 -41.5q-196 0 -286 115q-89 -115 -288 -115zM972 462
q-184 0 -212 -137h420q-12 66 -67.5 101.5t-140.5 35.5zM403 89q107 0 161 47.5t54 136.5t-54 136t-161 47q-106 0 -160 -47t-54 -136t54 -136.5t160 -47.5z" />
    <glyph glyph-name="Racute" unicode="&#x154;" horiz-adv-x="905" 
d="M397 762l137 159h168l-195 -159h-110zM116 0v700h461q123 0 189 -58t66 -162q0 -94 -59 -150.5t-166 -63.5l247 -266h-171l-237 257h-193v-257h-137zM554 594h-301v-231h301q68 0 104.5 29.5t36.5 85.5q0 116 -141 116z" />
    <glyph glyph-name="racute" unicode="&#x155;" horiz-adv-x="546" 
d="M230 609l137 159h168l-195 -159h-110zM98 0v546h117l10 -140q43 69 115 109.5t157 40.5q20 0 26 -1l-4 -132q-21 6 -54 6q-104 0 -170 -55t-67 -156v-218h-130z" />
    <glyph glyph-name="Rcommaaccent" unicode="&#x156;" horiz-adv-x="905" 
d="M116 0v700h461q123 0 189 -58t66 -162q0 -94 -59 -150.5t-166 -63.5l247 -266h-171l-237 257h-193v-257h-137zM554 594h-301v-231h301q68 0 104.5 29.5t36.5 85.5q0 116 -141 116zM290 -209l89 147h153l-140 -147h-102z" />
    <glyph glyph-name="rcommaaccent" unicode="&#x157;" horiz-adv-x="546" 
d="M98 0v546h117l10 -140q43 69 115 109.5t157 40.5q20 0 26 -1l-4 -132q-21 6 -54 6q-104 0 -170 -55t-67 -156v-218h-130zM-4 -209l89 147h153l-140 -147h-102z" />
    <glyph glyph-name="Rcaron" unicode="&#x158;" horiz-adv-x="905" 
d="M677 921l-150 -159h-153l-147 159h103l124 -96l122 96h101zM116 0v700h461q123 0 189 -58t66 -162q0 -94 -59 -150.5t-166 -63.5l247 -266h-171l-237 257h-193v-257h-137zM554 594h-301v-231h301q68 0 104.5 29.5t36.5 85.5q0 116 -141 116z" />
    <glyph glyph-name="rcaron" unicode="&#x159;" horiz-adv-x="546" 
d="M518 768l-150 -159h-153l-147 159h103l124 -96l122 96h101zM98 0v546h117l10 -140q43 69 115 109.5t157 40.5q20 0 26 -1l-4 -132q-21 6 -54 6q-104 0 -170 -55t-67 -156v-218h-130z" />
    <glyph glyph-name="Sacute" unicode="&#x15a;" horiz-adv-x="887" 
d="M384 762l137 159h168l-195 -159h-110zM48 213l139 21q28 -139 264 -139q243 0 243 99q0 46 -38 66.5t-136 31.5l-184 13q-133 14 -199 60t-66 133q0 100 94.5 156.5t269.5 56.5q335 0 381 -211l-139 -20q-15 64 -74 94.5t-170 30.5q-223 0 -223 -95q0 -44 38.5 -63.5
t131.5 -29.5l188 -14q136 -15 200.5 -60.5t64.5 -135.5q0 -106 -97.5 -162t-286.5 -56q-357 0 -401 224z" />
    <glyph glyph-name="sacute" unicode="&#x15b;" horiz-adv-x="734" 
d="M305 609l137 159h168l-195 -159h-110zM359 465q-175 0 -175 -67q0 -31 28.5 -45.5t102.5 -20.5l134 -8q127 -11 182 -47.5t55 -109.5q0 -85 -81 -131.5t-237 -46.5q-150 0 -227.5 42.5t-99.5 134.5l124 18q19 -103 201 -103q193 0 193 72q0 34 -27.5 49t-98.5 21l-135 8
q-125 10 -181.5 47.5t-56.5 109.5q0 79 78.5 124t220.5 45t218.5 -40.5t95.5 -126.5l-121 -18q-10 48 -56 70.5t-137 22.5z" />
    <glyph glyph-name="Scircumflex" unicode="&#x15c;" horiz-adv-x="887" 
d="M561 762l-124 96l-123 -96h-100l149 159h153l148 -159h-103zM48 213l139 21q28 -139 264 -139q243 0 243 99q0 46 -38 66.5t-136 31.5l-184 13q-133 14 -199 60t-66 133q0 100 94.5 156.5t269.5 56.5q335 0 381 -211l-139 -20q-15 64 -74 94.5t-170 30.5q-223 0 -223 -95
q0 -44 38.5 -63.5t131.5 -29.5l188 -14q136 -15 200.5 -60.5t64.5 -135.5q0 -106 -97.5 -162t-286.5 -56q-357 0 -401 224z" />
    <glyph glyph-name="scircumflex" unicode="&#x15d;" horiz-adv-x="734" 
d="M487 609l-124 96l-123 -96h-100l149 159h153l148 -159h-103zM359 465q-175 0 -175 -67q0 -31 28.5 -45.5t102.5 -20.5l134 -8q127 -11 182 -47.5t55 -109.5q0 -85 -81 -131.5t-237 -46.5q-150 0 -227.5 42.5t-99.5 134.5l124 18q19 -103 201 -103q193 0 193 72
q0 34 -27.5 49t-98.5 21l-135 8q-125 10 -181.5 47.5t-56.5 109.5q0 79 78.5 124t220.5 45t218.5 -40.5t95.5 -126.5l-121 -18q-10 48 -56 70.5t-137 22.5z" />
    <glyph glyph-name="Scedilla" unicode="&#x15e;" horiz-adv-x="887" 
d="M48 213l139 21q28 -139 264 -139q243 0 243 99q0 46 -38 66.5t-136 31.5l-184 13q-133 14 -199 60t-66 133q0 100 94.5 156.5t269.5 56.5q335 0 381 -211l-139 -20q-15 64 -74 94.5t-170 30.5q-223 0 -223 -95q0 -44 38.5 -63.5t131.5 -29.5l188 -14q136 -15 200.5 -60.5
t64.5 -135.5q0 -101 -88.5 -157t-261.5 -60l-6 -41q30 9 59 9q54 0 82.5 -21t28.5 -59q0 -91 -171 -91q-70 0 -143 15l4 60q73 -14 122 -14q82 0 82 31q0 26 -41 26q-27 0 -49 -13l-65 9l14 89q-311 15 -352 223z" />
    <glyph glyph-name="scedilla" unicode="&#x15f;" horiz-adv-x="734" 
d="M359 465q-175 0 -175 -67q0 -31 28.5 -45.5t102.5 -20.5l134 -8q127 -11 182 -47.5t55 -109.5q0 -81 -74 -127.5t-216 -50.5l-6 -40q30 9 59 9q54 0 82.5 -21t28.5 -59q0 -91 -171 -91q-69 0 -143 15l4 60q73 -14 122 -14q82 0 82 31q0 26 -41 26q-27 0 -49 -13l-65 9
l14 90q-122 7 -187 49.5t-85 125.5l124 18q19 -103 201 -103q193 0 193 72q0 34 -27.5 49t-98.5 21l-135 8q-125 10 -181.5 47.5t-56.5 109.5q0 79 78.5 124t220.5 45t218.5 -40.5t95.5 -126.5l-121 -18q-10 48 -56 70.5t-137 22.5z" />
    <glyph glyph-name="Scaron" unicode="&#x160;" horiz-adv-x="887" 
d="M664 921l-150 -159h-153l-147 159h103l124 -96l122 96h101zM48 213l139 21q28 -139 264 -139q243 0 243 99q0 46 -38 66.5t-136 31.5l-184 13q-133 14 -199 60t-66 133q0 100 94.5 156.5t269.5 56.5q335 0 381 -211l-139 -20q-15 64 -74 94.5t-170 30.5q-223 0 -223 -95
q0 -44 38.5 -63.5t131.5 -29.5l188 -14q136 -15 200.5 -60.5t64.5 -135.5q0 -106 -97.5 -162t-286.5 -56q-357 0 -401 224z" />
    <glyph glyph-name="scaron" unicode="&#x161;" horiz-adv-x="734" 
d="M590 768l-150 -159h-153l-147 159h103l124 -96l122 96h101zM359 465q-175 0 -175 -67q0 -31 28.5 -45.5t102.5 -20.5l134 -8q127 -11 182 -47.5t55 -109.5q0 -85 -81 -131.5t-237 -46.5q-150 0 -227.5 42.5t-99.5 134.5l124 18q19 -103 201 -103q193 0 193 72
q0 34 -27.5 49t-98.5 21l-135 8q-125 10 -181.5 47.5t-56.5 109.5q0 79 78.5 124t220.5 45t218.5 -40.5t95.5 -126.5l-121 -18q-10 48 -56 70.5t-137 22.5z" />
    <glyph glyph-name="uni0162" unicode="&#x162;" horiz-adv-x="829" 
d="M345 0v591h-318v109h775v-109h-320v-591h-137zM246 -209l89 147h153l-140 -147h-102z" />
    <glyph glyph-name="uni0163" unicode="&#x163;" horiz-adv-x="553" 
d="M127 193v255h-115v98h75q23 0 33.5 2.5t19 18.5t11.5 41t6 78h101v-140h253v-98h-253v-240q0 -65 29 -91t102 -26q62 0 130 14l-4 -100q-80 -16 -159 -16q-118 0 -173.5 47t-55.5 157zM137 -209l89 147h153l-140 -147h-102z" />
    <glyph glyph-name="Tcaron" unicode="&#x164;" horiz-adv-x="829" 
d="M639 921l-150 -159h-153l-147 159h103l124 -96l122 96h101zM345 0v591h-318v109h775v-109h-320v-591h-137z" />
    <glyph glyph-name="tcaron" unicode="&#x165;" horiz-adv-x="553" 
d="M324 605v217h129l-43 -217h-86zM127 193v255h-115v98h75q23 0 33.5 2.5t19 18.5t11.5 41t6 78h101v-140h253v-98h-253v-240q0 -65 29 -91t102 -26q62 0 130 14l-4 -100q-80 -16 -159 -16q-118 0 -173.5 47t-55.5 157z" />
    <glyph glyph-name="Tbar" unicode="&#x166;" horiz-adv-x="829" 
d="M345 0v303h-172v71h172v217h-318v109h775v-109h-320v-217h171v-71h-171v-303h-137z" />
    <glyph glyph-name="tbar" unicode="&#x167;" horiz-adv-x="553" 
d="M127 193v50h-102v71h102v134h-115v98h75q23 0 33.5 2.5t19 18.5t11.5 41t6 78h101v-140h253v-98h-253v-134h198v-71h-198v-35q0 -65 29 -91t102 -26q62 0 130 14l-4 -100q-80 -16 -159 -16q-118 0 -173.5 47t-55.5 157z" />
    <glyph glyph-name="Utilde" unicode="&#x168;" horiz-adv-x="955" 
d="M672 918q18 -164 -99 -164q-28 0 -55 13.5t-45 29.5t-38.5 29.5t-37.5 13.5q-43 0 -33 -75h-84q-16 165 101 165q34 0 67.5 -22t60.5 -43.5t46 -21.5q43 0 32 75h85zM858 307q0 -152 -100 -235t-281 -83q-180 0 -280 83t-100 235v393h137v-392q0 -103 62.5 -156.5
t180.5 -53.5q119 0 181.5 53.5t62.5 156.5v392h137v-393z" />
    <glyph glyph-name="utilde" unicode="&#x169;" horiz-adv-x="813" 
d="M601 765q18 -164 -99 -164q-28 0 -55 13.5t-45 29.5t-38.5 29.5t-37.5 13.5q-43 0 -33 -75h-84q-17 165 101 165q27 0 54 -13.5t45 -30t38.5 -30t36.5 -13.5q43 0 32 75h85zM585 289v257h130v-546h-116l-10 116q-40 -60 -106.5 -93.5t-148.5 -33.5q-114 0 -180 60
t-66 171v326h130v-305q0 -71 41 -107.5t113 -36.5q93 0 153.5 51t59.5 141z" />
    <glyph glyph-name="Umacron" unicode="&#x16a;" horiz-adv-x="955" 
d="M281 782v88h392v-88h-392zM858 307q0 -152 -100 -235t-281 -83q-180 0 -280 83t-100 235v393h137v-392q0 -103 62.5 -156.5t180.5 -53.5q119 0 181.5 53.5t62.5 156.5v392h137v-393z" />
    <glyph glyph-name="umacron" unicode="&#x16b;" horiz-adv-x="813" 
d="M210 629v88h392v-88h-392zM585 289v257h130v-546h-116l-10 116q-40 -60 -106.5 -93.5t-148.5 -33.5q-114 0 -180 60t-66 171v326h130v-305q0 -71 41 -107.5t113 -36.5q93 0 153.5 51t59.5 141z" />
    <glyph glyph-name="Ubreve" unicode="&#x16c;" horiz-adv-x="955" 
d="M569 915h99q0 -156 -191 -156q-192 0 -192 156h99q0 -83 93 -83q92 0 92 83zM858 307q0 -152 -100 -235t-281 -83q-180 0 -280 83t-100 235v393h137v-392q0 -103 62.5 -156.5t180.5 -53.5q119 0 181.5 53.5t62.5 156.5v392h137v-393z" />
    <glyph glyph-name="ubreve" unicode="&#x16d;" horiz-adv-x="813" 
d="M498 762h99q0 -156 -191 -156q-192 0 -192 156h99q0 -83 93 -83q92 0 92 83zM585 289v257h130v-546h-116l-10 116q-40 -60 -106.5 -93.5t-148.5 -33.5q-114 0 -180 60t-66 171v326h130v-305q0 -71 41 -107.5t113 -36.5q93 0 153.5 51t59.5 141z" />
    <glyph glyph-name="Uring" unicode="&#x16e;" horiz-adv-x="955" 
d="M478 747q-68 0 -107.5 30t-39.5 82q0 50 39.5 80t107.5 30q67 0 105.5 -29.5t38.5 -80.5q0 -52 -38.5 -82t-105.5 -30zM478 803q76 0 76 56q0 53 -76 53q-78 0 -78 -53q0 -56 78 -56zM858 307q0 -152 -100 -235t-281 -83q-180 0 -280 83t-100 235v393h137v-392
q0 -103 62.5 -156.5t180.5 -53.5q119 0 181.5 53.5t62.5 156.5v392h137v-393z" />
    <glyph glyph-name="uring" unicode="&#x16f;" horiz-adv-x="813" 
d="M407 594q-68 0 -107.5 30t-39.5 82q0 50 39.5 80t107.5 30q67 0 105.5 -29.5t38.5 -80.5q0 -52 -38.5 -82t-105.5 -30zM407 650q76 0 76 56q0 53 -76 53q-78 0 -78 -53q0 -56 78 -56zM585 289v257h130v-546h-116l-10 116q-40 -60 -106.5 -93.5t-148.5 -33.5
q-114 0 -180 60t-66 171v326h130v-305q0 -71 41 -107.5t113 -36.5q93 0 153.5 51t59.5 141z" />
    <glyph glyph-name="Uhungarumlaut" unicode="&#x170;" horiz-adv-x="955" 
d="M309 762l103 159h143l-145 -159h-101zM526 762l103 159h143l-146 -159h-100zM858 307q0 -152 -100 -235t-281 -83q-180 0 -280 83t-100 235v393h137v-392q0 -103 62.5 -156.5t180.5 -53.5q119 0 181.5 53.5t62.5 156.5v392h137v-393z" />
    <glyph glyph-name="uhungarumlaut" unicode="&#x171;" horiz-adv-x="813" 
d="M235 609l103 159h143l-145 -159h-101zM452 609l103 159h143l-146 -159h-100zM585 289v257h130v-546h-116l-10 116q-40 -60 -106.5 -93.5t-148.5 -33.5q-114 0 -180 60t-66 171v326h130v-305q0 -71 41 -107.5t113 -36.5q93 0 153.5 51t59.5 141z" />
    <glyph glyph-name="Uogonek" unicode="&#x172;" horiz-adv-x="955" 
d="M516 -214q-69 0 -105.5 26t-36.5 73q0 65 72 105q-166 7 -257.5 89.5t-91.5 227.5v393h137v-392q0 -103 62.5 -156.5t180.5 -53.5q119 0 181.5 53.5t62.5 156.5v392h137v-393q0 -201 -174 -278q-32 -15 -92.5 -36.5t-87 -36.5t-26.5 -37q0 -38 60 -38q42 0 92 15l-3 -93
q-49 -17 -111 -17z" />
    <glyph glyph-name="uogonek" unicode="&#x173;" horiz-adv-x="813" 
d="M460 -114q0 91 137 134l-8 96q-40 -60 -106.5 -93.5t-148.5 -33.5q-114 0 -180 60t-66 171v326h130v-305q0 -71 41 -107.5t113 -36.5q93 0 153.5 51t59.5 141v257h130v-546h-1q-150 -28 -150 -81q0 -38 61 -38q41 0 91 15l-3 -93q-49 -17 -109 -17q-144 0 -144 100z" />
    <glyph glyph-name="Wcircumflex" unicode="&#x174;" horiz-adv-x="1280" 
d="M762 762l-124 96l-123 -96h-100l149 159h153l148 -159h-103zM284 0l-269 700h146l196 -543l216 543h134l218 -541l196 541h144l-270 -700h-135l-222 547l-222 -547h-132z" />
    <glyph glyph-name="wcircumflex" unicode="&#x175;" horiz-adv-x="1060" 
d="M652 609l-124 96l-123 -96h-100l149 159h153l148 -159h-103zM243 0l-230 546h135l159 -402l170 402h109l174 -400l158 400h129l-231 -546h-107l-178 413l-180 -413h-108z" />
    <glyph glyph-name="Ycircumflex" unicode="&#x176;" horiz-adv-x="819" 
d="M532 762l-124 96l-123 -96h-100l149 159h153l148 -159h-103zM340 0v279l-334 421h168l238 -307l241 307h161l-337 -424v-276h-137z" />
    <glyph glyph-name="ycircumflex" unicode="&#x177;" horiz-adv-x="700" 
d="M472 609l-124 96l-123 -96h-100l149 159h153l148 -159h-103zM554 546h136l-286 -573q-53 -103 -106.5 -143.5t-141.5 -40.5q-50 0 -89 12l-5 98q32 -7 69 -7q61 0 94.5 24.5t69.5 96.5l-285 533h144l207 -409z" />
    <glyph glyph-name="Ydieresis" unicode="&#x178;" horiz-adv-x="819" 
d="M465 775v122h138v-122h-138zM216 775v122h138v-122h-138zM340 0v279l-334 421h168l238 -307l241 307h161l-337 -424v-276h-137z" />
    <glyph glyph-name="Zacute" unicode="&#x179;" horiz-adv-x="816" 
d="M346 762l137 159h168l-195 -159h-110zM51 0v104l526 488h-523v108h712v-101l-530 -491h530v-108h-715z" />
    <glyph glyph-name="zacute" unicode="&#x17a;" horiz-adv-x="684" 
d="M287 609l137 159h168l-195 -159h-110zM49 0v97l419 352h-413v97h582v-97l-419 -352h421v-97h-590z" />
    <glyph glyph-name="Zdotaccent" unicode="&#x17b;" horiz-adv-x="816" 
d="M340 775v129h135v-129h-135zM51 0v104l526 488h-523v108h712v-101l-530 -491h530v-108h-715z" />
    <glyph glyph-name="zdotaccent" unicode="&#x17c;" horiz-adv-x="684" 
d="M276 622v129h135v-129h-135zM49 0v97l419 352h-413v97h582v-97l-419 -352h421v-97h-590z" />
    <glyph glyph-name="Zcaron" unicode="&#x17d;" horiz-adv-x="816" 
d="M633 921l-150 -159h-153l-147 159h103l124 -96l122 96h101zM51 0v104l526 488h-523v108h712v-101l-530 -491h530v-108h-715z" />
    <glyph glyph-name="zcaron" unicode="&#x17e;" horiz-adv-x="684" 
d="M569 768l-150 -159h-153l-147 159h103l124 -96l122 96h101zM49 0v97l419 352h-413v97h582v-97l-419 -352h421v-97h-590z" />
    <glyph glyph-name="uni0191" unicode="&#x191;" horiz-adv-x="821" 
d="M116 700h661v-109h-524v-209h468v-109h-468v-225q0 -259 -252 -259q-51 0 -119 13l-5 111q53 -11 95 -11q77 0 110.5 33t33.5 113v652z" />
    <glyph glyph-name="uni0192" unicode="&#x192;" horiz-adv-x="519" 
d="M136 -11v459h-119v98h119v12q0 203 243 203q67 0 132 -13l-4 -96q-50 10 -111 10q-69 0 -99.5 -24t-30.5 -80v-12h243v-98h-243v-452q0 -110 -48 -158.5t-152 -48.5q-42 0 -84 8l-4 98q37 -5 60 -5q52 0 75 23t23 76z" />
    <glyph glyph-name="uni0218" unicode="&#x218;" horiz-adv-x="887" 
d="M48 213l139 21q28 -139 264 -139q243 0 243 99q0 46 -38 66.5t-136 31.5l-184 13q-133 14 -199 60t-66 133q0 100 94.5 156.5t269.5 56.5q335 0 381 -211l-139 -20q-15 64 -74 94.5t-170 30.5q-223 0 -223 -95q0 -44 38.5 -63.5t131.5 -29.5l188 -14q136 -15 200.5 -60.5
t64.5 -135.5q0 -106 -97.5 -162t-286.5 -56q-357 0 -401 224zM278 -209l89 147h153l-140 -147h-102z" />
    <glyph glyph-name="uni0219" unicode="&#x219;" horiz-adv-x="734" 
d="M359 465q-175 0 -175 -67q0 -31 28.5 -45.5t102.5 -20.5l134 -8q127 -11 182 -47.5t55 -109.5q0 -85 -81 -131.5t-237 -46.5q-150 0 -227.5 42.5t-99.5 134.5l124 18q19 -103 201 -103q193 0 193 72q0 34 -27.5 49t-98.5 21l-135 8q-125 10 -181.5 47.5t-56.5 109.5
q0 79 78.5 124t220.5 45t218.5 -40.5t95.5 -126.5l-121 -18q-10 48 -56 70.5t-137 22.5zM210 -209l89 147h153l-140 -147h-102z" />
    <glyph glyph-name="uni021A" unicode="&#x21a;" horiz-adv-x="829" 
d="M345 0v591h-318v109h775v-109h-320v-591h-137zM246 -209l89 147h153l-140 -147h-102z" />
    <glyph glyph-name="uni021B" unicode="&#x21b;" horiz-adv-x="553" 
d="M127 193v255h-115v98h75q23 0 33.5 2.5t19 18.5t11.5 41t6 78h101v-140h253v-98h-253v-240q0 -65 29 -91t102 -26q62 0 130 14l-4 -100q-80 -16 -159 -16q-118 0 -173.5 47t-55.5 157zM137 -209l89 147h153l-140 -147h-102z" />
    <glyph glyph-name="dotlessj" unicode="&#x237;" 
d="M98 -11v557h130v-550q0 -110 -48 -158.5t-152 -48.5q-39 0 -84 8l-4 98q37 -5 60 -5q52 0 75 23t23 76z" />
    <glyph glyph-name="uni02BC" unicode="&#x2bc;" horiz-adv-x="322" 
d="M89 700h141v-129q0 -92 -36 -130.5t-123 -39.5l-6 73q51 0 68 17.5t17 69.5v9h-61v130z" />
    <glyph glyph-name="circumflex" unicode="&#x2c6;" horiz-adv-x="500" 
d="M372 609l-124 96l-123 -96h-100l149 159h153l148 -159h-103z" />
    <glyph glyph-name="caron" unicode="&#x2c7;" horiz-adv-x="500" 
d="M475 768l-150 -159h-153l-147 159h103l124 -96l122 96h101z" />
    <glyph glyph-name="breve" unicode="&#x2d8;" horiz-adv-x="500" 
d="M342 762h99q0 -156 -191 -156q-192 0 -192 156h99q0 -83 93 -83q92 0 92 83z" />
    <glyph glyph-name="dotaccent" unicode="&#x2d9;" horiz-adv-x="500" 
d="M182 622v129h135v-129h-135z" />
    <glyph glyph-name="ring" unicode="&#x2da;" horiz-adv-x="500" 
d="M251 594q-68 0 -107.5 30t-39.5 82q0 50 39.5 80t107.5 30q67 0 105.5 -29.5t38.5 -80.5q0 -52 -38.5 -82t-105.5 -30zM251 650q76 0 76 56q0 53 -76 53q-78 0 -78 -53q0 -56 78 -56z" />
    <glyph glyph-name="ogonek" unicode="&#x2db;" horiz-adv-x="500" 
d="M206 -114q0 53 47 90.5t157 61.5l50 -38q-150 -28 -150 -81q0 -38 61 -38q41 0 91 15l-3 -93q-49 -17 -109 -17q-144 0 -144 100z" />
    <glyph glyph-name="tilde" unicode="&#x2dc;" horiz-adv-x="500" 
d="M445 765q18 -164 -99 -164q-28 0 -55 13.5t-45 29.5t-38.5 29.5t-37.5 13.5q-43 0 -33 -75h-84q-17 165 101 165q27 0 54 -13.5t45 -30t38.5 -30t36.5 -13.5q43 0 32 75h85z" />
    <glyph glyph-name="hungarumlaut" unicode="&#x2dd;" horiz-adv-x="500" 
d="M79 609l103 159h143l-145 -159h-101zM296 609l103 159h143l-146 -159h-100z" />
    <glyph glyph-name="pi" unicode="&#x3c0;" horiz-adv-x="867" 
d="M24 450v96h819v-96h-102v-450h-132v450h-353v-450h-132v450h-100z" />
    <glyph glyph-name="uni0400" unicode="&#x400;" horiz-adv-x="840" 
d="M506 764h-110l-195 159h169zM116 0v700h661v-106h-527v-184h471v-105h-471v-199h534v-106h-668z" />
    <glyph glyph-name="afii10023" unicode="&#x401;" horiz-adv-x="840" 
d="M502 767v122h138v-122h-138zM253 767v122h138v-122h-138zM116 0v700h661v-106h-527v-184h471v-105h-471v-199h534v-106h-668z" />
    <glyph glyph-name="afii10051" unicode="&#x402;" horiz-adv-x="1120" 
d="M345 0v591h-318v109h775v-109h-320v-258q96 124 293 124q123 0 193 -59t70 -161v-35q0 -213 -257 -213q-63 0 -118 12l-4 96q55 -10 101 -10q141 0 141 114v28q0 59 -43.5 93t-123.5 34q-106 0 -179 -55t-73 -138v-163h-137z" />
    <glyph glyph-name="afii10052" unicode="&#x403;" horiz-adv-x="772" 
d="M359 775l137 159h168l-195 -159h-110zM116 0v700h627v-109h-490v-591h-137z" />
    <glyph glyph-name="afii10053" unicode="&#x404;" horiz-adv-x="945" 
d="M59 350q0 165 116.5 263t315.5 98q168 0 271 -61.5t134 -178.5l-142 -28q-42 159 -263 159q-124 0 -197 -51t-90 -145h439v-101h-441q14 -100 88 -153.5t201 -53.5q233 0 266 164l140 -27q-28 -120 -132 -183t-274 -63q-204 0 -318 97t-114 264z" />
    <glyph glyph-name="afii10054" unicode="&#x405;" horiz-adv-x="887" 
d="M48 213l139 21q28 -139 264 -139q243 0 243 99q0 46 -38 66.5t-136 31.5l-184 13q-133 14 -199 60t-66 133q0 100 94.5 156.5t269.5 56.5q335 0 381 -211l-139 -20q-15 64 -74 94.5t-170 30.5q-223 0 -223 -95q0 -44 38.5 -63.5t131.5 -29.5l188 -14q136 -15 200.5 -60.5
t64.5 -135.5q0 -106 -97.5 -162t-286.5 -56q-357 0 -401 224z" />
    <glyph glyph-name="afii10055" unicode="&#x406;" horiz-adv-x="369" 
d="M116 0v700h137v-700h-137z" />
    <glyph glyph-name="afii10056" unicode="&#x407;" horiz-adv-x="369" 
d="M240 775v122h138v-122h-138zM-9 775v122h138v-122h-138zM116 0v700h137v-700h-137z" />
    <glyph glyph-name="afii10057" unicode="&#x408;" horiz-adv-x="551" 
d="M445 251q0 -135 -65 -198.5t-209 -63.5q-66 0 -140 13l-5 111q66 -11 121 -11q88 0 124.5 33.5t36.5 112.5v452h137v-449z" />
    <glyph glyph-name="afii10058" unicode="&#x409;" horiz-adv-x="1480" 
d="M9 105q81 8 113 53q29 38 38.5 122.5t14.5 298.5l3 121h670v-234h326q121 0 192.5 -63t71.5 -170t-71.5 -170t-192.5 -63h-463v591h-400l-1 -27q-6 -237 -23.5 -338t-63.5 -156q-34 -41 -81 -59t-122 -20zM1156 360h-308v-254h308q67 0 105 33t38 94q0 62 -37.5 94.5
t-105.5 32.5z" />
    <glyph glyph-name="afii10059" unicode="&#x40a;" horiz-adv-x="1557" 
d="M116 0v700h137v-270h519v270h137v-270h350q117 0 186.5 -58t69.5 -156q0 -99 -69 -157.5t-187 -58.5h-487v321h-519v-321h-137zM1244 324h-335v-218h335q63 0 98 28.5t35 81.5q0 52 -35 80t-98 28z" />
    <glyph glyph-name="afii10060" unicode="&#x40b;" horiz-adv-x="1093" 
d="M340 0v591h-318v109h775v-109h-320v-258q91 118 268 118q125 0 192 -62t67 -169v-220h-136v186q0 76 -42.5 117.5t-124.5 41.5q-101 0 -162.5 -54t-61.5 -142v-149h-137z" />
    <glyph glyph-name="afii10061" unicode="&#x40c;" horiz-adv-x="893" 
d="M394 765l137 159h168l-195 -159h-110zM116 0v700h135v-330l437 330h188l-452 -333l468 -367h-198l-443 346v-346h-135z" />
    <glyph glyph-name="uni040D" unicode="&#x40d;" horiz-adv-x="1010" 
d="M568 765h-110l-195 159h169zM116 0v700h132v-529l514 529h132v-700h-132v529l-514 -529h-132z" />
    <glyph glyph-name="afii10062" unicode="&#x40e;" horiz-adv-x="847" 
d="M554 930h122q0 -90 -67 -142.5t-181 -52.5q-113 0 -179.5 52.5t-66.5 142.5h121q0 -47 34 -74.5t91 -27.5q58 0 92 27.5t34 74.5zM242 0l120 189l-351 511h158l269 -394l249 394h151l-442 -700h-154z" />
    <glyph glyph-name="afii10145" unicode="&#x40f;" horiz-adv-x="979" 
d="M116 0v700h137v-592h474v592h137v-700h-309v-164h-130v164h-309z" />
    <glyph glyph-name="afii10017" unicode="&#x410;" horiz-adv-x="916" 
d="M756 0l-88 167h-426l-88 -167h-144l377 700h140l378 -700h-149zM297 272h315l-157 298z" />
    <glyph glyph-name="afii10018" unicode="&#x411;" horiz-adv-x="907" 
d="M116 0v700h678v-107h-546v-168h358q111 0 175.5 -57.5t64.5 -156.5q0 -98 -64 -154.5t-175 -56.5h-491zM589 321h-341v-218h341q59 0 90.5 28t31.5 80q0 53 -32.5 81.5t-89.5 28.5z" />
    <glyph glyph-name="afii10019" unicode="&#x412;" horiz-adv-x="936" 
d="M116 0v700h494q108 0 169.5 -47t61.5 -131q0 -55 -30.5 -97.5t-89.5 -62.5q73 -18 112 -62.5t39 -109.5q0 -90 -64.5 -140t-182.5 -50h-509zM585 599h-335v-194h336q55 0 87.5 26t32.5 73q0 46 -31 70.5t-90 24.5zM598 303h-348v-202h351q130 0 130 99q0 50 -35 76.5
t-98 26.5z" />
    <glyph glyph-name="afii10020" unicode="&#x413;" horiz-adv-x="772" 
d="M116 0v700h627v-109h-490v-591h-137z" />
    <glyph glyph-name="afii10021" unicode="&#x414;" horiz-adv-x="963" 
d="M10 -167v275h69q36 33 56 77t32.5 135.5t15.5 246.5l4 133h647v-592h97v-275h-130v167h-661v-167h-130zM273 203q-18 -54 -55 -95h481v483h-384l-1 -22q-6 -262 -41 -366z" />
    <glyph glyph-name="afii10022" unicode="&#x415;" horiz-adv-x="840" 
d="M116 0v700h661v-106h-527v-184h471v-105h-471v-199h534v-106h-668z" />
    <glyph glyph-name="afii10024" unicode="&#x416;" horiz-adv-x="1199" 
d="M532 0v349l-357 -349h-174l380 367l-367 333h170l348 -328v328h135v-323l350 323h170l-368 -328l379 -372h-176l-355 352v-352h-135z" />
    <glyph glyph-name="afii10025" unicode="&#x417;" horiz-adv-x="898" 
d="M836 198q0 -102 -102 -155.5t-293 -53.5q-353 0 -387 222l140 26q9 -74 68.5 -110.5t177.5 -36.5q247 0 247 114q0 103 -180 103h-206v101h201q172 0 172 99q0 103 -233 103q-216 0 -242 -137l-132 27q45 211 374 211q185 0 281 -49t96 -143q0 -114 -142 -155
q160 -34 160 -166z" />
    <glyph glyph-name="afii10026" unicode="&#x418;" horiz-adv-x="1010" 
d="M116 0v700h132v-529l514 529h132v-700h-132v529l-514 -529h-132z" />
    <glyph glyph-name="afii10027" unicode="&#x419;" horiz-adv-x="1010" 
d="M637 929h122q0 -90 -67 -142.5t-181 -52.5q-113 0 -179.5 52.5t-66.5 142.5h121q0 -47 34 -74.5t91 -27.5q58 0 92 27.5t34 74.5zM116 0v700h132v-529l514 529h132v-700h-132v529l-514 -529h-132z" />
    <glyph glyph-name="afii10028" unicode="&#x41a;" horiz-adv-x="893" 
d="M116 0v700h135v-330l437 330h188l-452 -333l468 -367h-198l-443 346v-346h-135z" />
    <glyph glyph-name="afii10029" unicode="&#x41b;" horiz-adv-x="964" 
d="M9 105q81 8 113 53q29 38 38.5 122.5t14.5 298.5l3 121h669v-700h-136v591h-400l-1 -27q-6 -237 -23.5 -338t-63.5 -156q-34 -41 -81 -59t-122 -20z" />
    <glyph glyph-name="afii10030" unicode="&#x41c;" horiz-adv-x="1182" 
d="M116 0v700h146l331 -463l328 463h145v-700h-128v530l-287 -411h-119l-288 406v-525h-128z" />
    <glyph glyph-name="afii10031" unicode="&#x41d;" horiz-adv-x="1022" 
d="M116 0v700h137v-284h516v284h137v-700h-137v306h-516v-306h-137z" />
    <glyph glyph-name="afii10032" unicode="&#x41e;" horiz-adv-x="995" 
d="M497 -11q-205 0 -321.5 97t-116.5 263q0 167 116 264.5t322 97.5q207 0 323 -97.5t116 -264.5q0 -166 -116 -263t-323 -97zM497 98q147 0 223 66t76 185q0 121 -76 187t-223 66q-146 0 -222 -66t-76 -187q0 -120 76 -185.5t222 -65.5z" />
    <glyph glyph-name="afii10033" unicode="&#x41f;" horiz-adv-x="1012" 
d="M116 0v700h780v-700h-137v591h-506v-591h-137z" />
    <glyph glyph-name="afii10034" unicode="&#x420;" horiz-adv-x="880" 
d="M116 0v700h445q126 0 199.5 -66t73.5 -179q0 -111 -74.5 -176t-203.5 -65h-303v-214h-137zM536 592h-283v-270h283q77 0 118 34t41 99q0 66 -41 101.5t-118 35.5z" />
    <glyph glyph-name="afii10035" unicode="&#x421;" horiz-adv-x="945" 
d="M59 350q0 165 116.5 263t315.5 98q168 0 271 -61.5t134 -178.5l-142 -28q-42 159 -263 159q-141 0 -216.5 -66t-75.5 -186q0 -121 75 -186.5t217 -65.5q233 0 266 164l140 -27q-28 -120 -132 -183t-274 -63q-204 0 -318 97t-114 264z" />
    <glyph glyph-name="afii10036" unicode="&#x422;" horiz-adv-x="829" 
d="M345 0v591h-318v109h775v-109h-320v-591h-137z" />
    <glyph glyph-name="afii10037" unicode="&#x423;" horiz-adv-x="847" 
d="M242 0l120 189l-351 511h158l269 -394l249 394h151l-442 -700h-154z" />
    <glyph glyph-name="afii10038" unicode="&#x424;" horiz-adv-x="1064" 
d="M462 -25v97h-29q-181 0 -284.5 75.5t-103.5 208.5t104.5 210t283.5 77h29v81h138v-81h31q180 0 284 -77t104 -210t-103.5 -208.5t-284.5 -75.5h-31v-97h-138zM887 356q0 89 -65.5 136.5t-188.5 47.5h-36v-365h36q123 0 188.5 47t65.5 134zM176 356q0 -87 66 -134t189 -47
h33v365h-33q-123 0 -189 -47.5t-66 -136.5z" />
    <glyph glyph-name="afii10039" unicode="&#x425;" horiz-adv-x="827" 
d="M177 0h-163l310 358l-304 342h170l228 -261l224 261h163l-306 -347l313 -353h-169l-236 270z" />
    <glyph glyph-name="afii10040" unicode="&#x426;" horiz-adv-x="993" 
d="M116 0v700h137v-592h483v592h137v-592h92v-275h-131v167h-718z" />
    <glyph glyph-name="afii10041" unicode="&#x427;" horiz-adv-x="930" 
d="M85 483v217h136v-191q0 -86 50.5 -122t157.5 -36q110 0 249 43v306h136v-700h-136v288q-143 -53 -283 -53q-156 0 -233 60t-77 188z" />
    <glyph glyph-name="afii10042" unicode="&#x428;" horiz-adv-x="1345" 
d="M116 0v700h137v-591h351v591h137v-591h351v591h136v-700h-1112z" />
    <glyph glyph-name="afii10043" unicode="&#x429;" horiz-adv-x="1348" 
d="M116 0v700h137v-591h351v591h137v-591h351v591h136v-591h92v-276h-130v167h-1074z" />
    <glyph glyph-name="afii10044" unicode="&#x42a;" horiz-adv-x="996" 
d="M249 0v593h-239v107h373v-234h308q122 0 193.5 -63t71.5 -170t-71.5 -170t-193.5 -63h-442zM673 360h-290v-254h290q68 0 105.5 33t37.5 94q0 62 -37.5 94.5t-105.5 32.5z" />
    <glyph glyph-name="afii10045" unicode="&#x42b;" horiz-adv-x="1194" 
d="M941 1v700h137v-700h-137zM116 0v700h137v-234h326q121 0 192.5 -63t71.5 -170t-71.5 -170t-192.5 -63h-463zM561 360h-308v-254h308q67 0 105 33t38 94q0 62 -37.5 94.5t-105.5 32.5z" />
    <glyph glyph-name="afii10046" unicode="&#x42c;" horiz-adv-x="885" 
d="M116 0v700h137v-234h326q121 0 192.5 -63t71.5 -170t-71.5 -170t-192.5 -63h-463zM561 360h-308v-254h308q67 0 105 33t38 94q0 62 -37.5 94.5t-105.5 32.5z" />
    <glyph glyph-name="afii10047" unicode="&#x42d;" horiz-adv-x="944" 
d="M189 449l-136 28q32 114 136 174t272 60q194 0 308.5 -97t114.5 -264t-113 -264t-313 -97q-173 0 -278.5 62t-132.5 182l139 27q33 -165 272 -165q126 0 199 54.5t86 155.5h-426v101h425q-17 97 -88.5 148t-192.5 51q-229 0 -272 -156z" />
    <glyph glyph-name="afii10048" unicode="&#x42e;" horiz-adv-x="1312" 
d="M116 0v700h137v-287h128q21 139 134.5 218.5t299.5 79.5q206 0 322 -97.5t116 -264.5q0 -166 -116 -263t-322 -97q-192 0 -307 84.5t-130 232.5h-125v-306h-137zM815 98q145 0 221 65.5t76 185.5q0 121 -76 187t-221 66q-147 0 -222.5 -66t-75.5 -187q0 -120 75.5 -185.5
t222.5 -65.5z" />
    <glyph glyph-name="afii10049" unicode="&#x42f;" horiz-adv-x="910" 
d="M794 0h-137v251h-188l-246 -251h-166l252 256q-110 7 -174 66t-64 153q0 103 70 164t188 61h465v-700zM352 354h305v242h-305q-67 0 -103.5 -31.5t-36.5 -89.5t36.5 -89.5t103.5 -31.5z" />
    <glyph glyph-name="afii10065" unicode="&#x430;" horiz-adv-x="760" 
d="M57 384q42 173 311 173q156 0 228 -51t72 -159v-215q0 -46 42 -46q8 0 22 2l-3 -88q-30 -9 -62 -9q-116 0 -119 111q-44 -53 -118.5 -83t-164.5 -30q-109 0 -169.5 42.5t-60.5 118.5t57.5 117t180.5 50l273 19v1q0 66 -42.5 95.5t-137.5 29.5q-168 0 -183 -98zM161 157
q0 -74 127 -74q108 0 184 44.5t76 111.5v15l-273 -20q-114 -9 -114 -77z" />
    <glyph glyph-name="afii10066" unicode="&#x431;" horiz-adv-x="833" 
d="M422 -11q-176 0 -265.5 83t-89.5 238v34q0 203 87.5 296.5t283.5 102.5l168 7q67 3 116 14l10 -99q-50 -15 -124 -18l-170 -6q-127 -5 -185 -56.5t-68 -174.5q39 58 113 89.5t171 31.5q149 0 228.5 -70.5t79.5 -197.5q0 -126 -95 -200t-260 -74zM423 90q110 0 165.5 45
t55.5 129q0 174 -214 174q-108 0 -168 -45t-60 -126q0 -84 55.5 -130.5t165.5 -46.5z" />
    <glyph glyph-name="afii10067" unicode="&#x432;" horiz-adv-x="786" 
d="M98 0v546h426q87 0 136 -36.5t49 -102.5q0 -95 -103 -124q62 -13 95.5 -48.5t33.5 -89.5q0 -69 -52 -107t-146 -38h-439zM490 458h-266v-137h266q90 0 90 71q0 66 -90 66zM501 236h-277v-149h280q98 0 98 73q0 76 -101 76z" />
    <glyph glyph-name="afii10068" unicode="&#x433;" horiz-adv-x="625" 
d="M98 0v546h511v-102h-381v-444h-130z" />
    <glyph glyph-name="afii10069" unicode="&#x434;" horiz-adv-x="805" 
d="M12 -158v259h64q45 43 61.5 121t21.5 264l2 60h531v-445h86v-259h-122v158h-523v-158h-121zM248 175q-13 -41 -41 -74h362v349h-290q-4 -193 -31 -275z" />
    <glyph glyph-name="afii10070" unicode="&#x435;" horiz-adv-x="803" 
d="M411 -11q-167 0 -261 76.5t-94 208.5q0 129 93.5 206t257.5 77q159 0 252 -73.5t93 -196.5q0 -22 -5 -47h-563q11 -74 68 -114t159 -40q178 0 212 93l125 -22q-28 -84 -109 -126t-228 -42zM408 462q-191 0 -221 -137h436q-11 66 -66 101.5t-149 35.5z" />
    <glyph glyph-name="afii10072" unicode="&#x436;" horiz-adv-x="996" 
d="M434 0v277l-268 -277h-164l292 295l-283 251h162l261 -248v248h126v-249l263 249h162l-283 -251l292 -295h-165l-269 278v-278h-126z" />
    <glyph glyph-name="afii10073" unicode="&#x437;" horiz-adv-x="743" 
d="M692 153q0 -164 -330 -164q-149 0 -229.5 43t-95.5 136l127 22q8 -58 55 -84.5t144 -26.5q195 0 195 83q0 76 -143 76h-162v86h161q136 0 136 71q0 72 -184 72q-94 0 -140.5 -25t-57.5 -79l-120 22q34 172 318 172q312 0 312 -146q0 -97 -127 -127q141 -21 141 -131z" />
    <glyph glyph-name="afii10074" unicode="&#x438;" horiz-adv-x="832" 
d="M98 0v546h128v-394l380 394h128v-546h-128v394l-380 -394h-128z" />
    <glyph glyph-name="afii10075" unicode="&#x439;" horiz-adv-x="832" 
d="M530 763h112q0 -75 -60 -118t-159 -43t-159 43t-60 118h111q0 -39 29 -61.5t79 -22.5t78.5 22.5t28.5 61.5zM98 0v546h128v-394l380 394h128v-546h-128v394l-380 -394h-128z" />
    <glyph glyph-name="afii10076" unicode="&#x43a;" horiz-adv-x="749" 
d="M98 0v546h130v-252l336 252h175l-350 -255l358 -291h-180l-339 275v-275h-130z" />
    <glyph glyph-name="afii10077" unicode="&#x43b;" horiz-adv-x="792" 
d="M16 92q57 3 85 35q25 29 34.5 94.5t11.5 201.5l2 123h544v-546h-130v443h-292l-1 -36q-2 -151 -19.5 -233t-55.5 -123q-51 -56 -173 -59z" />
    <glyph glyph-name="afii10078" unicode="&#x43c;" horiz-adv-x="1007" 
d="M220 0h-122v546h145l261 -351l259 351h145v-546h-122v405l-224 -308h-116l-226 308v-405z" />
    <glyph glyph-name="afii10079" unicode="&#x43d;" horiz-adv-x="841" 
d="M98 0v546h130v-209h384v209h130v-546h-130v236h-384v-236h-130z" />
    <glyph glyph-name="afii10080" unicode="&#x43e;" horiz-adv-x="818" 
d="M409 -11q-167 0 -260 76t-93 208t93 208t260 76q168 0 261 -76t93 -208q0 -133 -93 -208.5t-261 -75.5zM409 90q110 0 165.5 47t55.5 136t-55.5 136t-165.5 47t-165 -47t-55 -136t55.5 -136t164.5 -47z" />
    <glyph glyph-name="afii10081" unicode="&#x43f;" horiz-adv-x="828" 
d="M98 0v546h632v-546h-130v443h-372v-443h-130z" />
    <glyph glyph-name="afii10082" unicode="&#x440;" horiz-adv-x="857" 
d="M492 -11q-85 0 -153.5 29.5t-110.5 82.5v-301h-130v746h117l8 -108q42 56 111 87.5t158 31.5q143 0 226 -77.5t83 -206.5t-82.5 -206.5t-226.5 -77.5zM452 91q105 0 160.5 48.5t55.5 133.5q0 84 -56 133t-160 49t-164 -50t-60 -133q0 -82 60 -131.5t164 -49.5z" />
    <glyph glyph-name="afii10083" unicode="&#x441;" horiz-adv-x="778" 
d="M738 358l-129 -24q-26 122 -203 122q-107 0 -162 -47.5t-55 -136.5q0 -87 55.5 -134.5t162.5 -47.5q179 0 205 124l128 -24q-22 -97 -108.5 -149t-224.5 -52q-165 0 -258 76t-93 207q0 132 92.5 208.5t257.5 76.5q138 0 224 -51t108 -148z" />
    <glyph glyph-name="afii10084" unicode="&#x442;" horiz-adv-x="681" 
d="M275 0v443h-257v103h645v-103h-258v-443h-130z" />
    <glyph glyph-name="afii10085" unicode="&#x443;" horiz-adv-x="700" 
d="M554 546h136l-286 -573q-53 -103 -106.5 -143.5t-141.5 -40.5q-50 0 -89 12l-5 98q32 -7 69 -7q61 0 94.5 24.5t69.5 96.5l-285 533h144l207 -409z" />
    <glyph glyph-name="afii10086" unicode="&#x444;" horiz-adv-x="979" 
d="M426 -200v192q-179 4 -275.5 77.5t-96.5 202.5q0 130 96.5 204t275.5 78v196h127v-196q179 -4 275.5 -78t96.5 -204q0 -129 -96.5 -202.5t-275.5 -77.5v-192h-127zM798 272q0 180 -245 189v-376q245 9 245 187zM180 272q0 -178 246 -187v376q-246 -9 -246 -189z" />
    <glyph glyph-name="afii10087" unicode="&#x445;" horiz-adv-x="720" 
d="M168 0h-154l262 282l-251 264h159l179 -189l181 189h151l-255 -266l266 -280h-160l-190 203z" />
    <glyph glyph-name="afii10088" unicode="&#x446;" horiz-adv-x="833" 
d="M98 0v546h130v-444h365v444h130v-444h86v-260h-121v158h-590z" />
    <glyph glyph-name="afii10089" unicode="&#x447;" horiz-adv-x="775" 
d="M202 416q0 -75 37 -103.5t126 -28.5q91 0 181 34v228h130v-546h-130v227q-115 -42 -220 -42q-131 0 -192.5 52t-61.5 164v145h130v-130z" />
    <glyph glyph-name="afii10090" unicode="&#x448;" horiz-adv-x="1106" 
d="M98 0v546h127v-444h264v444h127v-444h264v444h127v-546h-909z" />
    <glyph glyph-name="afii10091" unicode="&#x449;" horiz-adv-x="1117" 
d="M98 0v546h127v-444h264v444h127v-444h264v444h127v-444h86v-260h-121v158h-874z" />
    <glyph glyph-name="afii10092" unicode="&#x44a;" horiz-adv-x="827" 
d="M195 0v446h-187v100h314v-168h247q104 0 162 -50.5t58 -139.5q0 -88 -58 -138t-162 -50h-374zM549 287h-227v-195h227q115 0 115 96q0 99 -115 99z" />
    <glyph glyph-name="afii10093" unicode="&#x44b;" horiz-adv-x="1023" 
d="M794 0v546h130v-546h-130zM98 0v546h130v-168h264q104 0 161.5 -50.5t57.5 -139.5q0 -88 -58 -138t-161 -50h-394zM472 287h-244v-195h244q115 0 115 96q0 48 -30 73.5t-85 25.5z" />
    <glyph glyph-name="afii10094" unicode="&#x44c;" horiz-adv-x="750" 
d="M98 0v546h130v-168h264q104 0 161.5 -50.5t57.5 -139.5q0 -88 -58 -138t-161 -50h-394zM472 287h-244v-195h244q115 0 115 96q0 48 -30 73.5t-85 25.5z" />
    <glyph glyph-name="afii10095" unicode="&#x44d;" horiz-adv-x="785" 
d="M168 346l-124 24q23 92 109.5 139.5t225.5 47.5q165 0 257.5 -77t92.5 -207q0 -131 -92.5 -207.5t-258.5 -76.5q-289 0 -337 189l125 24q26 -115 212 -115q200 0 223 146h-334v88h332q-28 138 -220 138q-185 0 -211 -113z" />
    <glyph glyph-name="afii10096" unicode="&#x44e;" horiz-adv-x="1096" 
d="M98 0v546h130v-214h109q20 106 111 165.5t238 59.5q167 0 260 -76t93 -208q0 -133 -92.5 -208.5t-260.5 -75.5q-153 0 -244.5 64t-106.5 177h-107v-230h-130zM686 89q109 0 164.5 47.5t55.5 136.5t-55.5 136t-164.5 47q-110 0 -165 -47t-55 -136t55.5 -136.5t164.5 -47.5
z" />
    <glyph glyph-name="afii10097" unicode="&#x44f;" horiz-adv-x="762" 
d="M51 371q0 82 60 128.5t165 46.5h388v-546h-128v193h-157l-183 -193h-153l195 204q-91 9 -139 51.5t-48 115.5zM286 285h250v171h-250q-52 0 -80.5 -22t-28.5 -64t28.5 -63.5t80.5 -21.5z" />
    <glyph glyph-name="uni0450" unicode="&#x450;" horiz-adv-x="803" 
d="M458 609h-110l-195 159h169zM411 -11q-167 0 -261 76.5t-94 208.5q0 129 93.5 206t257.5 77q159 0 252 -73.5t93 -196.5q0 -22 -5 -47h-563q11 -74 68 -114t159 -40q178 0 212 93l125 -22q-28 -84 -109 -126t-228 -42zM408 462q-191 0 -221 -137h436q-11 66 -66 101.5
t-149 35.5z" />
    <glyph glyph-name="afii10071" unicode="&#x451;" horiz-adv-x="803" 
d="M457 622v122h138v-122h-138zM208 622v122h138v-122h-138zM411 -11q-167 0 -261 76.5t-94 208.5q0 129 93.5 206t257.5 77q159 0 252 -73.5t93 -196.5q0 -22 -5 -47h-563q11 -74 68 -114t159 -40q178 0 212 93l125 -22q-28 -84 -109 -126t-228 -42zM408 462
q-191 0 -221 -137h436q-11 66 -66 101.5t-149 35.5z" />
    <glyph glyph-name="afii10099" unicode="&#x452;" horiz-adv-x="836" 
d="M109 0v553h-103v98h103v99h131v-99h225v-98h-225v-181q42 57 109.5 89t149.5 32q119 0 184 -62t65 -172v-257q0 -115 -47.5 -164t-159.5 -49q-47 0 -85 9l-5 97q33 -5 61 -5q56 0 81 23.5t25 77.5v242q0 71 -42 112t-120 41q-97 0 -156.5 -52.5t-59.5 -139.5v-194h-131z
" />
    <glyph glyph-name="afii10100" unicode="&#x453;" horiz-adv-x="625" 
d="M282 609l137 159h168l-195 -159h-110zM98 0v546h511v-102h-381v-444h-130z" />
    <glyph glyph-name="afii10101" unicode="&#x454;" horiz-adv-x="788" 
d="M520 319v-87h-332q12 -70 68 -108t152 -38q184 0 211 115l128 -24q-25 -92 -112.5 -140t-226.5 -48q-164 0 -258 76.5t-94 206.5q0 131 93.5 208t258.5 77q141 0 227.5 -47.5t108.5 -138.5l-128 -24q-29 113 -208 113q-191 0 -219 -141h331z" />
    <glyph glyph-name="afii10102" unicode="&#x455;" horiz-adv-x="734" 
d="M359 465q-175 0 -175 -67q0 -31 28.5 -45.5t102.5 -20.5l134 -8q127 -11 182 -47.5t55 -109.5q0 -85 -81 -131.5t-237 -46.5q-150 0 -227.5 42.5t-99.5 134.5l124 18q19 -103 201 -103q193 0 193 72q0 34 -27.5 49t-98.5 21l-135 8q-125 10 -181.5 47.5t-56.5 109.5
q0 79 78.5 124t220.5 45t218.5 -40.5t95.5 -126.5l-121 -18q-10 48 -56 70.5t-137 22.5z" />
    <glyph glyph-name="afii10103" unicode="&#x456;" 
d="M96 622v117h135v-117h-135zM99 0v546h129v-546h-129z" />
    <glyph glyph-name="afii10104" unicode="&#x457;" 
d="M19 622v122h110v-122h-110zM198 622v122h110v-122h-110zM99 0v546h129v-546h-129z" />
    <glyph glyph-name="afii10105" unicode="&#x458;" 
d="M96 622v117h135v-117h-135zM98 -11v557h130v-550q0 -110 -48 -158.5t-152 -48.5q-39 0 -84 8l-4 98q37 -5 60 -5q52 0 75 23t23 76z" />
    <glyph glyph-name="afii10106" unicode="&#x459;" horiz-adv-x="1215" 
d="M16 92q57 3 85 35q25 29 34.5 94.5t11.5 201.5l2 123h544v-168h264q104 0 161.5 -50.5t57.5 -139.5q0 -88 -58 -138t-161 -50h-394v443h-292l-1 -36q-2 -151 -19.5 -233t-55.5 -123q-51 -56 -173 -59zM937 287h-244v-195h244q115 0 115 96q0 48 -30 73.5t-85 25.5z" />
    <glyph glyph-name="afii10107" unicode="&#x45a;" horiz-adv-x="1274" 
d="M98 0v546h130v-202h383v202h130v-202h287q98 0 153 -45.5t55 -125.5q0 -81 -55 -127t-153 -46h-417v243h-383v-243h-130zM1008 252h-267v-160h267q103 0 103 81q0 79 -103 79z" />
    <glyph glyph-name="afii10108" unicode="&#x45b;" horiz-adv-x="839" 
d="M111 0v553h-104v98h104v99h129v-99h226v-98h-226v-183q42 58 109.5 90.5t150.5 32.5q119 0 184.5 -62t65.5 -172v-259h-131v233q0 71 -42 112t-119 41q-97 0 -157.5 -52.5t-60.5 -139.5v-194h-129z" />
    <glyph glyph-name="afii10109" unicode="&#x45c;" horiz-adv-x="749" 
d="M318 609l137 159h168l-195 -159h-110zM98 0v546h130v-252l336 252h175l-350 -255l358 -291h-180l-339 275v-275h-130z" />
    <glyph glyph-name="uni045D" unicode="&#x45d;" horiz-adv-x="832" 
d="M480 609h-110l-195 159h169zM98 0v546h128v-394l380 394h128v-546h-128v394l-380 -394h-128z" />
    <glyph glyph-name="afii10110" unicode="&#x45e;" horiz-adv-x="701" 
d="M461 767h115q0 -77 -59 -122t-162 -45q-102 0 -161.5 45t-59.5 122h116q0 -39 28 -61t77 -22t77.5 22t28.5 61zM554 546h136l-286 -573q-53 -103 -106.5 -143.5t-141.5 -40.5q-50 0 -89 12l-5 98q32 -7 69 -7q63 0 96 25t66 100l-283 529h144l207 -409z" />
    <glyph glyph-name="afii10193" unicode="&#x45f;" horiz-adv-x="825" 
d="M98 0v546h130v-444h368v444h130v-546h-253v-158h-122v158h-253z" />
    <glyph glyph-name="afii10146" unicode="&#x462;" horiz-adv-x="865" 
d="M132 0v522h-120v91h120v88h132v-88h267v-91h-267v-101h309q116 0 184 -56.5t68 -152.5q0 -97 -68 -154.5t-184 -57.5h-441zM558 319h-294v-219h294q62 0 97 28.5t35 81.5t-35 81t-97 28z" />
    <glyph glyph-name="afii10194" unicode="&#x463;" horiz-adv-x="741" 
d="M110 0v487h-103v89h103v174h129v-174h219v-89h-219v-122h244q104 0 162 -49t58 -135q0 -85 -58 -133t-162 -48h-373zM463 275h-224v-186h224q115 0 115 92q0 94 -115 94z" />
    <glyph glyph-name="afii10147" unicode="&#x472;" horiz-adv-x="1000" 
d="M497 -11q-205 0 -321.5 97t-116.5 263q0 167 116 264.5t322 97.5q207 0 323 -97.5t116 -264.5q0 -166 -116 -263t-323 -97zM497 603q-129 0 -203.5 -51t-91.5 -147h591q-17 96 -91.5 147t-204.5 51zM497 97q132 0 207.5 52.5t90.5 151.5h-595q15 -99 90.5 -151.5
t206.5 -52.5z" />
    <glyph glyph-name="afii10195" unicode="&#x473;" horiz-adv-x="818" 
d="M409 -11q-167 0 -260 76t-93 208t93 208t260 76q168 0 261 -76t93 -208q0 -133 -93 -208.5t-261 -75.5zM409 457q-192 0 -217 -142h435q-25 142 -218 142zM409 88q193 0 218 142h-435q25 -142 217 -142z" />
    <glyph glyph-name="afii10148" unicode="&#x474;" horiz-adv-x="896" 
d="M363 0l-350 700h153l270 -559l205 416q41 86 85 119.5t114 33.5q24 0 41 -3l6 -119q-47 4 -75 -11.5t-51 -58.5l-258 -518h-140z" />
    <glyph glyph-name="afii10196" unicode="&#x475;" horiz-adv-x="718" 
d="M299 0l-290 546h144l205 -412l150 303q31 67 65.5 93.5t86.5 26.5q28 0 47 -5l4 -108q-39 4 -59 -8t-41 -50l-204 -386h-108z" />
    <glyph glyph-name="afii10050" unicode="&#x490;" horiz-adv-x="772" 
d="M116 0v700h497v134h130v-243h-490v-591h-137z" />
    <glyph glyph-name="afii10098" unicode="&#x491;" horiz-adv-x="625" 
d="M98 0v546h389v140h122v-242h-381v-444h-130z" />
    <glyph glyph-name="Wgrave" unicode="&#x1e80;" horiz-adv-x="1280" 
d="M694 762h-110l-195 159h169zM284 0l-269 700h146l196 -543l216 543h134l218 -541l196 541h144l-270 -700h-135l-222 547l-222 -547h-132z" />
    <glyph glyph-name="wgrave" unicode="&#x1e81;" horiz-adv-x="1060" 
d="M584 609h-110l-195 159h169zM243 0l-230 546h135l159 -402l170 402h109l174 -400l158 400h129l-231 -546h-107l-178 413l-180 -413h-108z" />
    <glyph glyph-name="Wacute" unicode="&#x1e82;" horiz-adv-x="1280" 
d="M585 762l137 159h168l-195 -159h-110zM284 0l-269 700h146l196 -543l216 543h134l218 -541l196 541h144l-270 -700h-135l-222 547l-222 -547h-132z" />
    <glyph glyph-name="wacute" unicode="&#x1e83;" horiz-adv-x="1060" 
d="M475 609l137 159h168l-195 -159h-110zM243 0l-230 546h135l159 -402l170 402h109l174 -400l158 400h129l-231 -546h-107l-178 413l-180 -413h-108z" />
    <glyph glyph-name="Wdieresis" unicode="&#x1e84;" horiz-adv-x="1280" 
d="M695 775v122h138v-122h-138zM446 775v122h138v-122h-138zM284 0l-269 700h146l196 -543l216 543h134l218 -541l196 541h144l-270 -700h-135l-222 547l-222 -547h-132z" />
    <glyph glyph-name="wdieresis" unicode="&#x1e85;" horiz-adv-x="1060" 
d="M585 622v122h138v-122h-138zM336 622v122h138v-122h-138zM243 0l-230 546h135l159 -402l170 402h109l174 -400l158 400h129l-231 -546h-107l-178 413l-180 -413h-108z" />
    <glyph glyph-name="uni1E9E" unicode="&#x1e9e;" horiz-adv-x="1039" 
d="M101 0v418q0 139 95 216t278 77q137 0 337 -19v-104l-181 -171l146 -15q119 -16 170.5 -65.5t51.5 -127.5q0 -102 -91.5 -161t-268.5 -59q-162 0 -291 55l39 103q108 -52 245 -52q231 0 231 110q0 42 -28.5 65.5t-105.5 33.5l-240 21v84l192 186q-80 7 -206 7
q-236 0 -236 -178v-424h-137z" />
    <glyph glyph-name="Ygrave" unicode="&#x1ef2;" horiz-adv-x="819" 
d="M464 762h-110l-195 159h169zM340 0v279l-334 421h168l238 -307l241 307h161l-337 -424v-276h-137z" />
    <glyph glyph-name="ygrave" unicode="&#x1ef3;" horiz-adv-x="700" 
d="M404 609h-110l-195 159h169zM554 546h136l-286 -573q-53 -103 -106.5 -143.5t-141.5 -40.5q-50 0 -89 12l-5 98q32 -7 69 -7q61 0 94.5 24.5t69.5 96.5l-285 533h144l207 -409z" />
    <glyph glyph-name="endash" unicode="&#x2013;" horiz-adv-x="664" 
d="M51 234v114h562v-114h-562z" />
    <glyph glyph-name="emdash" unicode="&#x2014;" horiz-adv-x="1329" 
d="M51 234v114h1226v-114h-1226z" />
    <glyph glyph-name="quoteleft" unicode="&#x2018;" horiz-adv-x="322" 
d="M220 400h-142v129q0 92 36 130.5t124 40.5l6 -74q-52 0 -69 -17.5t-17 -69.5v-9h62v-130z" />
    <glyph glyph-name="quoteright" unicode="&#x2019;" horiz-adv-x="322" 
d="M102 700h142v-129q0 -92 -36.5 -130.5t-123.5 -40.5l-6 73q52 0 69 17.5t17 69.5v10h-62v130z" />
    <glyph glyph-name="quotesinglbase" unicode="&#x201a;" horiz-adv-x="322" 
d="M89 130h141v-129q0 -92 -36 -130.5t-123 -39.5l-6 73q51 0 68 17.5t17 69.5v9h-61v130z" />
    <glyph glyph-name="quotedblleft" unicode="&#x201c;" horiz-adv-x="565" 
d="M78 400v129q0 92 36 130.5t124 40.5l6 -74q-52 0 -69 -17.5t-17 -69.5v-9h62v-130h-142zM321 400v129q0 91 36 130t123 41l7 -74q-52 0 -69 -17.5t-17 -69.5v-9h61v-130h-141z" />
    <glyph glyph-name="quotedblright" unicode="&#x201d;" horiz-adv-x="565" 
d="M102 700h142v-129q0 -92 -36.5 -130.5t-123.5 -40.5l-6 73q52 0 69 17.5t17 69.5v10h-62v130zM345 700h142v-129q0 -92 -36.5 -130.5t-123.5 -40.5l-6 73q51 0 68 17.5t17 69.5v10h-61v130z" />
    <glyph glyph-name="quotedblbase" unicode="&#x201e;" horiz-adv-x="565" 
d="M89 130h141v-129q0 -92 -36 -130.5t-123 -39.5l-6 73q51 0 68 17.5t17 69.5v9h-61v130zM331 130h142v-129q0 -92 -36 -130.5t-124 -39.5l-6 73q52 0 69 17.5t17 69.5v9h-62v130z" />
    <glyph glyph-name="dagger" unicode="&#x2020;" horiz-adv-x="669" 
d="M620 420h-222v-570h-127v570h-222v115h222v215h127v-215h222v-115z" />
    <glyph glyph-name="daggerdbl" unicode="&#x2021;" horiz-adv-x="697" 
d="M63 181h222v239h-222v115h222v215h127v-215h222v-115h-222v-239h222v-115h-222v-216h-127v216h-222v115z" />
    <glyph glyph-name="bullet" unicode="&#x2022;" horiz-adv-x="362" 
d="M92 232v191h178v-191h-178z" />
    <glyph glyph-name="ellipsis" unicode="&#x2026;" horiz-adv-x="992" 
d="M91 0v130h139v-130h-139zM426 0v130h139v-130h-139zM761 0v130h139v-130h-139z" />
    <glyph glyph-name="perthousand" unicode="&#x2030;" horiz-adv-x="1353" 
d="M254 380q-94 0 -149.5 46t-55.5 119q0 74 55 119.5t150 45.5q94 0 149 -45.5t55 -119.5q0 -73 -55 -119t-149 -46zM229 0h-145l721 700h145zM254 465q46 0 72 21.5t26 58.5t-25.5 58.5t-72.5 21.5q-48 0 -74 -21.5t-26 -58.5t26.5 -58.5t73.5 -21.5zM781 -10
q-94 0 -149.5 45t-55.5 119q0 73 55.5 119t149.5 46q100 0 153 -55q55 55 154 55q94 0 149.5 -46t55.5 -119q0 -74 -55 -119t-150 -45q-101 0 -153 54q-54 -54 -154 -54zM781 74q47 0 73 21.5t26 58.5t-26 58.5t-73 21.5t-73 -21.5t-26 -58.5t26 -58.5t73 -21.5zM1088 74
q47 0 73 21.5t26 58.5t-26 58.5t-73 21.5t-73 -21.5t-26 -58.5t26 -58.5t73 -21.5z" />
    <glyph glyph-name="guilsinglleft" unicode="&#x2039;" horiz-adv-x="436" 
d="M374 163v-129l-328 174v134l328 173v-125l-245 -114z" />
    <glyph glyph-name="guilsinglright" unicode="&#x203a;" horiz-adv-x="436" 
d="M389 208l-328 -174v125l246 115l-246 113v128l328 -173v-134z" />
    <glyph glyph-name="fraction" unicode="&#x2044;" horiz-adv-x="803" 
d="M124 0h-124l679 700h124z" />
    <glyph glyph-name="zerosuperior" unicode="&#x2070;" horiz-adv-x="489" 
d="M244 452q-101 0 -157 48t-56 132t56 132t157 48q102 0 158 -48t56 -132t-56.5 -132t-157.5 -48zM244 522q57 0 87.5 28.5t30.5 81.5t-30.5 81t-87.5 28t-87 -28t-30 -81t30 -81.5t87 -28.5z" />
    <glyph glyph-name="foursuperior" unicode="&#x2074;" horiz-adv-x="476" 
d="M381 457h-86v64h-270v57l277 230h79v-223h70v-64h-70v-64zM123 585h172v144z" />
    <glyph glyph-name="fivesuperior" unicode="&#x2075;" horiz-adv-x="440" 
d="M219 452q-164 0 -192 91l86 17q16 -46 107 -46q102 0 102 59q0 56 -101 56q-67 0 -105 -28l-73 10l20 196h324v-63h-251l-9 -83q46 25 117 25q81 0 124 -29t43 -83q0 -59 -49 -90.5t-143 -31.5z" />
    <glyph glyph-name="sixsuperior" unicode="&#x2076;" horiz-adv-x="458" 
d="M31 625q0 90 55.5 138.5t154.5 48.5q143 0 185 -80l-85 -27q-27 44 -102 44q-109 0 -118 -105q44 36 136 36q87 0 130 -29t43 -80q0 -52 -50.5 -85.5t-142.5 -33.5q-206 0 -206 173zM235 515q104 0 104 56q0 54 -103 54q-50 0 -78 -14t-28 -39q0 -26 28 -41.5t77 -15.5z
" />
    <glyph glyph-name="sevensuperior" unicode="&#x2077;" horiz-adv-x="409" 
d="M384 752l-188 -295h-100l189 282h-261v68h360v-55z" />
    <glyph glyph-name="eightsuperior" unicode="&#x2078;" horiz-adv-x="473" 
d="M237 452q-103 0 -155.5 27t-52.5 76q0 59 85 84q-70 23 -70 76q0 46 50 71.5t143 25.5q92 0 142 -26t50 -71q0 -52 -70 -77q85 -25 85 -83q0 -49 -52.5 -76t-154.5 -27zM237 753q-100 0 -100 -43q0 -44 100 -44q98 0 98 44q0 43 -98 43zM237 510q111 0 111 49
q0 48 -111 48q-112 0 -112 -48q0 -49 112 -49z" />
    <glyph glyph-name="ninesuperior" unicode="&#x2079;" horiz-adv-x="458" 
d="M427 638q0 -90 -56 -138t-154 -48q-144 0 -185 79l85 27q26 -44 101 -44q112 0 119 106q-45 -37 -136 -37q-87 0 -130 29t-43 81t50 85.5t143 33.5q206 0 206 -174zM223 749q-50 0 -77 -15t-27 -41q0 -55 103 -55q49 0 77.5 14t28.5 39q0 27 -28 42.5t-77 15.5z" />
    <glyph glyph-name="zeroinferior" unicode="&#x2080;" horiz-adv-x="489" 
d="M244 -112q-101 0 -157 48t-56 132t56 132t157 48q102 0 158 -48t56 -132t-56.5 -132t-157.5 -48zM244 -42q57 0 87.5 28.5t30.5 81.5t-30.5 81t-87.5 28t-87 -28t-30 -81t30 -81.5t87 -28.5z" />
    <glyph glyph-name="oneinferior" unicode="&#x2081;" horiz-adv-x="414" 
d="M34 -107v70h140v207l-133 -22v69l149 26h76v-280h123v-70h-355z" />
    <glyph glyph-name="twoinferior" unicode="&#x2082;" horiz-adv-x="450" 
d="M34 -40l215 97q42 22 55 37t13 35q0 52 -94 52q-96 0 -104 -64l-90 14q9 56 58.5 86.5t133.5 30.5q92 0 141 -30.5t49 -84.5q0 -41 -28 -70t-110 -63l-91 -39h231v-68h-379v67z" />
    <glyph glyph-name="threeinferior" unicode="&#x2083;" horiz-adv-x="452" 
d="M420 -7q0 -49 -50 -77t-148 -28q-180 0 -197 101l88 13q9 -50 109 -50q103 0 103 47q0 40 -64 40h-105v62h106q59 0 59 39q0 44 -97 44t-108 -50l-86 13q10 48 59.5 74.5t133.5 26.5q92 0 141 -25.5t49 -72.5q0 -56 -65 -77q72 -18 72 -80z" />
    <glyph glyph-name="fourinferior" unicode="&#x2084;" horiz-adv-x="476" 
d="M381 -107h-86v64h-270v57l277 230h79v-223h70v-64h-70v-64zM123 21h172v144z" />
    <glyph glyph-name="fiveinferior" unicode="&#x2085;" horiz-adv-x="440" 
d="M219 -112q-164 0 -192 91l86 17q16 -46 107 -46q102 0 102 59q0 56 -101 56q-67 0 -105 -28l-73 10l20 196h324v-63h-251l-9 -83q46 25 117 25q81 0 124 -29t43 -83q0 -59 -49 -90.5t-143 -31.5z" />
    <glyph glyph-name="sixinferior" unicode="&#x2086;" horiz-adv-x="458" 
d="M31 61q0 90 55.5 138.5t154.5 48.5q143 0 185 -80l-85 -27q-27 44 -102 44q-109 0 -118 -105q44 36 136 36q87 0 130 -29t43 -80q0 -52 -50.5 -85.5t-142.5 -33.5q-206 0 -206 173zM235 -49q104 0 104 56q0 54 -103 54q-50 0 -78 -14t-28 -39q0 -26 28 -41.5t77 -15.5z
" />
    <glyph glyph-name="seveninferior" unicode="&#x2087;" horiz-adv-x="409" 
d="M384 188l-188 -295h-100l189 282h-261v68h360v-55z" />
    <glyph glyph-name="eightinferior" unicode="&#x2088;" horiz-adv-x="473" 
d="M237 -112q-103 0 -155.5 27t-52.5 76q0 59 85 84q-70 23 -70 76q0 46 50 71.5t143 25.5q92 0 142 -26t50 -71q0 -52 -70 -77q85 -25 85 -83q0 -49 -52.5 -76t-154.5 -27zM237 189q-100 0 -100 -43q0 -44 100 -44q98 0 98 44q0 43 -98 43zM237 -54q111 0 111 49
q0 48 -111 48q-112 0 -112 -48q0 -49 112 -49z" />
    <glyph glyph-name="nineinferior" unicode="&#x2089;" horiz-adv-x="458" 
d="M427 74q0 -90 -56 -138t-154 -48q-144 0 -185 79l85 27q26 -44 101 -44q112 0 119 106q-45 -37 -136 -37q-87 0 -130 29t-43 81t50 85.5t143 33.5q206 0 206 -174zM223 185q-50 0 -77 -15t-27 -41q0 -55 103 -55q49 0 77.5 14t28.5 39q0 27 -28 42.5t-77 15.5z" />
    <glyph glyph-name="colonmonetary" unicode="&#x20a1;" horiz-adv-x="945" 
d="M263 -80l24 101q-110 40 -169 125t-59 204q0 156 104 252.5t285 107.5l16 70h74l-16 -70q41 -2 77 -6l18 76h75l-21 -92q181 -51 225 -217l-142 -28q-24 93 -110 131l-110 -474q193 14 223 162l140 -27q-27 -117 -127 -180t-262 -66l-16 -69h-75l17 71q-38 3 -77 11
l-19 -82h-75zM382 110q31 -8 77 -11l115 496q-35 7 -77 7zM199 350q0 -150 115 -214l107 461q-108 -15 -165 -79t-57 -168z" />
    <glyph glyph-name="uni20A9" unicode="&#x20a9;" horiz-adv-x="1287" 
d="M287 0l-110 286h-127v71h100l-36 93h-87v71h60l-69 179h146l65 -179h278l71 179h130l72 -179h280l65 179h143l-69 -179h60v-71h-87l-36 -93h100v-71h-128l-110 -286h-134l-223 550l-223 -550h-131zM845 357h155l34 93h-226zM288 357h155l37 93h-226zM874 286l53 -132
l48 132h-101zM314 286l48 -134l53 134h-101z" />
    <glyph glyph-name="uni20AA" unicode="&#x20aa;" horiz-adv-x="1106" 
d="M625 394q0 64 -26 91t-87 27h-273v-512h-132v626h391q109 0 156 -44t47 -148v-203h-76v163zM1008 249q0 -138 -60.5 -193.5t-209.5 -55.5h-324v385h75v-272h240q81 0 114 31t33 105v367h132v-367z" />
    <glyph glyph-name="dong" unicode="&#x20ab;" horiz-adv-x="864" 
d="M364 -11q-143 0 -225.5 75.5t-82.5 201.5t82.5 202t225.5 76q86 0 154 -29t110 -82v174h-201v72h201v71h130v-71h93v-72h-93v-607h-117l-8 105q-89 -116 -269 -116zM404 91q104 0 164 47.5t60 127.5t-60 128.5t-164 48.5t-159.5 -47.5t-55.5 -129.5q0 -81 55.5 -128
t159.5 -47zM87 -149v71h667v-71h-667z" />
    <glyph glyph-name="Euro" unicode="&#x20ac;" horiz-adv-x="1019" 
d="M23 232v72h112q-2 30 -2 46q0 24 3 46h-113v71h128q37 115 145 179.5t268 64.5q168 0 271.5 -61.5t134.5 -178.5l-142 -28q-42 159 -264 159q-204 0 -268 -135h319l-7 -71h-332q-3 -22 -3 -46t3 -46h323l-7 -72h-295q62 -134 267 -134q233 0 266 164l140 -27
q-27 -120 -131 -183t-275 -63q-164 0 -270.5 64t-143.5 179h-127z" />
    <glyph glyph-name="uni20AD" unicode="&#x20ad;" horiz-adv-x="910" 
d="M128 0v338h-112v76h112v286h135v-331l433 331h185l-377 -286h264v-76h-258l399 -338h-196l-360 299l-90 -68v-231h-135z" />
    <glyph glyph-name="uni20AE" unicode="&#x20ae;" horiz-adv-x="823" 
d="M146 161v71l199 27v93l-199 -27v71l199 27v168h-318v109h775v-109h-320v-149l200 28v-72l-200 -27v-93l200 28v-72l-200 -27v-207h-137v188z" />
    <glyph glyph-name="uni20B1" unicode="&#x20b1;" horiz-adv-x="951" 
d="M126 0v302h-118v71h118v84h-118v72h118v171h408q108 0 182.5 -44.5t104.5 -126.5h130v-72h-113q2 -26 2 -40q0 -23 -3 -44h114v-71h-131q-31 -80 -106 -123.5t-185 -43.5h-267v-135h-136zM509 597h-247v-68h408q-47 68 -161 68zM700 417q0 22 -3 40h-435v-84h434
q4 19 4 44zM509 238q111 0 158 64h-405v-64h247z" />
    <glyph glyph-name="uni20B4" unicode="&#x20b4;" horiz-adv-x="965" 
d="M27 238v72h125q57 57 224 72l188 13q34 4 50 7h-587v72h691q3 12 3 25q0 52 -55 81t-164 29q-204 0 -239 -91l-134 20q51 173 373 173q173 0 263 -56t90 -158q0 -16 -1 -23h82v-72h-129q-56 -60 -223 -75l-186 -13q-24 -2 -35 -4h573v-72h-695q-4 -12 -4 -30
q0 -118 243 -118q217 0 255 107l134 -20q-50 -188 -389 -188q-378 0 -378 219q0 12 2 30h-77z" />
    <glyph glyph-name="uni20B5" unicode="&#x20b5;" horiz-adv-x="945" 
d="M59 350q0 156 104.5 253t286.5 107v70h79v-70q307 -14 367 -239l-142 -28q-39 145 -225 158v-502q198 14 228 163l140 -27q-26 -114 -120 -176t-248 -69v-70h-79v70q-186 10 -288.5 106t-102.5 254zM199 350q0 -112 64.5 -176.5t186.5 -73.5v500q-122 -9 -186.5 -74
t-64.5 -176z" />
    <glyph glyph-name="uni20B8" unicode="&#x20b8;" horiz-adv-x="842" 
d="M33 628v72h776v-72h-776zM352 0v421h-319v109h776v-109h-321v-421h-136z" />
    <glyph glyph-name="uni20B9" unicode="&#x20b9;" horiz-adv-x="812" 
d="M85 254v100h291q125 0 145 88h-436v72h436q-23 85 -145 85h-291v101h700v-72h-185q49 -43 60 -114h125v-72h-126q-13 -87 -84 -136t-189 -49l-103 -2l386 -255h-205z" />
    <glyph glyph-name="uni20BA" unicode="&#x20ba;" horiz-adv-x="852" 
d="M128 0v261l-129 -22v72l129 22v96l-129 -22v72l129 22v199h137v-176l218 37v-72l-218 -37v-96l218 37v-71l-218 -37v-177h253q88 0 130.5 36.5t56.5 130.5l127 -26q-20 -134 -94.5 -191.5t-219.5 -57.5h-390z" />
    <glyph glyph-name="uni20BC" unicode="&#x20bc;" horiz-adv-x="976" 
d="M551 100h-128v344q-197 -22 -197 -188v-256h-137v253q0 132 86 210t248 91v146h128v-145q163 -13 249.5 -91.5t86.5 -210.5v-253h-137v256q0 167 -199 189v-345z" />
    <glyph glyph-name="uni20BD" unicode="&#x20bd;" horiz-adv-x="913" 
d="M30 81v72h119v88h-119v107h119v352h448q125 0 198 -62t73 -169q0 -105 -74.5 -166.5t-201.5 -61.5h-306v-88h312v-72h-312v-81h-137v81h-119zM574 593h-288v-245h288q74 0 114 31.5t40 89.5q0 59 -40 91.5t-114 32.5z" />
    <glyph glyph-name="uni2113" unicode="&#x2113;" horiz-adv-x="731" 
d="M12 229l112 34v213q0 109 74.5 172t202.5 63q130 0 199 -53.5t69 -146.5q0 -75 -35 -126t-124 -96t-256 -93q2 -59 36.5 -83.5t120.5 -24.5q89 0 188 29l-2 -101q-117 -27 -211 -27q-125 0 -187.5 41.5t-72.5 131.5l-114 -35v102zM254 484v-187q166 51 226.5 98t60.5 116
q0 103 -138 103q-72 0 -110.5 -33t-38.5 -97z" />
    <glyph glyph-name="uni2116" unicode="&#x2116;" horiz-adv-x="1400" 
d="M1181 443q-79 0 -125 36.5t-46 97.5t45.5 97t125.5 36q79 0 124.5 -36.5t45.5 -97.5t-45.5 -97t-124.5 -36zM112 0v700h136l518 -551v551h126v-700h-135l-519 549v-549h-126zM1181 643q-39 0 -61 -17.5t-22 -48.5t22.5 -49.5t60.5 -18.5t59.5 17.5t21.5 49.5t-21.5 49.5
t-59.5 17.5zM1023 315v67h314v-67h-314z" />
    <glyph glyph-name="trademark" unicode="&#x2122;" horiz-adv-x="914" 
d="M144 350v283h-129v67h338v-67h-129v-283h-80zM419 350v350h87l126 -201l126 201h85v-350h-75v250l-109 -177h-57l-109 177v-250h-74z" />
    <glyph glyph-name="estimated" unicode="&#x212e;" horiz-adv-x="783" 
d="M732 287h-552q-4 0 -4 -3v-167q0 -11 7 -20q87 -89 210 -89q130 0 219 100h49q-48 -54 -118.5 -86t-150.5 -32q-141 0 -241 89.5t-100 216.5t100 216.5t241 89.5t240.5 -89.5t99.5 -216.5v-9zM607 309v168q0 12 -9 21q-86 86 -205 86q-122 0 -209 -89q-8 -10 -8 -22v-164
q0 -5 4 -5h423q4 0 4 5z" />
    <glyph glyph-name="oneseventh" unicode="&#x2150;" horiz-adv-x="1189" 
d="M34 350v70h140v207l-133 -22v69l149 26h76v-280h123v-70h-355zM315 0h-124l679 700h124zM1164 295l-188 -295h-100l189 282h-261v68h360v-55z" />
    <glyph glyph-name="oneninth" unicode="&#x2151;" horiz-adv-x="1177" 
d="M34 350v70h140v207l-133 -22v69l149 26h76v-280h123v-70h-355zM315 0h-124l679 700h124zM1145 181q0 -90 -56 -138t-154 -48q-144 0 -185 79l85 27q26 -44 101 -44q112 0 119 106q-45 -37 -136 -37q-87 0 -130 29t-43 81t50 85.5t143 33.5q206 0 206 -174zM941 292
q-50 0 -77 -15t-27 -41q0 -55 103 -55q49 0 77.5 14t28.5 39q0 27 -28 42.5t-77 15.5z" />
    <glyph glyph-name="onethird" unicode="&#x2153;" horiz-adv-x="1168" 
d="M34 350v70h140v207l-133 -22v69l149 26h76v-280h123v-70h-355zM315 0h-124l679 700h124zM1135 100q0 -49 -50 -77t-148 -28q-180 0 -197 101l88 13q9 -50 109 -50q103 0 103 47q0 40 -64 40h-105v62h106q59 0 59 39q0 44 -97 44t-108 -50l-86 13q10 48 59.5 74.5
t133.5 26.5q92 0 141 -25.5t49 -72.5q0 -56 -65 -77q72 -18 72 -80z" />
    <glyph glyph-name="twothirds" unicode="&#x2154;" horiz-adv-x="1195" 
d="M34 417l215 97q42 22 55 37t13 35q0 52 -94 52q-96 0 -104 -64l-90 14q9 56 58.5 86.5t133.5 30.5q92 0 141 -30.5t49 -84.5q0 -41 -28 -70t-110 -63l-91 -39h231v-68h-379v67zM342 0h-124l679 700h124zM1163 100q0 -49 -50 -77t-148 -28q-180 0 -197 101l88 13
q9 -50 109 -50q103 0 103 47q0 40 -64 40h-105v62h106q59 0 59 39q0 44 -97 44t-108 -50l-86 13q10 48 59.5 74.5t133.5 26.5q92 0 141 -25.5t49 -72.5q0 -56 -65 -77q72 -18 72 -80z" />
    <glyph glyph-name="onefifth" unicode="&#x2155;" horiz-adv-x="1179" 
d="M34 350v70h140v207l-133 -22v69l149 26h76v-280h123v-70h-355zM315 0h-124l679 700h124zM957 -5q-164 0 -192 91l86 17q16 -46 107 -46q102 0 102 59q0 56 -101 56q-67 0 -105 -28l-73 10l20 196h324v-63h-251l-9 -83q46 25 117 25q81 0 124 -29t43 -83q0 -59 -49 -90.5
t-143 -31.5z" />
    <glyph glyph-name="twofifths" unicode="&#x2156;" horiz-adv-x="1206" 
d="M34 417l215 97q42 22 55 37t13 35q0 52 -94 52q-96 0 -104 -64l-90 14q9 56 58.5 86.5t133.5 30.5q92 0 141 -30.5t49 -84.5q0 -41 -28 -70t-110 -63l-91 -39h231v-68h-379v67zM342 0h-124l679 700h124zM985 -5q-164 0 -192 91l86 17q16 -46 107 -46q102 0 102 59
q0 56 -101 56q-67 0 -105 -28l-73 10l20 196h324v-63h-251l-9 -83q46 25 117 25q81 0 124 -29t43 -83q0 -59 -49 -90.5t-143 -31.5z" />
    <glyph glyph-name="threefifths" unicode="&#x2157;" horiz-adv-x="1172" 
d="M420 450q0 -49 -50 -77t-148 -28q-180 0 -197 101l88 13q9 -50 109 -50q103 0 103 47q0 40 -64 40h-105v62h106q59 0 59 39q0 44 -97 44t-108 -50l-86 13q10 48 59.5 74.5t133.5 26.5q92 0 141 -25.5t49 -72.5q0 -56 -65 -77q72 -18 72 -80zM308 0h-124l679 700h124z
M951 -5q-164 0 -192 91l86 17q16 -46 107 -46q102 0 102 59q0 56 -101 56q-67 0 -105 -28l-73 10l20 196h324v-63h-251l-9 -83q46 25 117 25q81 0 124 -29t43 -83q0 -59 -49 -90.5t-143 -31.5z" />
    <glyph glyph-name="fourfifths" unicode="&#x2158;" horiz-adv-x="1196" 
d="M381 350h-86v64h-270v57l277 230h79v-223h70v-64h-70v-64zM331 0h-124l679 700h124zM123 478h172v144zM974 -5q-164 0 -192 91l86 17q16 -46 107 -46q102 0 102 59q0 56 -101 56q-67 0 -105 -28l-73 10l20 196h324v-63h-251l-9 -83q46 25 117 25q81 0 124 -29t43 -83
q0 -59 -49 -90.5t-143 -31.5z" />
    <glyph glyph-name="onesixth" unicode="&#x2159;" horiz-adv-x="1165" 
d="M34 350v70h140v207l-133 -22v69l149 26h76v-280h123v-70h-355zM315 0h-124l679 700h124zM738 168q0 90 55.5 138.5t154.5 48.5q143 0 185 -80l-85 -27q-27 44 -102 44q-109 0 -118 -105q44 36 136 36q87 0 130 -29t43 -80q0 -52 -50.5 -85.5t-142.5 -33.5
q-206 0 -206 173zM942 58q104 0 104 56q0 54 -103 54q-50 0 -78 -14t-28 -39q0 -26 28 -41.5t77 -15.5z" />
    <glyph glyph-name="fivesixths" unicode="&#x215a;" horiz-adv-x="1141" 
d="M219 345q-164 0 -192 91l86 17q16 -46 107 -46q102 0 102 59q0 56 -101 56q-67 0 -105 -28l-73 10l20 196h324v-63h-251l-9 -83q46 25 117 25q81 0 124 -29t43 -83q0 -59 -49 -90.5t-143 -31.5zM291 0h-124l679 700h124zM714 168q0 90 55.5 138.5t154.5 48.5
q143 0 185 -80l-85 -27q-27 44 -102 44q-109 0 -118 -105q44 36 136 36q87 0 130 -29t43 -80q0 -52 -50.5 -85.5t-142.5 -33.5q-206 0 -206 173zM918 58q104 0 104 56q0 54 -103 54q-50 0 -78 -14t-28 -39q0 -26 28 -41.5t77 -15.5z" />
    <glyph glyph-name="oneeighth" unicode="&#x215b;" horiz-adv-x="1192" 
d="M34 350v70h140v207l-133 -22v69l149 26h76v-280h123v-70h-355zM315 0h-124l679 700h124zM955 -5q-103 0 -155.5 27t-52.5 76q0 59 85 84q-70 23 -70 76q0 46 50 71.5t143 25.5q92 0 142 -26t50 -71q0 -52 -70 -77q85 -25 85 -83q0 -49 -52.5 -76t-154.5 -27zM955 296
q-100 0 -100 -43q0 -44 100 -44q98 0 98 44q0 43 -98 43zM955 53q111 0 111 49q0 48 -111 48q-112 0 -112 -48q0 -49 112 -49z" />
    <glyph glyph-name="threeeighths" unicode="&#x215c;" horiz-adv-x="1185" 
d="M420 450q0 -49 -50 -77t-148 -28q-180 0 -197 101l88 13q9 -50 109 -50q103 0 103 47q0 40 -64 40h-105v62h106q59 0 59 39q0 44 -97 44t-108 -50l-86 13q10 48 59.5 74.5t133.5 26.5q92 0 141 -25.5t49 -72.5q0 -56 -65 -77q72 -18 72 -80zM308 0h-124l679 700h124z
M949 -5q-103 0 -155.5 27t-52.5 76q0 59 85 84q-70 23 -70 76q0 46 50 71.5t143 25.5q92 0 142 -26t50 -71q0 -52 -70 -77q85 -25 85 -83q0 -49 -52.5 -76t-154.5 -27zM949 296q-100 0 -100 -43q0 -44 100 -44q98 0 98 44q0 43 -98 43zM949 53q111 0 111 49q0 48 -111 48
q-112 0 -112 -48q0 -49 112 -49z" />
    <glyph glyph-name="fiveeighths" unicode="&#x215d;" horiz-adv-x="1169" 
d="M219 345q-164 0 -192 91l86 17q16 -46 107 -46q102 0 102 59q0 56 -101 56q-67 0 -105 -28l-73 10l20 196h324v-63h-251l-9 -83q46 25 117 25q81 0 124 -29t43 -83q0 -59 -49 -90.5t-143 -31.5zM291 0h-124l679 700h124zM933 -5q-103 0 -155.5 27t-52.5 76q0 59 85 84
q-70 23 -70 76q0 46 50 71.5t143 25.5q92 0 142 -26t50 -71q0 -52 -70 -77q85 -25 85 -83q0 -49 -52.5 -76t-154.5 -27zM933 296q-100 0 -100 -43q0 -44 100 -44q98 0 98 44q0 43 -98 43zM933 53q111 0 111 49q0 48 -111 48q-112 0 -112 -48q0 -49 112 -49z" />
    <glyph glyph-name="seveneighths" unicode="&#x215e;" horiz-adv-x="1098" 
d="M384 645l-188 -295h-100l189 282h-261v68h360v-55zM221 0h-124l679 700h124zM862 -5q-103 0 -155.5 27t-52.5 76q0 59 85 84q-70 23 -70 76q0 46 50 71.5t143 25.5q92 0 142 -26t50 -71q0 -52 -70 -77q85 -25 85 -83q0 -49 -52.5 -76t-154.5 -27zM862 296
q-100 0 -100 -43q0 -44 100 -44q98 0 98 44q0 43 -98 43zM862 53q111 0 111 49q0 48 -111 48q-112 0 -112 -48q0 -49 112 -49z" />
    <glyph glyph-name="arrowleft" unicode="&#x2190;" horiz-adv-x="753" 
d="M345 480l-135 -130h491v-106h-490l135 -130l-67 -71l-255 255l254 253z" />
    <glyph glyph-name="arrowup" unicode="&#x2191;" horiz-adv-x="752" 
d="M559 374l-130 134v-490h-106v490l-131 -134l-71 67l255 255l254 -254z" />
    <glyph glyph-name="arrowright" unicode="&#x2192;" horiz-adv-x="752" 
d="M406 480l68 71l253 -253l-254 -255l-68 71l135 130h-490v106h491z" />
    <glyph glyph-name="arrowdown" unicode="&#x2193;" horiz-adv-x="752" 
d="M192 336l131 -134v490h106v-490l130 134l71 -68l-254 -254l-255 255z" />
    <glyph glyph-name="uni2194" unicode="&#x2194;" horiz-adv-x="915" 
d="M345 480l-135 -130h494l-135 130l68 71l253 -253l-254 -255l-68 71l135 130h-492l135 -130l-67 -71l-255 255l254 253z" />
    <glyph glyph-name="uni2195" unicode="&#x2195;" horiz-adv-x="741" 
d="M186 260l130 -134v451l-130 -133l-71 68l255 254l253 -254l-70 -67l-131 134v-454l131 134l70 -68l-253 -253l-255 254z" />
    <glyph glyph-name="uni2196" unicode="&#x2196;" horiz-adv-x="752" 
d="M495 467h-191l348 -348l-74 -75l-349 349v-192h-93v360h359v-94z" />
    <glyph glyph-name="uni2197" unicode="&#x2197;" horiz-adv-x="752" 
d="M257 467v94h359v-360h-94v191l-348 -348l-74 75l347 348h-190z" />
    <glyph glyph-name="uni2198" unicode="&#x2198;" horiz-adv-x="752" 
d="M257 138h190l-347 348l74 75l348 -348v191h94v-360h-359v94z" />
    <glyph glyph-name="uni2199" unicode="&#x2199;" horiz-adv-x="752" 
d="M495 138v-94h-359v360h93v-192l349 349l74 -75l-348 -348h191z" />
    <glyph glyph-name="partialdiff" unicode="&#x2202;" horiz-adv-x="846" 
d="M405 -11q-167 0 -259 61.5t-92 172.5q0 104 84.5 161.5t238.5 57.5q192 0 274 -93q-7 257 -246 257q-149 0 -189 -66l-130 30q63 141 318 141q184 0 283.5 -97t99.5 -279q0 -167 -97.5 -256.5t-284.5 -89.5zM407 94q103 0 160.5 35t57.5 97q0 53 -58 86t-158 33
q-105 0 -161 -32.5t-56 -91.5q0 -61 55.5 -94t159.5 -33z" />
    <glyph glyph-name="product" unicode="&#x220f;" horiz-adv-x="1004" 
d="M116 -122v822h772v-822h-137v713h-498v-713h-137z" />
    <glyph glyph-name="summation" unicode="&#x2211;" horiz-adv-x="768" 
d="M51 -150v102l285 324l-284 322v102h671v-109h-496l273 -311l-272 -321h508v-109h-685z" />
    <glyph glyph-name="minus" unicode="&#x2212;" horiz-adv-x="603" 
d="M546 306h-490v95h490v-95z" />
    <glyph glyph-name="uni2215" unicode="&#x2215;" horiz-adv-x="803" 
d="M124 0h-124l679 700h124z" />
    <glyph glyph-name="radical" unicode="&#x221a;" horiz-adv-x="823" 
d="M348 0l-214 379l-105 -48l-34 76l213 95l198 -370l278 568h133l-353 -700h-116z" />
    <glyph glyph-name="infinity" unicode="&#x221e;" horiz-adv-x="923" 
d="M667 121q-61 0 -111.5 26.5t-97.5 91.5q-42 -56 -88.5 -87t-114.5 -31q-93 0 -146.5 53.5t-53.5 145.5q0 90 55 146t145 56q60 0 107.5 -25.5t96.5 -90.5q41 54 89.5 85t117.5 31q94 0 147.5 -53t53.5 -145q0 -90 -55 -146.5t-145 -56.5zM164 321q0 -49 27 -76.5
t71 -27.5q43 0 74.5 27t66.5 79q-37 60 -68 81.5t-73 21.5q-43 0 -70.5 -28t-27.5 -77zM660 426q-45 0 -78 -26.5t-68 -77.5q34 -59 68.5 -82t77.5 -23t70.5 28.5t27.5 78.5q0 48 -27.5 75t-70.5 27z" />
    <glyph glyph-name="integral" unicode="&#x222b;" horiz-adv-x="490" 
d="M165 536q0 206 208 206q52 0 107 -11l-4 -96q-40 9 -86 9q-50 0 -72.5 -23.5t-22.5 -78.5v-542q0 -211 -211 -211q-37 0 -92 11l-4 97q39 -9 78 -9q52 0 75.5 24t23.5 81v543z" />
    <glyph glyph-name="approxequal" unicode="&#x2248;" horiz-adv-x="603" 
d="M184 450q-58 0 -128 -42v98q75 41 136 41q51 0 121.5 -32t104.5 -32q57 0 128 42v-98q-75 -41 -135 -41q-50 0 -120 32t-107 32zM184 225q-58 0 -128 -42v98q75 41 136 41q51 0 121.5 -32t104.5 -32q57 0 128 42v-98q-75 -41 -135 -41q-50 0 -120 32t-107 32z" />
    <glyph glyph-name="notequal" unicode="&#x2260;" horiz-adv-x="603" 
d="M228 104h-105l45 90h-112v95h160l65 129h-225v95h273l46 91h106l-46 -91h111v-95h-159l-65 -129h224v-95h-272z" />
    <glyph glyph-name="lessequal" unicode="&#x2264;" horiz-adv-x="600" 
d="M55 346v95l489 202v-112l-351 -134l351 -135v-119zM545 7h-490v95h490v-95z" />
    <glyph glyph-name="greaterequal" unicode="&#x2265;" horiz-adv-x="600" 
d="M547 441v-95l-489 -203v113l350 135l-350 134v118zM547 7h-490v95h490v-95z" />
    <glyph glyph-name="wave" unicode="&#x2307;" horiz-adv-x="1022" 
d="M1022 0q-65 0 -117.5 33.5t-87.5 87t-64 118.5t-54 130t-50.5 118.5t-60.5 87t-77 33.5t-77 -33.5t-60.5 -87t-50.5 -118.5t-54 -130t-64 -118.5t-87.5 -87t-117.5 -33.5v100q42 0 76.5 33.5t60 87.5t50 119t54 130t64 119t87.5 87.5t119 33.5t119 -33.5t87.5 -87.5
t64 -119t54 -130t50 -119t60 -87.5t76.5 -33.5q5 0 5 -49q0 -51 -5 -51z" />
    <glyph glyph-name="lozenge" unicode="&#x25ca;" horiz-adv-x="810" 
d="M477 0h-145l-299 350l299 350h145l300 -350zM188 352l221 -255l212 256l-220 246z" />
    <glyph glyph-name="commaaccent" unicode="&#xf6c3;" horiz-adv-x="500" 
d="M89 -209l89 147h153l-140 -147h-102z" />
    <glyph glyph-name="kgreenlandic.case" horiz-adv-x="1082" 
d="M116 0v700h135v-328l433 328h185l-422 -320l449 -380h-197l-359 299l-89 -68v-231h-135zM1093 700l-107 -155h-158l162 155h103z" />
    <glyph glyph-name="napostrophe.case" horiz-adv-x="1206" 
d="M315 0v700h135l514 -549v549h126v-700h-135l-514 547v-547h-126zM3 553l89 147h153l-140 -147h-102z" />
    <glyph glyph-name="i.dot" 
d="M96 622v117h135v-117h-135zM99 0v546h129v-546h-129z" />
    <glyph glyph-name="caron.alt" horiz-adv-x="500" 
d="M288 533v217h129l-43 -217h-86z" />
    <glyph glyph-name="revcommaaccent" horiz-adv-x="500" 
d="M432 764l-107 -155h-158l162 155h103z" />
    <glyph glyph-name="zero.tlf" horiz-adv-x="873" 
d="M436 -11q-186 0 -289.5 94.5t-103.5 266.5t103.5 266.5t289.5 94.5t289.5 -94.5t103.5 -266.5t-103.5 -266.5t-289.5 -94.5zM436 98q123 0 187.5 64t64.5 188q0 123 -64.5 187.5t-187.5 64.5t-188 -64.5t-65 -187.5q0 -124 65 -188t188 -64z" />
    <glyph glyph-name="one.tlf" horiz-adv-x="873" 
d="M92 0v108h305v476l-288 -50v112l305 54h120v-592h280v-108h-722z" />
    <glyph glyph-name="two.tlf" horiz-adv-x="873" 
d="M98 107l365 208q100 57 134 94.5t34 83.5q0 53 -49.5 82t-145.5 29q-203 0 -217 -140l-135 22q17 109 107 167t246 58q160 0 248.5 -57t88.5 -157q0 -76 -50.5 -133.5t-194.5 -133.5l-211 -122h470v-108h-690v107z" />
    <glyph glyph-name="three.tlf" horiz-adv-x="873" 
d="M798 194q0 -100 -91.5 -152.5t-268.5 -52.5q-168 0 -258.5 50t-112.5 155l138 26q21 -129 234 -129t213 111q0 48 -39.5 74t-115.5 26h-189v103h188q72 0 109.5 26t37.5 73q0 104 -206 104q-201 0 -226 -125l-130 28q22 97 112.5 148.5t245.5 51.5q166 0 255.5 -49
t89.5 -139q0 -122 -137 -163q151 -35 151 -166z" />
    <glyph glyph-name="four.tlf" horiz-adv-x="873" 
d="M700 0h-133v137h-527v100l523 463h137v-459h139v-104h-139v-137zM194 241h373v326z" />
    <glyph glyph-name="five.tlf" horiz-adv-x="873" 
d="M430 -11q-301 0 -357 178l136 29q29 -100 221 -100q217 0 217 132q0 65 -54 100t-161 35q-156 0 -212 -62l-119 13l41 386h596v-103h-482l-23 -196q91 57 234 57q150 0 234 -59t84 -170q1 -115 -90.5 -177.5t-264.5 -62.5z" />
    <glyph glyph-name="six.tlf" horiz-adv-x="873" 
d="M67 341q0 176 102.5 273t290.5 97q140 0 229 -45t116 -131l-135 -28q-32 99 -211 99q-250 0 -254 -262q39 45 113.5 70.5t172.5 25.5q154 0 238 -57t84 -163q0 -109 -94.5 -170t-265.5 -61q-188 0 -287 91t-99 261zM454 94q107 0 164 33.5t57 91.5q0 59 -57 91.5
t-164 32.5q-106 0 -165.5 -31.5t-59.5 -83.5q0 -62 59.5 -98t165.5 -36z" />
    <glyph glyph-name="seven.tlf" horiz-adv-x="873" 
d="M773 593l-388 -593h-160l397 591h-521v109h672v-107z" />
    <glyph glyph-name="eight.tlf" horiz-adv-x="873" 
d="M436 -11q-183 0 -281 54t-98 150q0 59 46 102t131 66q-146 48 -146 160q0 88 92 139t256 51t256.5 -51t92.5 -140q0 -112 -145 -160q85 -22 130 -64.5t45 -102.5q0 -96 -98 -150t-281 -54zM646 510q0 101 -210 101t-210 -101q0 -100 210 -100t210 100zM436 88
q236 0 236 109t-236 109t-236 -109t236 -109z" />
    <glyph glyph-name="nine.tlf" horiz-adv-x="873" 
d="M805 359q0 -176 -102.5 -273t-290.5 -97q-140 0 -228.5 45t-116.5 131l135 28q32 -99 211 -99q252 0 255 263q-83 -97 -287 -97q-154 0 -238 57t-84 163q0 109 94.5 170t265.5 61q188 0 287 -91t99 -261zM418 606q-107 0 -164 -33.5t-57 -91.5q0 -59 57 -91.5t164 -32.5
q106 0 165.5 31.5t59.5 83.5q0 62 -59.5 98t-165.5 36z" />
    <glyph glyph-name="zero.posf" horiz-adv-x="904" 
d="M452 -11q-186 0 -290.5 82.5t-104.5 228.5t104.5 228.5t290.5 82.5t290.5 -82.5t104.5 -228.5t-104.5 -228.5t-290.5 -82.5zM452 98q123 0 188.5 52t65.5 150q0 97 -65.5 149.5t-188.5 52.5t-188.5 -52.5t-65.5 -149.5q0 -98 65.5 -150t188.5 -52z" />
    <glyph glyph-name="one.posf" horiz-adv-x="760" 
d="M51 0v108h292v376l-276 -50v112l292 54h121v-492h254v-108h-683z" />
    <glyph glyph-name="two.posf" horiz-adv-x="794" 
d="M60 107l367 149q100 43 132 74t32 73q0 102 -196 102q-202 0 -214 -141l-135 22q17 109 106 167t245 58q161 0 249 -54.5t88 -149.5q0 -76 -55.5 -128.5t-210.5 -104.5l-194 -70h474v-104h-688v107z" />
    <glyph glyph-name="three.posf" horiz-adv-x="831" 
d="M774 80q0 -102 -91.5 -156t-268.5 -54q-168 0 -258.5 50t-112.5 156l138 26q23 -130 234 -130q213 0 213 116q0 50 -39.5 77t-115.5 27h-189v103h188q72 0 109.5 27.5t37.5 77.5q0 108 -206 108q-201 0 -226 -125l-130 28q22 97 112.5 148.5t245.5 51.5q166 0 255.5 -50
t89.5 -142q0 -127 -138 -169q152 -37 152 -170z" />
    <glyph glyph-name="four.posf" horiz-adv-x="851" 
d="M690 -120h-133v120h-527v100l522 500h138v-496h139v-104h-139v-120zM181 104h376v358z" />
    <glyph glyph-name="five.posf" horiz-adv-x="821" 
d="M412 -130q-152 0 -240 43t-117 134l136 29q30 -100 221 -100q217 0 217 144q0 133 -215 133q-156 0 -212 -62l-119 14l41 395h596v-103h-482l-23 -207q93 58 235 58q150 0 233.5 -59t83.5 -168q1 -120 -90.5 -185.5t-264.5 -65.5z" />
    <glyph glyph-name="six.posf" horiz-adv-x="858" 
d="M59 341q0 176 102.5 273t290.5 97q140 0 229 -45t116 -131l-135 -28q-32 99 -211 99q-250 0 -254 -262q39 45 113.5 70.5t172.5 25.5q154 0 238 -57t84 -163q0 -109 -94.5 -170t-265.5 -61q-188 0 -287 91t-99 261zM446 94q107 0 164 33.5t57 91.5q0 59 -57 91.5
t-164 32.5q-106 0 -165.5 -31.5t-59.5 -83.5q0 -62 59.5 -98t165.5 -36z" />
    <glyph glyph-name="seven.posf" horiz-adv-x="721" 
d="M694 493l-401 -613h-160l411 611h-521v109h671v-107z" />
    <glyph glyph-name="eight.posf" horiz-adv-x="861" 
d="M431 -11q-183 0 -281 54t-98 150q0 59 46 102t131 66q-146 48 -146 160q0 88 92 139t256 51t256.5 -51t92.5 -140q0 -112 -145 -160q85 -22 130 -64.5t45 -102.5q0 -96 -98 -150t-281 -54zM641 510q0 101 -210 101t-210 -101q0 -100 210 -100t210 100zM431 88
q236 0 236 109t-236 109t-236 -109t236 -109z" />
    <glyph glyph-name="nine.posf" horiz-adv-x="859" 
d="M799 248q0 -180 -102 -279.5t-290 -99.5q-141 0 -229.5 45t-116.5 131l135 28q34 -99 211 -99q252 0 255 272q-84 -97 -286 -97q-154 0 -238.5 57.5t-84.5 163.5q0 113 94 176.5t266 63.5q189 0 287.5 -93.5t98.5 -268.5zM413 506q-108 0 -165 -35.5t-57 -98.5
q0 -60 57 -92.5t165 -32.5q106 0 165 31t59 84q0 66 -59.5 105t-164.5 39z" />
    <glyph glyph-name="zero.numerator" horiz-adv-x="489" 
d="M244 345q-101 0 -157 48t-56 132t56 132t157 48q102 0 158 -48t56 -132t-56.5 -132t-157.5 -48zM244 415q57 0 87.5 28.5t30.5 81.5t-30.5 81t-87.5 28t-87 -28t-30 -81t30 -81.5t87 -28.5z" />
    <glyph glyph-name="one.numerator" horiz-adv-x="414" 
d="M34 350v70h140v207l-133 -22v69l149 26h76v-280h123v-70h-355z" />
    <glyph glyph-name="two.numerator" horiz-adv-x="450" 
d="M34 417l215 97q42 22 55 37t13 35q0 52 -94 52q-96 0 -104 -64l-90 14q9 56 58.5 86.5t133.5 30.5q92 0 141 -30.5t49 -84.5q0 -41 -28 -70t-110 -63l-91 -39h231v-68h-379v67z" />
    <glyph glyph-name="three.numerator" horiz-adv-x="452" 
d="M420 450q0 -49 -50 -77t-148 -28q-180 0 -197 101l88 13q9 -50 109 -50q103 0 103 47q0 40 -64 40h-105v62h106q59 0 59 39q0 44 -97 44t-108 -50l-86 13q10 48 59.5 74.5t133.5 26.5q92 0 141 -25.5t49 -72.5q0 -56 -65 -77q72 -18 72 -80z" />
    <glyph glyph-name="four.numerator" horiz-adv-x="476" 
d="M381 350h-86v64h-270v57l277 230h79v-223h70v-64h-70v-64zM123 478h172v144z" />
    <glyph glyph-name="five.numerator" horiz-adv-x="440" 
d="M219 345q-164 0 -192 91l86 17q16 -46 107 -46q102 0 102 59q0 56 -101 56q-67 0 -105 -28l-73 10l20 196h324v-63h-251l-9 -83q46 25 117 25q81 0 124 -29t43 -83q0 -59 -49 -90.5t-143 -31.5z" />
    <glyph glyph-name="six.numerator" horiz-adv-x="458" 
d="M31 518q0 90 55.5 138.5t154.5 48.5q143 0 185 -80l-85 -27q-27 44 -102 44q-109 0 -118 -105q44 36 136 36q87 0 130 -29t43 -80q0 -52 -50.5 -85.5t-142.5 -33.5q-206 0 -206 173zM235 408q104 0 104 56q0 54 -103 54q-50 0 -78 -14t-28 -39q0 -26 28 -41.5t77 -15.5z
" />
    <glyph glyph-name="seven.numerator" horiz-adv-x="409" 
d="M384 645l-188 -295h-100l189 282h-261v68h360v-55z" />
    <glyph glyph-name="eight.numerator" horiz-adv-x="473" 
d="M237 345q-103 0 -155.5 27t-52.5 76q0 59 85 84q-70 23 -70 76q0 46 50 71.5t143 25.5q92 0 142 -26t50 -71q0 -52 -70 -77q85 -25 85 -83q0 -49 -52.5 -76t-154.5 -27zM237 646q-100 0 -100 -43q0 -44 100 -44q98 0 98 44q0 43 -98 43zM237 403q111 0 111 49
q0 48 -111 48q-112 0 -112 -48q0 -49 112 -49z" />
    <glyph glyph-name="nine.numerator" horiz-adv-x="458" 
d="M427 531q0 -90 -56 -138t-154 -48q-144 0 -185 79l85 27q26 -44 101 -44q112 0 119 106q-45 -37 -136 -37q-87 0 -130 29t-43 81t50 85.5t143 33.5q206 0 206 -174zM223 642q-50 0 -77 -15t-27 -41q0 -55 103 -55q49 0 77.5 14t28.5 39q0 27 -28 42.5t-77 15.5z" />
    <glyph glyph-name="zero.denominator" horiz-adv-x="489" 
d="M244 -5q-101 0 -157 48t-56 132t56 132t157 48q102 0 158 -48t56 -132t-56.5 -132t-157.5 -48zM244 65q57 0 87.5 28.5t30.5 81.5t-30.5 81t-87.5 28t-87 -28t-30 -81t30 -81.5t87 -28.5z" />
    <glyph glyph-name="one.denominator" horiz-adv-x="414" 
d="M34 0v70h140v207l-133 -22v69l149 26h76v-280h123v-70h-355z" />
    <glyph glyph-name="two.denominator" horiz-adv-x="450" 
d="M34 67l215 97q42 22 55 37t13 35q0 52 -94 52q-96 0 -104 -64l-90 14q9 56 58.5 86.5t133.5 30.5q92 0 141 -30.5t49 -84.5q0 -41 -28 -70t-110 -63l-91 -39h231v-68h-379v67z" />
    <glyph glyph-name="three.denominator" horiz-adv-x="452" 
d="M420 100q0 -49 -50 -77t-148 -28q-180 0 -197 101l88 13q9 -50 109 -50q103 0 103 47q0 40 -64 40h-105v62h106q59 0 59 39q0 44 -97 44t-108 -50l-86 13q10 48 59.5 74.5t133.5 26.5q92 0 141 -25.5t49 -72.5q0 -56 -65 -77q72 -18 72 -80z" />
    <glyph glyph-name="four.denominator" horiz-adv-x="476" 
d="M381 0h-86v64h-270v57l277 230h79v-223h70v-64h-70v-64zM123 128h172v144z" />
    <glyph glyph-name="five.denominator" horiz-adv-x="440" 
d="M219 -5q-164 0 -192 91l86 17q16 -46 107 -46q102 0 102 59q0 56 -101 56q-67 0 -105 -28l-73 10l20 196h324v-63h-251l-9 -83q46 25 117 25q81 0 124 -29t43 -83q0 -59 -49 -90.5t-143 -31.5z" />
    <glyph glyph-name="six.denominator" horiz-adv-x="458" 
d="M31 168q0 90 55.5 138.5t154.5 48.5q143 0 185 -80l-85 -27q-27 44 -102 44q-109 0 -118 -105q44 36 136 36q87 0 130 -29t43 -80q0 -52 -50.5 -85.5t-142.5 -33.5q-206 0 -206 173zM235 58q104 0 104 56q0 54 -103 54q-50 0 -78 -14t-28 -39q0 -26 28 -41.5t77 -15.5z
" />
    <glyph glyph-name="seven.denominator" horiz-adv-x="409" 
d="M384 295l-188 -295h-100l189 282h-261v68h360v-55z" />
    <glyph glyph-name="eight.denominator" horiz-adv-x="473" 
d="M237 -5q-103 0 -155.5 27t-52.5 76q0 59 85 84q-70 23 -70 76q0 46 50 71.5t143 25.5q92 0 142 -26t50 -71q0 -52 -70 -77q85 -25 85 -83q0 -49 -52.5 -76t-154.5 -27zM237 296q-100 0 -100 -43q0 -44 100 -44q98 0 98 44q0 43 -98 43zM237 53q111 0 111 49q0 48 -111 48
q-112 0 -112 -48q0 -49 112 -49z" />
    <glyph glyph-name="nine.denominator" horiz-adv-x="458" 
d="M427 181q0 -90 -56 -138t-154 -48q-144 0 -185 79l85 27q26 -44 101 -44q112 0 119 106q-45 -37 -136 -37q-87 0 -130 29t-43 81t50 85.5t143 33.5q206 0 206 -174zM223 292q-50 0 -77 -15t-27 -41q0 -55 103 -55q49 0 77.5 14t28.5 39q0 27 -28 42.5t-77 15.5z" />
    <glyph glyph-name="twosevenths" horiz-adv-x="1217" 
d="M34 417l215 97q42 22 55 37t13 35q0 52 -94 52q-96 0 -104 -64l-90 14q9 56 58.5 86.5t133.5 30.5q92 0 141 -30.5t49 -84.5q0 -41 -28 -70t-110 -63l-91 -39h231v-68h-379v67zM342 0h-124l679 700h124zM1191 295l-188 -295h-100l189 282h-261v68h360v-55z" />
    <glyph glyph-name="twoninths" horiz-adv-x="1204" 
d="M34 417l215 97q42 22 55 37t13 35q0 52 -94 52q-96 0 -104 -64l-90 14q9 56 58.5 86.5t133.5 30.5q92 0 141 -30.5t49 -84.5q0 -41 -28 -70t-110 -63l-91 -39h231v-68h-379v67zM342 0h-124l679 700h124zM1173 181q0 -90 -56 -138t-154 -48q-144 0 -185 79l85 27
q26 -44 101 -44q112 0 119 106q-45 -37 -136 -37q-87 0 -130 29t-43 81t50 85.5t143 33.5q206 0 206 -174zM969 292q-50 0 -77 -15t-27 -41q0 -55 103 -55q49 0 77.5 14t28.5 39q0 27 -28 42.5t-77 15.5z" />
    <glyph glyph-name="threesevenths" horiz-adv-x="1182" 
d="M420 450q0 -49 -50 -77t-148 -28q-180 0 -197 101l88 13q9 -50 109 -50q103 0 103 47q0 40 -64 40h-105v62h106q59 0 59 39q0 44 -97 44t-108 -50l-86 13q10 48 59.5 74.5t133.5 26.5q92 0 141 -25.5t49 -72.5q0 -56 -65 -77q72 -18 72 -80zM308 0h-124l679 700h124z
M1156 295l-188 -295h-100l189 282h-261v68h360v-55z" />
    <glyph glyph-name="foursevenths" horiz-adv-x="1206" 
d="M381 350h-86v64h-270v57l277 230h79v-223h70v-64h-70v-64zM331 0h-124l679 700h124zM123 478h172v144zM1180 295l-188 -295h-100l189 282h-261v68h360v-55z" />
    <glyph glyph-name="fourninths" horiz-adv-x="1193" 
d="M381 350h-86v64h-270v57l277 230h79v-223h70v-64h-70v-64zM331 0h-124l679 700h124zM123 478h172v144zM1162 181q0 -90 -56 -138t-154 -48q-144 0 -185 79l85 27q26 -44 101 -44q112 0 119 106q-45 -37 -136 -37q-87 0 -130 29t-43 81t50 85.5t143 33.5q206 0 206 -174z
M958 292q-50 0 -77 -15t-27 -41q0 -55 103 -55q49 0 77.5 14t28.5 39q0 27 -28 42.5t-77 15.5z" />
    <glyph glyph-name="fivesevenths" horiz-adv-x="1166" 
d="M219 345q-164 0 -192 91l86 17q16 -46 107 -46q102 0 102 59q0 56 -101 56q-67 0 -105 -28l-73 10l20 196h324v-63h-251l-9 -83q46 25 117 25q81 0 124 -29t43 -83q0 -59 -49 -90.5t-143 -31.5zM291 0h-124l679 700h124zM1141 295l-188 -295h-100l189 282h-261v68h360
v-55z" />
    <glyph glyph-name="fiveninths" horiz-adv-x="1154" 
d="M219 345q-164 0 -192 91l86 17q16 -46 107 -46q102 0 102 59q0 56 -101 56q-67 0 -105 -28l-73 10l20 196h324v-63h-251l-9 -83q46 25 117 25q81 0 124 -29t43 -83q0 -59 -49 -90.5t-143 -31.5zM291 0h-124l679 700h124zM1123 181q0 -90 -56 -138t-154 -48
q-144 0 -185 79l85 27q26 -44 101 -44q112 0 119 106q-45 -37 -136 -37q-87 0 -130 29t-43 81t50 85.5t143 33.5q206 0 206 -174zM919 292q-50 0 -77 -15t-27 -41q0 -55 103 -55q49 0 77.5 14t28.5 39q0 27 -28 42.5t-77 15.5z" />
    <glyph glyph-name="sixsevenths" horiz-adv-x="1184" 
d="M31 518q0 90 55.5 138.5t154.5 48.5q143 0 185 -80l-85 -27q-27 44 -102 44q-109 0 -118 -105q44 36 136 36q87 0 130 -29t43 -80q0 -52 -50.5 -85.5t-142.5 -33.5q-206 0 -206 173zM309 0h-124l679 700h124zM235 408q104 0 104 56q0 54 -103 54q-50 0 -78 -14t-28 -39
q0 -26 28 -41.5t77 -15.5zM1159 295l-188 -295h-100l189 282h-261v68h360v-55z" />
    <glyph glyph-name="sevenninths" horiz-adv-x="1083" 
d="M384 645l-188 -295h-100l189 282h-261v68h360v-55zM221 0h-124l679 700h124zM1052 181q0 -90 -56 -138t-154 -48q-144 0 -185 79l85 27q26 -44 101 -44q112 0 119 106q-45 -37 -136 -37q-87 0 -130 29t-43 81t50 85.5t143 33.5q206 0 206 -174zM848 292q-50 0 -77 -15
t-27 -41q0 -55 103 -55q49 0 77.5 14t28.5 39q0 27 -28 42.5t-77 15.5z" />
    <glyph glyph-name="eightninths" horiz-adv-x="1191" 
d="M237 345q-103 0 -155.5 27t-52.5 76q0 59 85 84q-70 23 -70 76q0 46 50 71.5t143 25.5q92 0 142 -26t50 -71q0 -52 -70 -77q85 -25 85 -83q0 -49 -52.5 -76t-154.5 -27zM329 0h-124l679 700h124zM237 646q-100 0 -100 -43q0 -44 100 -44q98 0 98 44q0 43 -98 43zM237 403
q111 0 111 49q0 48 -111 48q-112 0 -112 -48q0 -49 112 -49zM1160 181q0 -90 -56 -138t-154 -48q-144 0 -185 79l85 27q26 -44 101 -44q112 0 119 106q-45 -37 -136 -37q-87 0 -130 29t-43 81t50 85.5t143 33.5q206 0 206 -174zM956 292q-50 0 -77 -15t-27 -41
q0 -55 103 -55q49 0 77.5 14t28.5 39q0 27 -28 42.5t-77 15.5z" />
    <glyph glyph-name="mu" horiz-adv-x="815" 
d="M721 546v-546h-116l-10 117q-40 -61 -106.5 -94.5t-148.5 -33.5q-69 0 -117 22v-211h-129v746h130v-305q0 -70 41 -107t112 -37q93 0 153.5 51t60.5 141v257h130z" />
    <glyph glyph-name="Omega" horiz-adv-x="952" 
d="M656 148v-52h187v-96h-304v211q206 44 206 199q0 91 -72 142.5t-197 51.5q-126 0 -197 -51.5t-71 -143.5q0 -78 50 -127t156 -71v-211h-306v96h189v52q-228 69 -228 265q0 136 110 217t297 81q188 0 297.5 -81t109.5 -217q0 -199 -227 -265z" />
    <glyph glyph-name="Delta" horiz-adv-x="910" 
d="M524 700l379 -700h-896l378 700h139zM206 104h493l-247 467z" />
    <glyph glyph-name="at.case" horiz-adv-x="1186" 
d="M904 62q-65 0 -106.5 25t-52.5 71q-74 -99 -223 -99q-92 0 -143 38.5t-51 103.5q0 66 49.5 102.5t160.5 45.5l202 16v7q0 111 -132 111q-130 0 -143 -92l-117 14q16 79 84 120t177 41q249 0 249 -189v-185q0 -67 65 -67q61 0 101.5 58t40.5 163q0 167 -123 268t-341 101
q-224 0 -352.5 -116t-128.5 -303q0 -177 118 -279.5t342 -102.5q149 0 275 55l21 -48q-135 -62 -296 -62q-251 0 -386.5 118t-135.5 319q0 211 148 342.5t395 131.5q240 0 383.5 -116.5t143.5 -307.5q0 -129 -60 -206.5t-164 -77.5zM447 210q0 -32 24 -50t71 -18
q84 0 142 42t58 102v7l-204 -18q-91 -8 -91 -65z" />
    <glyph glyph-name="questiondown.case" horiz-adv-x="772" 
d="M472 699v-124h-139v124h139zM384 97q198 0 214 144l135 -24q-14 -108 -106 -168t-243 -60q-158 0 -245 55.5t-87 145.5q0 56 28.5 94.5t69.5 59t82.5 39t71 47t31.5 69.5h135q-3 -60 -33 -102t-70.5 -63.5t-81 -38.5t-68.5 -41t-28 -58q0 -45 47.5 -72t147.5 -27z" />
    <glyph glyph-name="exclamdown.case" horiz-adv-x="366" 
d="M252 699v-124h-139v124h139zM123 499h120l8 -499h-137z" />
    <glyph glyph-name="parenleft.case" horiz-adv-x="414" 
d="M256 -80q-164 204 -164 425q0 219 164 425h123q-83 -116 -120.5 -217.5t-37.5 -207.5t37.5 -207.5t120.5 -217.5h-123z" />
    <glyph glyph-name="parenright.case" horiz-adv-x="414" 
d="M158 770q164 -205 164 -425t-164 -425h-124q83 115 120.5 216.5t37.5 208.5q0 106 -37.5 207.5t-120.5 217.5h124z" />
    <glyph glyph-name="braceleft.case" horiz-adv-x="480" 
d="M157 345q71 -13 103.5 -52.5t32.5 -115.5v-62q0 -56 19.5 -78t69.5 -22q37 0 74 5l5 -96q-43 -7 -94 -7q-101 0 -149 43t-48 136v90q0 58 -27 80.5t-113 31.5v93q86 9 113 32t27 81v89q0 94 48 137t149 43q41 0 94 -7l-5 -96q-37 5 -74 5q-49 0 -69 -22.5t-20 -77.5v-67
q0 -73 -32.5 -111.5t-103.5 -51.5z" />
    <glyph glyph-name="braceright.case" horiz-adv-x="480" 
d="M450 391v-93q-86 -9 -113 -31.5t-27 -80.5v-90q0 -93 -48 -136t-149 -43q-52 0 -94 7l4 96q38 -5 75 -5q49 0 68.5 22t19.5 78v62q0 75 32.5 115t104.5 53q-72 13 -104.5 51.5t-32.5 111.5v67q0 55 -19.5 77.5t-68.5 22.5q-37 0 -75 -5l-4 96q52 7 94 7q101 0 149 -43
t48 -137v-89q0 -58 27 -81t113 -32z" />
    <glyph glyph-name="bracketleft.case" horiz-adv-x="443" 
d="M116 -80v850h309v-96h-182v-658h182v-96h-309z" />
    <glyph glyph-name="bracketright.case" horiz-adv-x="443" 
d="M326 -80h-308v96h182v658h-182v96h308v-850z" />
    <glyph glyph-name="hyphen.case" horiz-adv-x="496" 
d="M51 304v114h393v-114h-393z" />
    <glyph glyph-name="endash.case" horiz-adv-x="664" 
d="M51 304v114h562v-114h-562z" />
    <glyph glyph-name="emdash.case" horiz-adv-x="1329" 
d="M51 304v114h1226v-114h-1226z" />
    <glyph glyph-name="brokenbar.case" horiz-adv-x="360" 
d="M245 405h-129v405h129v-405zM245 -120h-129v425h129v-425z" />
    <glyph glyph-name="bar.case" horiz-adv-x="360" 
d="M245 -120h-129v930h129v-930z" />
    <glyph glyph-name="guillemotleft.case" horiz-adv-x="825" 
d="M374 233v-129l-328 174v134l328 173v-125l-245 -114zM753 233v-129l-328 174v134l328 173v-125l-245 -114z" />
    <glyph glyph-name="guillemotright.case" horiz-adv-x="824" 
d="M389 278l-328 -174v125l246 115l-246 113v128l328 -173v-134zM768 278l-328 -174v125l246 115l-246 113v128l328 -173v-134z" />
    <glyph glyph-name="guilsinglleft.case" horiz-adv-x="436" 
d="M374 233v-129l-328 174v134l328 173v-125l-245 -114z" />
    <glyph glyph-name="guilsinglright.case" horiz-adv-x="436" 
d="M389 278l-328 -174v125l246 115l-246 113v128l328 -173v-134z" />
    <glyph glyph-name="afii10021.bg" horiz-adv-x="941" 
d="M10 -167v275h88l300 592h145l301 -592h87v-275h-130v167h-661v-167h-130zM238 108h460l-230 458z" />
    <glyph glyph-name="afii10029.bg" horiz-adv-x="916" 
d="M755 0l-300 564l-301 -564h-146l376 700h145l378 -700h-152z" />
    <glyph glyph-name="afii10038.bg" horiz-adv-x="1068" 
d="M464 -93v93h-25q-182 0 -288 93t-106 256q0 162 106.5 256.5t287.5 94.5h25v81h138v-81h27q181 0 287.5 -94.5t106.5 -256.5q0 -163 -106 -256t-288 -93h-27v-93h-138zM891 349q0 119 -68.5 182.5t-194.5 63.5h-28v-491h28q126 0 194.5 63t68.5 182zM177 349
q0 -119 68.5 -182t194.5 -63h26v491h-26q-126 0 -194.5 -63.5t-68.5 -182.5z" />
    <glyph glyph-name="afii10066.sb" horiz-adv-x="827" 
d="M414 -11q-175 0 -265 66.5t-90 184.5q0 149 153 207q28 9 50 13l-32 8q-73 21 -104 53t-31 85q0 131 209 137l298 6q58 1 115 12l9 -97q-61 -14 -124 -14l-288 -5q-47 -1 -67.5 -12t-20.5 -35q0 -29 31 -43t130 -33l101 -20q149 -28 215 -90t66 -164q0 -122 -90.5 -190.5
t-264.5 -68.5zM414 88q112 0 167 42t55 119q0 75 -59 118t-163 43q-108 0 -165 -42t-57 -117q0 -77 56 -120t166 -43z" />
    <glyph glyph-name="afii10067.bg" horiz-adv-x="791" 
d="M73 505q0 126 84.5 191t246.5 65q151 0 232.5 -53.5t81.5 -153.5q0 -126 -133 -168q154 -37 154 -177q0 -106 -84 -163t-247 -57q-335 0 -335 257v259zM199 509v-80h253q67 0 102.5 29t35.5 82q0 121 -188 121q-203 0 -203 -152zM199 244q0 -78 51 -116.5t158 -38.5
q198 0 198 126q0 56 -39 87t-114 31h-254v-89z" />
    <glyph glyph-name="afii10068.bg" horiz-adv-x="742" 
d="M380 467q-179 0 -199 -97l-123 19q39 168 325 168q140 0 217.5 -43t77.5 -119q0 -69 -54 -104t-182 -54l-135 -14q-72 -12 -98.5 -27t-26.5 -47q0 -69 185 -69q190 0 209 106l124 -18q-20 -91 -103 -135t-237 -44q-152 0 -230.5 42.5t-78.5 121.5q0 72 54 107t184 55
l136 14q74 11 100 24.5t26 44.5q0 69 -171 69z" />
    <glyph glyph-name="afii10069.bg" horiz-adv-x="857" 
d="M367 23q-144 0 -227.5 72t-83.5 195t83.5 195t227.5 72q182 0 267 -113l8 102h116v-488q0 -269 -349 -269q-293 0 -333 180l132 16q25 -100 199 -100q222 0 222 171v74q-86 -107 -262 -107zM404 125q104 0 164.5 44t60.5 120q0 77 -60.5 121.5t-164.5 44.5
q-103 0 -159 -43.5t-56 -121.5t56 -121.5t159 -43.5z" />
    <glyph glyph-name="afii10072.bg" horiz-adv-x="996" 
d="M434 0v277l-268 -277h-164l292 295l-283 251h162l261 -248v452h126v-453l263 249h162l-283 -251l292 -295h-165l-269 278v-278h-126z" />
    <glyph glyph-name="afii10073.bg" horiz-adv-x="757" 
d="M166 334l-120 28q44 195 332 195q153 0 235 -51t82 -146q0 -127 -136 -167q150 -37 150 -181q0 -108 -86 -165.5t-250 -57.5q-152 0 -235 51t-105 153l125 25q12 -64 62.5 -96t151.5 -32q204 0 204 127q0 119 -147 119h-171v102h169q68 0 103 28.5t35 77.5
q0 112 -190 112q-97 0 -147 -30.5t-62 -91.5z" />
    <glyph glyph-name="afii10074.bg" horiz-adv-x="813" 
d="M585 289v257h130v-546h-116l-10 116q-40 -60 -106.5 -93.5t-148.5 -33.5q-114 0 -180 60t-66 171v326h130v-305q0 -71 41 -107.5t113 -36.5q93 0 153.5 51t59.5 141z" />
    <glyph glyph-name="afii10075.bg" horiz-adv-x="813" 
d="M511 763h111q0 -75 -60 -118t-158 -43q-99 0 -159 43t-60 118h111q0 -39 29 -61.5t79 -22.5t78.5 22.5t28.5 61.5zM585 289v257h130v-546h-116l-10 117q-40 -61 -106.5 -94.5t-148.5 -33.5q-114 0 -180 60t-66 171v326h131v-305q0 -71 40.5 -107.5t112.5 -36.5
q93 0 153.5 51t59.5 141z" />
    <glyph glyph-name="afii10076.bg" horiz-adv-x="749" 
d="M98 0v750h130v-456l336 252h175l-350 -255l358 -291h-180l-339 275v-275h-130z" />
    <glyph glyph-name="afii10077.bg" horiz-adv-x="713" 
d="M420 546l288 -546h-140l-215 416l-216 -416h-135l286 546h132z" />
    <glyph glyph-name="afii10081.bg" horiz-adv-x="832" 
d="M98 0v546h116l10 -119q41 61 110.5 95.5t155.5 34.5q119 0 185 -62.5t66 -171.5v-323h-130v297q0 71 -42.5 112t-120.5 41q-98 0 -159 -52.5t-61 -139.5v-258h-130z" />
    <glyph glyph-name="afii10084.bg" horiz-adv-x="1242" 
d="M98 0v546h117l9 -112q37 58 98.5 90.5t136.5 32.5q80 0 135.5 -34t78.5 -97q38 62 102 96.5t145 34.5q108 0 170 -62t62 -169v-326h-131v302q0 69 -37 108t-107 39q-85 0 -136 -51.5t-51 -137.5v-260h-130v304q0 68 -38 106.5t-108 38.5q-84 0 -135 -52t-51 -137v-260
h-130z" />
    <glyph glyph-name="afii10088.bg" horiz-adv-x="824" 
d="M585 289v257h130v-444h91v-257h-122v155h-85l-10 116q-40 -60 -106.5 -93.5t-148.5 -33.5q-114 0 -180 60t-66 171v326h130v-305q0 -71 41 -107.5t113 -36.5q93 0 153.5 51t59.5 141z" />
    <glyph glyph-name="afii10090.bg" horiz-adv-x="1201" 
d="M531 286v260h130v-311q0 -65 35 -101.5t100 -36.5q82 0 129.5 51t47.5 138v260h130v-546h-117l-8 109q-37 -56 -94.5 -88t-127.5 -32q-78 0 -131 33.5t-77 94.5q-36 -60 -97 -94t-136 -34q-109 0 -168 61.5t-59 169.5v326h131v-309q0 -66 34.5 -103t99.5 -37
q83 0 130.5 51t47.5 138z" />
    <glyph glyph-name="afii10091.bg" horiz-adv-x="1216" 
d="M531 286v260h130v-311q0 -65 35 -101.5t100 -36.5q82 0 129.5 51t47.5 138v260h130v-444h93v-260h-121v158h-90l-8 108q-36 -56 -93.5 -87.5t-127.5 -31.5q-78 0 -131 33.5t-77 94.5q-37 -60 -97.5 -94t-135.5 -34q-109 0 -168 61.5t-59 169.5v326h131v-309
q0 -66 34.5 -103t99.5 -37q83 0 130.5 51t47.5 138z" />
    <glyph glyph-name="afii10092.bg" horiz-adv-x="854" 
d="M8 445v101h317v-168h249q119 0 179 -49.5t60 -137.5q0 -96 -78.5 -149t-234.5 -53q-155 0 -230 55t-75 153v248h-187zM325 193q0 -57 42 -84t136 -27q184 0 184 107q0 97 -129 97h-233v-93z" />
    <glyph glyph-name="afii10094.bg" horiz-adv-x="747" 
d="M707 191q0 -96 -78.5 -149t-234.5 -53q-155 0 -230 55t-75 153v349h129v-168h250q119 0 179 -49.5t60 -137.5zM218 193q0 -56 42.5 -83.5t135.5 -27.5q185 0 185 107q0 97 -129 97h-234v-93z" />
    <glyph glyph-name="afii10096.bg" horiz-adv-x="1096" 
d="M98 0v750h130v-418h109q20 106 111 165.5t238 59.5q167 0 260 -76t93 -208q0 -133 -92.5 -208.5t-260.5 -75.5q-153 0 -244.5 64t-106.5 177h-107v-230h-130zM686 89q109 0 164.5 47.5t55.5 136.5t-55.5 136t-164.5 47q-110 0 -165 -47t-55 -136t55.5 -136.5t164.5 -47.5
z" />
    <glyph glyph-name="uni045D.bg" horiz-adv-x="813" 
d="M464 609h-110l-195 159h169zM585 289v257h130v-546h-116l-10 116q-40 -60 -106.5 -93.5t-148.5 -33.5q-114 0 -180 60t-66 171v326h130v-305q0 -71 41 -107.5t113 -36.5q93 0 153.5 51t59.5 141z" />
    <glyph glyph-name="breve_cyr" horiz-adv-x="594" 
d="M422 930h122q0 -90 -67 -142.5t-181 -52.5q-113 0 -179.5 52.5t-66.5 142.5h121q0 -47 34 -74.5t91 -27.5q58 0 92 27.5t34 74.5z" />
    </font>
</defs>
</svg>
