<?xml version="1.0" standalone="no"?>
<!DOCTYPE svg PUBLIC "-//W3C//DTD SVG 1.1//EN" "http://www.w3.org/Graphics/SVG/1.1/DTD/svg11.dtd" >
<svg>
<metadata>
Created by FontForge 20090914 at Tue Aug 31 14:23:08 2021
 By www-data
Copyright 2019 BlackFoundry
</metadata>
<defs>
<font id="GrtskGiga-Bold" horiz-adv-x="798" >
  <font-face 
    font-family="Grtsk Giga"
    font-weight="700"
    font-stretch="normal"
    units-per-em="2048"
    panose-1="0 0 0 0 0 0 0 0 0 0"
    ascent="1536"
    descent="-512"
    x-height="1126"
    cap-height="1434"
    bbox="-338 -451.001 3867 2028"
    underline-thickness="225"
    underline-position="-307"
    unicode-range="U+000D-U+F6C3"
  />
<missing-glyph horiz-adv-x="2519" 
d="M217 0v1434h2085v-1434h-2085zM670 348h1179v737h-1179v-737z" />
    <glyph glyph-name=".notdef" horiz-adv-x="2519" 
d="M217 0v1434h2085v-1434h-2085zM670 348h1179v737h-1179v-737z" />
    <glyph glyph-name=".null" horiz-adv-x="0" 
 />
    <glyph glyph-name=".null" horiz-adv-x="0" 
 />
    <glyph glyph-name="CR" unicode="&#xd;" horiz-adv-x="0" 
 />
    <glyph glyph-name="space" unicode=" " horiz-adv-x="634" 
 />
    <glyph glyph-name="exclam" unicode="!" horiz-adv-x="894" 
d="M649 451h-403l-33 983h467zM217 0v336h459v-336h-459z" />
    <glyph glyph-name="quotedbl" unicode="&#x22;" horiz-adv-x="1351" 
d="M184 678l-20 756h409l-20 -756h-369zM799 678l-21 756h412l-21 -756h-370z" />
    <glyph glyph-name="numbersign" unicode="#" horiz-adv-x="2525" 
d="M279 0l110 285h-342v303h461l98 258h-399v303h518l111 285h444l-111 -285h521l110 285h443l-111 -285h346v-303h-465l-100 -258h407v-303h-526l-111 -285h-442l111 285h-521l-110 -285h-442zM950 588h520l101 258h-520z" />
    <glyph glyph-name="dollar" unicode="$" horiz-adv-x="2258" 
d="M86 418l475 70.999c24 -60.667 73.667 -106.667 149 -138s183.333 -49.333 324 -54v256l-282 10c-416.667 24 -625 163.333 -625 418c0 148 75.833 262.833 227.5 344.5s378.167 125.834 679.5 132.501v139h187v-139c518.667 -14 819 -153.333 901 -418l-475 -71
c-22 52.667 -66.5 92.667 -133.5 120s-164.5 43.333 -292.5 48v-246l317 -12c415.333 -26 623 -164.667 623 -416c0 -312 -313.333 -474.667 -940 -488v-139h-187v139c-546.667 12 -862.667 159.667 -948 443zM870 902.999l164 -5.99902v242c-111.333 -2 -200 -8 -266 -18
s-112.167 -23.333 -138.5 -40s-39.5 -38.334 -39.5 -65.001c0 -36.667 19.5 -63.167 58.5 -79.5s112.833 -27.5 221.5 -33.5zM1393 539l-171.999 6v-250c175.333 2.66699 299 14 371 34s108 50.333 108 91c0 27.333 -7.66699 48.333 -23 63s-44.833 26.5 -88.5 35.5
s-108.834 15.833 -195.501 20.5z" />
    <glyph glyph-name="percent" unicode="%" horiz-adv-x="2871" 
d="M688 1454c189.333 0 335.333 -33.8311 438 -101.498s154 -158.167 154 -271.5c0 -112.667 -51.5 -202.834 -154.5 -270.501s-248.833 -101.5 -437.5 -101.5c-190 0 -336.167 33.667 -438.5 101s-153.5 157.666 -153.5 270.999c0 112.667 51.333 203 154 271
s248.667 102 438 102zM2097 1434h551l-1874 -1434h-553zM688 956.002c76 0 133.333 10.833 172 32.5s58 52.5 58 92.5s-19.333 70.833 -58 92.5s-96 32.5 -172 32.5c-152.667 0 -229 -41.667 -229 -125c0 -40 19.333 -70.833 58 -92.5s95.667 -32.5 171 -32.5zM2183 725.002
c190 0 336.167 -33.8311 438.5 -101.498s153.5 -158.167 153.5 -271.5c0 -112.667 -51.167 -202.834 -153.5 -270.501s-248.5 -101.5 -438.5 -101.5c-189.333 0 -335.333 33.667 -438 101s-154 157.666 -154 270.999c0 112.667 51.5 203 154.5 271s248.833 102 437.5 102z
M2183 227.004c76.667 0 134.167 10.833 172.5 32.5s57.5 52.5 57.5 92.5s-19.167 70.833 -57.5 92.5s-95.833 32.5 -172.5 32.5c-151.333 0 -227 -41.667 -227 -125c0 -40 19 -70.833 57 -92.5s94.667 -32.5 170 -32.5z" />
    <glyph glyph-name="ampersand" unicode="&#x26;" horiz-adv-x="2480" 
d="M928 -27c-570.667 0 -855.999 145 -855.999 435c0 89.333 31.667 164.5 95 225.5s169.333 112.5 318 154.5c-66 47.333 -111.5 92.166 -136.5 134.499s-37.5 91.833 -37.5 148.5c0 116 60.667 209.833 182 281.5s293.666 107.5 516.999 107.5
c214 0 379.333 -34.5 496 -103.5s175 -160.833 175 -275.5c0 -79.333 -30.667 -146.833 -92 -202.5s-167 -103.5 -317 -143.5l389 -223c80 72 138 157.333 174 256l428 -68c-36.667 -143.333 -122 -271.666 -256 -384.999l555 -315h-680l-207 115
c-226 -94.667 -475 -142 -747 -142zM756.001 1057c0 -26 12.666 -48.6641 37.999 -67.9971s75.333 -47.333 150 -84c63.333 10.667 116.333 22 159 34s74.334 24.667 95.001 38s35 26.166 43 38.499s12 26.166 12 41.499c0 35.333 -20.167 63.166 -60.5 83.499
s-101.833 30.5 -184.5 30.5c-168 0 -252 -38 -252 -114zM547 451.003c0 -105.333 131.667 -158.001 395 -158.001c128 0 243.333 12.333 346 37l-508 280c-86.667 -16 -147.167 -36.667 -181.5 -62s-51.5 -57.666 -51.5 -96.999z" />
    <glyph glyph-name="quotesingle" unicode="'" horiz-adv-x="737" 
d="M184 678l-20 756h409l-20 -756h-369z" />
    <glyph glyph-name="parenleft" unicode="(" horiz-adv-x="997" 
d="M547 -307c-258 272 -387 562.001 -387 870.001c0 304.667 129 595 387 871h409c-138.667 -172.667 -236.334 -324 -293.001 -454s-85 -269 -85 -417s28.333 -286.833 85 -416.5s154.334 -280.834 293.001 -453.501h-409z" />
    <glyph glyph-name="parenright" unicode=")" horiz-adv-x="997" 
d="M451 1434c258 -272 387 -562.333 387 -871c0 -304 -129 -594 -387 -870h-410c138.667 173.333 236.5 324.833 293.5 454.5s85.5 268.167 85.5 415.5s-28.5 286 -85.5 416s-154.833 281.667 -293.5 455h410z" />
    <glyph glyph-name="asterisk" unicode="*" horiz-adv-x="1173" 
d="M1010 725l-240 -190l-184 272l-183 -272l-239 190l205 205l-293 49l90 295l295 -117l-35 291h322l-35 -291l295 117l90 -295l-295 -49z" />
    <glyph glyph-name="plus" unicode="+" horiz-adv-x="1568" 
d="M971 1188v-307h465v-306h-465v-307h-373v307h-465v306h465v307h373z" />
    <glyph glyph-name="comma" unicode="," horiz-adv-x="825" 
d="M184 373h458.998v-291c0 -163.333 -34.833 -280.166 -104.5 -350.499s-189.167 -107.833 -358.5 -112.5l-18 231c84.667 0 141.334 9.66699 170.001 29s44.334 59.666 47.001 120.999h-195v373z" />
    <glyph glyph-name="hyphen" unicode="-" horiz-adv-x="1263" 
d="M92 436v350h1079v-350h-1079z" />
    <glyph glyph-name="period" unicode="." horiz-adv-x="825" 
d="M184 0v373h459v-373h-459z" />
    <glyph glyph-name="slash" unicode="/" horiz-adv-x="1142" 
d="M-47 -307l719 1741h444l-719 -1741h-444z" />
    <glyph glyph-name="zero" unicode="0" horiz-adv-x="2359" 
d="M1180 -27c-344.667 0 -611.832 65 -801.499 195s-284.5 313 -284.5 549s94.667 418.833 284 548.5s456.666 194.5 801.999 194.5s612.5 -64.833 801.5 -194.5s283.5 -312.5 283.5 -548.5s-94.5 -419 -283.5 -549s-456.167 -195 -801.5 -195zM1180 322
c210 0 366.167 32.667 468.5 98s153.5 164.333 153.5 297s-51.167 231.667 -153.5 297s-258.5 98 -468.5 98s-366.333 -32.667 -469 -98s-154 -164.333 -154 -297s51.333 -231.667 154 -297s259 -98 469 -98z" />
    <glyph glyph-name="one" unicode="1" horiz-adv-x="2023" 
d="M117 0v348h766v717l-699 -109v359l766 119h385v-1086h647v-348h-1865z" />
    <glyph glyph-name="two" unicode="2" horiz-adv-x="2078" 
d="M117 342l904.999 342.002c139.333 51.333 242.166 92.333 308.499 123s112.333 58.334 138 83.001s38.5 53 38.5 85c0 52 -33.167 89.833 -99.5 113.5s-177.166 35.5 -332.499 35.5c-128.667 0 -231.5 -8.16699 -308.5 -24.5s-133.333 -40.333 -169 -72
s-58.167 -74.5 -67.5 -128.5l-454 82c41.333 162.667 142.166 283.167 302.499 361.5s392.5 117.5 696.5 117.5c298 0 524.833 -39 680.5 -117s233.5 -189.667 233.5 -335c0 -48.667 -6.16699 -91.5 -18.5 -128.5s-34.5 -74.333 -66.5 -112s-77.167 -73.834 -135.5 -108.501
s-132.166 -70.834 -221.499 -108.501s-198.666 -77.834 -327.999 -120.501l-226 -82h1006v-348h-1882v342z" />
    <glyph glyph-name="three" unicode="3" horiz-adv-x="2156" 
d="M2068 422c0 -146.667 -83.835 -258.168 -251.502 -334.501s-419.5 -114.5 -755.5 -114.5c-308.667 0 -544 36.167 -706 108.5s-262.667 184.5 -302 336.5l471 90c12.667 -75.333 62.5 -130.333 149.5 -165s218.833 -52 395.5 -52c326.667 0 490 51.667 490 155
c0 40 -20.333 69.5 -61 88.5s-108 28.5 -202 28.5h-606v318h606c96.667 0 165 9.83301 205 29.5s60 50.834 60 93.501c0 47.333 -40.167 82.333 -120.5 105s-204.166 34 -371.499 34c-172.667 0 -303.667 -16.833 -393 -50.5s-140.666 -85.167 -153.999 -154.5l-442 90
c38 142 139.5 249.5 304.5 322.5s391.833 109.5 680.5 109.5c323.333 0 567.666 -33.667 732.999 -101s248 -167.333 248 -300c0 -76.667 -25.833 -141 -77.5 -193s-132.5 -93 -242.5 -123c114.667 -24 200.334 -62 257.001 -114s85 -121 85 -207z" />
    <glyph glyph-name="four" unicode="4" horiz-adv-x="2213" 
d="M1845 0h-446v240h-1356v323l1356 871h446v-869h324v-325h-324v-240zM616 565h783v496z" />
    <glyph glyph-name="five" unicode="5" horiz-adv-x="2119" 
d="M1073 -27c-290.667 0 -513.002 27.167 -667.002 81.5s-259.333 149.5 -316 285.5l471 102c20.667 -50.667 70.334 -85.5 149.001 -104.5s201 -28.5 367 -28.5c179.333 0 306.833 13.5 382.5 40.5s113.5 71.5 113.5 133.5c0 58 -38.333 100.5 -115 127.5
s-203.667 40.5 -381 40.5c-161.333 0 -281.166 -6.33301 -359.499 -19s-133.166 -37.667 -164.499 -75l-412 35l113 842h1659v-308h-1274l-41 -297c158 78 362 117 612 117c548 0 822 -155 822 -465c1.33301 -166 -76.834 -292.167 -234.501 -378.5
s-399.167 -129.5 -724.5 -129.5z" />
    <glyph glyph-name="six" unicode="6" horiz-adv-x="2213" 
d="M96 711c0 236.667 92.335 420.668 277.002 552.001s446 197 784 197c271.333 0 486.5 -29.833 645.5 -89.5s265.5 -151.834 319.5 -276.501l-469 -95c-19.333 45.333 -69 78.166 -149 98.499s-195.667 30.5 -347 30.5c-196 0 -344 -32.667 -444 -98s-154 -169 -162 -311
c68.667 60 165.667 106 291 138s270.666 48 435.999 48c566.667 0 850 -149.333 850 -448c0 -322.667 -330.333 -484 -991 -484c-342.667 0 -601.834 62.833 -777.501 188.5s-263.5 308.834 -263.5 549.501zM1137 305.001c180 0 311.667 11.833 395 35.5
s125 61.167 125 112.5c0 52 -41.667 90.167 -125 114.5s-215 36.5 -395 36.5c-178 0 -308.5 -12.167 -391.5 -36.5s-124.5 -62.5 -124.5 -114.5c0 -51.333 41.5 -88.833 124.5 -112.5s213.5 -35.5 391.5 -35.5z" />
    <glyph glyph-name="seven" unicode="7" horiz-adv-x="1890" 
d="M1843 1100l-934 -1100h-557l957 1085h-1260v349h1794v-334z" />
    <glyph glyph-name="eight" unicode="8" horiz-adv-x="2252" 
d="M1126 -27c-340.667 0 -599.5 37.665 -776.5 112.998s-265.5 185.333 -265.5 330c0 150 129 257 387 321c-104 34.667 -184 79 -240 133s-84 115.667 -84 185c0 86.667 39.333 160.334 118 221.001s191.167 106.5 337.5 137.5s320.833 46.5 523.5 46.5
s377 -15.5 523 -46.5s258.5 -77.167 337.5 -138.5s118.5 -135.333 118.5 -222c0 -69.333 -27.333 -130.666 -82 -183.999s-133.667 -97.333 -237 -132c124 -31.333 219.167 -74 285.5 -128s99.5 -118.333 99.5 -193c0 -144.667 -89 -254.667 -267 -330
s-437.333 -113 -778 -113zM1624 1014c0 44.667 -38.001 77.001 -114.001 97.001s-204 30 -384 30c-180.667 0 -309 -9.83301 -385 -29.5s-114 -51.5 -114 -95.5c0 -44.667 37.833 -76.667 113.5 -96s204.167 -29 385.5 -29c180.667 0 308.834 9.66699 384.501 29
s113.5 50.666 113.5 93.999zM1126 292.999c201.333 0 344.499 10.5 429.499 31.5s127.5 54.833 127.5 101.5c0 48 -42.833 82.833 -128.5 104.5s-228.5 32.5 -428.5 32.5s-342.5 -10.833 -427.5 -32.5s-127.5 -56.5 -127.5 -104.5c0 -46.667 42.333 -80.5 127 -101.5
s227.334 -31.5 428.001 -31.5z" />
    <glyph glyph-name="nine" unicode="9" horiz-adv-x="2217" 
d="M2124 723c0 -236.667 -92.668 -420.834 -278.001 -552.501s-447 -197.5 -785 -197.5c-271.333 0 -486.5 30 -645.5 90s-265.5 152.333 -319.5 277l469 94c19.333 -45.333 69.166 -78.166 149.499 -98.499s196.5 -30.5 348.5 -30.5c196 0 344 32.5 444 97.5
s154 168.5 162 310.5c-69.333 -59.333 -166.666 -105 -291.999 -137s-271 -48 -437 -48c-565.333 0 -848 149.667 -848 449c0 162 82.167 283 246.5 363s412.5 120 744.5 120c342.667 0 601.834 -62.667 777.501 -188s263.5 -308.333 263.5 -549zM1081 1128
c-180 0 -311.669 -11.833 -395.002 -35.5s-125 -60.834 -125 -111.501c0 -52 41.833 -90.333 125.5 -115s215.167 -37 394.5 -37c178.667 0 309.334 12.333 392.001 37s124 63 124 115c0 50.667 -41.167 87.834 -123.5 111.501s-213.166 35.5 -392.499 35.5z" />
    <glyph glyph-name="colon" unicode=":" horiz-adv-x="825" 
d="M184 754v372h459v-372h-459zM184 0v373h459v-373h-459z" />
    <glyph glyph-name="semicolon" unicode=";" horiz-adv-x="825" 
d="M184 754v372h459v-372h-459zM184 373h458.998v-291c0 -163.333 -34.833 -280.166 -104.5 -350.499s-189.167 -107.833 -358.5 -112.5l-18 231c84.667 0 141.334 9.66699 170.001 29s44.334 59.666 47.001 120.999h-195v373z" />
    <glyph glyph-name="less" unicode="&#x3c;" horiz-adv-x="1568" 
d="M125 555v326l1305 458v-342l-863 -268l863 -268v-365z" />
    <glyph glyph-name="equal" unicode="=" horiz-adv-x="1568" 
d="M1436 821h-1303v305h1303v-305zM1436 330h-1303v305h1303v-305z" />
    <glyph glyph-name="greater" unicode="&#x3e;" horiz-adv-x="1568" 
d="M1444 881v-326l-1305 -459v355l862 268l-862 266v354z" />
    <glyph glyph-name="question" unicode="?" horiz-adv-x="1982" 
d="M985 1120c-292.667 0 -453.004 -75 -481.004 -225l-457 74c28 153.333 123.333 273.5 286 360.5s380 130.5 652 130.5c154.667 0 291.5 -11.5 410.5 -34.5s214.833 -55.167 287.5 -96.5s127.167 -88.666 163.5 -141.999s54.5 -112.333 54.5 -177
c0 -62.667 -13.333 -116.834 -40 -162.501s-61.167 -81.167 -103.5 -106.5s-89.166 -47 -140.499 -65s-102.666 -33.167 -153.999 -45.5s-98.166 -25.333 -140.499 -39s-76.666 -32.167 -102.999 -55.5s-39.5 -51.666 -39.5 -84.999h-459
c1.33301 60 12.666 113.5 33.999 160.5s49 84.667 83 113s72.333 53.166 115 74.499s86.334 37.5 131.001 48.5l130.5 32.5l113 28.5c33 8.33301 59.667 19.833 80 34.5s30.5 32 30.5 52c0 17.333 -6.33301 32.833 -19 46.5s-34.5 26.667 -65.5 39s-77.667 22 -140 29
s-138.5 10.5 -228.5 10.5zM720.996 0v336h459v-336h-459z" />
    <glyph glyph-name="at" unicode="@" horiz-adv-x="2940" 
d="M2253 -20c-114 0 -210.832 16.8311 -290.499 50.498s-135.834 81.5 -168.501 143.5c-122.667 -135.333 -305.667 -203 -549 -203c-159.333 0 -280 27.667 -362 83s-123 129.333 -123 222c0 62 15.667 113.5 47 154.5s87 75.5 167 103.5s187.333 47.333 322 58l461 33
c-0.666992 56 -21.334 96.833 -62.001 122.5s-103.334 38.5 -188.001 38.5c-89.333 0 -156.5 -11.167 -201.5 -33.5s-73.833 -59.5 -86.5 -111.5l-410 43c36 114.667 112.833 201.334 230.5 260.001s274.167 88 469.5 88c236 0 405 -33.333 507 -100
s153 -168.334 153 -305.001v-303c0 -56 13 -97 39 -123s67 -39 123 -39c88.667 0 160 36.167 214 108.5s81 173.166 81 302.499c0 102.667 -22.167 195.667 -66.5 279s-111.166 156.333 -200.5 219c-89.333 62.667 -206.833 111.167 -352.5 145.5s-314.167 51.5 -505.5 51.5
c-198 0 -373.167 -19.667 -525.5 -59s-276.333 -94.666 -372 -165.999s-167.667 -155.166 -216 -251.499s-72.5 -203.833 -72.5 -322.5c0 -234.667 92.5 -416.167 277.5 -544.5s466.833 -192.5 845.5 -192.5c230.667 0 456 32 676 96l51 -154
c-221.333 -73.333 -463.666 -110 -726.999 -110c-220 0 -414.167 21 -582.5 63s-306.333 102.5 -414 181.5s-188.667 173.833 -243 284.5s-81.5 236 -81.5 376c0 144 30.167 275 90.5 393s147.833 219.5 262.5 304.5s259.834 150.833 435.501 197.5s374.167 70 595.5 70
c211.333 0 400.833 -21 568.5 -63s306.5 -101 416.5 -177s193.833 -166.667 251.5 -272s86.5 -221.666 86.5 -348.999c0 -85.333 -11.5 -163.333 -34.5 -234s-57.167 -133 -102.5 -187s-105 -96.167 -179 -126.5s-159 -45.5 -255 -45.5zM1171 306.998
c0 -61.333 53.333 -92 160 -92c123.333 0 223.5 20.667 300.5 62s120.167 94.333 129.5 159l-452 -39c-92 -7.33301 -138 -37.333 -138 -90z" />
    <glyph glyph-name="A" unicode="A" horiz-adv-x="2383" 
d="M1864 0l-166 258h-1030l-166 -258h-502l958 1434h467l959 -1434h-520zM877 582h612l-305 477z" />
    <glyph glyph-name="B" unicode="B" horiz-adv-x="2367" 
d="M217 0v1434h1423c165.333 0 296.166 -32.667 392.499 -98s144.5 -155.666 144.5 -270.999c0 -71.333 -21.833 -135.166 -65.5 -191.499s-109.167 -101.166 -196.5 -134.499c106.667 -26 187.167 -69 241.501 -129c54.333 -60 81.5 -132.333 81.5 -217
c0 -124 -48.167 -220.5 -144.5 -289.5s-231.5 -103.5 -405.5 -103.5h-1471zM1548 1133h-886v-261h886c114.667 0 172 43 172 129c0 88 -57.333 132 -172 132zM1585 568.997h-922.999v-268h921c63.333 0 110.166 10.833 140.499 32.5s45.5 55.167 45.5 100.5
c0 46 -15 80 -45 102s-76.333 33 -139 33z" />
    <glyph glyph-name="C" unicode="C" horiz-adv-x="2344" 
d="M96 717c0 234 98.166 416.334 294.499 547.001s471.833 196 826.5 196c292.667 0 527.167 -42 703.5 -126s288.5 -207.667 336.5 -371l-479 -95c-26.667 82.667 -85.5 144 -176.5 184s-219.167 60 -384.5 60c-224.667 0 -390.5 -32.5 -497.5 -97.5
s-160.5 -164.167 -160.5 -297.5c0 -134.667 53.167 -234.167 159.5 -298.5s272.5 -96.5 498.5 -96.5c169.333 0 299.833 20.5 391.5 61.5s148.834 104.167 171.501 189.5l473 -90c-48 -168.667 -159.333 -295.834 -334 -381.501s-408.667 -128.5 -702 -128.5
c-358 0 -634.333 65.5 -829 196.5s-292 313.5 -292 547.5z" />
    <glyph glyph-name="D" unicode="D" horiz-adv-x="2428" 
d="M217 0v1434h1169c296 0 522.667 -61.833 680 -185.5s236 -301.5 236 -533.5c0 -230.667 -78.667 -407.5 -236 -530.5s-384 -184.5 -680 -184.5h-1169zM1419 348c143.333 0 249.166 30 317.499 90s102.5 152.333 102.5 277c0 125.333 -34.167 218.333 -102.5 279
s-174.166 91 -317.499 91h-749v-737h749z" />
    <glyph glyph-name="E" unicode="E" horiz-adv-x="2148" 
d="M217 0v1434h1806v-322h-1366v-221h1223v-320h-1223v-249h1381v-322h-1821z" />
    <glyph glyph-name="F" unicode="F" horiz-adv-x="2111" 
d="M217 0v1434h1806v-349h-1353v-274h1210v-346h-1210v-465h-453z" />
    <glyph glyph-name="G" unicode="G" horiz-adv-x="2476" 
d="M96 715c0 237.333 98.835 420.831 296.502 550.498s479.167 194.5 844.5 194.5c591.333 0 938.666 -150.667 1042 -452l-473 -97c-30.667 68.667 -91.334 119.334 -182.001 152.001s-219.667 49 -387 49c-232 0 -403 -32.5 -513 -97.5s-165 -164.833 -165 -299.5
c0 -133.333 54.833 -232.166 164.5 -296.499s280.834 -96.5 513.501 -96.5c169.333 0 303.166 15.5 401.499 46.5s164.5 78.167 198.5 141.5h-641v299h1118v-809h-350l-39 229c-140.667 -170.667 -394.667 -256 -762 -256c-338.667 0 -601.167 64.833 -787.5 194.5
s-279.5 312.167 -279.5 547.5z" />
    <glyph glyph-name="H" unicode="H" horiz-adv-x="2523" 
d="M217 0v1434h453v-527h1181v527h455v-1434h-455v559h-1181v-559h-453z" />
    <glyph glyph-name="I" unicode="I" horiz-adv-x="888" 
d="M217 0v1434h453v-1434h-453z" />
    <glyph glyph-name="J" unicode="J" horiz-adv-x="1449" 
d="M1255 633c0 -156 -25.332 -281.499 -75.999 -376.499s-133.167 -166 -247.5 -213s-266.5 -70.5 -456.5 -70.5c-136.667 0 -264.334 11 -383.001 33l-14 346c118 -14.667 234 -22 348 -22c142 0 240.333 21.667 295 65s82 117.666 82 222.999v816h452v-801z" />
    <glyph glyph-name="K" unicode="K" horiz-adv-x="2314" 
d="M217 0v1434h451v-617l936 617h665l-1022 -662l1096 -772h-723l-750 528l-202 -131v-397h-451z" />
    <glyph glyph-name="L" unicode="L" horiz-adv-x="1898" 
d="M217 0v1434h453v-1086h1140v-348h-1593z" />
    <glyph glyph-name="M" unicode="M" horiz-adv-x="2902" 
d="M217 0v1434h467l770 -881l766 881h463v-1434h-438v903l-600 -713h-388l-600 697v-887h-440z" />
    <glyph glyph-name="N" unicode="N" horiz-adv-x="2463" 
d="M217 0v1434h438l1166 -975v975h426v-1434h-439l-1165 975v-975h-426z" />
    <glyph glyph-name="O" unicode="O" horiz-adv-x="2465" 
d="M1233 -27c-363.333 0 -643.666 64.833 -840.999 194.5s-296 312.167 -296 547.5c0 237.333 98.667 420.833 296 550.5s477.666 194.5 840.999 194.5s643.666 -64.833 840.999 -194.5s296 -313.167 296 -550.5c0 -235.333 -98.667 -417.833 -296 -547.5
s-477.666 -194.5 -840.999 -194.5zM1233 322c230.667 0 400.667 32.167 510 96.5s164 163.166 164 296.499c0 134.667 -54.667 234.5 -164 299.5s-279.333 97.5 -510 97.5s-400.667 -32.5 -510 -97.5s-164 -164.833 -164 -299.5c0 -133.333 54.667 -232.166 164 -296.499
s279.333 -96.5 510 -96.5z" />
    <glyph glyph-name="P" unicode="P" horiz-adv-x="2226" 
d="M217 0l0.000976562 1434h1276c197.333 0 353.166 -48 467.499 -144s171.5 -227 171.5 -393s-57.667 -296.667 -173 -392s-273.333 -143 -474 -143h-815v-362h-453zM1413 1090h-743v-383h743c86.667 0 151 15.5 193 46.5s63 78.167 63 141.5c0 66 -21 115 -63 147
s-106.333 48 -193 48z" />
    <glyph glyph-name="Q" unicode="Q" horiz-adv-x="2519" 
d="M1233 -27c-363.333 0 -643.665 64.832 -840.998 194.499s-296 312.167 -296 547.5c0 237.333 98.667 420.833 296 550.5s477.666 194.5 840.999 194.5s643.666 -64.833 840.999 -194.5s296 -313.167 296 -550.5c0 -253.333 -113.333 -444.666 -340 -573.999l284 -305
h-524l-160 170c-114 -22 -246.333 -33 -397 -33zM1233 321.999c34 0 79.667 1.33203 137 3.99902l-231 249h487l135 -145c97.333 65.333 146 160.333 146 285c0 134.667 -54.667 234.5 -164 299.5s-279.333 97.5 -510 97.5s-400.667 -32.5 -510 -97.5
s-164 -164.833 -164 -299.5c0 -133.333 54.667 -232.166 164 -296.499s279.333 -96.5 510 -96.5z" />
    <glyph glyph-name="R" unicode="R" horiz-adv-x="2254" 
d="M217 0v1434h1301c190 0 335.667 -42.167 437 -126.5s152 -199.833 152 -346.5c0 -126.667 -42 -231.834 -126 -315.501s-202.333 -133.5 -355 -149.5l553 -496h-592l-489 451h-428v-451h-453zM1436 1104l-766 -0.000976562v-322h766c143.333 0 215 53.333 215 160
c0 54.667 -17.5 95.334 -52.5 122.001s-89.167 40 -162.5 40z" />
    <glyph glyph-name="S" unicode="S" horiz-adv-x="2254" 
d="M86 418l474.997 71c26 -66 84 -114.833 174 -146.5s221 -47.5 393 -47.5c142.667 0 256.334 4.66699 341.001 14s144.334 23 179.001 41s52 41.333 52 70c0 27.333 -7.66699 48.333 -23 63s-44.833 26.5 -88.5 35.5s-108.834 15.833 -195.501 20.5l-641 24
c-416.667 24 -625 163.333 -625 418c0 155.333 83.167 274 249.5 356s415.5 123 747.5 123c292.667 0 521.334 -34.833 686.001 -104.5s268.667 -174.834 312.001 -315.501l-475 -71c-24 59.333 -77 102.5 -159 129.5s-204.667 40.5 -368 40.5
c-134.667 0 -241.167 -4.66699 -319.5 -14s-133 -22.666 -164 -39.999s-46.5 -40.333 -46.5 -69c0 -36.667 19.5 -63.167 58.5 -79.5s112.833 -27.5 221.5 -33.5l668 -24c415.333 -26 623 -164.667 623 -416c0 -326.667 -345.667 -490 -1037 -490
c-602.667 0 -948.667 148.333 -1038 445z" />
    <glyph glyph-name="T" unicode="T" horiz-adv-x="2101" 
d="M823 0v1085h-766v349h1985v-349h-766v-1085h-453z" />
    <glyph glyph-name="U" unicode="U" horiz-adv-x="2351" 
d="M2177 739c0 -246 -86.5 -435.167 -259.5 -567.5s-420.833 -198.5 -743.5 -198.5c-322 0 -569.5 66.167 -742.5 198.5s-259.5 321.5 -259.5 567.5v695h455v-680c0 -148.667 44 -257.834 132 -327.501s226.333 -104.5 415 -104.5c189.333 0 328.333 34.833 417 104.5
s133 178.834 133 327.501v680h453v-695z" />
    <glyph glyph-name="V" unicode="V" horiz-adv-x="2277" 
d="M530 1434l617 -1008l625 1008h501l-903 -1434h-465l-901 1434h526z" />
    <glyph glyph-name="W" unicode="W" horiz-adv-x="3086" 
d="M637 0l-633 1434h485l400 -961l436 961h436l453 -947l391 947h479l-630 -1434h-435l-479 999l-473 -999h-430z" />
    <glyph glyph-name="X" unicode="X" horiz-adv-x="2091" 
d="M582 0h-584l754 725l-736 709h600l449 -447l432 447h574l-734 -705l756 -729h-598l-465 465z" />
    <glyph glyph-name="Y" unicode="Y" horiz-adv-x="2091" 
d="M823 0v543l-850 891h592l494 -533l502 533h557l-842 -889v-545h-453z" />
    <glyph glyph-name="Z" unicode="Z" horiz-adv-x="2125" 
d="M100 0v309l1203 791h-1184v334h1906v-293l-1232 -809h1232v-332h-1925z" />
    <glyph glyph-name="bracketleft" unicode="[" horiz-adv-x="1093" 
d="M217 -307v1741h834v-287h-422v-1167h422v-287h-834z" />
    <glyph glyph-name="backslash" unicode="\" horiz-adv-x="1142" 
d="M1190 -307h-445l-718 1741h444z" />
    <glyph glyph-name="bracketright" unicode="]" horiz-adv-x="1093" 
d="M877 -307h-834v287h424v1167h-424v287h834v-1741z" />
    <glyph glyph-name="asciicircum" unicode="^" horiz-adv-x="1595" 
d="M578 1434h440l487 -861h-420l-294 574l-293 -574h-408z" />
    <glyph glyph-name="underscore" unicode="_" horiz-adv-x="1441" 
d="M51 -350v350h1340v-350h-1340z" />
    <glyph glyph-name="grave" unicode="`" horiz-adv-x="1024" 
d="M702 1245h-385l-542 332h569z" />
    <glyph glyph-name="a" unicode="a" horiz-adv-x="1918" 
d="M94 805c47.333 121.333 136.334 209.666 267.001 264.999s319 83 565 83c290.667 0 498.167 -33.833 622.5 -101.5s186.5 -179.167 186.5 -334.5v-359c0 -26.667 5.33301 -45.834 16 -57.501s28.334 -17.5 53.001 -17.5c20 0 40 2 60 6l-9 -285
c-74.667 -20.667 -146.334 -31 -215.001 -31c-168 0 -269 71 -303 213c-76 -67.333 -174.833 -119.666 -296.5 -156.999s-257.5 -56 -407.5 -56c-180.667 0 -320.334 30.167 -419.001 90.5s-148 144.833 -148 253.5c0 106.667 47.833 187.5 143.5 242.5
s249.167 89.833 460.5 104.5l651 36c-6 58.667 -39 100.334 -99 125.001s-159.333 37 -298 37c-130.667 0 -225.5 -10 -284.5 -30s-95.5 -53 -109.5 -99zM496.001 340c0 -34.667 18.499 -59.668 55.499 -75.001s97.5 -23 181.5 -23c112.667 0 214.334 10.167 305.001 30.5
s161.5 48.333 212.5 84s76.5 75.834 76.5 120.501v2l-692 -47c-48 -4 -83.167 -13.5 -105.5 -28.5s-33.5 -36.167 -33.5 -63.5z" />
    <glyph glyph-name="b" unicode="b" horiz-adv-x="2121" 
d="M573 0l-389.001 -0.000976562v1536h432v-600c72 69.333 164.333 122.833 277 160.5s239 56.5 379 56.5c238 0 424.5 -52.333 559.5 -157s202.5 -249 202.5 -433c0 -186 -67 -330.833 -201 -434.5s-321 -155.5 -561 -155.5c-146 0 -276.667 20.333 -392 61
s-208.666 98.334 -279.999 173.001zM1118 290.999c162 0 281.333 22.167 358 66.5s115 112.833 115 205.5s-38.333 161.334 -115 206.001s-196 67 -358 67c-164 0 -288.667 -23.333 -374 -70s-128 -114.334 -128 -203.001s42.5 -156.167 127.5 -202.5
s209.833 -69.5 374.5 -69.5z" />
    <glyph glyph-name="c" unicode="c" horiz-adv-x="1947" 
d="M1894 737l-439.999 -87.998c-21.333 65.333 -67.5 113.166 -138.5 143.499s-173.5 45.5 -307.5 45.5c-165.333 0 -286.333 -22.167 -363 -66.5s-115 -113.833 -115 -208.5c0 -94 38.333 -163.167 115 -207.5s197.667 -66.5 363 -66.5c140.667 0 246.5 15.667 317.5 47
s115.167 81.666 132.5 150.999l438 -86c-39.333 -138 -135 -243.833 -287 -317.5s-352.333 -110.5 -601 -110.5c-290.667 0 -516.667 51.833 -678 155.5s-242 248.5 -242 434.5s80.667 330.833 242 434.5s387.333 155.5 678 155.5c243.333 0 440.666 -35.333 591.999 -106
s249.333 -174 294 -310z" />
    <glyph glyph-name="d" unicode="d" horiz-adv-x="2121" 
d="M850 -27c-240 0 -426.999 51.832 -560.999 155.499s-201 248.5 -201 434.5c0 184 67.5 328.333 202.5 433s321.5 157 559.5 157c139.333 0 265.166 -19.167 377.499 -57.5s204.833 -92.166 277.5 -161.499v602h432v-1536h-395l-22 205
c-71.333 -73.333 -164.5 -130.333 -279.5 -171s-245.167 -61 -390.5 -61zM1004 290.999c164 0 288.5 23.167 373.5 69.5s127.5 113.833 127.5 202.5s-42.5 156.334 -127.5 203.001s-209.5 70 -373.5 70c-162 0 -281.5 -22.333 -358.5 -67s-115.5 -113.334 -115.5 -206.001
s38.5 -161.167 115.5 -205.5s196.5 -66.5 358.5 -66.5z" />
    <glyph glyph-name="e" unicode="e" horiz-adv-x="1996" 
d="M1020 -27c-294 0 -522.83 51.668 -686.497 155.001s-245.5 248.333 -245.5 435c0 182 81.5 325.833 244.5 431.5s387.5 158.5 673.5 158.5c185.333 0 346 -22.333 482 -67s240.5 -109.667 313.5 -195s109.5 -186.333 109.5 -303c0 -49.333 -3.33301 -90.333 -10 -123
h-1375c23.333 -66.667 75.166 -115.834 155.499 -147.501s193.166 -47.5 338.499 -47.5c138.667 0 244.167 9.66699 316.5 29s117.833 49.333 136.5 90l434 -76c-48.667 -118.667 -141.834 -205 -279.501 -259s-340.167 -81 -607.5 -81zM1008 868.001
c-140 0 -248.002 -14 -324.002 -42s-126.667 -72.667 -152 -134h934c-25.333 62.667 -74.166 107.667 -146.499 135s-176.166 41 -311.499 41z" />
    <glyph glyph-name="f" unicode="f" horiz-adv-x="1394" 
d="M31 1126h282c7.33301 149.333 65.5 259.5 174.5 330.5s274.833 106.5 497.5 106.5c124 0 253 -11.667 387 -35l-14 -291c-109.333 16.667 -218 25 -326 25c-102 0 -173.5 -9.83301 -214.5 -29.5s-64.167 -55.167 -69.5 -106.5h618v-309h-621v-817h-432v817h-282v309z" />
    <glyph glyph-name="g" unicode="g" horiz-adv-x="1970" 
d="M930 1153c284 0 494.999 -38.3359 632.999 -115.003c39.333 60.667 91.833 104.334 157.5 131.001s138.5 33.667 218.5 21l-18 -332c-67.333 15.333 -137 20 -209 14c9.33301 -25.333 14 -53.333 14 -84c0 -116.667 -68.167 -206.167 -204.5 -268.5
s-333.5 -93.5 -591.5 -93.5c-124.667 0 -230.667 6.66699 -318 20c-61.333 -10 -92 -33.667 -92 -71c0 -51.333 50.667 -78 152 -80l676 -8c366.667 -6 550 -110.667 550 -314c0 -140 -78.833 -243.167 -236.5 -309.5s-403.5 -99.5 -737.5 -99.5
c-302 0 -525 22.833 -669 68.5s-216 115.5 -216 209.5c0 58.667 23.5 105.5 70.5 140.5s119.167 59.167 216.5 72.5c-68.667 17.333 -122.5 45.833 -161.5 85.5s-58.5 85.834 -58.5 138.501c0 120.667 83.333 198.334 250 233.001c-147.333 62 -221 154 -221 276
c0 116.667 68.333 206.667 205 270s333.334 95 590.001 95zM1290 787.997c0 82 -120 123 -360 123c-239.333 0 -359 -41 -359 -123c0 -41.333 29.167 -71.666 87.5 -90.999s148.833 -29 271.5 -29c124 0 215 9.66699 273 29s87 49.666 87 90.999zM624.999 -0.00292969
c-88.667 0 -133 -28 -133 -84c0 -38 33.5 -64.833 100.5 -80.5s179.5 -23.5 337.5 -23.5c137.333 0 246 4.83301 326 14.5s134.667 23 164 40s44 38.833 44 65.5c0 45.333 -43 68 -129 68h-710z" />
    <glyph glyph-name="h" unicode="h" horiz-adv-x="2052" 
d="M184 0l0.000976562 1536h432v-641c72.667 80.667 164.5 143.834 275.5 189.501s232.167 68.5 363.5 68.5c205.333 0 361.166 -45.333 467.499 -136s159.5 -222.667 159.5 -396v-621h-432v535c0 92 -28.167 162 -84.5 210s-139.5 72 -249.5 72
c-156.667 0 -279.167 -34.333 -367.5 -103s-132.5 -164 -132.5 -286v-428h-432z" />
    <glyph glyph-name="i" unicode="i" 
d="M184 1245v318h432v-318h-432zM184 0v1126h432v-1126h-432z" />
    <glyph glyph-name="j" unicode="j" 
d="M184 1245v318h432v-318h-432zM184 76v1050h432v-1024c0 -192.667 -42.667 -330.5 -128 -413.5s-224 -124.5 -416 -124.5c-86 0 -170 6 -252 18l-15 314c66 -8.66699 119.333 -13 160 -13c82 0 139 14.167 171 42.5s48 78.5 48 150.5z" />
    <glyph glyph-name="k" unicode="k" horiz-adv-x="1898" 
d="M184 0v1536h430v-831l639 421h613l-781 -489l818 -637h-623l-530 422l-136 -90v-332h-430z" />
    <glyph glyph-name="l" unicode="l" 
d="M616 0h-432v1536h432v-1536z" />
    <glyph glyph-name="m" unicode="m" horiz-adv-x="3059" 
d="M184 0l-0.000976562 1126h396l24 -233c66.667 81.333 149.834 145 249.501 191s207.834 69 324.501 69c128.667 0 237.667 -23.833 327 -71.5s155 -116.834 197 -207.501c65.333 87.333 150.666 155.666 255.999 204.999s222.666 74 352 74c182.667 0 325 -47 427 -141
s153 -226 153 -396v-616h-432v537c0 91.333 -25.333 160.5 -76 207.5s-125.667 70.5 -225 70.5c-126 0 -224.833 -34.333 -296.5 -103s-107.5 -163.334 -107.5 -284.001v-428h-432v537c0 91.333 -25.333 160.5 -76 207.5s-125.667 70.5 -225 70.5
c-126 0 -224.833 -34.333 -296.5 -103s-107.5 -163.334 -107.5 -284.001v-428h-432z" />
    <glyph glyph-name="n" unicode="n" horiz-adv-x="2052" 
d="M184 0v1126h389l31 -243c72 84.667 164.833 150.834 278.5 198.501s237.834 71.5 372.501 71.5c205.333 0 361.166 -45.333 467.499 -136s159.5 -222.667 159.5 -396v-621h-432v535c0 92 -28.167 162 -84.5 210s-139.5 72 -249.5 72
c-156.667 0 -279.167 -34.333 -367.5 -103s-132.5 -164 -132.5 -286v-428h-432z" />
    <glyph glyph-name="o" unicode="o" horiz-adv-x="2029" 
d="M1016 -27c-296 0 -524.667 51.333 -686 154s-242 248 -242 436s80.667 333.333 242 436s390 154 686 154c296.667 0 525.167 -51.333 685.5 -154s240.5 -248 240.5 -436c0 -190 -79.667 -335.833 -239 -437.5s-388.333 -152.5 -687 -152.5zM1016 289
c168.667 0 291.334 21.833 368.001 65.5s115 113.167 115 208.5s-38.333 165 -115 209s-199.334 66 -368.001 66s-291.834 -22 -369.501 -66s-116.5 -113.667 -116.5 -209s38.833 -164.833 116.5 -208.5s200.834 -65.5 369.501 -65.5z" />
    <glyph glyph-name="p" unicode="p" horiz-adv-x="2121" 
d="M580 1126l22.001 -203.999c71.333 73.333 164.666 130.166 279.999 170.499s245.333 60.5 390 60.5c238 0 424.5 -52.333 559.5 -157s202.5 -249 202.5 -433c0 -186 -67 -330.833 -201 -434.5s-321 -155.5 -561 -155.5c-140 0 -266.167 18.667 -378.5 56
s-204.833 90.333 -277.5 159v-598h-432v1536h396zM1118 291.001c162 0 281.333 22.167 358 66.5s115 112.833 115 205.5s-38.333 161.334 -115 206.001s-196 67 -358 67c-164 0 -288.667 -23.333 -374 -70s-128 -114.334 -128 -203.001s42.5 -156.167 127.5 -202.5
s209.833 -69.5 374.5 -69.5z" />
    <glyph glyph-name="q" unicode="q" horiz-adv-x="2121" 
d="M850 -27c-240 0 -427.001 51.833 -561.001 155.5s-201 248.5 -201 434.5c0 184 67.5 328.333 202.5 433s321.5 157 559.5 157c145.333 0 275.5 -20.333 390.5 -61s208.167 -98 279.5 -172l22 206h395v-1536h-432v600c-71.333 -69.333 -163.166 -122.833 -275.499 -160.5
s-238.833 -56.5 -379.5 -56.5zM1004 291c164 0 288.5 23.167 373.5 69.5s127.5 113.833 127.5 202.5s-42.5 156.334 -127.5 203.001s-209.5 70 -373.5 70c-162 0 -281.5 -22.333 -358.5 -67s-115.5 -113.334 -115.5 -206.001s38.5 -161.167 115.5 -205.5
s196.5 -66.5 358.5 -66.5z" />
    <glyph glyph-name="r" unicode="r" horiz-adv-x="1398" 
d="M184 0l-0.000976562 1126h396l30 -276c72.667 94.667 166.834 168.834 282.501 222.501s242.167 80.5 379.5 80.5c29.333 0 59.333 -2.66699 90 -8l-14 -402c-61.333 16.667 -132.333 25 -213 25c-164 0 -291.5 -33 -382.5 -99s-136.5 -158.667 -136.5 -278v-391h-432z
" />
    <glyph glyph-name="s" unicode="s" horiz-adv-x="1857" 
d="M920 887c-140.667 0 -242.171 -7.33496 -304.504 -22.002s-93.5 -38 -93.5 -70c0 -25.333 17 -43.333 51 -54s97.667 -18 191 -22l422 -14c212.667 -10 365.834 -40.667 459.501 -92s140.5 -128.666 140.5 -231.999c0 -272 -295 -408 -885 -408
c-255.333 0 -447.666 26.5 -576.999 79.5s-217.666 140.5 -264.999 262.5l428 68c16.667 -48.667 57.667 -84 123 -106s161 -33 287 -33c168 0 286.833 6.83301 356.5 20.5s104.5 36.167 104.5 67.5c0 26 -14 44.833 -42 56.5s-79.667 18.834 -155 21.501l-424 16
c-219.333 8 -379.666 40.5 -480.999 97.5s-152 139.833 -152 248.5c0 121.333 70 215.166 210 281.499s341.333 99.5 604 99.5c254 0 446.5 -25.333 577.5 -76s218.167 -132.667 261.5 -246l-414 -67c-16.667 44.667 -56 76.334 -118 95.001s-163.667 28 -305 28z" />
    <glyph glyph-name="t" unicode="t" horiz-adv-x="1513" 
d="M281 492l-0.00195312 325h-261v309h156c26 0 47.333 1 64 3s32.167 7.16699 46.5 15.5s25.5 18.5 33.5 30.5s15.833 30 23.5 54s13.834 50.5 18.501 79.5s9.66699 67.167 15 114.5h336v-297h700v-309h-700v-295c0 -88.667 21 -148 63 -178s123.333 -45 244 -45
c142 0 277.667 14.333 407 43l-12 -322c-66.667 -14 -146.334 -25.333 -239.001 -34s-178 -13 -256 -13c-113.333 0 -209.166 8.83301 -287.499 26.5s-144.166 47 -197.499 88s-92.333 94.5 -117 160.5s-37 147.333 -37 244z" />
    <glyph glyph-name="u" unicode="u" horiz-adv-x="1990" 
d="M1374 698v428h432v-1126h-389l-31 242c-69.333 -84 -158.166 -149.833 -266.499 -197.5s-226.833 -71.5 -355.5 -71.5c-194 0 -341.5 45.667 -442.5 137s-151.5 224 -151.5 398v618h432v-540c0 -90 24.667 -158.333 74 -205s121.666 -70 216.999 -70
c150.667 0 268.5 34 353.5 102s127.5 163 127.5 285z" />
    <glyph glyph-name="v" unicode="v" horiz-adv-x="1808" 
d="M727 0l-723 1126h498l422 -706l407 706h475l-706 -1126h-373z" />
    <glyph glyph-name="w" unicode="w" horiz-adv-x="2678" 
d="M586 0l-582 1126h469l332 -696l348 696h395l369 -686l313 686h447l-563 -1126h-377l-385 731l-387 -731h-379z" />
    <glyph glyph-name="x" unicode="x" horiz-adv-x="1931" 
d="M571 0h-555l654 584l-623 542h563l365 -327l371 327h540l-639 -546l668 -580h-584l-383 356z" />
    <glyph glyph-name="y" unicode="y" horiz-adv-x="1777" 
d="M1305 1126l468.999 0.000976562l-650 -1106c-72 -120.667 -139.333 -212.834 -202 -276.501s-133.167 -109.5 -211.5 -137.5s-176.5 -42 -294.5 -42c-99.333 0 -190.333 12.333 -273 37l-16 309c88.667 -12.667 161.667 -19 219 -19c92 0 161.833 10 209.5 30
s91.834 60.667 132.501 122l-684 1083h496l420 -708z" />
    <glyph glyph-name="z" unicode="z" horiz-adv-x="1812" 
d="M111 0v297l948 532h-940v297h1583v-297l-948 -532h952v-297h-1595z" />
    <glyph glyph-name="braceleft" unicode="{" horiz-adv-x="1144" 
d="M455 563c94.667 -22.667 162.665 -60.165 203.998 -112.498s62 -128.166 62 -227.499v-94c0 -51.333 11.333 -86.666 34 -105.999s65.334 -29 128.001 -29c56 0 125 3.33301 207 10l12 -295c-79.333 -10.667 -164 -16 -254 -16c-173.333 0 -303 32 -389 96
s-129 165 -129 303v125c0 25.333 -0.833008 45.333 -2.5 60s-5.83398 29.667 -12.501 45s-15.834 27.166 -27.501 35.499s-28.667 16.666 -51 24.999s-48.833 15.166 -79.5 20.499s-69.334 10.333 -116.001 15v291c46.667 4.66699 85.334 9.66699 116.001 15
s57.167 12.166 79.5 20.499s39.333 16.5 51 24.5s20.834 19.667 27.501 35s10.834 30.333 12.501 45s2.5 34.667 2.5 60v125c0 138 43 239.167 129 303.5s215.667 96.5 389 96.5c71.333 0 156 -5.66699 254 -17l-12 -295c-90.667 7.33301 -159.667 11 -207 11
c-61.333 0 -103.666 -10.167 -126.999 -30.5s-35 -55.5 -35 -105.5v-102c0 -96 -20.667 -169.667 -62 -221s-109.333 -88.333 -204 -111z" />
    <glyph glyph-name="bar" unicode="|" horiz-adv-x="860" 
d="M643 -348h-426v1904h426v-1904z" />
    <glyph glyph-name="braceright" unicode="}" horiz-adv-x="1144" 
d="M1104 709l-0.00195312 -291.002c-46.667 -4.66699 -85.334 -9.66699 -116.001 -15s-57.167 -12.166 -79.5 -20.499s-39.333 -16.666 -51 -24.999s-20.834 -20.166 -27.501 -35.499s-10.834 -30.333 -12.501 -45s-2.5 -34.667 -2.5 -60v-125
c0 -138 -43.167 -239 -129.5 -303s-215.833 -96 -388.5 -96c-90 0 -174.667 5.33301 -254 16l12 295c80 -6.66699 149 -10 207 -10c62.667 0 105.334 9.66699 128.001 29s34 54.666 34 105.999v94c0 99.333 20.667 175.166 62 227.499s109.333 89.833 204 112.5
c-94.667 22.667 -162.667 59.667 -204 111s-62 125 -62 221v102c0 50 -11.667 85.167 -35 105.5s-65.666 30.5 -126.999 30.5c-50 0 -119 -3.66699 -207 -11l-12 295c98 11.333 182.667 17 254 17c172 0 301.333 -32.167 388 -96.5s130 -165.5 130 -303.5v-125
c0 -25.333 0.833008 -45.333 2.5 -60s5.83398 -29.667 12.501 -45s15.834 -27 27.501 -35s28.667 -16.167 51 -24.5s48.833 -15.166 79.5 -20.499s69.334 -10.333 116.001 -15z" />
    <glyph glyph-name="asciitilde" unicode="~" horiz-adv-x="1568" 
d="M471 659c-98 0 -210.669 -26.333 -338.002 -79v307c142.667 52 265.667 78 369 78c57.333 0 115.5 -6.83301 174.5 -20.5s108.833 -28.667 149.5 -45s85.834 -31.333 135.501 -45s95.167 -20.5 136.5 -20.5c98 0 210.667 26.333 338 79v-307
c-144.667 -52 -267.667 -78 -369 -78c-56 0 -112.667 6.83301 -170 20.5s-106.166 28.667 -146.499 45s-86 31.333 -137 45s-98.5 20.5 -142.5 20.5z" />
    <glyph glyph-name="uni00A0" unicode="&#xa0;" horiz-adv-x="634" 
 />
    <glyph glyph-name="exclamdown" unicode="&#xa1;" horiz-adv-x="894" 
d="M676 1126v-335h-459v335h459zM246 676h403l31 -983h-467z" />
    <glyph glyph-name="cent" unicode="&#xa2;" horiz-adv-x="1943" 
d="M498 -164l100.002 182.004c-164.667 41.333 -290.834 108.666 -378.501 201.999s-131.5 207.666 -131.5 342.999c0 186 80.667 330.833 242 434.5s387.333 155.5 678 155.5c67.333 0 137.666 -3.33301 210.999 -10l69 127h199l-86 -156
c130.667 -29.333 237.667 -75.833 321 -139.5s140.666 -142.834 171.999 -237.501l-440 -88c-29.333 86 -101.666 142 -216.999 168l-291 -526c13.333 -1.33301 34 -2 62 -2c140.667 0 246.5 15.667 317.5 47s115.167 81.666 132.5 150.999l438 -86
c-39.333 -138 -135 -243.833 -287 -317.5s-352.333 -110.5 -601 -110.5c-75.333 0 -152 4.33301 -230 13l-82 -150h-198zM530.002 563.004c0 -66.667 18.667 -120.667 56 -162s95.333 -71.333 174 -90l291 527h-43c-165.333 0 -286.333 -22.167 -363 -66.5
s-115 -113.833 -115 -208.5z" />
    <glyph glyph-name="sterling" unicode="&#xa3;" horiz-adv-x="2070" 
d="M106 588l-0.000976562 170.003h267c-22 28 -39.333 52.333 -52 73s-24.667 48 -36 82s-17 69.667 -17 107c0 134.667 71.167 241.667 213.5 321s339.5 119 591.5 119c144.667 0 268.334 -8.33301 371.001 -25s188.334 -43 257.001 -79s123.167 -78.833 163.5 -128.5
s72.833 -110.834 97.5 -183.501l-518 -65c-10 58 -43 100.5 -99 127.5s-144 40.5 -264 40.5c-62 0 -114.5 -3.83301 -157.5 -11.5s-75.833 -18.834 -98.5 -33.501s-38.834 -30.834 -48.501 -48.501s-14.5 -38.5 -14.5 -62.5c0 -21.333 4.5 -42.833 13.5 -64.5
s18.667 -39.667 29 -54s25.333 -33.833 45 -58.5s34.167 -43.334 43.5 -56.001h756v-170h-686v-23c0 -50 -16.333 -96.167 -49 -138.5s-78.667 -77.166 -138 -104.499h1180v-322h-1850v322h58c108.667 0 190 17.167 244 51.5s81 83.833 81 148.5c0 22 -3.33301 44 -10 66
h-373z" />
    <glyph glyph-name="currency" unicode="&#xa4;" horiz-adv-x="1316" 
d="M659 313c-79.333 0 -148 12.333 -206 37l-183 -182l-202 205l170 170c-24.667 50 -37 108 -37 174c0 66.667 13 124.667 39 174l-172 170l202 205l185 -185c60 23.333 128 35 204 35c75.333 0 143 -11.667 203 -35l185 185l202 -205l-172 -170
c26 -49.333 39 -107.333 39 -174c0 -66 -12.333 -124 -37 -174l170 -170l-202 -205l-183 182c-58 -24.667 -126.333 -37 -205 -37zM659 573c51.333 0 91.5 12.832 120.5 38.499s43.5 60.834 43.5 105.501s-14.667 79 -44 103s-69.333 36 -120 36
s-90.834 -12.167 -120.501 -36.5s-44.5 -58.5 -44.5 -102.5s14.833 -79 44.5 -105s69.834 -39 120.501 -39z" />
    <glyph glyph-name="yen" unicode="&#xa5;" horiz-adv-x="2095" 
d="M131 408v163h670l-125 131h-545v164h387l-541 568h592l492 -533l502 533h559l-537 -568h404v-164h-559l-123 -131h682v-163h-709v-408h-453v408h-696z" />
    <glyph glyph-name="brokenbar" unicode="&#xa6;" horiz-adv-x="860" 
d="M643 727h-426v829h426v-829zM643 -348h-426v870h426v-870z" />
    <glyph glyph-name="section" unicode="&#xa7;" horiz-adv-x="2125" 
d="M1067 -436c-306 0 -537.668 34.5 -695.001 103.5s-252.666 177.833 -285.999 326.5l508 47c16 -60.667 61.333 -105.167 136 -133.5s192.334 -42.5 353.001 -42.5c112 0 200.167 4.5 264.5 13.5s107.666 21 129.999 36s33.5 34.5 33.5 58.5
c0 38.667 -24.333 65.667 -73 81s-177 36.333 -385 63l-244 33c-163.333 20.667 -290.666 47.334 -381.999 80.001s-155 72 -191 118s-54 105.333 -54 178c0 129.333 83.333 226.333 250 291c-85.333 31.333 -147.333 71.666 -186 120.999s-58 113.333 -58 192
c0 134 75.5 239.667 226.5 317s373.833 116 668.5 116c283.333 0 500.666 -33.833 651.999 -101.5s241.333 -170.5 270 -308.5l-508 -47c-11.333 39.333 -31.5 70 -60.5 92s-71.667 38.167 -128 48.5s-132.833 15.5 -229.5 15.5c-78.667 0 -145.5 -2.66699 -200.5 -8
s-97 -12.833 -126 -22.5s-49.667 -20.334 -62 -32.001s-18.5 -25.167 -18.5 -40.5c0 -19.333 7.66699 -34.666 23 -45.999s52.833 -24 112.5 -38s149.5 -29 269.5 -45l232 -33c246 -34.667 418.333 -80.5 517 -137.5s148 -143.5 148 -259.5
c0 -62 -18.167 -118.167 -54.5 -168.5s-86.5 -91.166 -150.5 -122.499c86.667 -34 146 -74.5 178 -121.5s48 -106.833 48 -179.5c0 -142.667 -77.833 -252.334 -233.5 -329.001s-387.167 -115 -694.5 -115zM1288 416c45.333 -6 89 -12.999 131 -20.999
c58.667 38.667 88 81.667 88 129s-29.5 82.666 -88.5 105.999s-172.833 46 -341.5 68l-246 33c-39.333 6 -64.333 9.33301 -75 10c-72.667 -36.667 -109 -79.667 -109 -129c0 -42.667 28.333 -75 85 -97s163.667 -44 321 -66z" />
    <glyph glyph-name="dieresis" unicode="&#xa8;" horiz-adv-x="1024" 
d="M608 1245v332h469v-332h-469zM-53 1245v332h469v-332h-469z" />
    <glyph glyph-name="copyright" unicode="&#xa9;" horiz-adv-x="2392" 
d="M1196 -109c-176 0 -334.333 21.167 -475 63.5s-256.167 100.833 -346.5 175.5s-159.333 161.834 -207 261.501s-71.5 208.167 -71.5 325.5s23.833 226 71.5 326s116.667 187.167 207 261.5s205.833 132.5 346.5 174.5s299 63 475 63s334.333 -21 475 -63
s256.167 -100.167 346.5 -174.5s159.333 -161.5 207 -261.5s71.5 -208.667 71.5 -326s-23.833 -225.833 -71.5 -325.5s-116.667 -186.834 -207 -261.501s-205.833 -133.167 -346.5 -175.5s-299 -63.5 -475 -63.5zM1196 59c150 0 282.833 16.001 398.5 48.001
s210 77.333 283 136s128.167 127.834 165.5 207.501s56 168.5 56 266.5s-18.667 186.833 -56 266.5s-92.5 148.667 -165.5 207s-167.333 103.5 -283 135.5s-248.5 48 -398.5 48s-283 -16 -399 -48s-210.667 -77.333 -284 -136s-128.666 -127.834 -165.999 -207.501
s-56 -168.167 -56 -265.5s18.667 -185.833 56 -265.5s92.666 -148.834 165.999 -207.501s168 -104.167 284 -136.5s249 -48.5 399 -48.5zM1722 813.001l-268.001 -34.9951c-22.667 78 -101.667 117 -237 117c-82.667 0 -145.667 -14.833 -189 -44.5
s-65 -72.834 -65 -129.501s21.667 -99.834 65 -129.501s106.333 -44.5 189 -44.5c144 0 223.667 41 239 123l266 -33c-22.667 -86.667 -78.167 -153.334 -166.5 -200.001s-201.166 -70 -338.499 -70c-162 0 -290.333 31.667 -385 95s-142 149.666 -142 258.999
s47.333 195.666 142 258.999s223 95 385 95c140 0 252.833 -22.167 338.5 -66.5s141.167 -109.5 166.5 -195.5z" />
    <glyph glyph-name="ordfeminine" unicode="&#xaa;" horiz-adv-x="1302" 
d="M143 1227c48.667 151.333 220.665 226.999 515.998 226.999c156.667 0 275.834 -22.333 357.501 -67s122.5 -111.667 122.5 -201v-205c0 -32.667 17 -49 51 -49c14 0 29 1.33301 45 4l-6 -166c-46 -10.667 -97.333 -16 -154 -16c-129.333 0 -210.666 35.333 -243.999 106
c-78 -70.667 -198.667 -106 -362 -106c-121.333 0 -211.666 18.333 -270.999 55s-89 86.334 -89 149.001c0 29.333 5.33301 54.5 16 75.5s29.167 40.5 55.5 58.5s64.166 32.5 113.499 43.5s110.333 18.833 183 23.5l330 23v4c0 58.667 -53.333 88 -160 88
c-102 0 -159.333 -25.333 -172 -76zM445.998 976.999c0 -34 35 -50.999 105 -50.999c68 0 127.167 11.667 177.5 35s78.5 52.666 84.5 87.999l-309 -27c-38.667 -2 -58 -17 -58 -45z" />
    <glyph glyph-name="guillemotleft" unicode="&#xab;" horiz-adv-x="2000" 
d="M926 416v-396l-813 332v422l813 332v-385l-496 -158zM1872 416v-396l-813 332v422l813 332v-385l-496 -158z" />
    <glyph glyph-name="logicalnot" unicode="&#xac;" horiz-adv-x="1568" 
d="M133 881h1303v-613h-371v307h-932v306z" />
    <glyph glyph-name="uni00AD" unicode="&#xad;" horiz-adv-x="0" 
 />
    <glyph glyph-name="registered" unicode="&#xae;" horiz-adv-x="2349" 
d="M1176 -27c-172.667 0 -328.167 19.333 -466.5 58s-251.833 91.834 -340.5 159.501s-156.334 146.334 -203.001 236.001s-70 186.5 -70 290.5c0 104.667 23.333 201.667 70 291s114.334 167.833 203.001 235.5s202.167 120.667 340.5 159s293.833 57.5 466.5 57.5
s328.167 -19.167 466.5 -57.5s251.666 -91.333 339.999 -159s155.833 -146.167 202.5 -235.5s70 -186.333 70 -291c0 -104 -23.333 -200.833 -70 -290.5s-114.167 -168.334 -202.5 -236.001s-201.666 -120.834 -339.999 -159.501s-293.833 -58 -466.5 -58zM1176 141
c289.333 0 508.665 52.1689 657.998 156.502s224 244.166 224 419.499s-74.667 315 -224 419s-368.666 156 -657.999 156c-290.667 0 -510.834 -52 -660.501 -156s-224.5 -243.667 -224.5 -419c0 -85.333 18.167 -162.833 54.5 -232.5s90.333 -130.334 162 -182.001
s164.334 -91.5 278.001 -119.5s243.834 -42 390.501 -42zM742.999 377.002v687.999h639c90 0 160.667 -20.167 212 -60.5s77 -95.166 77 -164.499c0 -52.667 -15.5 -97.5 -46.5 -134.5s-74.833 -63.833 -131.5 -80.5l233 -248h-290l-189 205h-272v-205h-232zM1352 891.001
h-377v-135h377c58.667 0 88 22.333 88 67c0 45.333 -29.333 68 -88 68z" />
    <glyph glyph-name="macron" unicode="&#xaf;" horiz-adv-x="1024" 
d="M-18 1247v275h1060v-275h-1060z" />
    <glyph glyph-name="degree" unicode="&#xb0;" horiz-adv-x="1488" 
d="M745 1454c189.333 0 335.333 -33.8311 438 -101.498s154 -158.167 154 -271.5c0 -112.667 -51.5 -202.834 -154.5 -270.501s-248.833 -101.5 -437.5 -101.5c-190 0 -336.333 33.667 -439 101s-154 157.666 -154 270.999c0 112.667 51.333 203 154 271s249 102 439 102z
M745 956.002c75.333 0 132.166 10.833 170.499 32.5s57.5 52.5 57.5 92.5s-19.167 70.833 -57.5 92.5s-95.166 32.5 -170.499 32.5c-152.667 0 -229 -41.667 -229 -125c0 -40 19.333 -70.833 58 -92.5s95.667 -32.5 171 -32.5z" />
    <glyph glyph-name="plusminus" unicode="&#xb1;" horiz-adv-x="1568" 
d="M1436 745h-465v-307h-373v307h-465v306h465v307h373v-307h465v-306zM1436 0h-1303v305h1303v-305z" />
    <glyph glyph-name="twosuperior" unicode="&#xb2;" horiz-adv-x="1142" 
d="M78 1145l594.001 186.001c37.333 14 62 26.167 74 36.5s18 22.833 18 37.5c0 12 -4.33301 22 -13 30s-27.334 14.833 -56.001 20.5s-67.667 8.5 -117 8.5c-76.667 0 -132.167 -7.16699 -166.5 -21.5s-55.5 -37.833 -63.5 -70.5l-289 51
c40.667 162.667 210.667 244 510 244c168.667 0 294.167 -20.333 376.5 -61s123.5 -98.667 123.5 -174c0 -60.667 -27.333 -112.334 -82 -155.001s-153.667 -82 -297 -118l-65 -16h440v-205h-987v207z" />
    <glyph glyph-name="threesuperior" unicode="&#xb3;" horiz-adv-x="1165" 
d="M1100 1151c0 -72 -44.001 -127.5 -132.001 -166.5s-220.333 -58.5 -397 -58.5c-160 0 -282.333 18.333 -367 55s-135.667 92.667 -153 168l293 49c6 -29.333 27.5 -50.666 64.5 -63.999s93.5 -20 169.5 -20c77.333 0 131.333 5.33301 162 16s46 26 46 46
c0 22.667 -22.333 34 -67 34h-320v176h322c43.333 0 65 13 65 39c0 36 -68.667 54 -206 54c-74.667 0 -131.167 -6.33301 -169.5 -19s-60.5 -33 -66.5 -61l-281 51c18 70 69.833 123.667 155.5 161s203.834 56 354.501 56c344.667 0 517 -67.667 517 -203
c0 -75.333 -50.667 -127 -152 -155c56 -12.667 97 -31.834 123 -57.501s39 -59.167 39 -100.5z" />
    <glyph glyph-name="acute" unicode="&#xb4;" horiz-adv-x="1024" 
d="M322 1245l358 332h569l-542 -332h-385z" />
    <glyph glyph-name="paragraph" unicode="&#xb6;" horiz-adv-x="2349" 
d="M1239 -307h-446v934h-242c-139.333 0 -248.333 35.833 -327 107.5s-118 168.167 -118 289.5c0 125.333 39.333 225 118 299s187.667 111 327 111h688v-1741zM2132 -307h-446v1741h446v-1741z" />
    <glyph glyph-name="periodcentered" unicode="&#xb7;" horiz-adv-x="1024" 
d="M279 580v381h466v-381h-466z" />
    <glyph glyph-name="cedilla" unicode="&#xb8;" horiz-adv-x="1024" 
d="M1145 -242c0 -69.333 -40 -121.499 -120 -156.499s-210.667 -52.5 -392 -52.5c-136.667 0 -267.667 15 -393 45l10 166c141.333 -27.333 254.666 -41 339.999 -41c51.333 0 90.833 2 118.5 6s45.834 9.16699 54.501 15.5s13 15.166 13 26.499c0 24 -24.667 36 -74 36
c-38 0 -68.667 -7.33301 -92 -22l-245 22l38 217h302l-19 -102c51.333 8 103.333 12 156 12c202 0 303 -57.333 303 -172z" />
    <glyph glyph-name="onesuperior" unicode="&#xb9;" horiz-adv-x="1069" 
d="M70 938v217h352v277l-320 -46v211l381 58h238v-500h297v-217h-948z" />
    <glyph glyph-name="ordmasculine" unicode="&#xba;" horiz-adv-x="1351" 
d="M676 754c-188 0 -328.833 30.833 -422.5 92.5s-140.5 147.5 -140.5 257.5s46.833 195.833 140.5 257.5s234.5 92.5 422.5 92.5s328.5 -30.833 421.5 -92.5s139.5 -147.5 139.5 -257.5s-46.5 -195.833 -139.5 -257.5s-233.5 -92.5 -421.5 -92.5zM676 952
c143.333 0 215 50.667 215 152c0 100.667 -71.667 151 -215 151s-215 -50.333 -215 -151c0 -101.333 71.667 -152 215 -152z" />
    <glyph glyph-name="guillemotright" unicode="&#xbb;" horiz-adv-x="2000" 
d="M942 352l-813 -332v386l496 157l-496 148v395l813 -332v-422zM1888 352l-813 -332v386l496 157l-496 148v395l813 -332v-422z" />
    <glyph glyph-name="onequarter" unicode="&#xbc;" horiz-adv-x="2904" 
d="M70 717v217h352v276l-320 -45v211l381 58h238v-500h297v-217h-948zM891 0h-404l1629 1434h403zM2691 0h-274v111h-662v174l701 432h235v-420h162v-186h-162v-111zM2099 297h318v201z" />
    <glyph glyph-name="onehalf" unicode="&#xbd;" horiz-adv-x="2930" 
d="M70 717v217h352v276l-320 -45v211l381 58h238v-500h297v-217h-948zM891 0h-404l1629 1434h403zM1866 207l593.999 186.001c37.333 14 62 26.167 74 36.5s18 22.833 18 37.5c0 12 -4.5 22 -13.5 30s-27.833 14.833 -56.5 20.5s-67.667 8.5 -117 8.5
c-76.667 0 -132 -7.16699 -166 -21.5s-55 -37.833 -63 -70.5l-289 51c40.667 162.667 210.667 244 510.001 244c168.667 0 294.167 -20.333 376.5 -61s123.5 -98.667 123.5 -174c0 -60.667 -27.333 -112.334 -82 -155.001s-153.667 -82 -297 -118l-65 -16h440v-205h-987v207
z" />
    <glyph glyph-name="threequarters" unicode="&#xbe;" horiz-adv-x="2879" 
d="M1100 930c0 -72 -44.001 -127.502 -132.001 -166.502s-220.333 -58.5 -397 -58.5c-160 0 -282.333 18.333 -367 55s-135.667 92.667 -153 168l293 49c6 -29.333 27.5 -50.666 64.5 -63.999s93.5 -20 169.5 -20c77.333 0 131.333 5.16699 162 15.5s46 25.5 46 45.5
c0 23.333 -22.333 35 -67 35h-320v176h322c43.333 0 65 13 65 39c0 35.333 -68.667 53 -206 53c-74.667 0 -131.167 -6.16699 -169.5 -18.5s-60.5 -32.5 -66.5 -60.5l-281 51c18 70 69.833 123.667 155.5 161s203.834 56 354.501 56c344.667 0 517 -67.667 517 -203
c0 -76 -50.667 -128 -152 -156c56 -12.667 97 -31.667 123 -57s39 -58.666 39 -99.999zM865.999 -0.00195312h-403l1628 1434h403zM2666 -0.00195312h-274v111h-661v174l700 432h235v-420h162v-186h-162v-111zM2075 296.998h317v201z" />
    <glyph glyph-name="questiondown" unicode="&#xbf;" horiz-adv-x="1982" 
d="M1262 1126v-335h-459v335h459zM997 6c293.333 0 454 74.9971 482 224.997l456 -73c-28 -153.333 -123.333 -273.666 -286 -360.999s-380 -131 -652 -131c-154.667 0 -291.5 11.5 -410.5 34.5s-214.667 55.167 -287 96.5s-126.666 88.833 -162.999 142.5
s-54.5 112.834 -54.5 177.501c0 62.667 13.333 116.834 40 162.501s61.167 81.167 103.5 106.5s89.166 47 140.499 65s102.666 33.167 153.999 45.5s98.166 25.333 140.499 39s76.666 32.167 102.999 55.5s39.5 51.666 39.5 84.999h459
c-1.33301 -54 -10.5 -102.5 -27.5 -145.5s-39.5 -78.667 -67.5 -107s-60 -53.166 -96 -74.499s-73.667 -38.5 -113 -51.5s-78.666 -24.5 -117.999 -34.5s-76.666 -18.833 -111.999 -26.5s-66.666 -16 -93.999 -25s-49 -20.167 -65 -33.5s-24 -29 -24 -47
c0 -17.333 6.16699 -32.833 18.5 -46.5s34 -26.667 65 -39s77.667 -22 140 -29s138.5 -10.5 228.5 -10.5z" />
    <glyph glyph-name="Agrave" unicode="&#xc0;" horiz-adv-x="2383" 
d="M1382 1552h-385l-542 332h569zM1864 0l-166 258h-1030l-166 -258h-502l958 1434h467l959 -1434h-520zM877 582h612l-305 477z" />
    <glyph glyph-name="Aacute" unicode="&#xc1;" horiz-adv-x="2383" 
d="M1001 1552l359 332h569l-543 -332h-385zM1864 0l-166 258h-1030l-166 -258h-502l958 1434h467l959 -1434h-520zM877 582h612l-305 477z" />
    <glyph glyph-name="Acircumflex" unicode="&#xc2;" horiz-adv-x="2383" 
d="M1466 1552l-282 148l-269 -148h-335l360 332h518l346 -332h-338zM1864 0l-166 258h-1030l-166 -258h-502l958 1434h467l959 -1434h-520zM877 582h612l-305 477z" />
    <glyph glyph-name="Atilde" unicode="&#xc3;" horiz-adv-x="2383" 
d="M1712 1898c9.33301 -124.667 -11.002 -217.167 -61.002 -277.5s-123.667 -90.5 -221 -90.5c-56 0 -112.833 10.333 -170.5 31s-109.167 41.167 -154.5 61.5s-80.666 30.5 -105.999 30.5c-22 0 -38.167 -8.83301 -48.5 -26.5s-13.833 -42.5 -10.5 -74.5h-272
c-10 126 11 219.667 63 281s128.667 92 230 92c38 0 79.333 -6.66699 124 -20s83.334 -27.833 116.001 -43.5s66 -30.167 100 -43.5s60.333 -20 79 -20c22.667 0 39.167 8.66699 49.5 26s13.833 42 10.5 74h272zM1864 0l-166 258h-1030l-166 -258h-502l958 1434h467
l959 -1434h-520zM876.998 582h612l-305 477z" />
    <glyph glyph-name="Adieresis" unicode="&#xc4;" horiz-adv-x="2383" 
d="M1288 1552v332h469v-332h-469zM627 1552v332h469v-332h-469zM1864 0l-166 258h-1030l-166 -258h-502l958 1434h467l959 -1434h-520zM877 582h612l-305 477z" />
    <glyph glyph-name="Aring" unicode="&#xc5;" horiz-adv-x="2383" 
d="M1194 1524c-120 0 -212.833 22.167 -278.5 66.5s-98.5 106.833 -98.5 187.5c0 80 32.833 141.667 98.5 185s158.5 65 278.5 65c119.333 0 211.333 -21.667 276 -65s97 -105 97 -185c0 -81.333 -32.5 -144 -97.5 -188s-156.833 -66 -275.5 -66zM1194 1677
c113.333 0 170 33.667 170 101c0 64 -56.667 96 -170 96c-116 0 -174 -32 -174 -96c0 -67.333 58 -101 174 -101zM1864 0l-166 258h-1030l-166 -258h-502l958 1434h467l959 -1434h-520zM877 582h612l-305 477z" />
    <glyph glyph-name="AE" unicode="&#xc6;" horiz-adv-x="3635" 
d="M1790 0v285h-1016l-252 -285h-522l1264 1434h2244v-322h-1278v-221h1135v-320h-1135v-249h1293v-322h-1733zM1061 608h729v504h-285z" />
    <glyph glyph-name="Ccedilla" unicode="&#xc7;" horiz-adv-x="2344" 
d="M96 717c0 234 98.166 416.334 294.499 547.001s471.833 196 826.5 196c292.667 0 527.167 -42 703.5 -126s288.5 -207.667 336.5 -371l-479 -95c-26.667 82.667 -85.5 144 -176.5 184s-219.167 60 -384.5 60c-224.667 0 -390.5 -32.5 -497.5 -97.5
s-160.5 -164.167 -160.5 -297.5c0 -134.667 53.167 -234.167 159.5 -298.5s272.5 -96.5 498.5 -96.5c169.333 0 299.833 20.5 391.5 61.5s148.834 104.167 171.501 189.5l473 -90c-46 -160.667 -148.833 -283.5 -308.5 -368.5s-373.5 -131.5 -641.5 -139.5l-11 -57
c50.667 8 102.667 12 156 12c202 0 303 -57.333 303 -172c0 -69.333 -40 -121.5 -120 -156.5s-210.667 -52.5 -392 -52.5c-136.667 0 -267.667 15 -393 45l10 166c141.333 -27.333 254.666 -41 339.999 -41c51.333 0 90.833 2 118.5 6s45.834 9.16699 54.501 15.5
s13 15.166 13 26.499c0 24 -24.333 36 -73 36c-38 0 -68.667 -7.33301 -92 -22l-246 22l33 179c-292 25.333 -516.333 102 -673 230s-235 296.333 -235 505z" />
    <glyph glyph-name="Egrave" unicode="&#xc8;" horiz-adv-x="2148" 
d="M1325 1552h-385l-543 332h570zM217 0v1434h1806v-322h-1366v-221h1223v-320h-1223v-249h1381v-322h-1821z" />
    <glyph glyph-name="Eacute" unicode="&#xc9;" horiz-adv-x="2148" 
d="M891 1552l358 332h570l-543 -332h-385zM217 0v1434h1806v-322h-1366v-221h1223v-320h-1223v-249h1381v-322h-1821z" />
    <glyph glyph-name="Ecircumflex" unicode="&#xca;" horiz-adv-x="2148" 
d="M1397 1552l-283 148l-268 -148h-336l360 332h519l346 -332h-338zM217 0v1434h1806v-322h-1366v-221h1223v-320h-1223v-249h1381v-322h-1821z" />
    <glyph glyph-name="Edieresis" unicode="&#xcb;" horiz-adv-x="2148" 
d="M1219 1552v332h469v-332h-469zM557 1552v332h469v-332h-469zM217 0v1434h1806v-322h-1366v-221h1223v-320h-1223v-249h1381v-322h-1821z" />
    <glyph glyph-name="Igrave" unicode="&#xcc;" horiz-adv-x="888" 
d="M635 1552h-385l-543 332h569zM217 0v1434h453v-1434h-453z" />
    <glyph glyph-name="Iacute" unicode="&#xcd;" horiz-adv-x="888" 
d="M254 1552l358 332h570l-543 -332h-385zM217 0v1434h453v-1434h-453z" />
    <glyph glyph-name="Icircumflex" unicode="&#xce;" horiz-adv-x="888" 
d="M719 1552l-283 148l-268 -148h-336l361 332h518l346 -332h-338zM217 0v1434h453v-1434h-453z" />
    <glyph glyph-name="Idieresis" unicode="&#xcf;" horiz-adv-x="888" 
d="M541 1552v332h469v-332h-469zM-121 1552v332h469v-332h-469zM217 0v1434h453v-1434h-453z" />
    <glyph glyph-name="Eth" unicode="&#xd0;" horiz-adv-x="2461" 
d="M252 0v621h-246v196h246v617h1169c294.667 0 521 -62 679 -186s237 -301.667 237 -533c0 -230.667 -78.833 -407.5 -236.5 -530.5s-384.167 -184.5 -679.5 -184.5h-1169zM1452 348c143.333 0 249.5 30.167 318.5 90.5s103.5 152.5 103.5 276.5
c0 125.333 -34.5 218.333 -103.5 279s-175.167 91 -318.5 91h-747v-268h434v-196h-434v-273h747z" />
    <glyph glyph-name="Ntilde" unicode="&#xd1;" horiz-adv-x="2463" 
d="M1759 1898c9.33301 -124.667 -11.001 -217.167 -61.001 -277.5s-123.667 -90.5 -221 -90.5c-56 0 -112.833 10.333 -170.5 31s-109 41.167 -154 61.5s-80.167 30.5 -105.5 30.5c-22 0 -38.333 -8.83301 -49 -26.5s-14.334 -42.5 -11.001 -74.5h-272
c-10 126 11 219.667 63 281s128.667 92 230 92c38 0 79.333 -6.66699 124 -20s83.334 -27.833 116.001 -43.5s65.834 -30.167 99.501 -43.5s60.167 -20 79.5 -20c22.667 0 39.167 8.66699 49.5 26s13.833 42 10.5 74h272zM216.999 0v1434h438l1166 -975v975h426v-1434h-439
l-1165 975v-975h-426z" />
    <glyph glyph-name="Ograve" unicode="&#xd2;" horiz-adv-x="2465" 
d="M1423 1552h-385l-542 332h569zM1233 -27c-363.333 0 -643.666 64.833 -840.999 194.5s-296 312.167 -296 547.5c0 237.333 98.667 420.833 296 550.5s477.666 194.5 840.999 194.5s643.666 -64.833 840.999 -194.5s296 -313.167 296 -550.5
c0 -235.333 -98.667 -417.833 -296 -547.5s-477.666 -194.5 -840.999 -194.5zM1233 322c230.667 0 400.667 32.167 510 96.5s164 163.166 164 296.499c0 134.667 -54.667 234.5 -164 299.5s-279.333 97.5 -510 97.5s-400.667 -32.5 -510 -97.5s-164 -164.833 -164 -299.5
c0 -133.333 54.667 -232.166 164 -296.499s279.333 -96.5 510 -96.5z" />
    <glyph glyph-name="Oacute" unicode="&#xd3;" horiz-adv-x="2465" 
d="M1042 1552l359 332h569l-543 -332h-385zM1233 -27c-363.333 0 -643.666 64.833 -840.999 194.5s-296 312.167 -296 547.5c0 237.333 98.667 420.833 296 550.5s477.666 194.5 840.999 194.5s643.666 -64.833 840.999 -194.5s296 -313.167 296 -550.5
c0 -235.333 -98.667 -417.833 -296 -547.5s-477.666 -194.5 -840.999 -194.5zM1233 322c230.667 0 400.667 32.167 510 96.5s164 163.166 164 296.499c0 134.667 -54.667 234.5 -164 299.5s-279.333 97.5 -510 97.5s-400.667 -32.5 -510 -97.5s-164 -164.833 -164 -299.5
c0 -133.333 54.667 -232.166 164 -296.499s279.333 -96.5 510 -96.5z" />
    <glyph glyph-name="Ocircumflex" unicode="&#xd4;" horiz-adv-x="2465" 
d="M1507 1552l-282 148l-269 -148h-335l360 332h518l346 -332h-338zM1233 -27c-363.333 0 -643.666 64.833 -840.999 194.5s-296 312.167 -296 547.5c0 237.333 98.667 420.833 296 550.5s477.666 194.5 840.999 194.5s643.666 -64.833 840.999 -194.5
s296 -313.167 296 -550.5c0 -235.333 -98.667 -417.833 -296 -547.5s-477.666 -194.5 -840.999 -194.5zM1233 322c230.667 0 400.667 32.167 510 96.5s164 163.166 164 296.499c0 134.667 -54.667 234.5 -164 299.5s-279.333 97.5 -510 97.5s-400.667 -32.5 -510 -97.5
s-164 -164.833 -164 -299.5c0 -133.333 54.667 -232.166 164 -296.499s279.333 -96.5 510 -96.5z" />
    <glyph glyph-name="Otilde" unicode="&#xd5;" horiz-adv-x="2465" 
d="M1753 1898c9.33301 -124.667 -11.168 -217.167 -61.501 -277.5s-124.166 -90.5 -221.499 -90.5c-56 0 -112.833 10.333 -170.5 31s-109 41.167 -154 61.5s-80.167 30.5 -105.5 30.5c-22 0 -38.167 -8.83301 -48.5 -26.5s-13.833 -42.5 -10.5 -74.5h-272
c-10 126 10.833 219.667 62.5 281s128.167 92 229.5 92c38 0 79.333 -6.66699 124 -20s83.5 -27.833 116.5 -43.5s66.5 -30.167 100.5 -43.5s60.333 -20 79 -20c22.667 0 39.167 8.66699 49.5 26s13.833 42 10.5 74h272zM1233 -27
c-363.333 0 -643.666 64.833 -840.999 194.5s-296 312.167 -296 547.5c0 237.333 98.667 420.833 296 550.5s477.666 194.5 840.999 194.5s643.666 -64.833 840.999 -194.5s296 -313.167 296 -550.5c0 -235.333 -98.667 -417.833 -296 -547.5
s-477.666 -194.5 -840.999 -194.5zM1233 322c230.667 0 400.667 32.167 510 96.5s164 163.166 164 296.499c0 134.667 -54.667 234.5 -164 299.5s-279.333 97.5 -510 97.5s-400.667 -32.5 -510 -97.5s-164 -164.833 -164 -299.5c0 -133.333 54.667 -232.166 164 -296.499
s279.333 -96.5 510 -96.5z" />
    <glyph glyph-name="Odieresis" unicode="&#xd6;" horiz-adv-x="2465" 
d="M1329 1552v332h469v-332h-469zM668 1552v332h469v-332h-469zM1233 -27c-363.333 0 -643.666 64.833 -840.999 194.5s-296 312.167 -296 547.5c0 237.333 98.667 420.833 296 550.5s477.666 194.5 840.999 194.5s643.666 -64.833 840.999 -194.5s296 -313.167 296 -550.5
c0 -235.333 -98.667 -417.833 -296 -547.5s-477.666 -194.5 -840.999 -194.5zM1233 322c230.667 0 400.667 32.167 510 96.5s164 163.166 164 296.499c0 134.667 -54.667 234.5 -164 299.5s-279.333 97.5 -510 97.5s-400.667 -32.5 -510 -97.5s-164 -164.833 -164 -299.5
c0 -133.333 54.667 -232.166 164 -296.499s279.333 -96.5 510 -96.5z" />
    <glyph glyph-name="multiply" unicode="&#xd7;" horiz-adv-x="1568" 
d="M1204 225l-418 322l-419 -322l-203 232l371 284l-371 285l203 229l419 -321l418 321l203 -231l-369 -283l369 -284z" />
    <glyph glyph-name="Oslash" unicode="&#xd8;" horiz-adv-x="2465" 
d="M160 0l221 176c-190 128 -285 307.667 -285 539c0 237.333 98.667 420.833 296 550.5s477.666 194.5 840.999 194.5c254 0 468.333 -32 643 -96l88 70h342l-221 -177c190 -130 285 -310.667 285 -542c0 -235.333 -98.667 -417.833 -296 -547.5
s-477.666 -194.5 -840.999 -194.5c-252 0 -466.333 32.333 -643 97l-88 -70h-342zM559 715c0 -124.667 47.667 -219.667 143 -285l828 657c-87.333 16.667 -186.333 25 -297 25c-230.667 0 -400.667 -32.5 -510 -97.5s-164 -164.833 -164 -299.5zM1233 322
c230.667 0 400.667 32.168 510 96.501s164 163.166 164 296.499c0 124.667 -48 220 -144 286l-827 -657c88 -14.667 187 -22 297 -22z" />
    <glyph glyph-name="Ugrave" unicode="&#xd9;" horiz-adv-x="2351" 
d="M1366 1552h-385l-543 332h570zM2177 739c0 -246 -86.5 -435.167 -259.5 -567.5s-420.833 -198.5 -743.5 -198.5c-322 0 -569.5 66.167 -742.5 198.5s-259.5 321.5 -259.5 567.5v695h455v-680c0 -148.667 44 -257.834 132 -327.501s226.333 -104.5 415 -104.5
c189.333 0 328.333 34.833 417 104.5s133 178.834 133 327.501v680h453v-695z" />
    <glyph glyph-name="Uacute" unicode="&#xda;" horiz-adv-x="2351" 
d="M985 1552l358 332h570l-543 -332h-385zM2177 739c0 -246 -86.5 -435.167 -259.5 -567.5s-420.833 -198.5 -743.5 -198.5c-322 0 -569.5 66.167 -742.5 198.5s-259.5 321.5 -259.5 567.5v695h455v-680c0 -148.667 44 -257.834 132 -327.501s226.333 -104.5 415 -104.5
c189.333 0 328.333 34.833 417 104.5s133 178.834 133 327.501v680h453v-695z" />
    <glyph glyph-name="Ucircumflex" unicode="&#xdb;" horiz-adv-x="2351" 
d="M1450 1552l-283 148l-268 -148h-336l361 332h518l346 -332h-338zM2177 739c0 -246 -86.5 -435.167 -259.5 -567.5s-420.833 -198.5 -743.5 -198.5c-322 0 -569.5 66.167 -742.5 198.5s-259.5 321.5 -259.5 567.5v695h455v-680c0 -148.667 44 -257.834 132 -327.501
s226.333 -104.5 415 -104.5c189.333 0 328.333 34.833 417 104.5s133 178.834 133 327.501v680h453v-695z" />
    <glyph glyph-name="Udieresis" unicode="&#xdc;" horiz-adv-x="2351" 
d="M1272 1552v332h469v-332h-469zM610 1552v332h469v-332h-469zM2177 739c0 -246 -86.5 -435.167 -259.5 -567.5s-420.833 -198.5 -743.5 -198.5c-322 0 -569.5 66.167 -742.5 198.5s-259.5 321.5 -259.5 567.5v695h455v-680c0 -148.667 44 -257.834 132 -327.501
s226.333 -104.5 415 -104.5c189.333 0 328.333 34.833 417 104.5s133 178.834 133 327.501v680h453v-695z" />
    <glyph glyph-name="Yacute" unicode="&#xdd;" horiz-adv-x="2091" 
d="M856 1552l358 332h570l-543 -332h-385zM823 0v543l-850 891h592l494 -533l502 533h557l-842 -889v-545h-453z" />
    <glyph glyph-name="Thorn" unicode="&#xde;" horiz-adv-x="2226" 
d="M217 0v1434h453v-179h825c196.667 0 352 -47.833 466 -143.5s171 -226.5 171 -392.5s-57.667 -296.667 -173 -392s-273.333 -143 -474 -143h-815v-184h-453zM1415 911h-745v-381h745c86 0 149.833 15.333 191.5 46s62.5 77.667 62.5 141c0 65.333 -20.833 114 -62.5 146
s-105.5 48 -191.5 48z" />
    <glyph glyph-name="germandbls" unicode="&#xdf;" horiz-adv-x="2291" 
d="M143 0l-0.000976562 953.996c0 188 88.167 336.5 264.5 445.5s421.5 163.5 735.5 163.5c264.667 0 465.667 -35.833 603 -107.5s206 -175.167 206 -310.5c0 -65.333 -19.5 -123.666 -58.5 -174.999s-95.5 -92.666 -169.5 -123.999c330.667 -30 496 -157.667 496 -383
c0 -158 -76.5 -279.167 -229.5 -363.5s-372.167 -126.5 -657.5 -126.5c-259.333 0 -469.666 33 -630.999 99l107 303c138.667 -66 299 -99 481 -99c120.667 0 216.5 6.66699 287.5 20s121.167 33 150.5 59s44 60 44 102c0 38.667 -8.83301 69.334 -26.5 92.001
s-49 39.834 -94 51.501s-107.5 17.5 -187.5 17.5h-604v302h309c128 0 222.167 14.333 282.5 43s90.5 71.667 90.5 129c0 41.333 -12.333 74.5 -37 99.5s-66.667 44 -126 57s-139.333 19.5 -240 19.5c-188 0 -329 -26 -423 -78s-141 -127 -141 -225v-965h-432z" />
    <glyph glyph-name="agrave" unicode="&#xe0;" horiz-adv-x="1918" 
d="M1161 1245h-385l-543 332h570zM94 805c47.333 121.333 136.334 209.666 267.001 264.999s319 83 565 83c290.667 0 498.167 -33.833 622.5 -101.5s186.5 -179.167 186.5 -334.5v-359c0 -26.667 5.33301 -45.834 16 -57.501s28.334 -17.5 53.001 -17.5c20 0 40 2 60 6
l-9 -285c-74.667 -20.667 -146.334 -31 -215.001 -31c-168 0 -269 71 -303 213c-76 -67.333 -174.833 -119.666 -296.5 -156.999s-257.5 -56 -407.5 -56c-180.667 0 -320.334 30.167 -419.001 90.5s-148 144.833 -148 253.5c0 106.667 47.833 187.5 143.5 242.5
s249.167 89.833 460.5 104.5l651 36c-6 58.667 -39 100.334 -99 125.001s-159.333 37 -298 37c-130.667 0 -225.5 -10 -284.5 -30s-95.5 -53 -109.5 -99zM496.001 340c0 -34.667 18.499 -59.668 55.499 -75.001s97.5 -23 181.5 -23c112.667 0 214.334 10.167 305.001 30.5
s161.5 48.333 212.5 84s76.5 75.834 76.5 120.501v2l-692 -47c-48 -4 -83.167 -13.5 -105.5 -28.5s-33.5 -36.167 -33.5 -63.5z" />
    <glyph glyph-name="aacute" unicode="&#xe1;" horiz-adv-x="1918" 
d="M780 1245l359 332h569l-543 -332h-385zM94 805c47.333 121.333 136.334 209.666 267.001 264.999s319 83 565 83c290.667 0 498.167 -33.833 622.5 -101.5s186.5 -179.167 186.5 -334.5v-359c0 -26.667 5.33301 -45.834 16 -57.501s28.334 -17.5 53.001 -17.5
c20 0 40 2 60 6l-9 -285c-74.667 -20.667 -146.334 -31 -215.001 -31c-168 0 -269 71 -303 213c-76 -67.333 -174.833 -119.666 -296.5 -156.999s-257.5 -56 -407.5 -56c-180.667 0 -320.334 30.167 -419.001 90.5s-148 144.833 -148 253.5
c0 106.667 47.833 187.5 143.5 242.5s249.167 89.833 460.5 104.5l651 36c-6 58.667 -39 100.334 -99 125.001s-159.333 37 -298 37c-130.667 0 -225.5 -10 -284.5 -30s-95.5 -53 -109.5 -99zM496.001 340c0 -34.667 18.499 -59.668 55.499 -75.001s97.5 -23 181.5 -23
c112.667 0 214.334 10.167 305.001 30.5s161.5 48.333 212.5 84s76.5 75.834 76.5 120.501v2l-692 -47c-48 -4 -83.167 -13.5 -105.5 -28.5s-33.5 -36.167 -33.5 -63.5z" />
    <glyph glyph-name="acircumflex" unicode="&#xe2;" horiz-adv-x="1918" 
d="M1245 1245l-282 148l-269 -148h-336l361 332h518l346 -332h-338zM94 805c47.333 121.333 136.334 209.666 267.001 264.999s319 83 565 83c290.667 0 498.167 -33.833 622.5 -101.5s186.5 -179.167 186.5 -334.5v-359c0 -26.667 5.33301 -45.834 16 -57.501
s28.334 -17.5 53.001 -17.5c20 0 40 2 60 6l-9 -285c-74.667 -20.667 -146.334 -31 -215.001 -31c-168 0 -269 71 -303 213c-76 -67.333 -174.833 -119.666 -296.5 -156.999s-257.5 -56 -407.5 -56c-180.667 0 -320.334 30.167 -419.001 90.5s-148 144.833 -148 253.5
c0 106.667 47.833 187.5 143.5 242.5s249.167 89.833 460.5 104.5l651 36c-6 58.667 -39 100.334 -99 125.001s-159.333 37 -298 37c-130.667 0 -225.5 -10 -284.5 -30s-95.5 -53 -109.5 -99zM496.001 340c0 -34.667 18.499 -59.668 55.499 -75.001s97.5 -23 181.5 -23
c112.667 0 214.334 10.167 305.001 30.5s161.5 48.333 212.5 84s76.5 75.834 76.5 120.501v2l-692 -47c-48 -4 -83.167 -13.5 -105.5 -28.5s-33.5 -36.167 -33.5 -63.5z" />
    <glyph glyph-name="atilde" unicode="&#xe3;" horiz-adv-x="1918" 
d="M1491 1591c9.33301 -124.667 -11.168 -217.169 -61.501 -277.502s-124.166 -90.5 -221.499 -90.5c-44 0 -89.167 6.33301 -135.5 19s-85.166 26.834 -116.499 42.501s-63.5 29.834 -96.5 42.501s-60.167 19 -81.5 19c-22 0 -38.167 -8.83301 -48.5 -26.5
s-13.833 -42.5 -10.5 -74.5h-273c-10 126 11 219.667 63 281s128.667 92 230 92c48 0 100.667 -10.667 158 -32s109.666 -42.5 156.999 -63.5s82.333 -31.5 105 -31.5s39.167 8.66699 49.5 26s13.833 42 10.5 74h272zM93.999 804.998
c47.333 121.333 136.334 209.666 267.001 264.999s319 83 565 83c290.667 0 498.167 -33.833 622.5 -101.5s186.5 -179.167 186.5 -334.5v-359c0 -26.667 5.33301 -45.834 16 -57.501s28.334 -17.5 53.001 -17.5c20 0 40 2 60 6l-9 -285
c-74.667 -20.667 -146.334 -31 -215.001 -31c-168 0 -269 71 -303 213c-76 -67.333 -174.833 -119.666 -296.5 -156.999s-257.5 -56 -407.5 -56c-180.667 0 -320.334 30.167 -419.001 90.5s-148 144.833 -148 253.5c0 106.667 47.833 187.5 143.5 242.5
s249.167 89.833 460.5 104.5l651 36c-6 58.667 -39 100.334 -99 125.001s-159.333 37 -298 37c-130.667 0 -225.5 -10 -284.5 -30s-95.5 -53 -109.5 -99zM496 339.998c0 -34.667 18.499 -59.668 55.499 -75.001s97.5 -23 181.5 -23c112.667 0 214.334 10.167 305.001 30.5
s161.5 48.333 212.5 84s76.5 75.834 76.5 120.501v2l-692 -47c-48 -4 -83.167 -13.5 -105.5 -28.5s-33.5 -36.167 -33.5 -63.5z" />
    <glyph glyph-name="adieresis" unicode="&#xe4;" horiz-adv-x="1918" 
d="M1067 1245v332h469v-332h-469zM406 1245v332h468v-332h-468zM94 805c47.333 121.333 136.334 209.666 267.001 264.999s319 83 565 83c290.667 0 498.167 -33.833 622.5 -101.5s186.5 -179.167 186.5 -334.5v-359c0 -26.667 5.33301 -45.834 16 -57.501
s28.334 -17.5 53.001 -17.5c20 0 40 2 60 6l-9 -285c-74.667 -20.667 -146.334 -31 -215.001 -31c-168 0 -269 71 -303 213c-76 -67.333 -174.833 -119.666 -296.5 -156.999s-257.5 -56 -407.5 -56c-180.667 0 -320.334 30.167 -419.001 90.5s-148 144.833 -148 253.5
c0 106.667 47.833 187.5 143.5 242.5s249.167 89.833 460.5 104.5l651 36c-6 58.667 -39 100.334 -99 125.001s-159.333 37 -298 37c-130.667 0 -225.5 -10 -284.5 -30s-95.5 -53 -109.5 -99zM496.001 340c0 -34.667 18.499 -59.668 55.499 -75.001s97.5 -23 181.5 -23
c112.667 0 214.334 10.167 305.001 30.5s161.5 48.333 212.5 84s76.5 75.834 76.5 120.501v2l-692 -47c-48 -4 -83.167 -13.5 -105.5 -28.5s-33.5 -36.167 -33.5 -63.5z" />
    <glyph glyph-name="aring" unicode="&#xe5;" horiz-adv-x="1918" 
d="M973 1217c-120 0 -212.833 22 -278.5 66s-98.5 106.333 -98.5 187c0 80 32.833 141.667 98.5 185s158.5 65 278.5 65c119.333 0 211.333 -21.667 276 -65s97 -105 97 -185c0 -80.667 -32.333 -143 -97 -187s-156.667 -66 -276 -66zM973 1370
c113.333 0 170 33.333 170 100c0 64.667 -56.667 97 -170 97c-116 0 -174 -32.333 -174 -97c0 -66.667 58 -100 174 -100zM94 805c47.333 121.333 136.334 209.666 267.001 264.999s319 83 565 83c290.667 0 498.167 -33.833 622.5 -101.5s186.5 -179.167 186.5 -334.5v-359
c0 -26.667 5.33301 -45.834 16 -57.501s28.334 -17.5 53.001 -17.5c20 0 40 2 60 6l-9 -285c-74.667 -20.667 -146.334 -31 -215.001 -31c-168 0 -269 71 -303 213c-76 -67.333 -174.833 -119.666 -296.5 -156.999s-257.5 -56 -407.5 -56
c-180.667 0 -320.334 30.167 -419.001 90.5s-148 144.833 -148 253.5c0 106.667 47.833 187.5 143.5 242.5s249.167 89.833 460.5 104.5l651 36c-6 58.667 -39 100.334 -99 125.001s-159.333 37 -298 37c-130.667 0 -225.5 -10 -284.5 -30s-95.5 -53 -109.5 -99z
M496.001 340c0 -34.667 18.499 -59.668 55.499 -75.001s97.5 -23 181.5 -23c112.667 0 214.334 10.167 305.001 30.5s161.5 48.333 212.5 84s76.5 75.834 76.5 120.501v2l-692 -47c-48 -4 -83.167 -13.5 -105.5 -28.5s-33.5 -36.167 -33.5 -63.5z" />
    <glyph glyph-name="ae" unicode="&#xe6;" horiz-adv-x="3205" 
d="M784 -27c-136 0 -251.667 8.49902 -347 25.499s-169.5 41.5 -222.5 73.5s-91 68 -114 108s-34.5 86.333 -34.5 139c0 106.667 47.667 187.167 143 241.5s249 88.833 461 103.5l649 36c-6 58.667 -37 100.334 -93 125.001s-150 37 -282 37
c-130.667 0 -225.5 -10 -284.5 -30s-95.833 -53 -110.5 -99l-434 72c46.667 120.667 136.667 208.834 270 264.501s320.333 83.5 561 83.5c145.333 0 267.833 -12.667 367.5 -38s183.5 -66 251.5 -122c171.333 106.667 391.666 160 660.999 160
c276 0 493.833 -50.333 653.5 -151s239.5 -238.667 239.5 -414c0 -50.667 -4 -91.667 -12 -123h-1358c23.333 -66.667 74.833 -115.834 154.5 -147.501s191.167 -47.5 334.5 -47.5c134.667 0 237.5 9.66699 308.5 29s115.833 49.333 134.5 90l434 -76
c-48.667 -118 -141.5 -204.167 -278.5 -258.5s-336.5 -81.5 -598.5 -81.5c-158 0 -296 15.833 -414 47.5s-222.333 84.167 -313 157.5c-171.333 -136.667 -413.666 -205 -726.999 -205zM2224 867.999c-134.667 0 -239.167 -13.5 -313.5 -40.5
s-124.833 -70.167 -151.5 -129.5h912c-28.667 64 -79.5 108.333 -152.5 133s-171.167 37 -294.5 37zM496 339.999c0 -36 21.667 -61.667 65 -77s114.333 -23 213 -23c178.667 0 316 22 412 66s143 101.667 141 173l-692 -47c-48 -4 -83.167 -13.5 -105.5 -28.5
s-33.5 -36.167 -33.5 -63.5z" />
    <glyph glyph-name="ccedilla" unicode="&#xe7;" horiz-adv-x="1947" 
d="M1894 737l-439.998 -87.9971c-21.333 65.333 -67.5 113.166 -138.5 143.499s-173.5 45.5 -307.5 45.5c-165.333 0 -286.333 -22.167 -363 -66.5s-115 -113.833 -115 -208.5c0 -94 38.333 -163.167 115 -207.5s197.667 -66.5 363 -66.5c140.667 0 246.5 15.667 317.5 47
s115.167 81.666 132.5 150.999l438 -86c-37.333 -132 -126 -234.5 -266 -307.5s-324.333 -112.5 -553 -118.5l-10 -57c51.333 8 103.333 12 156 12c202 0 303 -57.333 303 -172c0 -69.333 -40 -121.5 -120 -156.5s-210.667 -52.5 -392 -52.5c-136.667 0 -267.667 15 -393 45
l10 166c141.333 -27.333 254.666 -41 339.999 -41c51.333 0 90.833 2 118.5 6s45.834 9.16699 54.501 15.5s13 15.166 13 26.499c0 24 -24.667 36 -74 36c-38 0 -68.667 -7.33301 -92 -22l-246 22l33 183c-220.667 25.333 -390.834 88 -510.501 188
s-179.5 229.667 -179.5 389c0 186 80.667 330.833 242 434.5s387.333 155.5 678 155.5c243.333 0 440.666 -35.333 591.999 -106s249.333 -174 294 -310z" />
    <glyph glyph-name="egrave" unicode="&#xe8;" horiz-adv-x="1996" 
d="M1188 1245h-385l-543 332h569zM1020 -27c-294 0 -522.83 51.668 -686.497 155.001s-245.5 248.333 -245.5 435c0 182 81.5 325.833 244.5 431.5s387.5 158.5 673.5 158.5c185.333 0 346 -22.333 482 -67s240.5 -109.667 313.5 -195s109.5 -186.333 109.5 -303
c0 -49.333 -3.33301 -90.333 -10 -123h-1375c23.333 -66.667 75.166 -115.834 155.499 -147.501s193.166 -47.5 338.499 -47.5c138.667 0 244.167 9.66699 316.5 29s117.833 49.333 136.5 90l434 -76c-48.667 -118.667 -141.834 -205 -279.501 -259s-340.167 -81 -607.5 -81
zM1008 868.001c-140 0 -248.002 -14 -324.002 -42s-126.667 -72.667 -152 -134h934c-25.333 62.667 -74.166 107.667 -146.499 135s-176.166 41 -311.499 41z" />
    <glyph glyph-name="eacute" unicode="&#xe9;" horiz-adv-x="1996" 
d="M807 1245l358 332h570l-543 -332h-385zM1020 -27c-294 0 -522.83 51.668 -686.497 155.001s-245.5 248.333 -245.5 435c0 182 81.5 325.833 244.5 431.5s387.5 158.5 673.5 158.5c185.333 0 346 -22.333 482 -67s240.5 -109.667 313.5 -195s109.5 -186.333 109.5 -303
c0 -49.333 -3.33301 -90.333 -10 -123h-1375c23.333 -66.667 75.166 -115.834 155.499 -147.501s193.166 -47.5 338.499 -47.5c138.667 0 244.167 9.66699 316.5 29s117.833 49.333 136.5 90l434 -76c-48.667 -118.667 -141.834 -205 -279.501 -259s-340.167 -81 -607.5 -81
zM1008 868.001c-140 0 -248.002 -14 -324.002 -42s-126.667 -72.667 -152 -134h934c-25.333 62.667 -74.166 107.667 -146.499 135s-176.166 41 -311.499 41z" />
    <glyph glyph-name="ecircumflex" unicode="&#xea;" horiz-adv-x="1996" 
d="M1272 1245l-283 148l-268 -148h-336l360 332h519l346 -332h-338zM1020 -27c-294 0 -522.83 51.668 -686.497 155.001s-245.5 248.333 -245.5 435c0 182 81.5 325.833 244.5 431.5s387.5 158.5 673.5 158.5c185.333 0 346 -22.333 482 -67s240.5 -109.667 313.5 -195
s109.5 -186.333 109.5 -303c0 -49.333 -3.33301 -90.333 -10 -123h-1375c23.333 -66.667 75.166 -115.834 155.499 -147.501s193.166 -47.5 338.499 -47.5c138.667 0 244.167 9.66699 316.5 29s117.833 49.333 136.5 90l434 -76
c-48.667 -118.667 -141.834 -205 -279.501 -259s-340.167 -81 -607.5 -81zM1008 868.001c-140 0 -248.002 -14 -324.002 -42s-126.667 -72.667 -152 -134h934c-25.333 62.667 -74.166 107.667 -146.499 135s-176.166 41 -311.499 41z" />
    <glyph glyph-name="edieresis" unicode="&#xeb;" horiz-adv-x="1996" 
d="M1094 1245v332h469v-332h-469zM432 1245v332h469v-332h-469zM1020 -27c-294 0 -522.83 51.668 -686.497 155.001s-245.5 248.333 -245.5 435c0 182 81.5 325.833 244.5 431.5s387.5 158.5 673.5 158.5c185.333 0 346 -22.333 482 -67s240.5 -109.667 313.5 -195
s109.5 -186.333 109.5 -303c0 -49.333 -3.33301 -90.333 -10 -123h-1375c23.333 -66.667 75.166 -115.834 155.499 -147.501s193.166 -47.5 338.499 -47.5c138.667 0 244.167 9.66699 316.5 29s117.833 49.333 136.5 90l434 -76
c-48.667 -118.667 -141.834 -205 -279.501 -259s-340.167 -81 -607.5 -81zM1008 868.001c-140 0 -248.002 -14 -324.002 -42s-126.667 -72.667 -152 -134h934c-25.333 62.667 -74.166 107.667 -146.499 135s-176.166 41 -311.499 41z" />
    <glyph glyph-name="igrave" unicode="&#xec;" 
d="M590 1245h-385l-543 332h569zM184 0v1126h432v-1126h-432z" />
    <glyph glyph-name="iacute" unicode="&#xed;" 
d="M209 1245l358 332h570l-543 -332h-385zM184 0v1126h432v-1126h-432z" />
    <glyph glyph-name="icircumflex" unicode="&#xee;" 
d="M674 1245l-283 148l-268 -148h-336l360 332h519l346 -332h-338zM184 0v1126h432v-1126h-432z" />
    <glyph glyph-name="idieresis" unicode="&#xef;" 
d="M496 1245v332h469v-332h-469zM-166 1245v332h469v-332h-469zM184 0v1126h432v-1126h-432z" />
    <glyph glyph-name="eth" unicode="&#xf0;" horiz-adv-x="2029" 
d="M1004 -27c-299.333 0 -526.166 43.498 -680.499 130.498s-231.5 210.167 -231.5 369.5c0 154 71 273 213 357s350.333 126 625 126c234 0 419.667 -47 557 -141c-20 56 -55.833 112.5 -107.5 169.5s-127.834 122.167 -228.501 195.5l-455 -117v186l256 66
c-64 42 -161.667 102 -293 180l519 61c61.333 -37.333 128 -81 200 -131l396 101v-189l-211 -53c139.333 -120 236.166 -235.5 290.499 -346.5s81.5 -227.5 81.5 -349.5c0 -94 -18.167 -178.167 -54.5 -252.5s-91.666 -138.666 -165.999 -192.999
s-171.5 -96.166 -291.5 -125.499s-259.667 -44 -419 -44zM1010 288.998c118 0 211.833 6.66699 281.5 20s119.334 33 149.001 59s44.5 60.333 44.5 103s-14.833 77 -44.5 103s-79.334 45.667 -149.001 59s-163.5 20 -281.5 20c-174.667 0 -298 -14.333 -370 -43
s-108 -75 -108 -139s36 -110.333 108 -139s195.333 -43 370 -43z" />
    <glyph glyph-name="ntilde" unicode="&#xf1;" horiz-adv-x="2052" 
d="M1546 1591c9.33301 -124.667 -11 -217.169 -61 -277.502s-123.667 -90.5 -221 -90.5c-44 0 -89.167 6.33301 -135.5 19s-85.166 26.834 -116.499 42.501s-63.5 29.834 -96.5 42.501s-60.167 19 -81.5 19c-22 0 -38.333 -8.83301 -49 -26.5s-14.334 -42.5 -11.001 -74.5
h-272c-10 126 11 219.667 63 281s128.667 92 230 92c48 0 100.667 -10.667 158 -32s109.5 -42.5 156.5 -63.5s81.833 -31.5 104.5 -31.5s39.167 8.66699 49.5 26s13.833 42 10.5 74h272zM184 -0.00195312v1126h389l31 -243c72 84.667 164.833 150.834 278.5 198.501
s237.834 71.5 372.501 71.5c205.333 0 361.166 -45.333 467.499 -136s159.5 -222.667 159.5 -396v-621h-432v535c0 92 -28.167 162 -84.5 210s-139.5 72 -249.5 72c-156.667 0 -279.167 -34.333 -367.5 -103s-132.5 -164 -132.5 -286v-428h-432z" />
    <glyph glyph-name="ograve" unicode="&#xf2;" horiz-adv-x="2029" 
d="M1206 1245h-385l-542 332h569zM1016 -27c-296 0 -524.667 51.333 -686 154s-242 248 -242 436s80.667 333.333 242 436s390 154 686 154c296.667 0 525.167 -51.333 685.5 -154s240.5 -248 240.5 -436c0 -190 -79.667 -335.833 -239 -437.5s-388.333 -152.5 -687 -152.5z
M1016 289c168.667 0 291.334 21.833 368.001 65.5s115 113.167 115 208.5s-38.333 165 -115 209s-199.334 66 -368.001 66s-291.834 -22 -369.501 -66s-116.5 -113.667 -116.5 -209s38.833 -164.833 116.5 -208.5s200.834 -65.5 369.501 -65.5z" />
    <glyph glyph-name="oacute" unicode="&#xf3;" horiz-adv-x="2029" 
d="M825 1245l359 332h569l-543 -332h-385zM1016 -27c-296 0 -524.667 51.333 -686 154s-242 248 -242 436s80.667 333.333 242 436s390 154 686 154c296.667 0 525.167 -51.333 685.5 -154s240.5 -248 240.5 -436c0 -190 -79.667 -335.833 -239 -437.5
s-388.333 -152.5 -687 -152.5zM1016 289c168.667 0 291.334 21.833 368.001 65.5s115 113.167 115 208.5s-38.333 165 -115 209s-199.334 66 -368.001 66s-291.834 -22 -369.501 -66s-116.5 -113.667 -116.5 -209s38.833 -164.833 116.5 -208.5s200.834 -65.5 369.501 -65.5
z" />
    <glyph glyph-name="ocircumflex" unicode="&#xf4;" horiz-adv-x="2029" 
d="M1290 1245l-282 148l-269 -148h-336l361 332h518l346 -332h-338zM1016 -27c-296 0 -524.667 51.333 -686 154s-242 248 -242 436s80.667 333.333 242 436s390 154 686 154c296.667 0 525.167 -51.333 685.5 -154s240.5 -248 240.5 -436
c0 -190 -79.667 -335.833 -239 -437.5s-388.333 -152.5 -687 -152.5zM1016 289c168.667 0 291.334 21.833 368.001 65.5s115 113.167 115 208.5s-38.333 165 -115 209s-199.334 66 -368.001 66s-291.834 -22 -369.501 -66s-116.5 -113.667 -116.5 -209
s38.833 -164.833 116.5 -208.5s200.834 -65.5 369.501 -65.5z" />
    <glyph glyph-name="otilde" unicode="&#xf5;" horiz-adv-x="2029" 
d="M1536 1591c9.33301 -124.667 -11.168 -217.169 -61.501 -277.502s-124.166 -90.5 -221.499 -90.5c-44 0 -89.167 6.33301 -135.5 19s-85.166 26.834 -116.499 42.501s-63.5 29.834 -96.5 42.501s-60.167 19 -81.5 19c-22 0 -38.167 -8.83301 -48.5 -26.5
s-13.833 -42.5 -10.5 -74.5h-272c-10 126 10.833 219.667 62.5 281s128.167 92 229.5 92c48 0 100.667 -10.667 158 -32s109.666 -42.5 156.999 -63.5s82.333 -31.5 105 -31.5s39.167 8.66699 49.5 26s13.833 42 10.5 74h272zM1016 -27.002c-296 0 -524.667 51.333 -686 154
s-242 248 -242 436s80.667 333.333 242 436s390 154 686 154c296.667 0 525.167 -51.333 685.5 -154s240.5 -248 240.5 -436c0 -190 -79.667 -335.833 -239 -437.5s-388.333 -152.5 -687 -152.5zM1016 288.998c168.667 0 291.334 21.833 368.001 65.5s115 113.167 115 208.5
s-38.333 165 -115 209s-199.334 66 -368.001 66s-291.834 -22 -369.501 -66s-116.5 -113.667 -116.5 -209s38.833 -164.833 116.5 -208.5s200.834 -65.5 369.501 -65.5z" />
    <glyph glyph-name="odieresis" unicode="&#xf6;" horiz-adv-x="2029" 
d="M1112 1245v332h469v-332h-469zM451 1245v332h469v-332h-469zM1016 -27c-296 0 -524.667 51.333 -686 154s-242 248 -242 436s80.667 333.333 242 436s390 154 686 154c296.667 0 525.167 -51.333 685.5 -154s240.5 -248 240.5 -436c0 -190 -79.667 -335.833 -239 -437.5
s-388.333 -152.5 -687 -152.5zM1016 289c168.667 0 291.334 21.833 368.001 65.5s115 113.167 115 208.5s-38.333 165 -115 209s-199.334 66 -368.001 66s-291.834 -22 -369.501 -66s-116.5 -113.667 -116.5 -209s38.833 -164.833 116.5 -208.5s200.834 -65.5 369.501 -65.5
z" />
    <glyph glyph-name="divide" unicode="&#xf7;" horiz-adv-x="1568" 
d="M584 1022v311h403v-311h-403zM1436 575h-1303v306h1303v-306zM584 123v311h403v-311h-403z" />
    <glyph glyph-name="oslash" unicode="&#xf8;" horiz-adv-x="2029" 
d="M104 0l197 147.001c-142 102 -213 240.667 -213 416c0 188 80.667 333.333 242 436s390 154 686 154c202.667 0 376 -25.333 520 -76l66 49h323l-194 -147c140.667 -100.667 211 -239.334 211 -416.001c0 -190 -79.667 -335.833 -239 -437.5s-388.333 -152.5 -687 -152.5
c-202 0 -376 25.333 -522 76l-66 -49h-324zM526 563.001c0 -78.667 26.667 -140.666 80 -185.999l602 452c-62 8.66699 -126 13 -192 13c-170 0 -294.167 -22.333 -372.5 -67s-117.5 -115.334 -117.5 -212.001zM1016 285.002c170 0 293.667 22.168 371 66.501
s116 114.833 116 211.5c0 81.333 -26.667 143.666 -80 186.999l-600 -453c54.667 -8 119 -12 193 -12z" />
    <glyph glyph-name="ugrave" unicode="&#xf9;" horiz-adv-x="1990" 
d="M1186 1245h-385l-543 332h569zM1374 698v428h432v-1126h-389l-31 242c-69.333 -84 -158.166 -149.833 -266.499 -197.5s-226.833 -71.5 -355.5 -71.5c-194 0 -341.5 45.667 -442.5 137s-151.5 224 -151.5 398v618h432v-540c0 -90 24.667 -158.333 74 -205
s121.666 -70 216.999 -70c150.667 0 268.5 34 353.5 102s127.5 163 127.5 285z" />
    <glyph glyph-name="uacute" unicode="&#xfa;" horiz-adv-x="1990" 
d="M805 1245l358 332h570l-543 -332h-385zM1374 698v428h432v-1126h-389l-31 242c-69.333 -84 -158.166 -149.833 -266.499 -197.5s-226.833 -71.5 -355.5 -71.5c-194 0 -341.5 45.667 -442.5 137s-151.5 224 -151.5 398v618h432v-540c0 -90 24.667 -158.333 74 -205
s121.666 -70 216.999 -70c150.667 0 268.5 34 353.5 102s127.5 163 127.5 285z" />
    <glyph glyph-name="ucircumflex" unicode="&#xfb;" horiz-adv-x="1990" 
d="M1270 1245l-283 148l-268 -148h-336l360 332h519l346 -332h-338zM1374 698v428h432v-1126h-389l-31 242c-69.333 -84 -158.166 -149.833 -266.499 -197.5s-226.833 -71.5 -355.5 -71.5c-194 0 -341.5 45.667 -442.5 137s-151.5 224 -151.5 398v618h432v-540
c0 -90 24.667 -158.333 74 -205s121.666 -70 216.999 -70c150.667 0 268.5 34 353.5 102s127.5 163 127.5 285z" />
    <glyph glyph-name="udieresis" unicode="&#xfc;" horiz-adv-x="1990" 
d="M1092 1245v332h469v-332h-469zM430 1245v332h469v-332h-469zM1374 698v428h432v-1126h-389l-31 242c-69.333 -84 -158.166 -149.833 -266.499 -197.5s-226.833 -71.5 -355.5 -71.5c-194 0 -341.5 45.667 -442.5 137s-151.5 224 -151.5 398v618h432v-540
c0 -90 24.667 -158.333 74 -205s121.666 -70 216.999 -70c150.667 0 268.5 34 353.5 102s127.5 163 127.5 285z" />
    <glyph glyph-name="yacute" unicode="&#xfd;" horiz-adv-x="1777" 
d="M698 1245l359 332h569l-543 -332h-385zM1305 1126l468.999 0.000976562l-650 -1106c-72 -120.667 -139.333 -212.834 -202 -276.501s-133.167 -109.5 -211.5 -137.5s-176.5 -42 -294.5 -42c-99.333 0 -190.333 12.333 -273 37l-16 309
c88.667 -12.667 161.667 -19 219 -19c92 0 161.833 10 209.5 30s91.834 60.667 132.501 122l-684 1083h496l420 -708z" />
    <glyph glyph-name="thorn" unicode="&#xfe;" horiz-adv-x="2121" 
d="M1272 -27c-140 0 -266.167 18.667 -378.5 56s-204.833 90.333 -277.5 159v-598h-432v1946h432v-600c72 69.333 164.333 122.833 277 160.5s239 56.5 379 56.5c238 0 424.5 -52.333 559.5 -157s202.5 -249 202.5 -433c0 -186 -67 -330.833 -201 -434.5
s-321 -155.5 -561 -155.5zM1118 291c162 0 281.333 22.167 358 66.5s115 112.833 115 205.5s-38.333 161.334 -115 206.001s-196 67 -358 67c-164 0 -288.667 -23.333 -374 -70s-128 -114.334 -128 -203.001s42.5 -156.167 127.5 -202.5s209.833 -69.5 374.5 -69.5z" />
    <glyph glyph-name="ydieresis" unicode="&#xff;" horiz-adv-x="1777" 
d="M985 1245v332h469v-332h-469zM324 1245v332h469v-332h-469zM1305 1126l468.999 0.000976562l-650 -1106c-72 -120.667 -139.333 -212.834 -202 -276.501s-133.167 -109.5 -211.5 -137.5s-176.5 -42 -294.5 -42c-99.333 0 -190.333 12.333 -273 37l-16 309
c88.667 -12.667 161.667 -19 219 -19c92 0 161.833 10 209.5 30s91.834 60.667 132.501 122l-684 1083h496l420 -708z" />
    <glyph glyph-name="Amacron" unicode="&#x100;" horiz-adv-x="2383" 
d="M662 1554v275h1060v-275h-1060zM1864 0l-166 258h-1030l-166 -258h-502l958 1434h467l959 -1434h-520zM877 582h612l-305 477z" />
    <glyph glyph-name="amacron" unicode="&#x101;" horiz-adv-x="1918" 
d="M440 1247v275h1061v-275h-1061zM94 805c47.333 121.333 136.334 209.666 267.001 264.999s319 83 565 83c290.667 0 498.167 -33.833 622.5 -101.5s186.5 -179.167 186.5 -334.5v-359c0 -26.667 5.33301 -45.834 16 -57.501s28.334 -17.5 53.001 -17.5c20 0 40 2 60 6
l-9 -285c-74.667 -20.667 -146.334 -31 -215.001 -31c-168 0 -269 71 -303 213c-76 -67.333 -174.833 -119.666 -296.5 -156.999s-257.5 -56 -407.5 -56c-180.667 0 -320.334 30.167 -419.001 90.5s-148 144.833 -148 253.5c0 106.667 47.833 187.5 143.5 242.5
s249.167 89.833 460.5 104.5l651 36c-6 58.667 -39 100.334 -99 125.001s-159.333 37 -298 37c-130.667 0 -225.5 -10 -284.5 -30s-95.5 -53 -109.5 -99zM496.001 340c0 -34.667 18.499 -59.668 55.499 -75.001s97.5 -23 181.5 -23c112.667 0 214.334 10.167 305.001 30.5
s161.5 48.333 212.5 84s76.5 75.834 76.5 120.501v2l-692 -47c-48 -4 -83.167 -13.5 -105.5 -28.5s-33.5 -36.167 -33.5 -63.5z" />
    <glyph glyph-name="Abreve" unicode="&#x102;" horiz-adv-x="2383" 
d="M1389 1884h344c0 -234.667 -179 -352 -537 -352c-363.333 0 -545 117.333 -545 352h344c0 -87.333 67 -131 201 -131c128.667 0 193 43.667 193 131zM1864 0l-166 258h-1030l-166 -258h-502l958 1434h467l959 -1434h-520zM877 582h612l-305 477z" />
    <glyph glyph-name="abreve" unicode="&#x103;" horiz-adv-x="1918" 
d="M1167 1577h344c0 -234.667 -178.667 -352 -536 -352c-363.333 0 -545 117.333 -545 352h344c0 -87.333 67 -131 201 -131c128 0 192 43.667 192 131zM94 805c47.333 121.333 136.334 209.666 267.001 264.999s319 83 565 83c290.667 0 498.167 -33.833 622.5 -101.5
s186.5 -179.167 186.5 -334.5v-359c0 -26.667 5.33301 -45.834 16 -57.501s28.334 -17.5 53.001 -17.5c20 0 40 2 60 6l-9 -285c-74.667 -20.667 -146.334 -31 -215.001 -31c-168 0 -269 71 -303 213c-76 -67.333 -174.833 -119.666 -296.5 -156.999s-257.5 -56 -407.5 -56
c-180.667 0 -320.334 30.167 -419.001 90.5s-148 144.833 -148 253.5c0 106.667 47.833 187.5 143.5 242.5s249.167 89.833 460.5 104.5l651 36c-6 58.667 -39 100.334 -99 125.001s-159.333 37 -298 37c-130.667 0 -225.5 -10 -284.5 -30s-95.5 -53 -109.5 -99z
M496.001 340c0 -34.667 18.499 -59.668 55.499 -75.001s97.5 -23 181.5 -23c112.667 0 214.334 10.167 305.001 30.5s161.5 48.333 212.5 84s76.5 75.834 76.5 120.501v2l-692 -47c-48 -4 -83.167 -13.5 -105.5 -28.5s-33.5 -36.167 -33.5 -63.5z" />
    <glyph glyph-name="Aogonek" unicode="&#x104;" horiz-adv-x="2383" 
d="M1681 -209c0 96 56.666 171.666 169.999 226.999l-153 240h-1030l-166 -258h-502l958 1434h467l959 -1434c-53.333 -3.33301 -100.833 -8.16602 -142.5 -14.499s-75 -13.333 -100 -21s-45.5 -16 -61.5 -25s-27 -17.5 -33 -25.5s-9 -16.333 -9 -25
c0 -31.333 35.333 -47 106 -47c68.667 0 148.667 13.667 240 41l-8 -286c-97.333 -32 -204 -48 -320 -48c-121.333 0 -214.166 20.333 -278.499 61s-96.5 101 -96.5 181zM876.999 581.999h612l-305 475z" />
    <glyph glyph-name="aogonek" unicode="&#x105;" horiz-adv-x="1918" 
d="M1849 -403c-94.667 -32 -198.335 -47.9971 -311.002 -47.9971c-123.333 0 -217.666 20.833 -282.999 62.5s-98 104.167 -98 187.5c0 58 19.333 107.5 58 148.5s103.334 76.167 194.001 105.5c-33.333 31.333 -57.333 75.666 -72 132.999
c-76 -67.333 -174.833 -119.666 -296.5 -156.999s-257.5 -56 -407.5 -56c-180.667 0 -320.334 30.167 -419.001 90.5s-148 144.833 -148 253.5c0 106.667 47.667 187 143 241s249 87.667 461 101l651 39c-5.33301 58.667 -36.5 100.667 -93.5 126s-151.5 38 -283.5 38
c-142 0 -243 -9.83301 -303 -29.5s-97 -52.834 -111 -99.501l-436 72c47.333 122.667 136.666 211.334 267.999 266.001s326 82 584 82c283.333 0 485.666 -33.833 606.999 -101.5s182 -179.167 182 -334.5v-359c0 -26.667 5.33301 -45.834 16 -57.501
s28.334 -17.5 53.001 -17.5c20 0 40 2 60 6l-9 -285c-23.333 -6.66699 -52.5 -13.334 -87.5 -20.001s-66.167 -12.334 -93.5 -17.001s-54.166 -10.167 -80.499 -16.5s-46.666 -14.5 -60.999 -24.5s-21.5 -22.333 -21.5 -37c0 -31.333 35.667 -47 107 -47
c68.667 0 148.667 13.667 240 41zM495.999 338.003c0 -34 18.499 -58.501 55.499 -73.501s97.5 -22.5 181.5 -22.5c112.667 0 214.334 10.167 305.001 30.5s161.5 48.333 212.5 84s76.5 75.834 76.5 120.501l-692 -47c-48 -4 -83.167 -13.5 -105.5 -28.5
s-33.5 -36.167 -33.5 -63.5z" />
    <glyph glyph-name="Cacute" unicode="&#x106;" horiz-adv-x="2344" 
d="M989 1552l359 332h569l-543 -332h-385zM96 717c0 234 98.166 416.334 294.499 547.001s471.833 196 826.5 196c292.667 0 527.167 -42 703.5 -126s288.5 -207.667 336.5 -371l-479 -95c-26.667 82.667 -85.5 144 -176.5 184s-219.167 60 -384.5 60
c-224.667 0 -390.5 -32.5 -497.5 -97.5s-160.5 -164.167 -160.5 -297.5c0 -134.667 53.167 -234.167 159.5 -298.5s272.5 -96.5 498.5 -96.5c169.333 0 299.833 20.5 391.5 61.5s148.834 104.167 171.501 189.5l473 -90c-48 -168.667 -159.333 -295.834 -334 -381.501
s-408.667 -128.5 -702 -128.5c-358 0 -634.333 65.5 -829 196.5s-292 313.5 -292 547.5z" />
    <glyph glyph-name="cacute" unicode="&#x107;" horiz-adv-x="1947" 
d="M784 1245l359 332h569l-543 -332h-385zM1894 737l-439.999 -87.998c-21.333 65.333 -67.5 113.166 -138.5 143.499s-173.5 45.5 -307.5 45.5c-165.333 0 -286.333 -22.167 -363 -66.5s-115 -113.833 -115 -208.5c0 -94 38.333 -163.167 115 -207.5
s197.667 -66.5 363 -66.5c140.667 0 246.5 15.667 317.5 47s115.167 81.666 132.5 150.999l438 -86c-39.333 -138 -135 -243.833 -287 -317.5s-352.333 -110.5 -601 -110.5c-290.667 0 -516.667 51.833 -678 155.5s-242 248.5 -242 434.5s80.667 330.833 242 434.5
s387.333 155.5 678 155.5c243.333 0 440.666 -35.333 591.999 -106s249.333 -174 294 -310z" />
    <glyph glyph-name="Ccircumflex" unicode="&#x108;" horiz-adv-x="2344" 
d="M1454 1552l-283 148l-268 -148h-336l361 332h518l346 -332h-338zM96 717c0 234 98.166 416.334 294.499 547.001s471.833 196 826.5 196c292.667 0 527.167 -42 703.5 -126s288.5 -207.667 336.5 -371l-479 -95c-26.667 82.667 -85.5 144 -176.5 184
s-219.167 60 -384.5 60c-224.667 0 -390.5 -32.5 -497.5 -97.5s-160.5 -164.167 -160.5 -297.5c0 -134.667 53.167 -234.167 159.5 -298.5s272.5 -96.5 498.5 -96.5c169.333 0 299.833 20.5 391.5 61.5s148.834 104.167 171.501 189.5l473 -90
c-48 -168.667 -159.333 -295.834 -334 -381.501s-408.667 -128.5 -702 -128.5c-358 0 -634.333 65.5 -829 196.5s-292 313.5 -292 547.5z" />
    <glyph glyph-name="ccircumflex" unicode="&#x109;" horiz-adv-x="1947" 
d="M1249 1245l-282 148l-269 -148h-336l361 332h518l346 -332h-338zM1894 737l-439.999 -87.998c-21.333 65.333 -67.5 113.166 -138.5 143.499s-173.5 45.5 -307.5 45.5c-165.333 0 -286.333 -22.167 -363 -66.5s-115 -113.833 -115 -208.5
c0 -94 38.333 -163.167 115 -207.5s197.667 -66.5 363 -66.5c140.667 0 246.5 15.667 317.5 47s115.167 81.666 132.5 150.999l438 -86c-39.333 -138 -135 -243.833 -287 -317.5s-352.333 -110.5 -601 -110.5c-290.667 0 -516.667 51.833 -678 155.5s-242 248.5 -242 434.5
s80.667 330.833 242 434.5s387.333 155.5 678 155.5c243.333 0 440.666 -35.333 591.999 -106s249.333 -174 294 -310z" />
    <glyph glyph-name="Cdotaccent" unicode="&#x10a;" horiz-adv-x="2344" 
d="M954 1552v373h451v-373h-451zM96 717c0 234 98.166 416.334 294.499 547.001s471.833 196 826.5 196c292.667 0 527.167 -42 703.5 -126s288.5 -207.667 336.5 -371l-479 -95c-26.667 82.667 -85.5 144 -176.5 184s-219.167 60 -384.5 60
c-224.667 0 -390.5 -32.5 -497.5 -97.5s-160.5 -164.167 -160.5 -297.5c0 -134.667 53.167 -234.167 159.5 -298.5s272.5 -96.5 498.5 -96.5c169.333 0 299.833 20.5 391.5 61.5s148.834 104.167 171.501 189.5l473 -90c-48 -168.667 -159.333 -295.834 -334 -381.501
s-408.667 -128.5 -702 -128.5c-358 0 -634.333 65.5 -829 196.5s-292 313.5 -292 547.5z" />
    <glyph glyph-name="cdotaccent" unicode="&#x10b;" horiz-adv-x="1947" 
d="M750 1245v373h450v-373h-450zM1894 737l-439.999 -87.998c-21.333 65.333 -67.5 113.166 -138.5 143.499s-173.5 45.5 -307.5 45.5c-165.333 0 -286.333 -22.167 -363 -66.5s-115 -113.833 -115 -208.5c0 -94 38.333 -163.167 115 -207.5s197.667 -66.5 363 -66.5
c140.667 0 246.5 15.667 317.5 47s115.167 81.666 132.5 150.999l438 -86c-39.333 -138 -135 -243.833 -287 -317.5s-352.333 -110.5 -601 -110.5c-290.667 0 -516.667 51.833 -678 155.5s-242 248.5 -242 434.5s80.667 330.833 242 434.5s387.333 155.5 678 155.5
c243.333 0 440.666 -35.333 591.999 -106s249.333 -174 294 -310z" />
    <glyph glyph-name="Ccaron" unicode="&#x10c;" horiz-adv-x="2344" 
d="M1792 1884l-360 -332h-519l-346 332h338l283 -147l270 147h334zM96 717c0 234 98.166 416.334 294.499 547.001s471.833 196 826.5 196c292.667 0 527.167 -42 703.5 -126s288.5 -207.667 336.5 -371l-479 -95c-26.667 82.667 -85.5 144 -176.5 184
s-219.167 60 -384.5 60c-224.667 0 -390.5 -32.5 -497.5 -97.5s-160.5 -164.167 -160.5 -297.5c0 -134.667 53.167 -234.167 159.5 -298.5s272.5 -96.5 498.5 -96.5c169.333 0 299.833 20.5 391.5 61.5s148.834 104.167 171.501 189.5l473 -90
c-48 -168.667 -159.333 -295.834 -334 -381.501s-408.667 -128.5 -702 -128.5c-358 0 -634.333 65.5 -829 196.5s-292 313.5 -292 547.5z" />
    <glyph glyph-name="ccaron" unicode="&#x10d;" horiz-adv-x="1947" 
d="M1587 1577l-360 -332h-518l-347 332h338l283 -147l270 147h334zM1894 737l-439.999 -87.998c-21.333 65.333 -67.5 113.166 -138.5 143.499s-173.5 45.5 -307.5 45.5c-165.333 0 -286.333 -22.167 -363 -66.5s-115 -113.833 -115 -208.5
c0 -94 38.333 -163.167 115 -207.5s197.667 -66.5 363 -66.5c140.667 0 246.5 15.667 317.5 47s115.167 81.666 132.5 150.999l438 -86c-39.333 -138 -135 -243.833 -287 -317.5s-352.333 -110.5 -601 -110.5c-290.667 0 -516.667 51.833 -678 155.5s-242 248.5 -242 434.5
s80.667 330.833 242 434.5s387.333 155.5 678 155.5c243.333 0 440.666 -35.333 591.999 -106s249.333 -174 294 -310z" />
    <glyph glyph-name="Dcaron" unicode="&#x10e;" horiz-adv-x="2428" 
d="M1827 1884l-361 -332h-518l-346 332h338l283 -147l270 147h334zM217 0v1434h1169c296 0 522.667 -61.833 680 -185.5s236 -301.5 236 -533.5c0 -230.667 -78.667 -407.5 -236 -530.5s-384 -184.5 -680 -184.5h-1169zM1419 348c143.333 0 249.166 30 317.499 90
s102.5 152.333 102.5 277c0 125.333 -34.167 218.333 -102.5 279s-174.166 91 -317.499 91h-749v-737h749z" />
    <glyph glyph-name="dcaron" unicode="&#x10f;" horiz-adv-x="2398" 
d="M850 -27c-240 0 -426.999 51.832 -560.999 155.499s-201 248.5 -201 434.5c0 184 67.5 328.333 202.5 433s321.5 157 559.5 157c139.333 0 265.166 -19.167 377.499 -57.5s204.833 -92.166 277.5 -161.499v602h432v-1536h-395l-22 205
c-71.333 -73.333 -164.5 -130.333 -279.5 -171s-245.167 -61 -390.5 -61zM2122 1081v455h395l-123 -455h-272zM1004 290.999c164 0 288.5 23.167 373.5 69.5s127.5 113.833 127.5 202.5s-42.5 156.334 -127.5 203.001s-209.5 70 -373.5 70c-162 0 -281.5 -22.333 -358.5 -67
s-115.5 -113.334 -115.5 -206.001s38.5 -161.167 115.5 -205.5s196.5 -66.5 358.5 -66.5z" />
    <glyph glyph-name="Dcroat" unicode="&#x110;" horiz-adv-x="2461" 
d="M252 0v621h-246v196h246v617h1169c294.667 0 521 -62 679 -186s237 -301.667 237 -533c0 -230.667 -78.833 -407.5 -236.5 -530.5s-384.167 -184.5 -679.5 -184.5h-1169zM1452 348c143.333 0 249.5 30.167 318.5 90.5s103.5 152.5 103.5 276.5
c0 125.333 -34.5 218.333 -103.5 279s-175.167 91 -318.5 91h-747v-268h434v-196h-434v-273h747z" />
    <glyph glyph-name="dcroat" unicode="&#x111;" horiz-adv-x="2121" 
d="M850 -27c-240 0 -427.001 50.168 -561.001 150.501s-201 240.166 -201 419.499c0 177.333 67.5 316.5 202.5 417.5s321.5 151.5 559.5 151.5c140 0 266 -18.333 378 -55s204.333 -88.667 277 -156v332h-475v164h475v139h432v-139h185v-164h-185v-1233h-395l-22 199
c-70.667 -71.333 -163.667 -126.833 -279 -166.5s-245.666 -59.5 -390.999 -59.5zM1004 291.001c164.667 0 289.334 21.498 374.001 64.498s127 105.5 127 187.5s-42.333 144.5 -127 187.5s-209.334 64.5 -374.001 64.5c-162 0 -281.5 -20.667 -358.5 -62
s-115.5 -104.666 -115.5 -189.999s38.5 -148.666 115.5 -189.999s196.5 -62 358.5 -62z" />
    <glyph glyph-name="Emacron" unicode="&#x112;" horiz-adv-x="2148" 
d="M592 1554v275h1061v-275h-1061zM217 0v1434h1806v-322h-1366v-221h1223v-320h-1223v-249h1381v-322h-1821z" />
    <glyph glyph-name="emacron" unicode="&#x113;" horiz-adv-x="1996" 
d="M467 1247v275h1061v-275h-1061zM1020 -27c-294 0 -522.83 51.668 -686.497 155.001s-245.5 248.333 -245.5 435c0 182 81.5 325.833 244.5 431.5s387.5 158.5 673.5 158.5c185.333 0 346 -22.333 482 -67s240.5 -109.667 313.5 -195s109.5 -186.333 109.5 -303
c0 -49.333 -3.33301 -90.333 -10 -123h-1375c23.333 -66.667 75.166 -115.834 155.499 -147.501s193.166 -47.5 338.499 -47.5c138.667 0 244.167 9.66699 316.5 29s117.833 49.333 136.5 90l434 -76c-48.667 -118.667 -141.834 -205 -279.501 -259s-340.167 -81 -607.5 -81
zM1008 868.001c-140 0 -248.002 -14 -324.002 -42s-126.667 -72.667 -152 -134h934c-25.333 62.667 -74.166 107.667 -146.499 135s-176.166 41 -311.499 41z" />
    <glyph glyph-name="Ebreve" unicode="&#x114;" horiz-adv-x="2148" 
d="M1319 1884h344c0 -234.667 -179 -352 -537 -352c-362.667 0 -544 117.333 -544 352h344c0 -87.333 66.667 -131 200 -131c128.667 0 193 43.667 193 131zM217 0v1434h1806v-322h-1366v-221h1223v-320h-1223v-249h1381v-322h-1821z" />
    <glyph glyph-name="ebreve" unicode="&#x115;" horiz-adv-x="1996" 
d="M1194 1577h344c0 -234.667 -179 -352 -537 -352c-362.667 0 -544 117.333 -544 352h344c0 -87.333 66.667 -131 200 -131c128.667 0 193 43.667 193 131zM1020 -27c-294 0 -522.83 51.668 -686.497 155.001s-245.5 248.333 -245.5 435c0 182 81.5 325.833 244.5 431.5
s387.5 158.5 673.5 158.5c185.333 0 346 -22.333 482 -67s240.5 -109.667 313.5 -195s109.5 -186.333 109.5 -303c0 -49.333 -3.33301 -90.333 -10 -123h-1375c23.333 -66.667 75.166 -115.834 155.499 -147.501s193.166 -47.5 338.499 -47.5
c138.667 0 244.167 9.66699 316.5 29s117.833 49.333 136.5 90l434 -76c-48.667 -118.667 -141.834 -205 -279.501 -259s-340.167 -81 -607.5 -81zM1008 868.001c-140 0 -248.002 -14 -324.002 -42s-126.667 -72.667 -152 -134h934
c-25.333 62.667 -74.166 107.667 -146.499 135s-176.166 41 -311.499 41z" />
    <glyph glyph-name="Edotaccent" unicode="&#x116;" horiz-adv-x="2148" 
d="M897 1552v373h451v-373h-451zM217 0v1434h1806v-322h-1366v-221h1223v-320h-1223v-249h1381v-322h-1821z" />
    <glyph glyph-name="edotaccent" unicode="&#x117;" horiz-adv-x="1996" 
d="M772 1245v373h451v-373h-451zM1020 -27c-294 0 -522.83 51.668 -686.497 155.001s-245.5 248.333 -245.5 435c0 182 81.5 325.833 244.5 431.5s387.5 158.5 673.5 158.5c185.333 0 346 -22.333 482 -67s240.5 -109.667 313.5 -195s109.5 -186.333 109.5 -303
c0 -49.333 -3.33301 -90.333 -10 -123h-1375c23.333 -66.667 75.166 -115.834 155.499 -147.501s193.166 -47.5 338.499 -47.5c138.667 0 244.167 9.66699 316.5 29s117.833 49.333 136.5 90l434 -76c-48.667 -118.667 -141.834 -205 -279.501 -259s-340.167 -81 -607.5 -81
zM1008 868.001c-140 0 -248.002 -14 -324.002 -42s-126.667 -72.667 -152 -134h934c-25.333 62.667 -74.166 107.667 -146.499 135s-176.166 41 -311.499 41z" />
    <glyph glyph-name="Eogonek" unicode="&#x118;" horiz-adv-x="2148" 
d="M217 0v1434h1806v-322h-1366v-221h1223v-320h-1223v-249h1381v-322c-67.333 -4.66699 -124.5 -10.5 -171.5 -17.5s-83 -15.333 -108 -25s-42.667 -19.5 -53 -29.5s-15.5 -21.333 -15.5 -34c0 -34.667 35.333 -52 106 -52c68 0 148.667 13.667 242 41l-8 -286
c-100 -32 -197.667 -48 -293 -48c-136 0 -237 19.167 -303 57.5s-99 97.166 -99 176.499c0 90.667 46.667 163 140 217h-1258z" />
    <glyph glyph-name="eogonek" unicode="&#x119;" horiz-adv-x="1996" 
d="M1896 -403c-102.667 -32 -205.663 -48 -308.996 -48c-124.667 0 -220 19.5 -286 58.5s-99 97.5 -99 175.5c0 86.667 46.333 155 139 205c-92 -10 -199 -15 -321 -15c-294 0 -522.833 51.667 -686.5 155s-245.5 248.333 -245.5 435c0 182 81.5 325.833 244.5 431.5
s387.5 158.5 673.5 158.5c185.333 0 346 -22.333 482 -67s240.5 -109.667 313.5 -195s109.5 -186.333 109.5 -303c0 -49.333 -3.33301 -90.333 -10 -123h-1375c23.333 -66.667 75.166 -115.834 155.499 -147.501s193.166 -47.5 338.499 -47.5
c138.667 0 244.167 9.66699 316.5 29s117.833 49.333 136.5 90l434 -76c-24 -51.333 -52.5 -98.5 -85.5 -141.5s-64.333 -77.5 -94 -103.5s-57.834 -49.5 -84.501 -70.5s-47.834 -40.167 -63.501 -57.5s-23.5 -33.666 -23.5 -48.999c0 -32.667 35.667 -49 107 -49
c70 0 150.667 13.667 242 41zM1008 868c-140 0 -248.001 -14 -324.001 -42s-126.667 -72.667 -152 -134h936c-25.333 62.667 -74.166 107.667 -146.499 135s-176.833 41 -313.5 41z" />
    <glyph glyph-name="Ecaron" unicode="&#x11a;" horiz-adv-x="2148" 
d="M1735 1884l-361 -332h-518l-346 332h338l282 -147l271 147h334zM217 0v1434h1806v-322h-1366v-221h1223v-320h-1223v-249h1381v-322h-1821z" />
    <glyph glyph-name="ecaron" unicode="&#x11b;" horiz-adv-x="1996" 
d="M1610 1577l-361 -332h-518l-346 332h338l283 -147l270 147h334zM1020 -27c-294 0 -522.83 51.668 -686.497 155.001s-245.5 248.333 -245.5 435c0 182 81.5 325.833 244.5 431.5s387.5 158.5 673.5 158.5c185.333 0 346 -22.333 482 -67s240.5 -109.667 313.5 -195
s109.5 -186.333 109.5 -303c0 -49.333 -3.33301 -90.333 -10 -123h-1375c23.333 -66.667 75.166 -115.834 155.499 -147.501s193.166 -47.5 338.499 -47.5c138.667 0 244.167 9.66699 316.5 29s117.833 49.333 136.5 90l434 -76
c-48.667 -118.667 -141.834 -205 -279.501 -259s-340.167 -81 -607.5 -81zM1008 868.001c-140 0 -248.002 -14 -324.002 -42s-126.667 -72.667 -152 -134h934c-25.333 62.667 -74.166 107.667 -146.499 135s-176.166 41 -311.499 41z" />
    <glyph glyph-name="Gcircumflex" unicode="&#x11c;" horiz-adv-x="2476" 
d="M1487 1552l-283 148l-268 -148h-336l361 332h518l346 -332h-338zM96 715c0 237.333 98.835 420.831 296.502 550.498s479.167 194.5 844.5 194.5c591.333 0 938.666 -150.667 1042 -452l-473 -97c-30.667 68.667 -91.334 119.334 -182.001 152.001s-219.667 49 -387 49
c-232 0 -403 -32.5 -513 -97.5s-165 -164.833 -165 -299.5c0 -133.333 54.833 -232.166 164.5 -296.499s280.834 -96.5 513.501 -96.5c169.333 0 303.166 15.5 401.499 46.5s164.5 78.167 198.5 141.5h-641v299h1118v-809h-350l-39 229
c-140.667 -170.667 -394.667 -256 -762 -256c-338.667 0 -601.167 64.833 -787.5 194.5s-279.5 312.167 -279.5 547.5z" />
    <glyph glyph-name="gcircumflex" unicode="&#x11d;" horiz-adv-x="1970" 
d="M1212 1245l-282 148l-268 -148h-336l360 332h518l346 -332h-338zM930 1153c284 0 494.999 -38.3359 632.999 -115.003c39.333 60.667 91.833 104.334 157.5 131.001s138.5 33.667 218.5 21l-18 -332c-67.333 15.333 -137 20 -209 14c9.33301 -25.333 14 -53.333 14 -84
c0 -116.667 -68.167 -206.167 -204.5 -268.5s-333.5 -93.5 -591.5 -93.5c-124.667 0 -230.667 6.66699 -318 20c-61.333 -10 -92 -33.667 -92 -71c0 -51.333 50.667 -78 152 -80l676 -8c366.667 -6 550 -110.667 550 -314c0 -140 -78.833 -243.167 -236.5 -309.5
s-403.5 -99.5 -737.5 -99.5c-302 0 -525 22.833 -669 68.5s-216 115.5 -216 209.5c0 58.667 23.5 105.5 70.5 140.5s119.167 59.167 216.5 72.5c-68.667 17.333 -122.5 45.833 -161.5 85.5s-58.5 85.834 -58.5 138.501c0 120.667 83.333 198.334 250 233.001
c-147.333 62 -221 154 -221 276c0 116.667 68.333 206.667 205 270s333.334 95 590.001 95zM1290 787.997c0 82 -120 123 -360 123c-239.333 0 -359 -41 -359 -123c0 -41.333 29.167 -71.666 87.5 -90.999s148.833 -29 271.5 -29c124 0 215 9.66699 273 29
s87 49.666 87 90.999zM624.999 -0.00292969c-88.667 0 -133 -28 -133 -84c0 -38 33.5 -64.833 100.5 -80.5s179.5 -23.5 337.5 -23.5c137.333 0 246 4.83301 326 14.5s134.667 23 164 40s44 38.833 44 65.5c0 45.333 -43 68 -129 68h-710z" />
    <glyph glyph-name="Gbreve" unicode="&#x11e;" horiz-adv-x="2476" 
d="M1409 1884h344c0 -234.667 -178.667 -352 -536 -352c-363.333 0 -545 117.333 -545 352h344c0 -87.333 67 -131 201 -131c128 0 192 43.667 192 131zM96 715c0 237.333 98.835 420.831 296.502 550.498s479.167 194.5 844.5 194.5c591.333 0 938.666 -150.667 1042 -452
l-473 -97c-30.667 68.667 -91.334 119.334 -182.001 152.001s-219.667 49 -387 49c-232 0 -403 -32.5 -513 -97.5s-165 -164.833 -165 -299.5c0 -133.333 54.833 -232.166 164.5 -296.499s280.834 -96.5 513.501 -96.5c169.333 0 303.166 15.5 401.499 46.5
s164.5 78.167 198.5 141.5h-641v299h1118v-809h-350l-39 229c-140.667 -170.667 -394.667 -256 -762 -256c-338.667 0 -601.167 64.833 -787.5 194.5s-279.5 312.167 -279.5 547.5z" />
    <glyph glyph-name="gbreve" unicode="&#x11f;" horiz-adv-x="1970" 
d="M1135 1577h344c0 -234.667 -179 -352 -537 -352c-363.333 0 -545 117.333 -545 352h344c0 -87.333 67 -131 201 -131c128.667 0 193 43.667 193 131zM930 1153c284 0 494.999 -38.3359 632.999 -115.003c39.333 60.667 91.833 104.334 157.5 131.001
s138.5 33.667 218.5 21l-18 -332c-67.333 15.333 -137 20 -209 14c9.33301 -25.333 14 -53.333 14 -84c0 -116.667 -68.167 -206.167 -204.5 -268.5s-333.5 -93.5 -591.5 -93.5c-124.667 0 -230.667 6.66699 -318 20c-61.333 -10 -92 -33.667 -92 -71
c0 -51.333 50.667 -78 152 -80l676 -8c366.667 -6 550 -110.667 550 -314c0 -140 -78.833 -243.167 -236.5 -309.5s-403.5 -99.5 -737.5 -99.5c-302 0 -525 22.833 -669 68.5s-216 115.5 -216 209.5c0 58.667 23.5 105.5 70.5 140.5s119.167 59.167 216.5 72.5
c-68.667 17.333 -122.5 45.833 -161.5 85.5s-58.5 85.834 -58.5 138.501c0 120.667 83.333 198.334 250 233.001c-147.333 62 -221 154 -221 276c0 116.667 68.333 206.667 205 270s333.334 95 590.001 95zM1290 787.997c0 82 -120 123 -360 123
c-239.333 0 -359 -41 -359 -123c0 -41.333 29.167 -71.666 87.5 -90.999s148.833 -29 271.5 -29c124 0 215 9.66699 273 29s87 49.666 87 90.999zM624.999 -0.00292969c-88.667 0 -133 -28 -133 -84c0 -38 33.5 -64.833 100.5 -80.5s179.5 -23.5 337.5 -23.5
c137.333 0 246 4.83301 326 14.5s134.667 23 164 40s44 38.833 44 65.5c0 45.333 -43 68 -129 68h-710z" />
    <glyph glyph-name="Gdotaccent" unicode="&#x120;" horiz-adv-x="2476" 
d="M987 1552v373h451v-373h-451zM96 715c0 237.333 98.835 420.831 296.502 550.498s479.167 194.5 844.5 194.5c591.333 0 938.666 -150.667 1042 -452l-473 -97c-30.667 68.667 -91.334 119.334 -182.001 152.001s-219.667 49 -387 49c-232 0 -403 -32.5 -513 -97.5
s-165 -164.833 -165 -299.5c0 -133.333 54.833 -232.166 164.5 -296.499s280.834 -96.5 513.501 -96.5c169.333 0 303.166 15.5 401.499 46.5s164.5 78.167 198.5 141.5h-641v299h1118v-809h-350l-39 229c-140.667 -170.667 -394.667 -256 -762 -256
c-338.667 0 -601.167 64.833 -787.5 194.5s-279.5 312.167 -279.5 547.5z" />
    <glyph glyph-name="gdotaccent" unicode="&#x121;" horiz-adv-x="1970" 
d="M709 1245v373h450v-373h-450zM930 1153c284 0 494.999 -38.3359 632.999 -115.003c39.333 60.667 91.833 104.334 157.5 131.001s138.5 33.667 218.5 21l-18 -332c-67.333 15.333 -137 20 -209 14c9.33301 -25.333 14 -53.333 14 -84
c0 -116.667 -68.167 -206.167 -204.5 -268.5s-333.5 -93.5 -591.5 -93.5c-124.667 0 -230.667 6.66699 -318 20c-61.333 -10 -92 -33.667 -92 -71c0 -51.333 50.667 -78 152 -80l676 -8c366.667 -6 550 -110.667 550 -314c0 -140 -78.833 -243.167 -236.5 -309.5
s-403.5 -99.5 -737.5 -99.5c-302 0 -525 22.833 -669 68.5s-216 115.5 -216 209.5c0 58.667 23.5 105.5 70.5 140.5s119.167 59.167 216.5 72.5c-68.667 17.333 -122.5 45.833 -161.5 85.5s-58.5 85.834 -58.5 138.501c0 120.667 83.333 198.334 250 233.001
c-147.333 62 -221 154 -221 276c0 116.667 68.333 206.667 205 270s333.334 95 590.001 95zM1290 787.997c0 82 -120 123 -360 123c-239.333 0 -359 -41 -359 -123c0 -41.333 29.167 -71.666 87.5 -90.999s148.833 -29 271.5 -29c124 0 215 9.66699 273 29
s87 49.666 87 90.999zM624.999 -0.00292969c-88.667 0 -133 -28 -133 -84c0 -38 33.5 -64.833 100.5 -80.5s179.5 -23.5 337.5 -23.5c137.333 0 246 4.83301 326 14.5s134.667 23 164 40s44 38.833 44 65.5c0 45.333 -43 68 -129 68h-710z" />
    <glyph glyph-name="Gcommaaccent" unicode="&#x122;" horiz-adv-x="2476" 
d="M96 715c0 237.333 98.835 420.831 296.502 550.498s479.167 194.5 844.5 194.5c591.333 0 938.666 -150.667 1042 -452l-473 -97c-30.667 68.667 -91.334 119.334 -182.001 152.001s-219.667 49 -387 49c-232 0 -403 -32.5 -513 -97.5s-165 -164.833 -165 -299.5
c0 -133.333 54.833 -232.166 164.5 -296.499s280.834 -96.5 513.501 -96.5c169.333 0 303.166 15.5 401.499 46.5s164.5 78.167 198.5 141.5h-641v299h1118v-809h-350l-39 229c-140.667 -170.667 -394.667 -256 -762 -256c-338.667 0 -601.167 64.833 -787.5 194.5
s-279.5 312.167 -279.5 547.5zM774.002 -410.002l164 293h498l-322 -293h-340z" />
    <glyph glyph-name="gcommaaccent" unicode="&#x123;" horiz-adv-x="1970" 
d="M1405 1552l-231 -307h-508l399 307h340zM930 1153c284 0 494.999 -38.3359 632.999 -115.003c39.333 60.667 91.833 104.334 157.5 131.001s138.5 33.667 218.5 21l-18 -332c-67.333 15.333 -137 20 -209 14c9.33301 -25.333 14 -53.333 14 -84
c0 -116.667 -68.167 -206.167 -204.5 -268.5s-333.5 -93.5 -591.5 -93.5c-124.667 0 -230.667 6.66699 -318 20c-61.333 -10 -92 -33.667 -92 -71c0 -51.333 50.667 -78 152 -80l676 -8c366.667 -6 550 -110.667 550 -314c0 -140 -78.833 -243.167 -236.5 -309.5
s-403.5 -99.5 -737.5 -99.5c-302 0 -525 22.833 -669 68.5s-216 115.5 -216 209.5c0 58.667 23.5 105.5 70.5 140.5s119.167 59.167 216.5 72.5c-68.667 17.333 -122.5 45.833 -161.5 85.5s-58.5 85.834 -58.5 138.501c0 120.667 83.333 198.334 250 233.001
c-147.333 62 -221 154 -221 276c0 116.667 68.333 206.667 205 270s333.334 95 590.001 95zM1290 787.997c0 82 -120 123 -360 123c-239.333 0 -359 -41 -359 -123c0 -41.333 29.167 -71.666 87.5 -90.999s148.833 -29 271.5 -29c124 0 215 9.66699 273 29
s87 49.666 87 90.999zM624.999 -0.00292969c-88.667 0 -133 -28 -133 -84c0 -38 33.5 -64.833 100.5 -80.5s179.5 -23.5 337.5 -23.5c137.333 0 246 4.83301 326 14.5s134.667 23 164 40s44 38.833 44 65.5c0 45.333 -43 68 -129 68h-710z" />
    <glyph glyph-name="Hcircumflex" unicode="&#x124;" horiz-adv-x="2523" 
d="M1542 1552l-282 148l-269 -148h-336l361 332h518l346 -332h-338zM217 0v1434h453v-527h1181v527h455v-1434h-455v559h-1181v-559h-453z" />
    <glyph glyph-name="hcircumflex" unicode="&#x125;" horiz-adv-x="2052" 
d="M1071 1655l-283 147l-268 -147h-336l361 332h518l346 -332h-338zM184 0l0.000976562 1536h432v-641c72.667 80.667 164.5 143.834 275.5 189.501s232.167 68.5 363.5 68.5c205.333 0 361.166 -45.333 467.499 -136s159.5 -222.667 159.5 -396v-621h-432v535
c0 92 -28.167 162 -84.5 210s-139.5 72 -249.5 72c-156.667 0 -279.167 -34.333 -367.5 -103s-132.5 -164 -132.5 -286v-428h-432z" />
    <glyph glyph-name="Hbar" unicode="&#x126;" horiz-adv-x="2523" 
d="M217 0v1083h-203v164h203v187h453v-187h1181v187h455v-187h203v-164h-203v-1083h-455v559h-1181v-559h-453zM670 907h1181v176h-1181v-176z" />
    <glyph glyph-name="hbar" unicode="&#x127;" horiz-adv-x="2052" 
d="M184 0l0.000976562 1233h-184v164h184v139h432v-139h474v-164h-474v-379c72.667 80.667 164.5 143.834 275.5 189.501s232.167 68.5 363.5 68.5c205.333 0 361.166 -45.333 467.499 -136s159.5 -222.667 159.5 -396v-580h-432v494c0 92 -28.167 162 -84.5 210
s-139.5 72 -249.5 72c-156.667 0 -279.167 -34.333 -367.5 -103s-132.5 -164 -132.5 -286v-387h-432z" />
    <glyph glyph-name="Itilde" unicode="&#x128;" horiz-adv-x="888" 
d="M965 1898c9.33301 -124.667 -11.168 -217.167 -61.501 -277.5s-124.166 -90.5 -221.499 -90.5c-56 0 -112.833 10.333 -170.5 31s-109 41.167 -154 61.5s-80.167 30.5 -105.5 30.5c-22 0 -38.167 -8.83301 -48.5 -26.5s-13.833 -42.5 -10.5 -74.5h-273
c-10 126 11 219.667 63 281s128.667 92 230 92c38 0 79.333 -6.66699 124 -20s83.5 -27.833 116.5 -43.5s66.333 -30.167 100 -43.5s60.167 -20 79.5 -20c22 0 38.167 8.66699 48.5 26s13.833 42 10.5 74h273zM216.999 0v1434h453v-1434h-453z" />
    <glyph glyph-name="itilde" unicode="&#x129;" 
d="M920 1591c9.33301 -124.667 -11.167 -217.169 -61.5 -277.502s-124.166 -90.5 -221.499 -90.5c-44 0 -89.167 6.33301 -135.5 19s-85.166 26.834 -116.499 42.501s-63.5 29.834 -96.5 42.501s-60.167 19 -81.5 19c-22 0 -38.333 -8.83301 -49 -26.5
s-14.334 -42.5 -11.001 -74.5h-272c-10 126 11 219.667 63 281s128.667 92 230 92c48 0 100.667 -10.667 158 -32s109.666 -42.5 156.999 -63.5s82.333 -31.5 105 -31.5c22 0 38.167 8.66699 48.5 26s13.833 42 10.5 74h273zM184 -0.00195312v1126h432v-1126h-432z" />
    <glyph glyph-name="Imacron" unicode="&#x12a;" horiz-adv-x="888" 
d="M-86 1554v275h1061v-275h-1061zM217 0v1434h453v-1434h-453z" />
    <glyph glyph-name="imacron" unicode="&#x12b;" 
d="M-131 1247v275h1061v-275h-1061zM184 0v1126h432v-1126h-432z" />
    <glyph glyph-name="Ibreve" unicode="&#x12c;" horiz-adv-x="888" 
d="M641 1884h344c0 -234.667 -178.667 -352 -536 -352c-363.333 0 -545 117.333 -545 352h344c0 -87.333 67 -131 201 -131c128 0 192 43.667 192 131zM217 0v1434h453v-1434h-453z" />
    <glyph glyph-name="ibreve" unicode="&#x12d;" 
d="M596 1577h344c0 -234.667 -179 -352 -537 -352c-362.667 0 -544 117.333 -544 352h344c0 -87.333 66.667 -131 200 -131c128.667 0 193 43.667 193 131zM184 0v1126h432v-1126h-432z" />
    <glyph glyph-name="Iogonek" unicode="&#x12e;" horiz-adv-x="888" 
d="M23 -201c0 116 64.668 199.332 194.001 249.999v1385h453v-1434c-75.333 -5.33301 -135 -12.666 -179 -21.999s-74 -20 -90 -32s-24 -26.667 -24 -44c0 -40 44.333 -60 133 -60c71.333 0 147.666 13.667 228.999 41l-8 -286c-99.333 -32 -205 -48 -317 -48
c-126 0 -222.667 21.167 -290 63.5s-101 104.5 -101 186.5z" />
    <glyph glyph-name="iogonek" unicode="&#x12f;" 
d="M184 1245v318h432v-318h-432zM-33 -209c0 116 72.332 202 216.999 258v1077h432v-1126c-56 -4 -104.167 -10.167 -144.5 -18.5s-70.666 -18 -90.999 -29s-34.833 -21.667 -43.5 -32s-13 -20.833 -13 -31.5c0 -31.333 37.333 -47 112 -47c72 0 154.667 13.667 248 41
l-8 -286c-102 -32 -210.667 -48 -326 -48c-123.333 0 -218 20.333 -284 61s-99 101 -99 181z" />
    <glyph glyph-name="Idotaccent" unicode="&#x130;" horiz-adv-x="888" 
d="M219 1552v373h451v-373h-451zM217 0v1434h453v-1434h-453z" />
    <glyph glyph-name="dotlessi" unicode="&#x131;" 
d="M184 0v1126h432v-1126h-432z" />
    <glyph glyph-name="IJ" unicode="&#x132;" horiz-adv-x="2336" 
d="M217 0v1434h453v-1434h-453zM2144 633c0 -156 -25.332 -281.499 -75.999 -376.499s-133.167 -166 -247.5 -213s-266.5 -70.5 -456.5 -70.5c-136.667 0 -264.334 11 -383.001 33l-14 346c118 -14.667 234 -22 348 -22c142 0 240.333 21.667 295 65s82 117.666 82 222.999
v816h452v-801z" />
    <glyph glyph-name="ij" unicode="&#x133;" horiz-adv-x="1597" 
d="M184 1245v318h432v-318h-432zM983 1245v318h432v-318h-432zM184 0v1126h432v-1126h-432zM983 76v1050h432v-1024c0 -192.667 -42.833 -330.5 -128.5 -413.5s-224.5 -124.5 -416.5 -124.5c-86 0 -170 6 -252 18l-14 314c66 -8.66699 119.333 -13 160 -13
c82 0 139 14.167 171 42.5s48 78.5 48 150.5z" />
    <glyph glyph-name="Jcircumflex" unicode="&#x134;" horiz-adv-x="1449" 
d="M1303 1552l-283 148l-268 -148h-336l360 332h518l346 -332h-337zM1255 633c0 -156 -25.332 -281.499 -75.999 -376.499s-133.167 -166 -247.5 -213s-266.5 -70.5 -456.5 -70.5c-136.667 0 -264.334 11 -383.001 33l-14 346c118 -14.667 234 -22 348 -22
c142 0 240.333 21.667 295 65s82 117.666 82 222.999v816h452v-801z" />
    <glyph glyph-name="jcircumflex" unicode="&#x135;" 
d="M674 1245l-283 148l-268 -148h-336l360 332h519l346 -332h-338zM184 76v1050h432v-1024c0 -192.667 -42.667 -330.5 -128 -413.5s-224 -124.5 -416 -124.5c-86 0 -170 6 -252 18l-15 314c66 -8.66699 119.333 -13 160 -13c82 0 139 14.167 171 42.5s48 78.5 48 150.5z
" />
    <glyph glyph-name="Kcommaaccent" unicode="&#x136;" horiz-adv-x="2314" 
d="M217 0v1434h451v-617l936 617h665l-1022 -662l1096 -772h-723l-750 528l-202 -131v-397h-451zM741 -410l164 293h498l-322 -293h-340z" />
    <glyph glyph-name="kcommaaccent" unicode="&#x137;" horiz-adv-x="1898" 
d="M184 0v1536h430v-831l639 421h613l-781 -489l818 -637h-623l-530 422l-136 -90v-332h-430zM575 -410l164 293h498l-322 -293h-340z" />
    <glyph glyph-name="kgreenlandic" unicode="&#x138;" horiz-adv-x="1898" 
d="M184 0v1126h430v-421l639 421h613l-781 -489l818 -637h-623l-530 422l-136 -90v-332h-430z" />
    <glyph glyph-name="Lacute" unicode="&#x139;" horiz-adv-x="1898" 
d="M254 1552l358 332h570l-543 -332h-385zM217 0v1434h453v-1086h1140v-348h-1593z" />
    <glyph glyph-name="lacute" unicode="&#x13a;" 
d="M209 1655l358 332h570l-543 -332h-385zM616 0h-432v1536h432v-1536z" />
    <glyph glyph-name="Lcommaaccent" unicode="&#x13b;" horiz-adv-x="1898" 
d="M217 0v1434h453v-1086h1140v-348h-1593zM606 -410l164 293h498l-322 -293h-340z" />
    <glyph glyph-name="lcommaaccent" unicode="&#x13c;" 
d="M616 0h-432v1536h432v-1536zM-16 -410l163 293h498l-321 -293h-340z" />
    <glyph glyph-name="Lcaron" unicode="&#x13d;" horiz-adv-x="1898" 
d="M217 0v1434h453v-1086h1140v-348h-1593zM991 979v455h395l-122 -455h-273z" />
    <glyph glyph-name="lcaron" unicode="&#x13e;" horiz-adv-x="1075" 
d="M616 0h-432v1536h432v-1536zM799 1081v455h395l-123 -455h-272z" />
    <glyph glyph-name="Ldot" unicode="&#x13f;" horiz-adv-x="1898" 
d="M217 0v1434h453v-1086h1140v-348h-1593zM1159 641v381h467v-381h-467z" />
    <glyph glyph-name="ldot" unicode="&#x140;" horiz-adv-x="1277" 
d="M616 0h-432v1536h432v-1536zM805 594v381h467v-381h-467z" />
    <glyph glyph-name="Lslash" unicode="&#x141;" horiz-adv-x="1933" 
d="M252 0v590l-246 -74v199l246 73v646h453v-512l434 129v-197l-434 -129v-377h1140v-348h-1593z" />
    <glyph glyph-name="lslash" unicode="&#x142;" horiz-adv-x="921" 
d="M14 524v199l230 65v748h432v-623l231 68v-199l-231 -67v-715h-432v590z" />
    <glyph glyph-name="Nacute" unicode="&#x143;" horiz-adv-x="2463" 
d="M1049 1552l358 332h569l-542 -332h-385zM217 0v1434h438l1166 -975v975h426v-1434h-439l-1165 975v-975h-426z" />
    <glyph glyph-name="nacute" unicode="&#x144;" horiz-adv-x="2052" 
d="M836 1245l358 332h569l-542 -332h-385zM184 0v1126h389l31 -243c72 84.667 164.833 150.834 278.5 198.501s237.834 71.5 372.501 71.5c205.333 0 361.166 -45.333 467.499 -136s159.5 -222.667 159.5 -396v-621h-432v535c0 92 -28.167 162 -84.5 210
s-139.5 72 -249.5 72c-156.667 0 -279.167 -34.333 -367.5 -103s-132.5 -164 -132.5 -286v-428h-432z" />
    <glyph glyph-name="Ncommaaccent" unicode="&#x145;" horiz-adv-x="2463" 
d="M217 0v1434h438l1166 -975v975h426v-1434h-439l-1165 975v-975h-426zM823 -410l164 293h498l-322 -293h-340z" />
    <glyph glyph-name="ncommaaccent" unicode="&#x146;" horiz-adv-x="2052" 
d="M184 0v1126h389l31 -243c72 84.667 164.833 150.834 278.5 198.501s237.834 71.5 372.501 71.5c205.333 0 361.166 -45.333 467.499 -136s159.5 -222.667 159.5 -396v-621h-432v535c0 92 -28.167 162 -84.5 210s-139.5 72 -249.5 72
c-156.667 0 -279.167 -34.333 -367.5 -103s-132.5 -164 -132.5 -286v-428h-432zM637 -410.001l164 293h497l-321 -293h-340z" />
    <glyph glyph-name="Ncaron" unicode="&#x147;" horiz-adv-x="2463" 
d="M1851 1884l-360 -332h-518l-346 332h338l282 -147l271 147h333zM217 0v1434h438l1166 -975v975h426v-1434h-439l-1165 975v-975h-426z" />
    <glyph glyph-name="ncaron" unicode="&#x148;" horiz-adv-x="2052" 
d="M1638 1577l-360 -332h-518l-346 332h338l282 -147l271 147h333zM184 0v1126h389l31 -243c72 84.667 164.833 150.834 278.5 198.501s237.834 71.5 372.501 71.5c205.333 0 361.166 -45.333 467.499 -136s159.5 -222.667 159.5 -396v-621h-432v535
c0 92 -28.167 162 -84.5 210s-139.5 72 -249.5 72c-156.667 0 -279.167 -34.333 -367.5 -103s-132.5 -164 -132.5 -286v-428h-432z" />
    <glyph glyph-name="napostrophe" unicode="&#x149;" horiz-adv-x="2052" 
d="M184 1245l164 293h498l-322 -293h-340zM184 0v1126h389l31 -243c72 84.667 164.833 150.834 278.5 198.501s237.834 71.5 372.501 71.5c205.333 0 361.166 -45.333 467.499 -136s159.5 -222.667 159.5 -396v-621h-432v535c0 92 -28.167 162 -84.5 210
s-139.5 72 -249.5 72c-156.667 0 -279.167 -34.333 -367.5 -103s-132.5 -164 -132.5 -286v-428h-432z" />
    <glyph glyph-name="Eng" unicode="&#x14a;" horiz-adv-x="2463" 
d="M217 0l0.000976562 1434h438l1166 -967v967h426v-1233c0 -155.333 -24.833 -278.833 -74.5 -370.5s-130 -159 -241 -202s-261.167 -64.5 -450.5 -64.5c-136 0 -258.333 10 -367 30l-14 334c133.333 -16 246.666 -24 339.999 -24c98.667 0 175.5 9.66699 230.5 29
s94.167 50.666 117.5 93.999l-1145 950v-977h-426z" />
    <glyph glyph-name="eng" unicode="&#x14b;" horiz-adv-x="2052" 
d="M184 0v1126h389l31 -243c72 84.667 164.833 150.834 278.5 198.501s237.834 71.5 372.501 71.5c205.333 0 361.166 -45.333 467.499 -136s159.5 -222.667 159.5 -396v-519c0 -193.333 -42.5 -331.333 -127.5 -414s-223.5 -124 -415.5 -124c-87.333 0 -172 6 -254 18
l-12 314c66 -8.66699 119.333 -13 160 -13c80.667 0 137 14.333 169 43s48 78.667 48 150v459c0 92 -28.167 162 -84.5 210s-139.5 72 -249.5 72c-156.667 0 -279.167 -34.333 -367.5 -103s-132.5 -164 -132.5 -286v-428h-432z" />
    <glyph glyph-name="Omacron" unicode="&#x14c;" horiz-adv-x="2465" 
d="M702 1554v275h1061v-275h-1061zM1233 -27c-363.333 0 -643.666 64.833 -840.999 194.5s-296 312.167 -296 547.5c0 237.333 98.667 420.833 296 550.5s477.666 194.5 840.999 194.5s643.666 -64.833 840.999 -194.5s296 -313.167 296 -550.5
c0 -235.333 -98.667 -417.833 -296 -547.5s-477.666 -194.5 -840.999 -194.5zM1233 322c230.667 0 400.667 32.167 510 96.5s164 163.166 164 296.499c0 134.667 -54.667 234.5 -164 299.5s-279.333 97.5 -510 97.5s-400.667 -32.5 -510 -97.5s-164 -164.833 -164 -299.5
c0 -133.333 54.667 -232.166 164 -296.499s279.333 -96.5 510 -96.5z" />
    <glyph glyph-name="omacron" unicode="&#x14d;" horiz-adv-x="2029" 
d="M485 1247v275h1061v-275h-1061zM1016 -27c-296 0 -524.667 51.333 -686 154s-242 248 -242 436s80.667 333.333 242 436s390 154 686 154c296.667 0 525.167 -51.333 685.5 -154s240.5 -248 240.5 -436c0 -190 -79.667 -335.833 -239 -437.5s-388.333 -152.5 -687 -152.5
zM1016 289c168.667 0 291.334 21.833 368.001 65.5s115 113.167 115 208.5s-38.333 165 -115 209s-199.334 66 -368.001 66s-291.834 -22 -369.501 -66s-116.5 -113.667 -116.5 -209s38.833 -164.833 116.5 -208.5s200.834 -65.5 369.501 -65.5z" />
    <glyph glyph-name="Obreve" unicode="&#x14e;" horiz-adv-x="2465" 
d="M1430 1884h344c0 -234.667 -179 -352 -537 -352c-363.333 0 -545 117.333 -545 352h344c0 -87.333 67 -131 201 -131c128.667 0 193 43.667 193 131zM1233 -27c-363.333 0 -643.666 64.833 -840.999 194.5s-296 312.167 -296 547.5c0 237.333 98.667 420.833 296 550.5
s477.666 194.5 840.999 194.5s643.666 -64.833 840.999 -194.5s296 -313.167 296 -550.5c0 -235.333 -98.667 -417.833 -296 -547.5s-477.666 -194.5 -840.999 -194.5zM1233 322c230.667 0 400.667 32.167 510 96.5s164 163.166 164 296.499
c0 134.667 -54.667 234.5 -164 299.5s-279.333 97.5 -510 97.5s-400.667 -32.5 -510 -97.5s-164 -164.833 -164 -299.5c0 -133.333 54.667 -232.166 164 -296.499s279.333 -96.5 510 -96.5z" />
    <glyph glyph-name="obreve" unicode="&#x14f;" horiz-adv-x="2029" 
d="M1212 1577h344c0 -234.667 -178.667 -352 -536 -352c-363.333 0 -545 117.333 -545 352h344c0 -87.333 67 -131 201 -131c128 0 192 43.667 192 131zM1016 -27c-296 0 -524.667 51.333 -686 154s-242 248 -242 436s80.667 333.333 242 436s390 154 686 154
c296.667 0 525.167 -51.333 685.5 -154s240.5 -248 240.5 -436c0 -190 -79.667 -335.833 -239 -437.5s-388.333 -152.5 -687 -152.5zM1016 289c168.667 0 291.334 21.833 368.001 65.5s115 113.167 115 208.5s-38.333 165 -115 209s-199.334 66 -368.001 66
s-291.834 -22 -369.501 -66s-116.5 -113.667 -116.5 -209s38.833 -164.833 116.5 -208.5s200.834 -65.5 369.501 -65.5z" />
    <glyph glyph-name="Ohungarumlaut" unicode="&#x150;" horiz-adv-x="2465" 
d="M764 1552l231 332h484l-371 -332h-344zM1331 1552l232 332h483l-371 -332h-344zM1233 -27c-363.333 0 -643.666 64.833 -840.999 194.5s-296 312.167 -296 547.5c0 237.333 98.667 420.833 296 550.5s477.666 194.5 840.999 194.5s643.666 -64.833 840.999 -194.5
s296 -313.167 296 -550.5c0 -235.333 -98.667 -417.833 -296 -547.5s-477.666 -194.5 -840.999 -194.5zM1233 322c230.667 0 400.667 32.167 510 96.5s164 163.166 164 296.499c0 134.667 -54.667 234.5 -164 299.5s-279.333 97.5 -510 97.5s-400.667 -32.5 -510 -97.5
s-164 -164.833 -164 -299.5c0 -133.333 54.667 -232.166 164 -296.499s279.333 -96.5 510 -96.5z" />
    <glyph glyph-name="ohungarumlaut" unicode="&#x151;" horiz-adv-x="2029" 
d="M547 1245l231 332h484l-371 -332h-344zM1114 1245l232 332h483l-371 -332h-344zM1016 -27c-296 0 -524.667 51.333 -686 154s-242 248 -242 436s80.667 333.333 242 436s390 154 686 154c296.667 0 525.167 -51.333 685.5 -154s240.5 -248 240.5 -436
c0 -190 -79.667 -335.833 -239 -437.5s-388.333 -152.5 -687 -152.5zM1016 289c168.667 0 291.334 21.833 368.001 65.5s115 113.167 115 208.5s-38.333 165 -115 209s-199.334 66 -368.001 66s-291.834 -22 -369.501 -66s-116.5 -113.667 -116.5 -209
s38.833 -164.833 116.5 -208.5s200.834 -65.5 369.501 -65.5z" />
    <glyph glyph-name="OE" unicode="&#x152;" horiz-adv-x="3608" 
d="M96 715c0 229.333 99.667 406.5 299 531.5s483.333 187.5 852 187.5h2235v-322h-1278v-221h1134v-320h-1134v-249h1292v-322h-2249c-368 -0 -651.833 62.333 -851.5 187s-299.5 300.667 -299.5 528zM1247 322l516 -0.000976562v790h-516
c-236 0 -409.667 -32.333 -521 -97s-167 -164.667 -167 -300c0 -133.333 55.833 -232.166 167.5 -296.499s285.167 -96.5 520.5 -96.5z" />
    <glyph glyph-name="oe" unicode="&#x153;" horiz-adv-x="3411" 
d="M1012 -27c-294.667 0 -522.334 51.334 -683.001 154.001s-241 248 -241 436s80.333 333.333 241 436s388.334 154 683.001 154c317.333 0 557 -62 719 -186c170.667 124 404 186 700 186c276.667 0 495 -50.167 655 -150.5s240 -238.5 240 -414.5
c0 -50.667 -4 -91.667 -12 -123h-1358c23.333 -66.667 74.833 -115.834 154.5 -147.501s191.167 -47.5 334.5 -47.5c258.667 0 406.334 39.667 443 119l434 -76c-48 -119.333 -140.5 -205.833 -277.5 -259.5s-336.833 -80.5 -599.5 -80.5c-309.333 0 -547.333 61 -714 183
c-167.333 -122 -407 -183 -719 -183zM2431 868.001c-134.667 0 -239.167 -13.5 -313.5 -40.5s-124.833 -70.167 -151.5 -129.5h911c-30 64.667 -81 109.167 -153 133.5s-169.667 36.5 -293 36.5zM1012 289.001c168 0 290.167 21.833 366.5 65.5s114.5 113.167 114.5 208.5
s-38.333 165 -115 209s-198.667 66 -366 66s-289.5 -22 -366.5 -66s-115.5 -113.667 -115.5 -209s38.333 -164.833 115 -208.5s199 -65.5 367 -65.5z" />
    <glyph glyph-name="Racute" unicode="&#x154;" horiz-adv-x="2254" 
d="M938 1552l358 332h570l-543 -332h-385zM217 0v1434h1301c190 0 335.667 -42.167 437 -126.5s152 -199.833 152 -346.5c0 -126.667 -42 -231.834 -126 -315.501s-202.333 -133.5 -355 -149.5l553 -496h-592l-489 451h-428v-451h-453zM1436 1104l-766 -0.000976562v-322
h766c143.333 0 215 53.333 215 160c0 54.667 -17.5 95.334 -52.5 122.001s-89.167 40 -162.5 40z" />
    <glyph glyph-name="racute" unicode="&#x155;" horiz-adv-x="1398" 
d="M516 1245l358 332h570l-543 -332h-385zM184 0l-0.000976562 1126h396l30 -276c72.667 94.667 166.834 168.834 282.501 222.501s242.167 80.5 379.5 80.5c29.333 0 59.333 -2.66699 90 -8l-14 -402c-61.333 16.667 -132.333 25 -213 25c-164 0 -291.5 -33 -382.5 -99
s-136.5 -158.667 -136.5 -278v-391h-432z" />
    <glyph glyph-name="Rcommaaccent" unicode="&#x156;" horiz-adv-x="2254" 
d="M217 0v1434h1301c190 0 335.667 -42.167 437 -126.5s152 -199.833 152 -346.5c0 -126.667 -42 -231.834 -126 -315.501s-202.333 -133.5 -355 -149.5l553 -496h-592l-489 451h-428v-451h-453zM1436 1104l-766 -0.000976562v-322h766c143.333 0 215 53.333 215 160
c0 54.667 -17.5 95.334 -52.5 122.001s-89.167 40 -162.5 40zM713 -410l164 293h497l-321 -293h-340z" />
    <glyph glyph-name="rcommaaccent" unicode="&#x157;" horiz-adv-x="1398" 
d="M184 0l-0.000976562 1126h396l30 -276c72.667 94.667 166.834 168.834 282.501 222.501s242.167 80.5 379.5 80.5c29.333 0 59.333 -2.66699 90 -8l-14 -402c-61.333 16.667 -132.333 25 -213 25c-164 0 -291.5 -33 -382.5 -99s-136.5 -158.667 -136.5 -278v-391h-432z
M-16.001 -410.001l163 293h498l-321 -293h-340z" />
    <glyph glyph-name="Rcaron" unicode="&#x158;" horiz-adv-x="2254" 
d="M1741 1884l-361 -332h-518l-346 332h338l283 -147l270 147h334zM217 0v1434h1301c190 0 335.667 -42.167 437 -126.5s152 -199.833 152 -346.5c0 -126.667 -42 -231.834 -126 -315.501s-202.333 -133.5 -355 -149.5l553 -496h-592l-489 451h-428v-451h-453zM1436 1104
l-766 -0.000976562v-322h766c143.333 0 215 53.333 215 160c0 54.667 -17.5 95.334 -52.5 122.001s-89.167 40 -162.5 40z" />
    <glyph glyph-name="rcaron" unicode="&#x159;" horiz-adv-x="1398" 
d="M1339 1577l-360 -332h-518l-346 332h338l282 -147l271 147h333zM184 0l-0.000976562 1126h396l30 -276c72.667 94.667 166.834 168.834 282.501 222.501s242.167 80.5 379.5 80.5c29.333 0 59.333 -2.66699 90 -8l-14 -402c-61.333 16.667 -132.333 25 -213 25
c-164 0 -291.5 -33 -382.5 -99s-136.5 -158.667 -136.5 -278v-391h-432z" />
    <glyph glyph-name="Sacute" unicode="&#x15a;" horiz-adv-x="2254" 
d="M924 1552l358 332h569l-542 -332h-385zM86 418l474.997 71c26 -66 84 -114.833 174 -146.5s221 -47.5 393 -47.5c142.667 0 256.334 4.66699 341.001 14s144.334 23 179.001 41s52 41.333 52 70c0 27.333 -7.66699 48.333 -23 63s-44.833 26.5 -88.5 35.5
s-108.834 15.833 -195.501 20.5l-641 24c-416.667 24 -625 163.333 -625 418c0 155.333 83.167 274 249.5 356s415.5 123 747.5 123c292.667 0 521.334 -34.833 686.001 -104.5s268.667 -174.834 312.001 -315.501l-475 -71c-24 59.333 -77 102.5 -159 129.5
s-204.667 40.5 -368 40.5c-134.667 0 -241.167 -4.66699 -319.5 -14s-133 -22.666 -164 -39.999s-46.5 -40.333 -46.5 -69c0 -36.667 19.5 -63.167 58.5 -79.5s112.833 -27.5 221.5 -33.5l668 -24c415.333 -26 623 -164.667 623 -416c0 -326.667 -345.667 -490 -1037 -490
c-602.667 0 -948.667 148.333 -1038 445z" />
    <glyph glyph-name="sacute" unicode="&#x15b;" horiz-adv-x="1857" 
d="M731 1245l359 332h569l-543 -332h-385zM920 887c-140.667 0 -242.171 -7.33496 -304.504 -22.002s-93.5 -38 -93.5 -70c0 -25.333 17 -43.333 51 -54s97.667 -18 191 -22l422 -14c212.667 -10 365.834 -40.667 459.501 -92s140.5 -128.666 140.5 -231.999
c0 -272 -295 -408 -885 -408c-255.333 0 -447.666 26.5 -576.999 79.5s-217.666 140.5 -264.999 262.5l428 68c16.667 -48.667 57.667 -84 123 -106s161 -33 287 -33c168 0 286.833 6.83301 356.5 20.5s104.5 36.167 104.5 67.5c0 26 -14 44.833 -42 56.5
s-79.667 18.834 -155 21.501l-424 16c-219.333 8 -379.666 40.5 -480.999 97.5s-152 139.833 -152 248.5c0 121.333 70 215.166 210 281.499s341.333 99.5 604 99.5c254 0 446.5 -25.333 577.5 -76s218.167 -132.667 261.5 -246l-414 -67
c-16.667 44.667 -56 76.334 -118 95.001s-163.667 28 -305 28z" />
    <glyph glyph-name="Scircumflex" unicode="&#x15c;" horiz-adv-x="2254" 
d="M1389 1552l-283 148l-268 -148h-336l360 332h518l346 -332h-337zM86 418l474.997 71c26 -66 84 -114.833 174 -146.5s221 -47.5 393 -47.5c142.667 0 256.334 4.66699 341.001 14s144.334 23 179.001 41s52 41.333 52 70c0 27.333 -7.66699 48.333 -23 63
s-44.833 26.5 -88.5 35.5s-108.834 15.833 -195.501 20.5l-641 24c-416.667 24 -625 163.333 -625 418c0 155.333 83.167 274 249.5 356s415.5 123 747.5 123c292.667 0 521.334 -34.833 686.001 -104.5s268.667 -174.834 312.001 -315.501l-475 -71
c-24 59.333 -77 102.5 -159 129.5s-204.667 40.5 -368 40.5c-134.667 0 -241.167 -4.66699 -319.5 -14s-133 -22.666 -164 -39.999s-46.5 -40.333 -46.5 -69c0 -36.667 19.5 -63.167 58.5 -79.5s112.833 -27.5 221.5 -33.5l668 -24c415.333 -26 623 -164.667 623 -416
c0 -326.667 -345.667 -490 -1037 -490c-602.667 0 -948.667 148.333 -1038 445z" />
    <glyph glyph-name="scircumflex" unicode="&#x15d;" horiz-adv-x="1857" 
d="M1204 1245l-282 148l-269 -148h-336l361 332h518l346 -332h-338zM920 887c-140.667 0 -242.171 -7.33496 -304.504 -22.002s-93.5 -38 -93.5 -70c0 -25.333 17 -43.333 51 -54s97.667 -18 191 -22l422 -14c212.667 -10 365.834 -40.667 459.501 -92
s140.5 -128.666 140.5 -231.999c0 -272 -295 -408 -885 -408c-255.333 0 -447.666 26.5 -576.999 79.5s-217.666 140.5 -264.999 262.5l428 68c16.667 -48.667 57.667 -84 123 -106s161 -33 287 -33c168 0 286.833 6.83301 356.5 20.5s104.5 36.167 104.5 67.5
c0 26 -14 44.833 -42 56.5s-79.667 18.834 -155 21.501l-424 16c-219.333 8 -379.666 40.5 -480.999 97.5s-152 139.833 -152 248.5c0 121.333 70 215.166 210 281.499s341.333 99.5 604 99.5c254 0 446.5 -25.333 577.5 -76s218.167 -132.667 261.5 -246l-414 -67
c-16.667 44.667 -56 76.334 -118 95.001s-163.667 28 -305 28z" />
    <glyph glyph-name="Scedilla" unicode="&#x15e;" horiz-adv-x="2254" 
d="M86 418l474.997 71c26 -66 84 -114.833 174 -146.5s221 -47.5 393 -47.5c142.667 0 256.334 4.66699 341.001 14s144.334 23 179.001 41s52 41.333 52 70c0 27.333 -7.66699 48.333 -23 63s-44.833 26.5 -88.5 35.5s-108.834 15.833 -195.501 20.5l-641 24
c-416.667 24 -625 163.333 -625 418c0 155.333 83.167 274 249.5 356s415.5 123 747.5 123c292.667 0 521.334 -34.833 686.001 -104.5s268.667 -174.834 312 -315.501l-475 -71c-24 59.333 -77 102.5 -159 129.5s-204.667 40.5 -368 40.5
c-134.667 0 -241.167 -4.66699 -319.5 -14s-133 -22.666 -164 -39.999s-46.5 -40.333 -46.5 -69c0 -36.667 19.5 -63.167 58.5 -79.5s112.833 -27.5 221.5 -33.5l668 -24c415.333 -26 623 -164.667 623 -416c0 -300.667 -291.667 -462.667 -875 -486l-10 -59
c50.667 8 102.667 12 156 12c202 0 303 -57.333 303 -172c0 -69.333 -40 -121.5 -120 -156.5s-210.667 -52.5 -392 -52.5c-137.333 0 -268.666 15 -393.999 45l11 166c141.333 -27.333 254.666 -41 339.999 -41c51.333 0 90.833 2 118.5 6s45.834 9.16699 54.501 15.5
s13 15.166 13 26.499c0 24 -24.667 36 -74 36c-38 0 -68.667 -7.33301 -92 -22l-246 22l31 172c-516 22.667 -815.667 170.334 -899 443.001z" />
    <glyph glyph-name="scedilla" unicode="&#x15f;" horiz-adv-x="1857" 
d="M920 887c-140.667 0 -242.167 -7.33398 -304.5 -22.001s-93.5 -38 -93.5 -70c0 -25.333 17 -43.333 51 -54s97.667 -18 191 -22l422 -14c212.667 -10 365.834 -40.667 459.501 -92s140.5 -128.666 140.5 -231.999c0 -246.667 -244.333 -381.334 -733 -404.001l-11 -59
c50.667 8 102.667 12 156 12c202 0 303 -57.333 303 -172c0 -69.333 -40 -121.5 -120 -156.5s-210.667 -52.5 -392 -52.5c-136.667 0 -267.667 15 -393 45l10 166c141.333 -27.333 254.666 -41 339.999 -41c51.333 0 90.833 2 118.5 6s46 9.16699 55 15.5
s13.5 15.166 13.5 26.499c0 24 -24.667 36 -74 36c-38 0 -68.667 -7.33301 -92 -22l-246 22l31 174c-204 8.66699 -359.833 39.834 -467.5 93.501s-182.834 135.167 -225.501 244.5l428 68c16.667 -48.667 57.667 -84 123 -106s161 -33 287 -33
c168 0 286.833 6.83301 356.5 20.5s104.5 36.167 104.5 67.5c0 26 -14 44.833 -42 56.5s-79.667 18.834 -155 21.501l-424 16c-219.333 8 -379.666 40.5 -480.999 97.5s-152 139.833 -152 248.5c0 121.333 70 215.166 210 281.499s341.333 99.5 604 99.5
c254 0 446.5 -25.333 577.5 -76s218.167 -132.667 261.5 -246l-414 -67c-16.667 44.667 -56 76.334 -118 95.001s-163.667 28 -305 28z" />
    <glyph glyph-name="Scaron" unicode="&#x160;" horiz-adv-x="2254" 
d="M1726 1884l-360 -332h-518l-346 332h338l282 -147l271 147h333zM86 418l474.997 71c26 -66 84 -114.833 174 -146.5s221 -47.5 393 -47.5c142.667 0 256.334 4.66699 341.001 14s144.334 23 179.001 41s52 41.333 52 70c0 27.333 -7.66699 48.333 -23 63
s-44.833 26.5 -88.5 35.5s-108.834 15.833 -195.501 20.5l-641 24c-416.667 24 -625 163.333 -625 418c0 155.333 83.167 274 249.5 356s415.5 123 747.5 123c292.667 0 521.334 -34.833 686.001 -104.5s268.667 -174.834 312.001 -315.501l-475 -71
c-24 59.333 -77 102.5 -159 129.5s-204.667 40.5 -368 40.5c-134.667 0 -241.167 -4.66699 -319.5 -14s-133 -22.666 -164 -39.999s-46.5 -40.333 -46.5 -69c0 -36.667 19.5 -63.167 58.5 -79.5s112.833 -27.5 221.5 -33.5l668 -24c415.333 -26 623 -164.667 623 -416
c0 -326.667 -345.667 -490 -1037 -490c-602.667 0 -948.667 148.333 -1038 445z" />
    <glyph glyph-name="scaron" unicode="&#x161;" horiz-adv-x="1857" 
d="M1542 1577l-360 -332h-518l-347 332h338l283 -147l270 147h334zM920 887c-140.667 0 -242.171 -7.33496 -304.504 -22.002s-93.5 -38 -93.5 -70c0 -25.333 17 -43.333 51 -54s97.667 -18 191 -22l422 -14c212.667 -10 365.834 -40.667 459.501 -92
s140.5 -128.666 140.5 -231.999c0 -272 -295 -408 -885 -408c-255.333 0 -447.666 26.5 -576.999 79.5s-217.666 140.5 -264.999 262.5l428 68c16.667 -48.667 57.667 -84 123 -106s161 -33 287 -33c168 0 286.833 6.83301 356.5 20.5s104.5 36.167 104.5 67.5
c0 26 -14 44.833 -42 56.5s-79.667 18.834 -155 21.501l-424 16c-219.333 8 -379.666 40.5 -480.999 97.5s-152 139.833 -152 248.5c0 121.333 70 215.166 210 281.499s341.333 99.5 604 99.5c254 0 446.5 -25.333 577.5 -76s218.167 -132.667 261.5 -246l-414 -67
c-16.667 44.667 -56 76.334 -118 95.001s-163.667 28 -305 28z" />
    <glyph glyph-name="uni0162" unicode="&#x162;" horiz-adv-x="2101" 
d="M823 0v1085h-766v349h1985v-349h-766v-1085h-453zM635 -410l164 293h497l-321 -293h-340z" />
    <glyph glyph-name="uni0163" unicode="&#x163;" horiz-adv-x="1513" 
d="M281 492l-0.00195312 325h-261v309h156c26 0 47.333 1 64 3s32.167 7.16699 46.5 15.5s25.5 18.5 33.5 30.5s15.833 30 23.5 54s13.834 50.5 18.501 79.5s9.66699 67.167 15 114.5h336v-297h700v-309h-700v-295c0 -88.667 21 -148 63 -178s123.333 -45 244 -45
c142 0 277.667 14.333 407 43l-12 -322c-66.667 -14 -146.334 -25.333 -239.001 -34s-178 -13 -256 -13c-113.333 0 -209.166 8.83301 -287.499 26.5s-144.166 47 -197.499 88s-92.333 94.5 -117 160.5s-37 147.333 -37 244zM405.998 -410l163 293h498l-322 -293h-339z" />
    <glyph glyph-name="Tcaron" unicode="&#x164;" horiz-adv-x="2101" 
d="M1663 1884l-360 -332h-519l-346 332h338l283 -147l270 147h334zM823 0v1085h-766v349h1985v-349h-766v-1085h-453z" />
    <glyph glyph-name="tcaron" unicode="&#x165;" horiz-adv-x="1513" 
d="M825 1225v454h396l-123 -454h-273zM281 492l-0.00195312 325h-261v309h156c26 0 47.333 1 64 3s32.167 7.16699 46.5 15.5s25.5 18.5 33.5 30.5s15.833 30 23.5 54s13.834 50.5 18.501 79.5s9.66699 67.167 15 114.5h336v-297h700v-309h-700v-295
c0 -88.667 21 -148 63 -178s123.333 -45 244 -45c142 0 277.667 14.333 407 43l-12 -322c-66.667 -14 -146.334 -25.333 -239.001 -34s-178 -13 -256 -13c-113.333 0 -209.166 8.83301 -287.499 26.5s-144.166 47 -197.499 88s-92.333 94.5 -117 160.5s-37 147.333 -37 244z
" />
    <glyph glyph-name="Tbar" unicode="&#x166;" horiz-adv-x="2101" 
d="M428 569v164h395v352h-766v349h1985v-349h-766v-352h393v-164h-393v-569h-453v569h-395z" />
    <glyph glyph-name="tbar" unicode="&#x167;" horiz-adv-x="1513" 
d="M41 479l-0.000976562 164.001h240v174h-261v309h156c26 0 47.333 1 64 3s32.167 7.16699 46.5 15.5s25.5 18.5 33.5 30.5s15.833 30 23.5 54s13.834 50.5 18.501 79.5s9.66699 67.167 15 114.5h336v-297h700v-309h-700v-174h514v-164h-512
c4.66699 -70.667 28.834 -118.334 72.501 -143.001s121.167 -37 232.5 -37c142 0 277.667 14.333 407 43l-12 -322c-66.667 -14 -146.334 -25.333 -239.001 -34s-178 -13 -256 -13c-226 0 -389 38.167 -489 114.5s-150 206.833 -150 391.5h-240z" />
    <glyph glyph-name="Utilde" unicode="&#x168;" horiz-adv-x="2351" 
d="M1696 1898c9.33301 -124.667 -11.168 -217.167 -61.501 -277.5s-124.166 -90.5 -221.499 -90.5c-56 0 -112.833 10.333 -170.5 31s-109 41.167 -154 61.5s-80.167 30.5 -105.5 30.5c-22 0 -38.167 -8.83301 -48.5 -26.5s-13.833 -42.5 -10.5 -74.5h-273
c-10 126 11 219.667 63 281s128.667 92 230 92c38 0 79.333 -6.66699 124 -20s83.5 -27.833 116.5 -43.5s66.333 -30.167 100 -43.5s60.167 -20 79.5 -20c22 0 38.167 8.66699 48.5 26s13.833 42 10.5 74h273zM2177 739c0 -246 -86.5 -435.167 -259.5 -567.5
s-420.833 -198.5 -743.5 -198.5c-322 0 -569.5 66.167 -742.5 198.5s-259.5 321.5 -259.5 567.5v695h455v-680c0 -148.667 44 -257.834 132 -327.501s226.333 -104.5 415 -104.5c189.333 0 328.333 34.833 417 104.5s133 178.834 133 327.501v680h453v-695z" />
    <glyph glyph-name="utilde" unicode="&#x169;" horiz-adv-x="1990" 
d="M1516 1591c9.33301 -124.667 -11.167 -217.169 -61.5 -277.502s-124.166 -90.5 -221.499 -90.5c-44 0 -89.167 6.33301 -135.5 19s-85.166 26.834 -116.499 42.501s-63.5 29.834 -96.5 42.501s-60.167 19 -81.5 19c-22 0 -38.333 -8.83301 -49 -26.5
s-14.334 -42.5 -11.001 -74.5h-272c-10 126 11 219.667 63 281s128.667 92 230 92c48 0 100.667 -10.667 158 -32s109.666 -42.5 156.999 -63.5s82.333 -31.5 105 -31.5c22 0 38.167 8.66699 48.5 26s13.833 42 10.5 74h273zM1374 697.998v428h432v-1126h-389l-31 242
c-69.333 -84 -158.166 -149.833 -266.499 -197.5s-226.833 -71.5 -355.5 -71.5c-194 0 -341.5 45.667 -442.5 137s-151.5 224 -151.5 398v618h432v-540c0 -90 24.667 -158.333 74 -205s121.666 -70 216.999 -70c150.667 0 268.5 34 353.5 102s127.5 163 127.5 285z" />
    <glyph glyph-name="Umacron" unicode="&#x16a;" horiz-adv-x="2351" 
d="M645 1554v275h1061v-275h-1061zM2177 739c0 -246 -86.5 -435.167 -259.5 -567.5s-420.833 -198.5 -743.5 -198.5c-322 0 -569.5 66.167 -742.5 198.5s-259.5 321.5 -259.5 567.5v695h455v-680c0 -148.667 44 -257.834 132 -327.501s226.333 -104.5 415 -104.5
c189.333 0 328.333 34.833 417 104.5s133 178.834 133 327.501v680h453v-695z" />
    <glyph glyph-name="umacron" unicode="&#x16b;" horiz-adv-x="1990" 
d="M465 1247v275h1061v-275h-1061zM1374 698v428h432v-1126h-389l-31 242c-69.333 -84 -158.166 -149.833 -266.499 -197.5s-226.833 -71.5 -355.5 -71.5c-194 0 -341.5 45.667 -442.5 137s-151.5 224 -151.5 398v618h432v-540c0 -90 24.667 -158.333 74 -205
s121.666 -70 216.999 -70c150.667 0 268.5 34 353.5 102s127.5 163 127.5 285z" />
    <glyph glyph-name="Ubreve" unicode="&#x16c;" horiz-adv-x="2351" 
d="M1372 1884h344c0 -234.667 -178.667 -352 -536 -352c-363.333 0 -545 117.333 -545 352h344c0 -87.333 67 -131 201 -131c128 0 192 43.667 192 131zM2177 739c0 -246 -86.5 -435.167 -259.5 -567.5s-420.833 -198.5 -743.5 -198.5c-322 0 -569.5 66.167 -742.5 198.5
s-259.5 321.5 -259.5 567.5v695h455v-680c0 -148.667 44 -257.834 132 -327.501s226.333 -104.5 415 -104.5c189.333 0 328.333 34.833 417 104.5s133 178.834 133 327.501v680h453v-695z" />
    <glyph glyph-name="ubreve" unicode="&#x16d;" horiz-adv-x="1990" 
d="M1192 1577h344c0 -234.667 -179 -352 -537 -352c-362.667 0 -544 117.333 -544 352h344c0 -87.333 66.667 -131 200 -131c128.667 0 193 43.667 193 131zM1374 698v428h432v-1126h-389l-31 242c-69.333 -84 -158.166 -149.833 -266.499 -197.5
s-226.833 -71.5 -355.5 -71.5c-194 0 -341.5 45.667 -442.5 137s-151.5 224 -151.5 398v618h432v-540c0 -90 24.667 -158.333 74 -205s121.666 -70 216.999 -70c150.667 0 268.5 34 353.5 102s127.5 163 127.5 285z" />
    <glyph glyph-name="Uring" unicode="&#x16e;" horiz-adv-x="2351" 
d="M1178 1524c-120 0 -212.831 22.167 -278.498 66.5s-98.5 106.833 -98.5 187.5c0 80 32.833 141.667 98.5 185s158.5 65 278.5 65c119.333 0 211.166 -21.667 275.499 -65s96.5 -105 96.5 -185c0 -81.333 -32.333 -144 -97 -188s-156.334 -66 -275.001 -66zM1178 1677
c113.333 0 170 33.667 170 101c0 64 -56.667 96 -170 96c-116 0 -174 -32 -174 -96c0 -67.333 58 -101 174 -101zM2177 739c0 -246 -86.5 -435.167 -259.5 -567.5s-420.833 -198.5 -743.5 -198.5c-322 0 -569.5 66.167 -742.5 198.5s-259.5 321.5 -259.5 567.5v695h455v-680
c0 -148.667 44 -257.834 132 -327.501s226.333 -104.5 415 -104.5c189.333 0 328.333 34.833 417 104.5s133 178.834 133 327.501v680h453v-695z" />
    <glyph glyph-name="uring" unicode="&#x16f;" horiz-adv-x="1990" 
d="M997 1217c-120 0 -212.667 22 -278 66s-98 106.333 -98 187c0 80 32.667 141.667 98 185s158 65 278 65c119.333 0 211.333 -21.667 276 -65s97 -105 97 -185c0 -80.667 -32.333 -143 -97 -187s-156.667 -66 -276 -66zM997 1370c113.333 0 170 33.333 170 100
c0 64.667 -56.667 97 -170 97c-116 0 -174 -32.333 -174 -97c0 -66.667 58 -100 174 -100zM1374 698v428h432v-1126h-389l-31 242c-69.333 -84 -158.166 -149.833 -266.499 -197.5s-226.833 -71.5 -355.5 -71.5c-194 0 -341.5 45.667 -442.5 137s-151.5 224 -151.5 398v618
h432v-540c0 -90 24.667 -158.333 74 -205s121.666 -70 216.999 -70c150.667 0 268.5 34 353.5 102s127.5 163 127.5 285z" />
    <glyph glyph-name="Uhungarumlaut" unicode="&#x170;" horiz-adv-x="2351" 
d="M707 1552l231 332h483l-370 -332h-344zM1274 1552l231 332h484l-371 -332h-344zM2177 739c0 -246 -86.5 -435.167 -259.5 -567.5s-420.833 -198.5 -743.5 -198.5c-322 0 -569.5 66.167 -742.5 198.5s-259.5 321.5 -259.5 567.5v695h455v-680
c0 -148.667 44 -257.834 132 -327.501s226.333 -104.5 415 -104.5c189.333 0 328.333 34.833 417 104.5s133 178.834 133 327.501v680h453v-695z" />
    <glyph glyph-name="uhungarumlaut" unicode="&#x171;" horiz-adv-x="1990" 
d="M526 1245l232 332h483l-371 -332h-344zM1094 1245l231 332h483l-370 -332h-344zM1374 698v428h432v-1126h-389l-31 242c-69.333 -84 -158.166 -149.833 -266.499 -197.5s-226.833 -71.5 -355.5 -71.5c-194 0 -341.5 45.667 -442.5 137s-151.5 224 -151.5 398v618h432
v-540c0 -90 24.667 -158.333 74 -205s121.666 -70 216.999 -70c150.667 0 268.5 34 353.5 102s127.5 163 127.5 285z" />
    <glyph glyph-name="Uogonek" unicode="&#x172;" horiz-adv-x="2351" 
d="M1315 -451c-122.667 0 -216.501 19.499 -281.501 58.499s-97.5 96.833 -97.5 173.5c0 80.667 38.333 146 115 196c-283.333 16.667 -500.666 90.5 -651.999 221.5s-227 311.167 -227 540.5v695h455v-680c0 -148.667 44 -257.834 132 -327.501s226.333 -104.5 415 -104.5
c189.333 0 328.333 34.833 417 104.5s133 178.834 133 327.501v680h453v-695c0 -157.333 -36.167 -292 -108.5 -404s-178.833 -197.667 -319.5 -257c-38 -17.333 -86.667 -34.166 -146 -50.499s-110.333 -29.333 -153 -39s-80 -22.667 -112 -39s-48 -34.833 -48 -55.5
c0 -18.667 8 -32 24 -40s41.667 -12 77 -12c70 0 151.667 13.667 245 41l-8 -286c-94.667 -32 -199 -48 -313 -48z" />
    <glyph glyph-name="uogonek" unicode="&#x173;" horiz-adv-x="1990" 
d="M1106 -217c0 64 23.1689 119.334 69.502 166.001s124.166 85.667 233.499 117l-23 176c-69.333 -84 -158.166 -149.833 -266.499 -197.5s-226.833 -71.5 -355.5 -71.5c-194 0 -341.5 45.667 -442.5 137s-151.5 224 -151.5 398v618h432v-540
c0 -90 24.667 -158.333 74 -205s121.666 -70 216.999 -70c150.667 0 268.5 34 353.5 102s127.5 163 127.5 285v428h432v-1124l2 -2c-67.333 -4.66699 -124.5 -10.5 -171.5 -17.5s-83 -15.333 -108 -25s-42.667 -19.5 -53 -29.5s-15.5 -21.333 -15.5 -34
c0 -34.667 35.667 -52 107 -52c67.333 0 147.666 13.667 240.999 41l-8 -286c-100 -32 -197.667 -48 -293 -48c-136 0 -236.833 19.167 -302.5 57.5s-98.5 97.166 -98.5 176.499z" />
    <glyph glyph-name="Wcircumflex" unicode="&#x174;" horiz-adv-x="3086" 
d="M1819 1552l-283 148l-268 -148h-336l360 332h518l347 -332h-338zM637 0l-633 1434h485l400 -961l436 961h436l453 -947l391 947h479l-630 -1434h-435l-479 999l-473 -999h-430z" />
    <glyph glyph-name="wcircumflex" unicode="&#x175;" horiz-adv-x="2678" 
d="M1614 1245l-283 148l-268 -148h-336l360 332h519l346 -332h-338zM586 0l-582 1126h469l332 -696l348 696h395l369 -686l313 686h447l-563 -1126h-377l-385 731l-387 -731h-379z" />
    <glyph glyph-name="Ycircumflex" unicode="&#x176;" horiz-adv-x="2091" 
d="M1321 1552l-283 148l-268 -148h-336l361 332h518l346 -332h-338zM823 0v543l-850 891h592l494 -533l502 533h557l-842 -889v-545h-453z" />
    <glyph glyph-name="ycircumflex" unicode="&#x177;" horiz-adv-x="1777" 
d="M1163 1245l-282 148l-269 -148h-336l361 332h518l346 -332h-338zM1305 1126l468.999 0.000976562l-650 -1106c-72 -120.667 -139.333 -212.834 -202 -276.501s-133.167 -109.5 -211.5 -137.5s-176.5 -42 -294.5 -42c-99.333 0 -190.333 12.333 -273 37l-16 309
c88.667 -12.667 161.667 -19 219 -19c92 0 161.833 10 209.5 30s91.834 60.667 132.501 122l-684 1083h496l420 -708z" />
    <glyph glyph-name="Ydieresis" unicode="&#x178;" horiz-adv-x="2091" 
d="M1143 1552v332h469v-332h-469zM481 1552v332h469v-332h-469zM823 0v543l-850 891h592l494 -533l502 533h557l-842 -889v-545h-453z" />
    <glyph glyph-name="Zacute" unicode="&#x179;" horiz-adv-x="2125" 
d="M866 1552l359 332h569l-543 -332h-385zM100 0v309l1203 791h-1184v334h1906v-293l-1232 -809h1232v-332h-1925z" />
    <glyph glyph-name="zacute" unicode="&#x17a;" horiz-adv-x="1812" 
d="M715 1245l358 332h569l-542 -332h-385zM111 0v297l948 532h-940v297h1583v-297l-948 -532h952v-297h-1595z" />
    <glyph glyph-name="Zdotaccent" unicode="&#x17b;" horiz-adv-x="2125" 
d="M838 1552v373h450v-373h-450zM100 0v309l1203 791h-1184v334h1906v-293l-1232 -809h1232v-332h-1925z" />
    <glyph glyph-name="zdotaccent" unicode="&#x17c;" horiz-adv-x="1812" 
d="M680 1245v373h450v-373h-450zM111 0v297l948 532h-940v297h1583v-297l-948 -532h952v-297h-1595z" />
    <glyph glyph-name="Zcaron" unicode="&#x17d;" horiz-adv-x="2125" 
d="M1675 1884l-360 -332h-518l-346 332h337l283 -147l270 147h334zM100 0v309l1203 791h-1184v334h1906v-293l-1232 -809h1232v-332h-1925z" />
    <glyph glyph-name="zcaron" unicode="&#x17e;" horiz-adv-x="1812" 
d="M1518 1577l-361 -332h-518l-346 332h338l282 -147l271 147h334zM111 0v297l948 532h-940v297h1583v-297l-948 -532h952v-297h-1595z" />
    <glyph glyph-name="uni0191" unicode="&#x191;" horiz-adv-x="2111" 
d="M217 1434h1806v-349h-1353v-274h1210v-346h-1210v-256c0 -214 -55.167 -375 -165.5 -483s-279.166 -162 -506.499 -162c-80 0 -176.333 11 -289 33l-14 346c94.667 -15.333 170.334 -23 227.001 -23c107.333 0 183.333 21.167 228 63.5s67 117.5 67 225.5v1225z" />
    <glyph glyph-name="uni0192" unicode="&#x192;" horiz-adv-x="1394" 
d="M313 76v741h-282v309h282c7.33301 149.333 65.5 259.5 174.5 330.5s274.833 106.5 497.5 106.5c124 0 253 -11.667 387 -35l-14 -291c-109.333 16.667 -218 25 -326 25c-102 0 -173.5 -9.83301 -214.5 -29.5s-64.167 -55.167 -69.5 -106.5h618v-309h-621v-715
c0 -193.333 -42.333 -331.333 -127 -414s-223 -124 -415 -124c-85.333 0 -170 6 -254 18l-12 314c66 -8.66699 119 -13 159 -13c81.333 0 137.833 14.167 169.5 42.5s47.5 78.5 47.5 150.5z" />
    <glyph glyph-name="uni0218" unicode="&#x218;" horiz-adv-x="2254" 
d="M86 418l474.997 71c26 -66 84 -114.833 174 -146.5s221 -47.5 393 -47.5c142.667 0 256.334 4.66699 341.001 14s144.334 23 179.001 41s52 41.333 52 70c0 27.333 -7.66699 48.333 -23 63s-44.833 26.5 -88.5 35.5s-108.834 15.833 -195.501 20.5l-641 24
c-416.667 24 -625 163.333 -625 418c0 155.333 83.167 274 249.5 356s415.5 123 747.5 123c292.667 0 521.334 -34.833 686.001 -104.5s268.667 -174.834 312.001 -315.501l-475 -71c-24 59.333 -77 102.5 -159 129.5s-204.667 40.5 -368 40.5
c-134.667 0 -241.167 -4.66699 -319.5 -14s-133 -22.666 -164 -39.999s-46.5 -40.333 -46.5 -69c0 -36.667 19.5 -63.167 58.5 -79.5s112.833 -27.5 221.5 -33.5l668 -24c415.333 -26 623 -164.667 623 -416c0 -326.667 -345.667 -490 -1037 -490
c-602.667 0 -948.667 148.333 -1038 445zM724.997 -410l164 293h497l-321 -293h-340z" />
    <glyph glyph-name="uni0219" unicode="&#x219;" horiz-adv-x="1857" 
d="M920 887c-140.667 0 -242.171 -7.33496 -304.504 -22.002s-93.5 -38 -93.5 -70c0 -25.333 17 -43.333 51 -54s97.667 -18 191 -22l422 -14c212.667 -10 365.834 -40.667 459.501 -92s140.5 -128.666 140.5 -231.999c0 -272 -295 -408 -885 -408
c-255.333 0 -447.666 26.5 -576.999 79.5s-217.666 140.5 -264.999 262.5l428 68c16.667 -48.667 57.667 -84 123 -106s161 -33 287 -33c168 0 286.833 6.83301 356.5 20.5s104.5 36.167 104.5 67.5c0 26 -14 44.833 -42 56.5s-79.667 18.834 -155 21.501l-424 16
c-219.333 8 -379.666 40.5 -480.999 97.5s-152 139.833 -152 248.5c0 121.333 70 215.166 210 281.499s341.333 99.5 604 99.5c254 0 446.5 -25.333 577.5 -76s218.167 -132.667 261.5 -246l-414 -67c-16.667 44.667 -56 76.334 -118 95.001s-163.667 28 -305 28z
M519.996 -410.002l164 293h498l-322 -293h-340z" />
    <glyph glyph-name="uni021A" unicode="&#x21a;" horiz-adv-x="2101" 
d="M823 0v1085h-766v349h1985v-349h-766v-1085h-453zM635 -410l164 293h497l-321 -293h-340z" />
    <glyph glyph-name="uni021B" unicode="&#x21b;" horiz-adv-x="1513" 
d="M281 492l-0.00195312 325h-261v309h156c26 0 47.333 1 64 3s32.167 7.16699 46.5 15.5s25.5 18.5 33.5 30.5s15.833 30 23.5 54s13.834 50.5 18.501 79.5s9.66699 67.167 15 114.5h336v-297h700v-309h-700v-295c0 -88.667 21 -148 63 -178s123.333 -45 244 -45
c142 0 277.667 14.333 407 43l-12 -322c-66.667 -14 -146.334 -25.333 -239.001 -34s-178 -13 -256 -13c-113.333 0 -209.166 8.83301 -287.499 26.5s-144.166 47 -197.499 88s-92.333 94.5 -117 160.5s-37 147.333 -37 244zM405.998 -410l163 293h498l-322 -293h-339z" />
    <glyph glyph-name="dotlessj" unicode="&#x237;" 
d="M184 76v1050h432v-1024c0 -192.667 -42.667 -330.5 -128 -413.5s-224 -124.5 -416 -124.5c-86 0 -170 6 -252 18l-15 314c66 -8.66699 119.333 -13 160 -13c82 0 139 14.167 171 42.5s48 78.5 48 150.5z" />
    <glyph glyph-name="uni02BC" unicode="&#x2bc;" horiz-adv-x="825" 
d="M184 1434h458.998v-291c0 -163.333 -34.833 -280.166 -104.5 -350.499s-189.167 -107.833 -358.5 -112.5l-18 231c84.667 0 141.334 9.66699 170.001 29s44.334 59.666 47.001 120.999h-195v373z" />
    <glyph glyph-name="circumflex" unicode="&#x2c6;" horiz-adv-x="1024" 
d="M786 1245l-282 148l-268 -148h-336l360 332h518l346 -332h-338z" />
    <glyph glyph-name="caron" unicode="&#x2c7;" horiz-adv-x="1024" 
d="M1124 1577l-360 -332h-518l-346 332h338l282 -147l271 147h333z" />
    <glyph glyph-name="breve" unicode="&#x2d8;" horiz-adv-x="1024" 
d="M709 1577h344c0 -234.667 -179 -352 -537 -352c-363.333 0 -545 117.333 -545 352h344c0 -87.333 67 -131 201 -131c128.667 0 193 43.667 193 131z" />
    <glyph glyph-name="dotaccent" unicode="&#x2d9;" horiz-adv-x="1024" 
d="M287 1245v373h450v-373h-450z" />
    <glyph glyph-name="ring" unicode="&#x2da;" horiz-adv-x="1024" 
d="M514 1217c-120 0 -212.833 22 -278.5 66s-98.5 106.333 -98.5 187c0 80 32.833 141.667 98.5 185s158.5 65 278.5 65c119.333 0 211.333 -21.667 276 -65s97 -105 97 -185c0 -80.667 -32.333 -143 -97 -187s-156.667 -66 -276 -66zM514 1370
c113.333 0 170 33.333 170 100c0 64.667 -56.667 97 -170 97c-116 0 -174 -32.333 -174 -97c0 -66.667 58 -100 174 -100z" />
    <glyph glyph-name="ogonek" unicode="&#x2db;" horiz-adv-x="1024" 
d="M279 -217c0 41.333 9 78.333 27 111s48 63.5 90 92.5s100.167 54.333 174.5 76s164.833 39.834 271.5 54.501l139 -117c-67.333 -4.66699 -124.5 -10.5 -171.5 -17.5s-83 -15.333 -108 -25s-42.667 -19.5 -53 -29.5s-15.5 -21.333 -15.5 -34
c0 -34.667 35.333 -52 106 -52c68 0 148.667 13.667 242 41l-8 -286c-100 -32 -197.667 -48 -293 -48c-136 0 -236.833 19.167 -302.5 57.5s-98.5 97.166 -98.5 176.499z" />
    <glyph glyph-name="tilde" unicode="&#x2dc;" horiz-adv-x="1024" 
d="M1032 1591c9.33301 -124.667 -11.0029 -217.169 -61.0029 -277.502s-123.667 -90.5 -221 -90.5c-44 0 -89.167 6.33301 -135.5 19s-85.166 26.834 -116.499 42.501s-63.666 29.834 -96.999 42.501s-60.666 19 -81.999 19c-22 0 -38.167 -8.83301 -48.5 -26.5
s-13.833 -42.5 -10.5 -74.5h-272c-10 126 11 219.667 63 281s128.667 92 230 92c48 0 100.667 -10.667 158 -32s109.5 -42.5 156.5 -63.5s81.833 -31.5 104.5 -31.5s39.167 8.66699 49.5 26s13.833 42 10.5 74h272z" />
    <glyph glyph-name="hungarumlaut" unicode="&#x2dd;" horiz-adv-x="1024" 
d="M43 1245l231 332h484l-371 -332h-344zM610 1245l232 332h483l-371 -332h-344z" />
    <glyph glyph-name="pi" unicode="&#x3c0;" horiz-adv-x="2168" 
d="M47 829v297h2075v-297h-240v-829h-446v829h-711v-829h-444v829h-234z" />
    <glyph glyph-name="uni0400" unicode="&#x400;" horiz-adv-x="2148" 
d="M1333 1556h-385l-542 332h569zM217 0v1434h1806v-322h-1366v-221h1223v-320h-1223v-249h1381v-322h-1821z" />
    <glyph glyph-name="afii10023" unicode="&#x401;" horiz-adv-x="2148" 
d="M1221 1556v332h469v-332h-469zM559 1556v332h469v-332h-469zM217 0v1434h1806v-322h-1366v-221h1223v-320h-1223v-249h1381v-322h-1821z" />
    <glyph glyph-name="afii10051" unicode="&#x402;" horiz-adv-x="2799" 
d="M823 0v1085h-766v349h1985v-349h-766v-430c80.667 86 185 152.333 313 199s272.667 70 434 70c197.333 0 351.166 -40.333 461.5 -121c110.333 -80.667 165.5 -193.334 165.5 -338.001v-37c0 -303.333 -205.333 -455 -616 -455c-115.333 0 -221.333 11 -318 33l-14 301
c86 -14.667 174 -22 264 -22c156 0 234 47.667 234 143v16c0 112 -102.667 168 -308 168c-107.333 0 -208.333 -16.167 -303 -48.5s-170.5 -76 -227.5 -131s-85.5 -113.833 -85.5 -176.5v-256h-453z" />
    <glyph glyph-name="afii10052" unicode="&#x403;" horiz-adv-x="1945" 
d="M809 1563l358 331h570l-543 -331h-385zM217 0v1434h1657v-349h-1204v-1085h-453z" />
    <glyph glyph-name="afii10053" unicode="&#x404;" horiz-adv-x="2344" 
d="M96 717c0 234 98.168 416.333 294.501 547s471.833 196 826.5 196c292.667 0 527.167 -42 703.5 -126s288.5 -207.667 336.5 -371l-479 -95c-26.667 82.667 -85.5 144 -176.5 184s-219.167 60 -384.5 60c-340 0 -547.667 -76.333 -623 -229h932v-303h-944
c31.333 -87.333 99.166 -152.166 203.499 -194.499s248.166 -63.5 431.499 -63.5c169.333 0 299.833 20.5 391.5 61.5s148.834 104.167 171.501 189.5l473 -90c-48 -168.667 -159.333 -295.834 -334 -381.501s-408.667 -128.5 -702 -128.5c-358 0 -634.333 65.5 -829 196.5
s-292 313.5 -292 547.5z" />
    <glyph glyph-name="afii10054" unicode="&#x405;" horiz-adv-x="2254" 
d="M86 418l474.997 71c26 -66 84 -114.833 174 -146.5s221 -47.5 393 -47.5c142.667 0 256.334 4.66699 341.001 14s144.334 23 179.001 41s52 41.333 52 70c0 27.333 -7.66699 48.333 -23 63s-44.833 26.5 -88.5 35.5s-108.834 15.833 -195.501 20.5l-641 24
c-416.667 24 -625 163.333 -625 418c0 155.333 83.167 274 249.5 356s415.5 123 747.5 123c292.667 0 521.334 -34.833 686.001 -104.5s268.667 -174.834 312.001 -315.501l-475 -71c-24 59.333 -77 102.5 -159 129.5s-204.667 40.5 -368 40.5
c-134.667 0 -241.167 -4.66699 -319.5 -14s-133 -22.666 -164 -39.999s-46.5 -40.333 -46.5 -69c0 -36.667 19.5 -63.167 58.5 -79.5s112.833 -27.5 221.5 -33.5l668 -24c415.333 -26 623 -164.667 623 -416c0 -326.667 -345.667 -490 -1037 -490
c-602.667 0 -948.667 148.333 -1038 445z" />
    <glyph glyph-name="afii10055" unicode="&#x406;" horiz-adv-x="888" 
d="M217 0v1434h453v-1434h-453z" />
    <glyph glyph-name="afii10056" unicode="&#x407;" horiz-adv-x="888" 
d="M541 1552v332h469v-332h-469zM-121 1552v332h469v-332h-469zM217 0v1434h453v-1434h-453z" />
    <glyph glyph-name="afii10057" unicode="&#x408;" horiz-adv-x="1449" 
d="M1255 633c0 -156 -25.332 -281.499 -75.999 -376.499s-133.167 -166 -247.5 -213s-266.5 -70.5 -456.5 -70.5c-136.667 0 -264.334 11 -383.001 33l-14 346c118 -14.667 234 -22 348 -22c142 0 240.333 21.667 295 65s82 117.666 82 222.999v816h452v-801z" />
    <glyph glyph-name="afii10058" unicode="&#x409;" horiz-adv-x="3713" 
d="M0 348c70.667 2 129.665 12 176.998 30s85.333 48.333 114 91c38.667 56 63.667 129.667 75 221s21 258.666 29 501.999l8 242h1772v-418h879c178 0 319.667 -46 425 -138s158 -215.333 158 -370s-52.667 -278 -158 -370s-247 -138 -425 -138h-1332v1085h-876
c-4.66699 -128.667 -10.5 -233.5 -17.5 -314.5s-17.667 -159.167 -32 -234.5s-33.666 -139.166 -57.999 -191.499s-55.5 -100.833 -93.5 -145.5c-68 -80.667 -149.167 -138 -243.5 -172s-217.166 -49 -368.499 -45zM2978 682h-803v-348h803c136.667 0 205 58 205 174
s-68.333 174 -205 174z" />
    <glyph glyph-name="afii10059" unicode="&#x40a;" horiz-adv-x="3942" 
d="M217 0v1434h453v-502h1194v502h452v-500h973c175.333 0 315.5 -42.333 420.5 -127s157.5 -198 157.5 -340s-52.5 -255.333 -157.5 -340s-245.167 -127 -420.5 -127h-1425v586h-1194v-586h-453zM3219 604h-903v-274h903c66 0 114.333 11.333 145 34s46 57 46 103
s-15.333 80.333 -46 103s-79 34 -145 34z" />
    <glyph glyph-name="afii10060" unicode="&#x40b;" horiz-adv-x="2760" 
d="M823 0v1085h-766v349h1985v-349h-766v-434c74.667 79.333 168.5 141.166 281.5 185.499s236.833 66.5 371.5 66.5c218 0 383.167 -46.167 495.5 -138.5s168.5 -224.833 168.5 -397.5v-367h-453v270c0 198 -116.667 297 -350 297c-161.333 0 -287.333 -34.667 -378 -104
s-136 -165 -136 -287v-176h-453z" />
    <glyph glyph-name="afii10061" unicode="&#x40c;" horiz-adv-x="2289" 
d="M881 1563l358 331h569l-542 -331h-385zM217 0v1434h451v-598l944 598h676l-1094 -672l1124 -762h-723l-927 629v-629h-451z" />
    <glyph glyph-name="uni040D" unicode="&#x40d;" horiz-adv-x="2482" 
d="M1479 1563h-385l-543 331h569zM217 0v1434h447v-947l1155 947h446v-1434h-446v946l-1155 -946h-447z" />
    <glyph glyph-name="afii10062" unicode="&#x40e;" horiz-adv-x="2115" 
d="M1282 1915h408c0 -135.333 -54.833 -241.166 -164.5 -317.499s-262.5 -114.5 -458.5 -114.5c-195.333 0 -348 38.167 -458 114.5s-165 182.166 -165 317.499h410c0 -51.333 19 -91.833 57 -121.5s90 -44.5 156 -44.5c66.667 0 119.167 14.833 157.5 44.5
s57.5 70.167 57.5 121.5zM516 0l322 418l-852 1016h534l574 -680l518 680h518l-1086 -1434h-528z" />
    <glyph glyph-name="afii10145" unicode="&#x40f;" horiz-adv-x="2349" 
d="M217 0v1434h453v-1086h1007v1086h455v-1434h-741v-354h-433v354h-741z" />
    <glyph glyph-name="afii10017" unicode="&#x410;" horiz-adv-x="2383" 
d="M1864 0l-166 258h-1030l-166 -258h-502l958 1434h467l959 -1434h-520zM877 582h612l-305 477z" />
    <glyph glyph-name="afii10018" unicode="&#x411;" horiz-adv-x="2275" 
d="M217 0v1434h1815v-334h-1379v-201h975c162 0 289.5 -40.167 382.5 -120.5s139.5 -189.5 139.5 -327.5c0 -140 -46.667 -250.167 -140 -330.5s-221.333 -120.5 -384 -120.5h-1409zM1554 575h-901v-251h901c101.333 0 152 41.667 152 125c0 84 -50.667 126 -152 126z" />
    <glyph glyph-name="afii10019" unicode="&#x412;" horiz-adv-x="2367" 
d="M217 0v1434h1423c165.333 0 296.166 -32.667 392.499 -98s144.5 -155.666 144.5 -270.999c0 -71.333 -21.833 -135.166 -65.5 -191.499s-109.167 -101.166 -196.5 -134.499c106.667 -26 187.167 -69 241.501 -129c54.333 -60 81.5 -132.333 81.5 -217
c0 -124 -48.167 -220.5 -144.5 -289.5s-231.5 -103.5 -405.5 -103.5h-1471zM1548 1133h-886v-261h886c114.667 0 172 43 172 129c0 88 -57.333 132 -172 132zM1585 568.997h-922.999v-268h921c63.333 0 110.166 10.833 140.499 32.5s45.5 55.167 45.5 100.5
c0 46 -15 80 -45 102s-76.333 33 -139 33z" />
    <glyph glyph-name="afii10020" unicode="&#x413;" horiz-adv-x="1945" 
d="M217 0v1434h1657v-349h-1204v-1085h-453z" />
    <glyph glyph-name="afii10021" unicode="&#x414;" horiz-adv-x="2516" 
d="M33 -354v702.002h160c56 37.333 99.333 86.666 130 147.999s54 148.666 70 261.999s26.333 269 31 467l6 209h1749v-1086h238v-702h-432v354h-1520v-354h-432zM768 506.002c-26 -61.333 -58 -114 -96 -158h1059v737h-875c-4 -138.667 -12.667 -252.5 -26 -341.5
s-34 -168.167 -62 -237.5z" />
    <glyph glyph-name="afii10022" unicode="&#x415;" horiz-adv-x="2148" 
d="M217 0v1434h1806v-322h-1366v-221h1223v-320h-1223v-249h1381v-322h-1821z" />
    <glyph glyph-name="afii10024" unicode="&#x416;" horiz-adv-x="3133" 
d="M1341 0v662l-747 -662h-621l906 788l-875 646h604l733 -582v582h449v-576l733 576h606l-874 -639l905 -795h-620l-750 666v-666h-449z" />
    <glyph glyph-name="afii10025" unicode="&#x417;" horiz-adv-x="2359" 
d="M2232 422c0 -152 -90.498 -264.832 -271.498 -338.499s-456.833 -110.5 -827.5 -110.5c-311.333 0 -549 38.333 -713 115s-266.333 194 -307 352l475 90c19.333 -83.333 72.166 -144 158.499 -182s215.166 -57 386.499 -57c202 0 349.667 12.5 443 37.5
s140 63.5 140 115.5c0 42.667 -18.833 73.834 -56.5 93.501s-101.5 29.5 -191.5 29.5h-677v314h643c97.333 0 166.333 10 207 30s61 51.667 61 95c0 92.667 -189 139 -567 139c-166.667 0 -294 -18 -382 -54s-143.667 -93 -167 -171l-445 94c85.333 297.333 416 446 992 446
c706.667 0 1060 -136.333 1060 -409c0 -76.667 -23.833 -139.334 -71.5 -188.001s-125.5 -88.667 -233.5 -120c116 -22.667 202.333 -60.334 259 -113.001s85 -122 85 -208z" />
    <glyph glyph-name="afii10026" unicode="&#x418;" horiz-adv-x="2482" 
d="M217 0v1434h447v-947l1155 947h446v-1434h-446v946l-1155 -946h-447z" />
    <glyph glyph-name="afii10027" unicode="&#x419;" horiz-adv-x="2482" 
d="M1485 1913h407c0 -135.333 -54.667 -241.166 -164 -317.499s-262 -114.5 -458 -114.5c-195.333 0 -348 38.167 -458 114.5s-165 182.166 -165 317.499h410c0 -51.333 19 -91.833 57 -121.5s90 -44.5 156 -44.5c66.667 0 119.167 14.833 157.5 44.5
s57.5 70.167 57.5 121.5zM217 0v1434h447v-947l1155 947h446v-1434h-446v946l-1155 -946h-447z" />
    <glyph glyph-name="afii10028" unicode="&#x41a;" horiz-adv-x="2289" 
d="M217 0v1434h451v-598l944 598h676l-1094 -672l1124 -762h-723l-927 629v-629h-451z" />
    <glyph glyph-name="afii10029" unicode="&#x41b;" horiz-adv-x="2394" 
d="M0 348c70.667 2 129.665 12 176.998 30s85.333 48.333 114 91c38.667 56 63.667 129.667 75 221s21 258.666 29 501.999l8 242h1772v-1434h-453v1085h-876c-4.66699 -128.667 -10.5 -233.5 -17.5 -314.5s-17.667 -159.167 -32 -234.5s-33.666 -139.166 -57.999 -191.499
s-55.5 -100.833 -93.5 -145.5c-68 -80.667 -149.167 -138 -243.5 -172s-217.166 -49 -368.499 -45z" />
    <glyph glyph-name="afii10030" unicode="&#x41c;" horiz-adv-x="2902" 
d="M217 0v1434h467l770 -881l766 881h463v-1434h-438v903l-600 -713h-388l-600 697v-887h-440z" />
    <glyph glyph-name="afii10031" unicode="&#x41d;" horiz-adv-x="2523" 
d="M217 0v1434h453v-527h1181v527h455v-1434h-455v559h-1181v-559h-453z" />
    <glyph glyph-name="afii10032" unicode="&#x41e;" horiz-adv-x="2465" 
d="M1233 -27c-363.333 0 -643.666 64.833 -840.999 194.5s-296 312.167 -296 547.5c0 237.333 98.667 420.833 296 550.5s477.666 194.5 840.999 194.5s643.666 -64.833 840.999 -194.5s296 -313.167 296 -550.5c0 -235.333 -98.667 -417.833 -296 -547.5
s-477.666 -194.5 -840.999 -194.5zM1233 322c230.667 0 400.667 32.167 510 96.5s164 163.166 164 296.499c0 134.667 -54.667 234.5 -164 299.5s-279.333 97.5 -510 97.5s-400.667 -32.5 -510 -97.5s-164 -164.833 -164 -299.5c0 -133.333 54.667 -232.166 164 -296.499
s279.333 -96.5 510 -96.5z" />
    <glyph glyph-name="afii10033" unicode="&#x41f;" horiz-adv-x="2461" 
d="M217 0v1434h2028v-1434h-453v1085h-1122v-1085h-453z" />
    <glyph glyph-name="afii10034" unicode="&#x420;" horiz-adv-x="2226" 
d="M217 0l0.000976562 1434h1276c197.333 0 353.166 -48 467.499 -144s171.5 -227 171.5 -393s-57.667 -296.667 -173 -392s-273.333 -143 -474 -143h-815v-362h-453zM1413 1090h-743v-383h743c86.667 0 151 15.5 193 46.5s63 78.167 63 141.5c0 66 -21 115 -63 147
s-106.333 48 -193 48z" />
    <glyph glyph-name="afii10035" unicode="&#x421;" horiz-adv-x="2344" 
d="M96 717c0 234 98.166 416.334 294.499 547.001s471.833 196 826.5 196c292.667 0 527.167 -42 703.5 -126s288.5 -207.667 336.5 -371l-479 -95c-26.667 82.667 -85.5 144 -176.5 184s-219.167 60 -384.5 60c-224.667 0 -390.5 -32.5 -497.5 -97.5
s-160.5 -164.167 -160.5 -297.5c0 -134.667 53.167 -234.167 159.5 -298.5s272.5 -96.5 498.5 -96.5c169.333 0 299.833 20.5 391.5 61.5s148.834 104.167 171.501 189.5l473 -90c-48 -168.667 -159.333 -295.834 -334 -381.501s-408.667 -128.5 -702 -128.5
c-358 0 -634.333 65.5 -829 196.5s-292 313.5 -292 547.5z" />
    <glyph glyph-name="afii10036" unicode="&#x422;" horiz-adv-x="2101" 
d="M823 0v1085h-766v349h1985v-349h-766v-1085h-453z" />
    <glyph glyph-name="afii10037" unicode="&#x423;" horiz-adv-x="2115" 
d="M516 0l322 418l-852 1016h534l574 -680l518 680h518l-1086 -1434h-528z" />
    <glyph glyph-name="afii10038" unicode="&#x424;" horiz-adv-x="2703" 
d="M1118 -68l0.00390625 199h-157c-286.667 0 -505.834 52.167 -657.501 156.5s-227.5 249.5 -227.5 435.5s76.167 331.5 228.5 436.5s371.166 157.5 656.499 157.5h157v184h453v-184h172c285.333 0 504.166 -52.5 656.499 -157.5s228.5 -250.5 228.5 -436.5
s-75.833 -331.167 -227.5 -435.5s-370.834 -156.5 -657.501 -156.5h-172v-199h-453zM2191 723c0 90 -32.5 156.832 -97.5 200.499s-175.833 65.5 -332.5 65.5h-194v-530h194c106 0 191.167 10.5 255.5 31.5s109.5 50.333 135.5 88s39 85.834 39 144.501zM512.004 722.999
c0 -58.667 13 -106.833 39 -144.5s71.167 -67 135.5 -88s149.5 -31.5 255.5 -31.5h180v530h-180c-156.667 0 -267.5 -21.833 -332.5 -65.5s-97.5 -110.5 -97.5 -200.5z" />
    <glyph glyph-name="afii10039" unicode="&#x425;" horiz-adv-x="2091" 
d="M582 0h-584l754 725l-736 709h600l449 -447l432 447h574l-734 -705l756 -729h-598l-465 465z" />
    <glyph glyph-name="afii10040" unicode="&#x426;" horiz-adv-x="2424" 
d="M217 0v1434h453v-1086h1054v1086h453v-1086h197v-702h-432v354h-1725z" />
    <glyph glyph-name="afii10041" unicode="&#x427;" horiz-adv-x="2299" 
d="M182 987l-0.00195312 447.001h453v-336c0 -113.333 32.5 -193.333 97.5 -240s176.5 -70 334.5 -70c92 0 178.833 5.16699 260.5 15.5s181.834 29.166 300.501 56.499v574h453v-1434h-453v535c-253.333 -70 -480.666 -105 -681.999 -105
c-266 0 -459.833 44.5 -581.5 133.5s-182.5 230.167 -182.5 423.5z" />
    <glyph glyph-name="afii10042" unicode="&#x428;" horiz-adv-x="3340" 
d="M217 0v1434h453v-1086h774v1086h452v-1086h773v1086h454v-1434h-2906z" />
    <glyph glyph-name="afii10043" unicode="&#x429;" horiz-adv-x="3371" 
d="M217 0v1434h453v-1086h774v1086h452v-1086h773v1086h454v-1086h197v-702h-432v354h-2671z" />
    <glyph glyph-name="afii10044" unicode="&#x42a;" horiz-adv-x="2480" 
d="M567 0v1100h-530v334h971v-418h813c178 0 319.667 -46 425 -138s158 -215.333 158 -370s-52.667 -278 -158 -370s-247 -138 -425 -138h-1254zM1745 682h-737v-348h737c136.667 0 205 58 205 174s-68.333 174 -205 174z" />
    <glyph glyph-name="afii10045" unicode="&#x42b;" horiz-adv-x="3000" 
d="M2329 0v1434h452v-1434h-452zM217 0v1434h453v-418h878c178 0 319.833 -46 425.5 -138s158.5 -215.333 158.5 -370s-52.833 -278 -158.5 -370s-247.5 -138 -425.5 -138h-1331zM1473 682l-803 -0.00195312v-348h803c69.333 0 120.666 14.333 153.999 43
s50 72.334 50 131.001s-16.667 102.334 -50 131.001s-84.666 43 -153.999 43z" />
    <glyph glyph-name="afii10046" unicode="&#x42c;" horiz-adv-x="2207" 
d="M217 0v1434h453v-418h878c178 0 319.833 -46 425.5 -138s158.5 -215.333 158.5 -370s-52.833 -278 -158.5 -370s-247.5 -138 -425.5 -138h-1331zM1473 682l-803 -0.00195312v-348h803c69.333 0 120.666 14.333 153.999 43s50 72.334 50 131.001
s-16.667 102.334 -50 131.001s-84.666 43 -153.999 43z" />
    <glyph glyph-name="afii10047" unicode="&#x42d;" horiz-adv-x="2334" 
d="M557 889l-442.004 93.998c48.667 156.667 161.334 275.334 338.001 356.001s410.667 121 702 121c222.667 0 414.834 -28.333 576.501 -85s286.5 -141.167 374.5 -253.5s132 -247.166 132 -404.499c0 -235.333 -95.5 -418.166 -286.5 -548.499
s-457.833 -195.5 -800.5 -195.5c-303.333 0 -544.666 41.5 -723.999 124.5s-292.333 206.833 -339 371.5l467 90c23.333 -87.333 83.333 -151.833 180 -193.5s235.334 -62.5 416.001 -62.5c178.667 0 318.667 22.5 420 67.5s167.333 114.167 198 207.5h-940v303h932
c-34.667 85.333 -101.667 148.166 -201 188.499s-234.333 60.5 -405 60.5c-178 0 -315.5 -19.667 -412.5 -59s-158.833 -100 -185.5 -182z" />
    <glyph glyph-name="afii10048" unicode="&#x42e;" horiz-adv-x="3246" 
d="M217 0v1434h453v-525h231c50 177.333 170.167 313.5 360.5 408.5s440.833 142.5 751.5 142.5c363.333 0 643.666 -64.833 841 -194.5c197.333 -129.667 296 -313.167 296 -550.5c0 -235.333 -98.833 -417.833 -296.5 -547.5s-477.834 -194.5 -840.5 -194.5
c-324.667 0 -584 52.167 -778 156.5s-310 252.833 -348 445.5h-217v-575h-453zM2013 322c230 0 399.833 32.167 509.5 96.5s164.5 163.166 164.5 296.499c0 134.667 -54.833 234.5 -164.5 299.5s-279.5 97.5 -509.5 97.5c-230.667 0 -401 -32.5 -511 -97.5
s-165 -164.833 -165 -299.5c0 -133.333 55 -232.166 165 -296.499s280.333 -96.5 511 -96.5z" />
    <glyph glyph-name="afii10049" unicode="&#x42f;" horiz-adv-x="2293" 
d="M2077 0l-453.001 0.000976562v444h-428l-508 -444h-565l545 471c-161.333 17.333 -287.666 67.166 -378.999 149.499s-137 188.833 -137 319.5c0 151.333 55.167 271.5 165.5 360.5s259.833 133.5 448.5 133.5h1311v-1434zM841.999 762.001h782v354h-782
c-152 0 -228 -58.667 -228 -176c0 -118.667 76 -178 228 -178z" />
    <glyph glyph-name="afii10065" unicode="&#x430;" horiz-adv-x="1918" 
d="M94 805c47.333 121.333 136.334 209.666 267.001 264.999s319 83 565 83c290.667 0 498.167 -33.833 622.5 -101.5s186.5 -179.167 186.5 -334.5v-359c0 -26.667 5.33301 -45.834 16 -57.501s28.334 -17.5 53.001 -17.5c20 0 40 2 60 6l-9 -285
c-74.667 -20.667 -146.334 -31 -215.001 -31c-168 0 -269 71 -303 213c-76 -67.333 -174.833 -119.666 -296.5 -156.999s-257.5 -56 -407.5 -56c-180.667 0 -320.334 30.167 -419.001 90.5s-148 144.833 -148 253.5c0 106.667 47.833 187.5 143.5 242.5
s249.167 89.833 460.5 104.5l651 36c-6 58.667 -39 100.334 -99 125.001s-159.333 37 -298 37c-130.667 0 -225.5 -10 -284.5 -30s-95.5 -53 -109.5 -99zM496.001 340c0 -34.667 18.499 -59.668 55.499 -75.001s97.5 -23 181.5 -23c112.667 0 214.334 10.167 305.001 30.5
s161.5 48.333 212.5 84s76.5 75.834 76.5 120.501v2l-692 -47c-48 -4 -83.167 -13.5 -105.5 -28.5s-33.5 -36.167 -33.5 -63.5z" />
    <glyph glyph-name="afii10066" unicode="&#x431;" horiz-adv-x="2058" 
d="M1032 -27c-316 0 -550.669 58.5 -704.002 175.5s-230 295.5 -230 535.5v35c0 266 73 463.5 219 592.5s379 198.5 699 208.5l473 12c126 3.33301 235.333 15 328 35l30 -305c-97.333 -28 -212.666 -43 -345.999 -45l-481 -11
c-95.333 -2.66699 -174.666 -10.667 -237.999 -24s-117.166 -35 -161.499 -65s-77.166 -69 -98.499 -117s-35 -108.333 -41 -181c63.333 74.667 157.666 132.667 282.999 174s266.666 62 423.999 62c518.667 0 778 -175 778 -525c0 -174.667 -82.167 -311.167 -246.5 -409.5
s-393.5 -147.5 -687.5 -147.5zM1038 289c175.333 0 300.167 19.6689 374.5 59.002s111.5 100.666 111.5 183.999c0 82.667 -37 143.667 -111 183s-197.667 59 -371 59c-174 0 -300.333 -20 -379 -60s-118 -100.667 -118 -182c0 -82.667 39.167 -143.834 117.5 -183.501
s203.5 -59.5 375.5 -59.5z" />
    <glyph glyph-name="afii10067" unicode="&#x432;" horiz-adv-x="2019" 
d="M184 0l0.000976562 1126h1284c125.333 0 222.666 -24.5 291.999 -73.5s104 -117.833 104 -206.5c0 -66 -21.333 -120.5 -64 -163.5s-109.667 -77.833 -201 -104.5c218.667 -32 328 -127 328 -285c0 -92 -38.5 -163.833 -115.5 -215.5s-185.167 -77.5 -324.5 -77.5h-1303z
M1300 874h-702v-186h702c82 0 123 31.333 123 94c0 29.333 -10.5 52 -31.5 68s-51.5 24 -91.5 24zM1333 442h-735v-190h735c83.333 0 125 32 125 96c0 32.667 -10 56.5 -30 71.5s-51.667 22.5 -95 22.5z" />
    <glyph glyph-name="afii10068" unicode="&#x433;" horiz-adv-x="1599" 
d="M184 0v1126h1385v-327h-953v-799h-432z" />
    <glyph glyph-name="afii10069" unicode="&#x434;" horiz-adv-x="2086" 
d="M37 -334v639h170c68 47.333 114.333 123 139 227s37.667 272.667 39 506l2 88h1450v-821h199v-639h-408v334h-1184v-334h-407zM731 449c-19.333 -52.667 -47.333 -100.667 -84 -144h780v524h-643c-4 -163.333 -21.667 -290 -53 -380z" />
    <glyph glyph-name="afii10070" unicode="&#x435;" horiz-adv-x="1996" 
d="M1020 -27c-294 0 -522.83 51.668 -686.497 155.001s-245.5 248.333 -245.5 435c0 182 81.5 325.833 244.5 431.5s387.5 158.5 673.5 158.5c185.333 0 346 -22.333 482 -67s240.5 -109.667 313.5 -195s109.5 -186.333 109.5 -303c0 -49.333 -3.33301 -90.333 -10 -123
h-1375c23.333 -66.667 75.166 -115.834 155.499 -147.501s193.166 -47.5 338.499 -47.5c138.667 0 244.167 9.66699 316.5 29s117.833 49.333 136.5 90l434 -76c-48.667 -118.667 -141.834 -205 -279.501 -259s-340.167 -81 -607.5 -81zM1008 868.001
c-140 0 -248.002 -14 -324.002 -42s-126.667 -72.667 -152 -134h934c-25.333 62.667 -74.166 107.667 -146.499 135s-176.166 41 -311.499 41z" />
    <glyph glyph-name="afii10072" unicode="&#x436;" horiz-adv-x="2646" 
d="M1104 0v487l-531 -487h-577l721 635l-701 491h576l512 -397v397h426v-407l526 407h576l-703 -491l723 -635h-579l-543 498v-498h-426z" />
    <glyph glyph-name="afii10073" unicode="&#x437;" horiz-adv-x="1939" 
d="M1851 328c0 -122 -75.0029 -211.669 -225.003 -269.002s-380 -86 -690 -86c-265.333 0 -472.166 29.167 -620.499 87.5s-234.5 152.166 -258.5 281.499l437 84c9.33301 -65.333 46.333 -112 111 -140s175 -42 331 -42c152 0 262 9 330 27s102 46.333 102 85
c0 32 -16.167 55 -48.5 69s-87.166 21 -164.499 21h-457v256h453c139.333 0 209 28.667 209 86c0 34.667 -30.667 59.167 -92 73.5s-171.333 21.5 -330 21.5c-154 0 -264.167 -13.167 -330.5 -39.5s-105.833 -69.833 -118.5 -130.5l-411 84c55.333 237.333 342 356 860 356
c302 0 525 -25.5 669 -76.5s216 -128.5 216 -232.5c0 -67.333 -24.167 -121.666 -72.5 -162.999s-125.833 -73.666 -232.5 -96.999c114.667 -17.333 198.834 -46.666 252.501 -87.999s80.5 -97.333 80.5 -168z" />
    <glyph glyph-name="afii10074" unicode="&#x438;" horiz-adv-x="2070" 
d="M184 0v1126h428v-692l846 692h430v-1126h-430v692l-846 -692h-428z" />
    <glyph glyph-name="afii10075" unicode="&#x439;" horiz-adv-x="2070" 
d="M1255 1616h393.999c0 -85.333 -25.833 -157.5 -77.5 -216.5s-121.5 -102.5 -209.5 -130.5s-190.333 -42 -307 -42s-219 14 -307 42s-157.833 71.5 -209.5 130.5s-77.5 131.167 -77.5 216.5h393c0 -46.667 17.333 -83.334 52 -110.001s84.334 -40 149.001 -40
s114.167 13.333 148.5 40s51.5 63.334 51.5 110.001zM183.999 0v1126h428v-692l846 692h430v-1126h-430v692l-846 -692h-428z" />
    <glyph glyph-name="afii10076" unicode="&#x43a;" horiz-adv-x="1955" 
d="M184 0v1126h432v-432l707 432h612l-848 -501l875 -625h-639l-707 512v-512h-432z" />
    <glyph glyph-name="afii10077" unicode="&#x43b;" horiz-adv-x="1980" 
d="M31 291c98 4 168.997 32.6641 212.997 85.9971c30.667 36.667 51.5 89.334 62.5 158.001s17.5 176.334 19.5 323.001l2 268h1468v-1126h-432v799h-629c-1.33301 -181.333 -15.666 -325.166 -42.999 -431.499s-71.666 -189.833 -132.999 -250.5
c-50.667 -52 -117.167 -89.5 -199.5 -112.5s-185.166 -32.833 -308.499 -29.5z" />
    <glyph glyph-name="afii10078" unicode="&#x43c;" horiz-adv-x="2488" 
d="M602 0h-418v1126h471l592 -684l586 684h471v-1126h-418v692l-452 -542h-375l-457 538v-688z" />
    <glyph glyph-name="afii10079" unicode="&#x43d;" horiz-adv-x="2056" 
d="M184 0v1126h432v-358h826v358h432v-1126h-432v440h-826v-440h-432z" />
    <glyph glyph-name="afii10080" unicode="&#x43e;" horiz-adv-x="2029" 
d="M1016 -27c-296 0 -524.667 51.333 -686 154s-242 248 -242 436s80.667 333.333 242 436s390 154 686 154c296.667 0 525.167 -51.333 685.5 -154s240.5 -248 240.5 -436c0 -190 -79.667 -335.833 -239 -437.5s-388.333 -152.5 -687 -152.5zM1016 289
c168.667 0 291.334 21.833 368.001 65.5s115 113.167 115 208.5s-38.333 165 -115 209s-199.334 66 -368.001 66s-291.834 -22 -369.501 -66s-116.5 -113.667 -116.5 -209s38.833 -164.833 116.5 -208.5s200.834 -65.5 369.501 -65.5z" />
    <glyph glyph-name="afii10081" unicode="&#x43f;" horiz-adv-x="2013" 
d="M184 0v1126h1645v-1126h-432v799h-781v-799h-432z" />
    <glyph glyph-name="afii10082" unicode="&#x440;" horiz-adv-x="2121" 
d="M580 1126l22.001 -203.999c71.333 73.333 164.666 130.166 279.999 170.499s245.333 60.5 390 60.5c238 0 424.5 -52.333 559.5 -157s202.5 -249 202.5 -433c0 -186 -67 -330.833 -201 -434.5s-321 -155.5 -561 -155.5c-140 0 -266.167 18.667 -378.5 56
s-204.833 90.333 -277.5 159v-598h-432v1536h396zM1118 291.001c162 0 281.333 22.167 358 66.5s115 112.833 115 205.5s-38.333 161.334 -115 206.001s-196 67 -358 67c-164 0 -288.667 -23.333 -374 -70s-128 -114.334 -128 -203.001s42.5 -156.167 127.5 -202.5
s209.833 -69.5 374.5 -69.5z" />
    <glyph glyph-name="afii10083" unicode="&#x441;" horiz-adv-x="1947" 
d="M1894 737l-439.999 -87.998c-21.333 65.333 -67.5 113.166 -138.5 143.499s-173.5 45.5 -307.5 45.5c-165.333 0 -286.333 -22.167 -363 -66.5s-115 -113.833 -115 -208.5c0 -94 38.333 -163.167 115 -207.5s197.667 -66.5 363 -66.5c140.667 0 246.5 15.667 317.5 47
s115.167 81.666 132.5 150.999l438 -86c-39.333 -138 -135 -243.833 -287 -317.5s-352.333 -110.5 -601 -110.5c-290.667 0 -516.667 51.833 -678 155.5s-242 248.5 -242 434.5s80.667 330.833 242 434.5s387.333 155.5 678 155.5c243.333 0 440.666 -35.333 591.999 -106
s249.333 -174 294 -310z" />
    <glyph glyph-name="afii10084" unicode="&#x442;" horiz-adv-x="1769" 
d="M668 0v799h-631v327h1696v-327h-633v-799h-432z" />
    <glyph glyph-name="afii10085" unicode="&#x443;" horiz-adv-x="1777" 
d="M1305 1126l468.999 0.000976562l-650 -1106c-72 -120.667 -139.333 -212.834 -202 -276.501s-133.167 -109.5 -211.5 -137.5s-176.5 -42 -294.5 -42c-99.333 0 -190.333 12.333 -273 37l-16 309c88.667 -12.667 161.667 -19 219 -19c92 0 161.833 10 209.5 30
s91.834 60.667 132.501 122l-684 1083h496l420 -708z" />
    <glyph glyph-name="afii10086" unicode="&#x444;" horiz-adv-x="2424" 
d="M999 -410v383c-302 6.66699 -529.667 60.5 -683 161.5s-230 243.167 -230 426.5c0 184.667 76.667 327.834 230 429.501s381 155.834 683 162.501v383h426v-383c302 -6.66699 530.167 -60.834 684.5 -162.501s231.5 -244.834 231.5 -429.501
c0 -182.667 -77.333 -324.667 -232 -426s-382.667 -155.333 -684 -162v-383h-426zM1919 561c0 99.333 -38 172.499 -114 219.499s-202.667 72.833 -380 77.5v-590c178.667 4.66699 305.667 29.834 381 75.501s113 118.167 113 217.5zM506 560.999
c0 -98.667 37.667 -171 113 -217s202 -71.333 380 -76v590c-176 -4.66699 -302.167 -30.667 -378.5 -78s-114.5 -120.333 -114.5 -219z" />
    <glyph glyph-name="afii10087" unicode="&#x445;" horiz-adv-x="1931" 
d="M571 0h-555l654 584l-623 542h563l365 -327l371 327h540l-639 -546l668 -580h-584l-383 356z" />
    <glyph glyph-name="afii10088" unicode="&#x446;" horiz-adv-x="2052" 
d="M184 0v1126h432v-798h768v798h433v-798h204v-662h-409v334h-1428z" />
    <glyph glyph-name="afii10089" unicode="&#x447;" horiz-adv-x="1888" 
d="M549 903c0 -92.667 24.332 -158.5 72.999 -197.5s131.334 -58.5 248.001 -58.5c138 0 272.667 24 404 72v407h430v-1126h-430v436c-180 -65.333 -359.667 -98 -539 -98c-412 0 -618 170 -618 510v278h432v-223z" />
    <glyph glyph-name="afii10090" unicode="&#x448;" horiz-adv-x="2746" 
d="M184 0v1126h422v-798h557v798h422v-798h557v798h422v-1126h-2380z" />
    <glyph glyph-name="afii10091" unicode="&#x449;" horiz-adv-x="2797" 
d="M184 0v1126h422v-798h557v798h422v-798h557v798h422v-798h203v-662h-408v334h-2175z" />
    <glyph glyph-name="afii10092" unicode="&#x44a;" horiz-adv-x="2136" 
d="M465 0v813h-440v313h862v-292h643c168.667 0 299.167 -36.5 391.5 -109.5s138.5 -175.167 138.5 -306.5c0 -133.333 -46.167 -236.333 -138.5 -309s-222.833 -109 -391.5 -109h-1065zM1477 555h-590v-276h590c59.333 0 102.5 11 129.5 33s40.5 56.667 40.5 104
c0 48 -13.5 83.167 -40.5 105.5s-70.167 33.5 -129.5 33.5z" />
    <glyph glyph-name="afii10093" unicode="&#x44b;" horiz-adv-x="2615" 
d="M1999 0v1126h432v-1126h-432zM184 0v1126h432v-292h717c168.667 0 299.334 -36.5 392.001 -109.5s139 -175.167 139 -306.5c0 -133.333 -46.333 -236.333 -139 -309s-223.334 -109 -392.001 -109h-1149zM1280 555h-664v-276h664c59.333 0 102.833 11 130.5 33
s41.5 56.667 41.5 104c0 48 -13.833 83.167 -41.5 105.5s-71.167 33.5 -130.5 33.5z" />
    <glyph glyph-name="afii10094" unicode="&#x44c;" horiz-adv-x="1939" 
d="M184 0v1126h432v-292h717c168.667 0 299.334 -36.5 392.001 -109.5s139 -175.167 139 -306.5c0 -133.333 -46.333 -236.333 -139 -309s-223.334 -109 -392.001 -109h-1149zM1280 555h-664v-276h664c59.333 0 102.833 11 130.5 33s41.5 56.667 41.5 104
c0 48 -13.833 83.167 -41.5 105.5s-71.167 33.5 -130.5 33.5z" />
    <glyph glyph-name="afii10095" unicode="&#x44d;" horiz-adv-x="1955" 
d="M475 684l-414 88c82.667 254 376.334 381 881.001 381c292 0 519.333 -52 682 -156s244 -248.667 244 -434s-81.5 -330 -244.5 -434s-390.167 -156 -681.5 -156c-271.333 0 -478.333 32.167 -621 96.5s-232.667 162.833 -270 295.5l420 86
c19.333 -71.333 64.833 -121 136.5 -149s183.167 -42 334.5 -42c143.333 0 254.666 14.167 333.999 42.5s132 74.833 158 139.5h-729v258h720c-28.667 59.333 -82 101.833 -160 127.5s-185.667 38.5 -323 38.5c-146.667 0 -257 -13.5 -331 -40.5
s-119.333 -74.167 -136 -141.5z" />
    <glyph glyph-name="afii10096" unicode="&#x44e;" horiz-adv-x="2729" 
d="M184 0l0.000976562 1126h432v-381h203c47.333 131.333 147.666 232.166 300.999 302.499s351.333 105.5 594 105.5c296.667 0 525.5 -51.333 686.5 -154s241.5 -248 241.5 -436c0 -189.333 -80 -335 -240 -437s-389.333 -153 -688 -153
c-255.333 0 -460.833 38.5 -616.5 115.5s-252.5 187.5 -290.5 331.5h-191v-420h-432zM1714 289.001c168.667 0 291.834 21.833 369.501 65.5s116.5 113.167 116.5 208.5s-38.833 165 -116.5 209s-200.834 66 -369.501 66s-291.334 -22 -368.001 -66s-115 -113.667 -115 -209
s38.333 -164.833 115 -208.5s199.334 -65.5 368.001 -65.5z" />
    <glyph glyph-name="afii10097" unicode="&#x44f;" horiz-adv-x="1976" 
d="M96 741c0 122.667 48.167 217.5 144.5 284.5s232.5 100.5 408.5 100.5h1143v-1126h-426v352h-326l-432 -354l-530 2l477 393c-156 14.667 -271.5 50.5 -346.5 107.5s-112.5 137.167 -112.5 240.5zM684 625h682v231h-682c-59.333 0 -102.833 -9.33301 -130.5 -28
s-41.5 -47.667 -41.5 -87c0 -40 13.667 -69.333 41 -88s71 -28 131 -28z" />
    <glyph glyph-name="uni0450" unicode="&#x450;" horiz-adv-x="1996" 
d="M1194 1245h-385l-543 332h570zM1020 -27c-294 0 -522.83 51.668 -686.497 155.001s-245.5 248.333 -245.5 435c0 182 81.5 325.833 244.5 431.5s387.5 158.5 673.5 158.5c185.333 0 346 -22.333 482 -67s240.5 -109.667 313.5 -195s109.5 -186.333 109.5 -303
c0 -49.333 -3.33301 -90.333 -10 -123h-1375c23.333 -66.667 75.166 -115.834 155.499 -147.501s193.166 -47.5 338.499 -47.5c138.667 0 244.167 9.66699 316.5 29s117.833 49.333 136.5 90l434 -76c-48.667 -118.667 -141.834 -205 -279.501 -259s-340.167 -81 -607.5 -81
zM1008 868.001c-140 0 -248.002 -14 -324.002 -42s-126.667 -72.667 -152 -134h934c-25.333 62.667 -74.166 107.667 -146.499 135s-176.166 41 -311.499 41z" />
    <glyph glyph-name="afii10071" unicode="&#x451;" horiz-adv-x="1996" 
d="M1096 1245v332h469v-332h-469zM434 1245v332h469v-332h-469zM1020 -27c-294 0 -522.83 51.668 -686.497 155.001s-245.5 248.333 -245.5 435c0 182 81.5 325.833 244.5 431.5s387.5 158.5 673.5 158.5c185.333 0 346 -22.333 482 -67s240.5 -109.667 313.5 -195
s109.5 -186.333 109.5 -303c0 -49.333 -3.33301 -90.333 -10 -123h-1375c23.333 -66.667 75.166 -115.834 155.499 -147.501s193.166 -47.5 338.499 -47.5c138.667 0 244.167 9.66699 316.5 29s117.833 49.333 136.5 90l434 -76
c-48.667 -118.667 -141.834 -205 -279.501 -259s-340.167 -81 -607.5 -81zM1008 868.001c-140 0 -248.002 -14 -324.002 -42s-126.667 -72.667 -152 -134h934c-25.333 62.667 -74.166 107.667 -146.499 135s-176.166 41 -311.499 41z" />
    <glyph glyph-name="afii10099" unicode="&#x452;" horiz-adv-x="2078" 
d="M223 0v1040h-207v287h207v209h432v-209h504v-287h-504v-352c72.667 82 164.167 145.833 274.5 191.5s231.166 68.5 362.499 68.5c204.667 0 359.667 -45.333 465 -136s158 -222.667 158 -396v-310c0 -195.333 -41.667 -334.5 -125 -417.5
s-222.666 -124.5 -417.999 -124.5c-87.333 0 -172 6 -254 18l-12 314c59.333 -8.66699 112.666 -13 159.999 -13c82 0 139 14.167 171 42.5s48 78.5 48 150.5v254c0 92 -28.167 162 -84.5 210s-138.833 72 -247.5 72c-155.333 0 -277.166 -34.333 -365.499 -103
s-132.5 -164 -132.5 -286v-223h-432z" />
    <glyph glyph-name="afii10100" unicode="&#x453;" horiz-adv-x="1599" 
d="M621 1245l358 332h569l-542 -332h-385zM184 0v1126h1385v-327h-953v-799h-432z" />
    <glyph glyph-name="afii10101" unicode="&#x454;" horiz-adv-x="1959" 
d="M1266 692l-0.000976562 -245.998h-740c52.667 -124 211 -186 475 -186c144 0 253.333 14.667 328 44s121.667 76.666 141 141.999l439 -86c-40 -126 -137.5 -222 -292.5 -288s-360.167 -99 -615.5 -99c-287.333 0 -511.333 52.167 -672 156.5s-241 248.833 -241 433.5
s80.333 329.167 241 433.5s384.667 156.5 672 156.5c253.333 0 456.833 -31.833 610.5 -95.5s251.5 -156.834 293.5 -279.501l-439 -88c-23.333 60.667 -72.666 105.167 -147.999 133.5s-181 42.5 -317 42.5c-258.667 0 -415.667 -58 -471 -174h736z" />
    <glyph glyph-name="afii10102" unicode="&#x455;" horiz-adv-x="1857" 
d="M920 887c-140.667 0 -242.171 -7.33496 -304.504 -22.002s-93.5 -38 -93.5 -70c0 -25.333 17 -43.333 51 -54s97.667 -18 191 -22l422 -14c212.667 -10 365.834 -40.667 459.501 -92s140.5 -128.666 140.5 -231.999c0 -272 -295 -408 -885 -408
c-255.333 0 -447.666 26.5 -576.999 79.5s-217.666 140.5 -264.999 262.5l428 68c16.667 -48.667 57.667 -84 123 -106s161 -33 287 -33c168 0 286.833 6.83301 356.5 20.5s104.5 36.167 104.5 67.5c0 26 -14 44.833 -42 56.5s-79.667 18.834 -155 21.501l-424 16
c-219.333 8 -379.666 40.5 -480.999 97.5s-152 139.833 -152 248.5c0 121.333 70 215.166 210 281.499s341.333 99.5 604 99.5c254 0 446.5 -25.333 577.5 -76s218.167 -132.667 261.5 -246l-414 -67c-16.667 44.667 -56 76.334 -118 95.001s-163.667 28 -305 28z" />
    <glyph glyph-name="afii10103" unicode="&#x456;" 
d="M184 1245v318h432v-318h-432zM184 0v1126h432v-1126h-432z" />
    <glyph glyph-name="afii10104" unicode="&#x457;" 
d="M-10 1245v332h352v-332h-352zM457 1245v332h352v-332h-352zM184 0v1126h432v-1126h-432z" />
    <glyph glyph-name="afii10105" unicode="&#x458;" 
d="M184 1245v318h432v-318h-432zM184 76v1050h432v-1024c0 -192.667 -42.667 -330.5 -128 -413.5s-224 -124.5 -416 -124.5c-86 0 -170 6 -252 18l-15 314c66 -8.66699 119.333 -13 160 -13c82 0 139 14.167 171 42.5s48 78.5 48 150.5z" />
    <glyph glyph-name="afii10106" unicode="&#x459;" horiz-adv-x="3119" 
d="M31 291c98 4 168.997 32.6641 212.997 85.9971c30.667 36.667 51.5 89.334 62.5 158.001s17.5 176.334 19.5 323.001l2 268h1468v-295h717c168.667 0 299.167 -36.333 391.5 -109s138.5 -174.667 138.5 -306c0 -133.333 -46.167 -236.333 -138.5 -309
s-222.833 -109 -391.5 -109h-1149v801h-629c-1.33301 -181.333 -15.666 -325.166 -42.999 -431.499s-71.666 -189.833 -132.999 -250.5c-50.667 -52 -117.167 -89.5 -199.5 -112.5s-185.166 -32.833 -308.499 -29.5zM2460 552.997l-664 0.000976562v-277h664
c59.333 0 102.833 11.167 130.5 33.5s41.5 57.166 41.5 104.499c0 48 -13.833 83.167 -41.5 105.5s-71.167 33.5 -130.5 33.5z" />
    <glyph glyph-name="afii10107" unicode="&#x45a;" horiz-adv-x="3229" 
d="M184 0v1126h432v-356h826v356h432v-354h782c158.667 0 281.667 -33.5 369 -100.5s131 -161.167 131 -282.5c0 -124 -43.667 -219.833 -131 -287.5s-210.333 -101.5 -369 -101.5h-1214v444h-826v-444h-432zM2595 494h-721v-215h721c51.333 0 88.666 8.66699 112 26
c23.333 17.333 35 45.333 35 84c0 36 -11.833 62.5 -35.5 79.5s-60.834 25.5 -111.5 25.5z" />
    <glyph glyph-name="afii10108" unicode="&#x45b;" horiz-adv-x="2082" 
d="M223 0l-0.000976562 1040h-207v287h207v209h432v-209h504v-287h-504v-352c71.333 82 162.333 145.833 273 191.5s232 68.5 364 68.5c203.333 0 358 -45.333 464 -136s159 -222.667 159 -396v-416h-430v330c0 92 -28.167 162 -84.5 210s-138.833 72 -247.5 72
c-155.333 0 -277.166 -34.333 -365.499 -103s-132.5 -164 -132.5 -286v-223h-432z" />
    <glyph glyph-name="afii10109" unicode="&#x45c;" horiz-adv-x="1955" 
d="M713 1245l358 332h569l-542 -332h-385zM184 0v1126h432v-432l707 432h612l-848 -501l875 -625h-639l-707 512v-512h-432z" />
    <glyph glyph-name="uni045D" unicode="&#x45d;" horiz-adv-x="2070" 
d="M1270 1245h-385l-543 332h569zM184 0v1126h428v-692l846 692h430v-1126h-430v692l-846 -692h-428z" />
    <glyph glyph-name="afii10110" unicode="&#x45e;" horiz-adv-x="1777" 
d="M1112 1616h392.999c0 -122 -52.167 -217.333 -156.5 -286s-250.166 -103 -437.499 -103s-333.166 34.333 -437.499 103s-156.5 164 -156.5 286h394c0 -47.333 17.5 -84.166 52.5 -110.499s84.167 -39.5 147.5 -39.5s112.666 13.167 147.999 39.5s53 63.166 53 110.499z
M1305 1126l468.999 0.000976562l-650 -1106c-72 -120.667 -139.333 -212.834 -202 -276.501s-133.167 -109.5 -211.5 -137.5s-176.5 -42 -294.5 -42c-99.333 0 -190.333 12.333 -273 37l-16 309c88.667 -12.667 161.667 -19 219 -19c92 0 161.833 10 209.5 30
s91.834 60.667 132.501 122l-684 1083h496l420 -708z" />
    <glyph glyph-name="afii10193" unicode="&#x45f;" horiz-adv-x="2031" 
d="M184 0v1126h432v-798h799v798h432v-1126h-626v-334h-410v334h-627z" />
    <glyph glyph-name="afii10146" unicode="&#x462;" horiz-adv-x="2283" 
d="M315 0v1022h-284v274h284v138h435v-138h677v-274h-677v-160h927c166 0 296.667 -38.333 392 -115s143 -181 143 -313c0 -134 -47.667 -239.833 -143 -317.5s-226 -116.5 -392 -116.5h-1362zM1612 555h-862v-248h862c103.333 0 155 41 155 123
c0 83.333 -51.667 125 -155 125z" />
    <glyph glyph-name="afii10194" unicode="&#x463;" horiz-adv-x="1910" 
d="M244 0v1004h-221v272h221v260h424v-260h483v-272h-483v-211h637c169.333 0 300.333 -35 393 -105s139 -167.667 139 -293c0 -126 -46.333 -223.333 -139 -292s-223.667 -103 -393 -103h-1061zM1257 520h-589v-248h589c57.333 0 99.333 10 126 30s40 51 40 93
c0 43.333 -13.333 75 -40 95s-68.667 30 -126 30z" />
    <glyph glyph-name="afii10147" unicode="&#x472;" horiz-adv-x="2519" 
d="M1233 -27c-363.333 0 -643.666 64.833 -840.999 194.5s-296 312.167 -296 547.5c0 237.333 98.667 420.833 296 550.5s477.666 194.5 840.999 194.5s643.666 -64.833 840.999 -194.5s296 -313.167 296 -550.5c0 -235.333 -98.667 -417.833 -296 -547.5
s-477.666 -194.5 -840.999 -194.5zM1233 1124c-186 0 -333.5 -19.667 -442.5 -59s-183.5 -100 -223.5 -182h1331c-40 82 -114.333 142.667 -223 182s-256 59 -442 59zM1233 309c192 0 343.333 21.167 454 63.5s184 107.166 220 194.499h-1348
c36 -87.333 109.333 -152.166 220 -194.499s262 -63.5 454 -63.5z" />
    <glyph glyph-name="afii10195" unicode="&#x473;" horiz-adv-x="2029" 
d="M1016 -27c-296 0 -524.667 51.333 -686 154s-242 248 -242 436s80.667 333.333 242 436s390 154 686 154c296.667 0 525.167 -51.333 685.5 -154s240.5 -248 240.5 -436c0 -190 -79.667 -335.833 -239 -437.5s-388.333 -152.5 -687 -152.5zM1016 852
c-139.333 0 -248 -14.667 -326 -44s-129.667 -75.333 -155 -138h960c-24.667 62 -76 107.833 -154 137.5s-186.333 44.5 -325 44.5zM1016 274c136 0 242.831 14.333 320.498 43s129.834 73.334 156.501 134.001h-956c26.667 -60.667 78.834 -105.334 156.501 -134.001
s185.167 -43 322.5 -43z" />
    <glyph glyph-name="afii10148" unicode="&#x474;" horiz-adv-x="2203" 
d="M854 0l-862 1434h522l580 -1004l379 641c87.333 149.333 169.833 251.5 247.5 306.5s180.167 82.5 307.5 82.5c38 0 81.667 -4 131 -12l16 -379c-78.667 8 -140 1 -184 -21s-87 -66.333 -129 -133l-543 -915h-465z" />
    <glyph glyph-name="afii10196" unicode="&#x475;" horiz-adv-x="1822" 
d="M727 0l-723 1126h498l424 -723l254 451c66.667 113.333 131.834 191.5 195.501 234.5s143.167 64.5 238.5 64.5c52.667 0 101 -5.33301 145 -16l13 -338c-64.667 6 -112.334 1.66699 -143.001 -13s-63.667 -48.667 -99 -102l-428 -684h-375z" />
    <glyph glyph-name="afii10050" unicode="&#x490;" horiz-adv-x="1945" 
d="M217 0v1434h1225v313h432v-662h-1204v-1085h-453z" />
    <glyph glyph-name="afii10098" unicode="&#x491;" horiz-adv-x="1599" 
d="M184 0v1126h975v295h410v-622h-953v-799h-432z" />
    <glyph glyph-name="Wgrave" unicode="&#x1e80;" horiz-adv-x="3086" 
d="M1735 1552h-385l-543 332h569zM637 0l-633 1434h485l400 -961l436 961h436l453 -947l391 947h479l-630 -1434h-435l-479 999l-473 -999h-430z" />
    <glyph glyph-name="wgrave" unicode="&#x1e81;" horiz-adv-x="2678" 
d="M1530 1245h-385l-543 332h569zM586 0l-582 1126h469l332 -696l348 696h395l369 -686l313 686h447l-563 -1126h-377l-385 731l-387 -731h-379z" />
    <glyph glyph-name="Wacute" unicode="&#x1e82;" horiz-adv-x="3086" 
d="M1354 1552l358 332h569l-542 -332h-385zM637 0l-633 1434h485l400 -961l436 961h436l453 -947l391 947h479l-630 -1434h-435l-479 999l-473 -999h-430z" />
    <glyph glyph-name="wacute" unicode="&#x1e83;" horiz-adv-x="2678" 
d="M1149 1245l358 332h570l-543 -332h-385zM586 0l-582 1126h469l332 -696l348 696h395l369 -686l313 686h447l-563 -1126h-377l-385 731l-387 -731h-379z" />
    <glyph glyph-name="Wdieresis" unicode="&#x1e84;" horiz-adv-x="3086" 
d="M1640 1552v332h469v-332h-469zM979 1552v332h469v-332h-469zM637 0l-633 1434h485l400 -961l436 961h436l453 -947l391 947h479l-630 -1434h-435l-479 999l-473 -999h-430z" />
    <glyph glyph-name="wdieresis" unicode="&#x1e85;" horiz-adv-x="2678" 
d="M1436 1245v332h469v-332h-469zM774 1245v332h469v-332h-469zM586 0l-582 1126h469l332 -696l348 696h395l369 -686l313 686h447l-563 -1126h-377l-385 731l-387 -731h-379z" />
    <glyph glyph-name="uni1E9E" unicode="&#x1e9e;" horiz-adv-x="2658" 
d="M197 0l0.00195312 771.999c0 228.667 81.167 400.5 243.5 515.5s411.5 172.5 747.5 172.5c270 0 542.333 -15.667 817 -47v-313l-307 -232l344 -18c105.333 -8 194.333 -22.667 267 -44s129.834 -49.5 171.501 -84.5s71.5 -74.167 89.5 -117.5s27 -93.666 27 -150.999
c0 -320 -321.667 -480 -965 -480c-316.667 0 -581.334 37 -794.001 111l114 322c173.333 -70 385 -105 635 -105c112.667 0 206.667 3.33301 282 10s132.166 16.5 170.499 29.5s65 27.167 80 42.5s22.5 33.666 22.5 54.999c0 32.667 -12.333 56 -37 70s-67.667 23 -129 27
l-766 36v267l363 276c-116.667 5.33301 -245.667 8 -387 8c-192.667 0 -330.334 -27.667 -413.001 -83s-124 -145.666 -124 -270.999v-768h-452z" />
    <glyph glyph-name="Ygrave" unicode="&#x1ef2;" horiz-adv-x="2091" 
d="M1237 1552h-385l-543 332h570zM823 0v543l-850 891h592l494 -533l502 533h557l-842 -889v-545h-453z" />
    <glyph glyph-name="ygrave" unicode="&#x1ef3;" horiz-adv-x="1777" 
d="M1079 1245h-385l-542 332h569zM1305 1126l468.999 0.000976562l-650 -1106c-72 -120.667 -139.333 -212.834 -202 -276.501s-133.167 -109.5 -211.5 -137.5s-176.5 -42 -294.5 -42c-99.333 0 -190.333 12.333 -273 37l-16 309c88.667 -12.667 161.667 -19 219 -19
c92 0 161.833 10 209.5 30s91.834 60.667 132.501 122l-684 1083h496l420 -708z" />
    <glyph glyph-name="endash" unicode="&#x2013;" horiz-adv-x="1697" 
d="M92 436v350h1514v-350h-1514z" />
    <glyph glyph-name="emdash" unicode="&#x2014;" horiz-adv-x="3393" 
d="M92 436v350h3209v-350h-3209z" />
    <glyph glyph-name="quoteleft" unicode="&#x2018;" horiz-adv-x="825" 
d="M631 678l-458.998 -0.00195312v293c0 162.667 34.833 279.334 104.5 350.001s189.167 108.334 358.5 113.001l18 -234c-84.667 0 -141.334 -9.5 -170.001 -28.5s-44.334 -58.5 -47.001 -118.5h195v-375z" />
    <glyph glyph-name="quoteright" unicode="&#x2019;" horiz-adv-x="825" 
d="M195 1434l458 0.00195312v-291c0 -164 -34.833 -281.333 -104.5 -352s-189.167 -108.334 -358.5 -113.001l-18 233c85.333 0 142.5 9.66699 171.5 29s44.833 59.666 47.5 120.999h-196v373z" />
    <glyph glyph-name="quotesinglbase" unicode="&#x201a;" horiz-adv-x="825" 
d="M184 373h458.998v-291c0 -163.333 -34.833 -280.166 -104.5 -350.499s-189.167 -107.833 -358.5 -112.5l-18 231c84.667 0 141.334 9.66699 170.001 29s44.334 59.666 47.001 120.999h-195v373z" />
    <glyph glyph-name="quotedblleft" unicode="&#x201c;" horiz-adv-x="1468" 
d="M172 678l0.00195312 292.998c0 162.667 34.833 279.334 104.5 350.001s189.167 108.334 358.5 113.001l18 -234c-84.667 0 -141.334 -9.5 -170.001 -28.5s-44.334 -58.5 -47.001 -118.5h195v-375h-459zM815.002 677.998v292.998c0 162.667 34.833 279.334 104.5 350.001
s189.167 108.334 358.5 113.001l18 -234c-84.667 0 -141.667 -9.5 -171 -28.5s-45.333 -58.5 -48 -118.5h197v-375h-459z" />
    <glyph glyph-name="quotedblright" unicode="&#x201d;" horiz-adv-x="1468" 
d="M195 1434l458 0.00195312v-291c0 -164 -34.833 -281.333 -104.5 -352s-189.167 -108.334 -358.5 -113.001l-18 233c85.333 0 142.5 9.66699 171.5 29s44.833 59.666 47.5 120.999h-196v373zM838 1434l457.997 0.00195312v-291c0 -164 -34.667 -281.333 -104 -352
s-188.666 -108.334 -357.999 -113.001l-19 233c84.667 0 141.334 9.66699 170.001 29s44.334 59.666 47.001 120.999h-194v373z" />
    <glyph glyph-name="quotedblbase" unicode="&#x201e;" horiz-adv-x="1468" 
d="M184 373h458.998v-291c0 -163.333 -34.833 -280.166 -104.5 -350.499s-189.167 -107.833 -358.5 -112.5l-18 231c84.667 0 141.334 9.66699 170.001 29s44.334 59.666 47.001 120.999h-195v373zM824.998 373l458.998 0.000976562v-291c0 -164 -34.667 -281 -104 -351
s-189 -107.333 -359 -112l-16 231c84.667 0 141.334 9.66699 170.001 29s44.334 59.666 47.001 120.999h-197v373z" />
    <glyph glyph-name="dagger" unicode="&#x2020;" horiz-adv-x="1617" 
d="M1509 768h-495v-1075h-410v1075h-495v358h495v410h410v-410h495v-358z" />
    <glyph glyph-name="daggerdbl" unicode="&#x2021;" horiz-adv-x="1693" 
d="M145 461h496v307h-496v358h496v410h412v-410h495v-358h-495v-307h495v-359h-495v-409h-412v409h-496v359z" />
    <glyph glyph-name="bullet" unicode="&#x2022;" horiz-adv-x="860" 
d="M170 432v526h520v-526h-520z" />
    <glyph glyph-name="ellipsis" unicode="&#x2026;" horiz-adv-x="2418" 
d="M184 0v373h459v-373h-459zM981 0v373h459v-373h-459zM1778 0v373h458v-373h-458z" />
    <glyph glyph-name="perthousand" unicode="&#x2030;" horiz-adv-x="3704" 
d="M688 709c-190 0 -336.167 33.6689 -438.5 101.002s-153.5 157.666 -153.5 270.999c0 112.667 51.333 203 154 271s248.667 102 438 102s335.333 -33.833 438 -101.5s154 -158.167 154 -271.5c0 -112.667 -51.5 -202.834 -154.5 -270.501s-248.833 -101.5 -437.5 -101.5z
M774 0.00195312h-551l1874 1434h551zM688 956.002c76 0 133.333 10.833 172 32.5s58 52.5 58 92.5s-19.333 70.833 -58 92.5s-96 32.5 -172 32.5c-152.667 0 -229 -41.667 -229 -125c0 -40 19.333 -70.833 58 -92.5s95.667 -32.5 171 -32.5zM2183 -19.998
c-189.333 0 -335.333 33.6689 -438 101.002s-154 157.666 -154 270.999c0 112.667 51.5 203 154.5 271s248.833 102 437.5 102c180 0 319.333 -34.667 418 -104c98.667 69.333 238 104 418 104c189.333 0 335.333 -33.833 438 -101.5s154 -158.167 154 -271.5
c0 -112.667 -51.5 -202.834 -154.5 -270.501s-248.833 -101.5 -437.5 -101.5c-182.667 0 -322 34.667 -418 104c-98.667 -69.333 -238 -104 -418 -104zM2183 227.004c76.667 0 134.167 10.833 172.5 32.5s57.5 52.5 57.5 92.5s-19.167 70.833 -57.5 92.5
s-95.833 32.5 -172.5 32.5c-151.333 0 -227 -41.667 -227 -125c0 -40 19 -70.833 57 -92.5s94.667 -32.5 170 -32.5zM3019 227.004c75.333 0 132 10.833 170 32.5s57 52.5 57 92.5s-19 70.833 -57 92.5s-94.667 32.5 -170 32.5c-153.333 0 -230 -41.667 -230 -125
c0 -40 19.333 -70.833 58 -92.5s96 -32.5 172 -32.5z" />
    <glyph glyph-name="guilsinglleft" unicode="&#x2039;" horiz-adv-x="1054" 
d="M926 416v-396l-813 332v422l813 332v-385l-496 -158z" />
    <glyph glyph-name="guilsinglright" unicode="&#x203a;" horiz-adv-x="1054" 
d="M942 352l-813 -332v386l496 157l-496 148v395l813 -332v-422z" />
    <glyph glyph-name="fraction" unicode="&#x2044;" horiz-adv-x="2031" 
d="M403 0h-403l1628 1434h404z" />
    <glyph glyph-name="zerosuperior" unicode="&#x2070;" horiz-adv-x="1255" 
d="M629 926c-181.333 0 -321 32.5 -419 97.5s-147 155.833 -147 272.5c0 117.333 49 208.5 147 273.5s237.667 97.5 419 97.5c180 0 318.833 -32.5 416.5 -97.5s146.5 -156.167 146.5 -273.5c0 -116.667 -48.833 -207.5 -146.5 -272.5s-236.5 -97.5 -416.5 -97.5zM629 1141
c85.333 0 148.334 12.668 189.001 38.001s61 64.333 61 117c0 53.333 -20.5 92.666 -61.5 117.999s-103.833 38 -188.5 38c-168 0 -252 -52 -252 -156c0 -52.667 20.667 -91.667 62 -117s104.666 -38 189.999 -38z" />
    <glyph glyph-name="foursuperior" unicode="&#x2074;" horiz-adv-x="1200" 
d="M987 938h-274v111h-662v174l701 432h235v-420h162v-186h-162v-111zM395 1235h318v201z" />
    <glyph glyph-name="fivesuperior" unicode="&#x2075;" horiz-adv-x="1124" 
d="M565 926c-150 0 -265.333 13.832 -346 41.499s-135.334 75.834 -164.001 144.501l291 62c12.667 -24 34 -40.333 64 -49s81 -13 153 -13c78.667 0 132.5 5.5 161.5 16.5s43.5 28.833 43.5 53.5c0 22.667 -14.5 39.167 -43.5 49.5s-82.833 15.5 -161.5 15.5
c-67.333 0 -115.666 -2.83301 -144.999 -8.5s-58.666 -15.834 -87.999 -30.501l-244 31l53 416h865v-180h-629l-10 -103c66 27.333 160 41 282 41c139.333 -1.33301 243.666 -20.666 312.999 -57.999s104.333 -95 105 -173c0 -170.667 -166.667 -256 -500 -256z" />
    <glyph glyph-name="sixsuperior" unicode="&#x2076;" horiz-adv-x="1175" 
d="M63 1290c0 120.667 48.334 213.667 145.001 279s232 98 406 98c267.333 0 434 -56.667 500 -170l-289 -72c-24.667 20 -52.5 35 -83.5 45s-74.167 15 -129.5 15c-82.667 0 -144.334 -12.167 -185.001 -36.5s-65.667 -62.166 -75 -113.499c78 40 186 60 324 60
c156 0 268.667 -18.833 338 -56.5s104 -91.834 104 -162.501c0 -78 -42.167 -139.167 -126.5 -183.5s-213.5 -66.5 -387.5 -66.5c-360.667 0 -541 121.333 -541 364zM598.001 1114c76 0 131.167 5 165.5 15s51.5 25.667 51.5 47c0 20.667 -17.167 35.667 -51.5 45
s-89.5 14 -165.5 14c-144.667 0 -217 -19.667 -217 -59c0 -41.333 72.333 -62 217 -62z" />
    <glyph glyph-name="sevensuperior" unicode="&#x2077;" horiz-adv-x="1015" 
d="M965 1485l-435 -547h-337l444 516h-588v201h916v-170z" />
    </font>
</defs>
</svg>
