<?xml version="1.0" standalone="no"?>
<!DOCTYPE svg PUBLIC "-//W3C//DTD SVG 1.1//EN" "http://www.w3.org/Graphics/SVG/1.1/DTD/svg11.dtd" >
<svg>
<metadata>
Created by FontForge 20090914 at Tue Aug 31 14:21:48 2021
 By www-data
Copyright 2019 BlackFoundry
</metadata>
<defs>
<font id="GrtskGiga-Semibold" horiz-adv-x="770" >
  <font-face 
    font-family="Grtsk Giga Semibold"
    font-weight="600"
    font-stretch="normal"
    units-per-em="2048"
    panose-1="0 0 0 0 0 0 0 0 0 0"
    ascent="1536"
    descent="-512"
    x-height="1122"
    cap-height="1434"
    bbox="-326 -449.001 3838 2009"
    underline-thickness="198"
    underline-position="-317"
    unicode-range="U+000D-U+F6C3"
  />
<missing-glyph horiz-adv-x="2516" 
d="M240 0v1434h2035v-1434h-2035zM625 295h1267v842h-1267v-842z" />
    <glyph glyph-name=".notdef" horiz-adv-x="2516" 
d="M240 0v1434h2035v-1434h-2035zM625 295h1267v842h-1267v-842z" />
    <glyph glyph-name=".null" horiz-adv-x="0" 
 />
    <glyph glyph-name=".null" horiz-adv-x="0" 
 />
    <glyph glyph-name="CR" unicode="&#xd;" horiz-adv-x="0" 
 />
    <glyph glyph-name="space" unicode=" " horiz-adv-x="671" 
 />
    <glyph glyph-name="exclam" unicode="!" horiz-adv-x="868" 
d="M606 432h-344l-24 1002h395zM238 0v297h393v-297h-393z" />
    <glyph glyph-name="quotedbl" unicode="&#x22;" horiz-adv-x="1300" 
d="M201 723l-17 711h348l-18 -711h-313zM784 723l-16 711h348l-16 -711h-316z" />
    <glyph glyph-name="numbersign" unicode="#" horiz-adv-x="2480" 
d="M295 0l115 309h-355v258h449l112 299h-411v258h506l114 310h373l-115 -310h611l114 310h373l-115 -310h359v-258h-453l-112 -299h415v-258h-510l-114 -309h-373l115 309h-609l-114 -309h-375zM879 567h608l112 299h-610z" />
    <glyph glyph-name="dollar" unicode="$" horiz-adv-x="2248" 
d="M100 422l404 61c42.667 -140.667 219.334 -217 530.001 -229v326l-266 12c-213.333 11.333 -370.833 50.666 -472.5 117.999s-152.5 162.333 -152.5 285c0 143.333 74.833 254.666 224.5 333.999s371.834 122.333 666.501 129v139h176v-141
c513.333 -14 809.666 -154 888.999 -420l-403 -61c-22 63.333 -71.833 111.833 -149.5 145.5s-189.834 53.5 -336.501 59.5v-312l299 -12c215.333 -13.333 373.666 -53.166 474.999 -119.499s152 -160.833 152 -283.5c0 -305.333 -308.667 -464.666 -926 -477.999v-139h-176
v141c-545.333 14 -856.666 162.333 -933.999 445zM868 883l166.001 -5.99902v305c-178.667 -2.66699 -306.5 -17.167 -383.5 -43.5s-115.5 -64.5 -115.5 -114.5c0 -44.667 24.167 -77.334 72.5 -98.001s135.166 -35 260.499 -43zM1389 565.001l-179.001 8v-321
c191.333 2.66699 328.666 17.5 411.999 44.5s125 66.833 125 119.5c0 34.667 -10.167 61.5 -30.5 80.5s-55.666 33.833 -105.999 44.5s-124.166 18.667 -221.499 24z" />
    <glyph glyph-name="percent" unicode="%" horiz-adv-x="2678" 
d="M645 1454c173.333 0 307.5 -32.334 402.5 -97.001s142.5 -151 142.5 -259c0 -107.333 -47.667 -193.666 -143 -258.999s-229.333 -98 -402 -98c-173.333 0 -307.5 32.5 -402.5 97.5s-142.5 151.5 -142.5 259.5c0 107.333 47.667 193.5 143 258.5s229.333 97.5 402 97.5z
M2005 1434h459l-1792 -1434h-461zM645 953.999c76.667 0 134.834 12.667 174.501 38s59.5 60.666 59.5 105.999c0 44.667 -19.833 79.667 -59.5 105s-97.834 38 -174.501 38s-134.667 -12.667 -174 -38s-59 -60.333 -59 -105c0 -45.333 19.667 -80.666 59 -105.999
s97.333 -38 174 -38zM2034 691.999c172.667 0 306.5 -32.5 401.5 -97.5s142.5 -151.167 142.5 -258.5c0 -108 -47.333 -194.333 -142 -259s-228.667 -97 -402 -97s-307.5 32.333 -402.5 97s-142.5 151 -142.5 259c0 107.333 47.667 193.5 143 258.5s229.333 97.5 402 97.5z
M2034 192.999c76.667 0 135 12.667 175 38s60 60.333 60 105s-20 79.667 -60 105s-98.333 38 -175 38s-134.834 -12.667 -174.501 -38s-59.5 -60.333 -59.5 -105s19.833 -79.667 59.5 -105s97.834 -38 174.501 -38z" />
    <glyph glyph-name="ampersand" unicode="&#x26;" horiz-adv-x="2424" 
d="M920 -25c-124 0 -234.168 7.16699 -330.501 21.5s-176 34 -239 59s-115 55.5 -156 91.5s-70 74.5 -87 115.5s-25.5 85.833 -25.5 134.5c0 93.333 35.667 171 107 233s191.333 114 360 156c-75.333 52.667 -126.666 100.834 -153.999 144.501s-41 93.834 -41 150.501
c0 113.333 57.5 204.5 172.5 273.5s278.833 103.5 491.5 103.5c205.333 0 363.833 -33.333 475.5 -100s167.5 -155.334 167.5 -266.001c0 -53.333 -13 -100.5 -39 -141.5s-72 -79.5 -138 -115.5s-153.667 -68 -263 -96l442 -256c76 74 131.333 165 166 273l362 -58
c-35.333 -146.667 -113 -274.334 -233 -383.001l547 -315h-578l-239 135c-220.667 -106.667 -476.667 -160 -768 -160zM730.999 1071c0 -29.333 14.5 -55.668 43.5 -79.001s86.833 -57.666 173.5 -102.999l13 4c91.333 18 162.166 37.167 212.499 57.5s83 39.5 98 57.5
s22.5 39.667 22.5 65c0 42 -23 75 -69 99s-115.667 36 -209 36c-95.333 0 -166.666 -12.167 -213.999 -36.5s-71 -57.833 -71 -100.5zM484.999 431.998c0 -122.667 149 -184 447 -184c170.667 0 318 21 442 63l-561 316c-124.667 -21.333 -210.5 -47 -257.5 -77
s-70.5 -69.333 -70.5 -118z" />
    <glyph glyph-name="quotesingle" unicode="'" horiz-adv-x="714" 
d="M201 723l-17 711h348l-18 -711h-313z" />
    <glyph glyph-name="parenleft" unicode="(" horiz-adv-x="964" 
d="M553 -307c-130 142.667 -225 285.169 -285 427.502s-90 289.833 -90 442.5c0 303.333 125 593.666 375 870.999h350c-134.667 -168 -230.167 -318 -286.5 -450s-84.5 -272.333 -84.5 -421s28.167 -288.834 84.5 -420.501s151.833 -281.5 286.5 -449.5h-350z" />
    <glyph glyph-name="parenright" unicode=")" horiz-adv-x="964" 
d="M412 1434c249.333 -274.667 374 -564.999 374 -870.999c0 -150.667 -30 -297.5 -90 -440.5s-154.667 -286.167 -284 -429.5h-351c135.333 168 231 317.667 287 449s84 271.666 84 420.999c0 148.667 -28.167 289 -84.5 421s-151.833 282 -286.5 450h351z" />
    <glyph glyph-name="asterisk" unicode="*" horiz-adv-x="1148" 
d="M977 721l-205 -162l-199 285l-198 -285l-205 162l221 223l-315 60l76 251l317 -120l-33 309h275l-31 -307l315 118l78 -251l-317 -60z" />
    <glyph glyph-name="plus" unicode="+" horiz-adv-x="1511" 
d="M913 1182v-326h465v-260h-465v-326h-315v326h-465v260h465v326h315z" />
    <glyph glyph-name="comma" unicode="," horiz-adv-x="776" 
d="M190 330h394v-279c0 -152 -31.667 -260.333 -95 -325s-173 -99 -329 -103l-15 199c88 0 145.833 11.667 173.5 35s41.5 71 41.5 143h-170v330z" />
    <glyph glyph-name="hyphen" unicode="-" horiz-adv-x="1263" 
d="M100 457v297h1063v-297h-1063z" />
    <glyph glyph-name="period" unicode="." horiz-adv-x="776" 
d="M190 0v330h394v-330h-394z" />
    <glyph glyph-name="slash" unicode="/" horiz-adv-x="1134" 
d="M-12 -307l719 1741h378l-720 -1741h-377z" />
    <glyph glyph-name="zero" unicode="0" horiz-adv-x="2347" 
d="M1174 -25c-336.667 0 -597.665 65 -782.998 195s-278 312.333 -278 547s92.5 416.834 277.5 546.501s446.167 194.5 783.5 194.5s598.666 -64.833 783.999 -194.5s278 -311.834 278 -546.501s-92.833 -417 -278.5 -547s-446.834 -195 -783.501 -195zM1174 270
c222 0 389 37.667 501 113s168 186.666 168 333.999s-56 258.5 -168 333.5s-279 112.5 -501 112.5s-389.167 -37.667 -501.5 -113s-168.5 -186.333 -168.5 -333c0 -147.333 56.167 -258.666 168.5 -333.999s279.5 -113 501.5 -113z" />
    <glyph glyph-name="one" unicode="1" horiz-adv-x="1998" 
d="M121 0v295h780v825l-725 -112v305l780 121h328v-1139h670v-295h-1833z" />
    <glyph glyph-name="two" unicode="2" horiz-adv-x="2052" 
d="M123 289l947.999 379.003c133.333 52.667 233 96.167 299 130.5s111.167 65.166 135.5 92.499s36.5 58.666 36.5 93.999c0 63.333 -39.167 110.666 -117.5 141.999s-202.833 47 -373.5 47c-192 0 -332.167 -20.5 -420.5 -61.5s-139.5 -105.167 -153.5 -192.5l-387 67
c38.667 158 136.334 276 293.001 354s380 117 670 117c290.667 0 512.5 -38.833 665.5 -116.5s229.5 -188.167 229.5 -331.5c0 -46.667 -5.66699 -88 -17 -124s-32.166 -72.5 -62.499 -109.5s-72.5 -72.333 -126.5 -106s-122.833 -69 -206.5 -106
s-185.834 -76.5 -306.501 -118.5l-387 -151h1126v-295h-1845v289z" />
    <glyph glyph-name="three" unicode="3" horiz-adv-x="2142" 
d="M2038 414c0 -292.667 -326.998 -439.001 -980.998 -439.001c-304 0 -534.333 34.833 -691 104.5s-254.667 178.5 -294 326.5l399 75c16.667 -80.667 71.667 -140 165 -178s235.666 -57 426.999 -57c187.333 0 324.666 15.333 411.999 46s131 78 131 142
c0 51.333 -25.333 89.833 -76 115.5s-130.667 38.5 -240 38.5h-614v270h612c108.667 0 187.667 13.167 237 39.5s74 65.166 74 116.499c0 116 -179.333 174 -538 174c-184.667 0 -324.334 -18.667 -419.001 -56s-151 -94.333 -169 -171l-375 77c80 280 400.333 420 961 420
c314.667 0 552 -33.333 712 -100s240 -165.667 240 -297c0 -78.667 -26.167 -144.667 -78.5 -198s-133.166 -94.666 -242.499 -123.999c232 -45.333 348 -153.666 348 -324.999z" />
    <glyph glyph-name="four" unicode="4" horiz-adv-x="2203" 
d="M1821 0h-379v260h-1387v277l1387 897h379v-895h342v-279h-342v-260zM543 539h899v575z" />
    <glyph glyph-name="five" unicode="5" horiz-adv-x="2113" 
d="M1069 -25c-282.667 0 -500.335 27.667 -653.002 83s-256.667 149.333 -312 282l400 86c23.333 -60 79.833 -102.667 169.5 -128s222.834 -38 399.501 -38c193.333 0 332.833 17.167 418.5 51.5s128.5 88.833 128.5 163.5c0 72 -43.333 125.5 -130 160.5
s-225.667 52.5 -417 52.5c-157.333 0 -280.166 -8 -368.499 -24s-152.5 -43.333 -192.5 -82l-350 28l110 824h1624v-263h-1296l-49 -352c161.333 80.667 371 121 629 121c552 0 829 -155 831 -465c0 -333.333 -314 -500 -942 -500z" />
    <glyph glyph-name="six" unicode="6" horiz-adv-x="2203" 
d="M113 705c0 239.333 89.833 424.667 269.5 556s435.167 197 766.5 197c264.667 0 475 -29.833 631 -89.5s260.333 -151.167 313 -274.5l-397 -78c-24 55.333 -81 95.833 -171 121.5s-216 38.5 -378 38.5c-212 0 -372 -38 -480 -114s-165 -195 -171 -357
c68 62.667 167 111 297 145s282.667 51 458 51c566.667 0 850 -148.667 850 -446c0 -158 -80.833 -277.5 -242.5 -358.5s-403.5 -121.5 -725.5 -121.5c-336 0 -590 62 -762 186s-258 305.333 -258 544zM1135 256.001c378 0 567.001 64.999 567.001 194.999
c0 64.667 -46.333 112.834 -139 144.501s-235.334 47.5 -428.001 47.5c-381.333 0 -572 -60.667 -572 -182c0 -66.667 48 -117.5 144 -152.5s238.667 -52.5 428 -52.5z" />
    <glyph glyph-name="seven" unicode="7" horiz-adv-x="1884" 
d="M1833 1149l-977 -1149h-473l995 1137h-1325v297h1780v-285z" />
    <glyph glyph-name="eight" unicode="8" horiz-adv-x="2240" 
d="M1120 -25c-334 0 -587.5 37.001 -760.5 111.001s-259.5 182 -259.5 324c0 78 34.667 144.667 104 200s170 98.333 302 129c-109.333 33.333 -193 77.166 -251 131.499s-87 117.833 -87 190.5c0 127.333 83.5 225.333 250.5 294s400.833 103 701.5 103
c300 0 533.5 -34.5 700.5 -103.5s250.5 -167.5 250.5 -295.5c0 -72 -28.833 -135 -86.5 -189s-140.834 -97.667 -249.501 -131c132 -30.667 232.5 -73.667 301.5 -129s103.5 -122 103.5 -200c0 -142 -86.667 -250 -260 -324s-426.666 -111 -759.999 -111zM1665 1028
c0 54 -42.833 93.833 -128.5 119.5s-224.5 38.5 -416.5 38.5c-193.333 0 -332.833 -12.833 -418.5 -38.5s-128.5 -65.5 -128.5 -119.5c0 -55.333 42.5 -95.5 127.5 -120.5s224.833 -37.5 419.5 -37.5c193.333 0 332.5 12.5 417.5 37.5s127.5 65.167 127.5 120.5z
M1120 246.001c213.333 0 367.667 14 463 42s143 71.333 143 130c0 59.333 -47.5 103.166 -142.5 131.499s-249.5 42.5 -463.5 42.5c-214.667 0 -369.667 -14.167 -465 -42.5s-143 -72.166 -143 -131.499c0 -58.667 48 -102 144 -130s250.667 -42 464 -42z" />
    <glyph glyph-name="nine" unicode="9" horiz-adv-x="2205" 
d="M2093 729c0 -239.333 -90 -424.832 -270 -556.499s-435.333 -197.5 -766 -197.5c-264 0 -474.167 30 -630.5 90s-260.833 151.667 -313.5 275l397 78c24 -55.333 81 -95.833 171 -121.5s216 -38.5 378 -38.5c211.333 0 371 37.833 479 113.5s165.333 194.167 172 355.5
c-69.333 -62 -169 -110 -299 -144s-282.333 -51 -457 -51c-566.667 0 -850 149 -850 447c0 158 81 277.333 243 358s404 121 726 121c336 0 590 -61.833 762 -185.5s258 -304.834 258 -543.501zM1071 1178c-378 0 -567 -64.999 -567 -194.999
c0 -64.667 46.5 -112.834 139.5 -144.501s235.5 -47.5 427.5 -47.5c380.667 0 571 60.667 571 182c0 66.667 -47.833 117.5 -143.5 152.5s-238.167 52.5 -427.5 52.5z" />
    <glyph glyph-name="colon" unicode=":" horiz-adv-x="776" 
d="M190 793v329h394v-329h-394zM190 0v330h394v-330h-394z" />
    <glyph glyph-name="semicolon" unicode=";" horiz-adv-x="774" 
d="M190 793v329h394v-329h-394zM190 330h394v-279c0 -152 -31.667 -260.333 -95 -325s-173 -99 -329 -103l-15 199c88 0 145.833 11.667 173.5 35s41.5 71 41.5 143h-170v330z" />
    <glyph glyph-name="less" unicode="&#x3c;" horiz-adv-x="1511" 
d="M125 580v276l1245 453v-295l-870 -287l870 -287v-315z" />
    <glyph glyph-name="equal" unicode="=" horiz-adv-x="1511" 
d="M1378 840h-1245v260h1245v-260zM1378 352h-1245v260h1245v-260z" />
    <glyph glyph-name="greater" unicode="&#x3e;" horiz-adv-x="1511" 
d="M1386 856v-276l-1245 -455v305l871 287l-871 287v305z" />
    <glyph glyph-name="question" unicode="?" horiz-adv-x="1972" 
d="M983 1169c-329.333 0 -508.336 -85.334 -537.003 -256.001l-385 62c24.667 151.333 117.334 269.666 278.001 354.999s375.334 128 644.001 128c150 0 283 -11.167 399 -33.5s209.833 -53.5 281.5 -93.5s125.667 -86.333 162 -139s54.5 -110.667 54.5 -174
c0 -48.667 -8.5 -92.167 -25.5 -130.5s-39.667 -70.166 -68 -95.499s-61 -47.666 -98 -66.999s-76 -35.5 -117 -48.5s-82 -25.333 -123 -37s-80 -23.5 -117 -35.5s-70 -25.333 -99 -40s-52 -33 -69 -55s-25.833 -47.667 -26.5 -77h-389c2 58.667 14 111 36 157
s50.5 83 85.5 111s74.5 52.833 118.5 74.5s88.833 38.5 134.5 50.5s90.334 24.333 134.001 37s82.667 24.5 117 35.5s61.833 25.667 82.5 44s31 39.833 31 64.5c0 108.667 -168 163 -504 163zM744.997 -0.000976562v297h394v-297h-394z" />
    <glyph glyph-name="at" unicode="@" horiz-adv-x="2873" 
d="M2204 -18c-108 0 -199.001 17.166 -273.001 51.499s-123.667 83.166 -149 146.499c-60 -66.667 -137.167 -117.834 -231.5 -153.501s-201.5 -53.5 -321.5 -53.5c-153.333 0 -270.166 27 -350.499 81s-120.5 126.667 -120.5 218c0 45.333 8.5 85 25.5 119
s44.833 64.5 83.5 91.5s90.834 48.667 156.501 65s145.834 27.833 240.501 34.5l493 34v5c0 66.667 -23.5 115 -70.5 145s-118.167 45 -213.5 45c-96.667 0 -171.167 -12.833 -223.5 -38.5s-84.5 -66.834 -96.5 -123.501l-348 37c31.333 111.333 104.333 195.833 219 253.5
s265 86.5 451 86.5c222.667 0 383.667 -32.667 483 -98s149 -165.666 149 -300.999v-328c0 -55.333 13.333 -95.833 40 -121.5s67.334 -38.5 122.001 -38.5c92 0 166.833 37.833 224.5 113.5s86.5 181.167 86.5 316.5c0 106 -22.833 202.333 -68.5 289
s-113.5 162.334 -203.5 227.001s-206.833 114.667 -350.5 150s-308.834 53 -495.501 53c-191.333 0 -361.833 -20.167 -511.5 -60.5s-272.167 -97.166 -367.5 -170.499s-167.5 -159.5 -216.5 -258.5s-73.5 -208.833 -73.5 -329.5c0 -116.667 22.333 -221.167 67 -313.5
s111.834 -171.666 201.501 -237.999s205.667 -117.333 348 -153s307.5 -53.5 495.5 -53.5c229.333 0 454.666 35 675.999 105l45 -133c-222.667 -78 -463 -117 -721 -117c-212.667 0 -400.834 21.167 -564.501 63.5s-297.834 103.166 -402.501 182.499
s-183.667 174 -237 284s-80 234.333 -80 373c0 142.667 29.667 273 89 391s145 219.667 257 305s252.833 151.5 422.5 198.5s360.5 70.5 572.5 70.5c204 0 387.833 -21.167 551.5 -63.5s299.167 -101.666 406.5 -177.999s189.666 -167.333 247 -273
c57.333 -105.667 86 -222.5 86 -350.5c0 -86 -11.5 -164.5 -34.5 -235.5s-56.667 -132.833 -101 -185.5s-101.833 -93.5 -172.5 -122.5s-151 -43.5 -241 -43.5zM1108 298.999c0 -36 15.333 -64.168 46 -84.501s78 -30.5 142 -30.5c132 0 241.333 24.833 328 74.5
s133 111.5 139 185.5l-489 -36c-110.667 -9.33301 -166 -45.666 -166 -108.999z" />
    <glyph glyph-name="A" unicode="A" horiz-adv-x="2336" 
d="M1890 0l-192 295h-1073l-193 -295h-426l965 1434h393l967 -1434h-441zM805 569h713l-357 547z" />
    <glyph glyph-name="B" unicode="B" horiz-adv-x="2359" 
d="M240 0l0.000976562 1434h1390c161.333 0 288.666 -32.333 381.999 -97s140 -154.667 140 -270c0 -74 -22 -139.5 -66 -196.5s-110 -100.167 -198 -129.5c109.333 -25.333 192 -68.333 248 -129s84 -135 84 -223c0 -122.667 -47.5 -218.167 -142.5 -286.5
s-229.167 -102.5 -402.5 -102.5h-1435zM1552 1174l-936 -0.000976562v-320h940c66.667 0 118.167 13.833 154.5 41.5s54.5 67.834 54.5 120.501c0 105.333 -71 158 -213 158zM1587 591.999h-971v-332h971c80 0 139 13.5 177 40.5s57 68.167 57 123.5c0 112 -78 168 -234 168
z" />
    <glyph glyph-name="C" unicode="C" horiz-adv-x="2340" 
d="M113 717c0 232 96.666 413.499 289.999 544.499s463.666 196.5 810.999 196.5c287.333 0 518.666 -41.833 693.999 -125.5s286.333 -206.167 333 -367.5l-408 -80c-56.667 184 -263 276 -619 276c-473.333 0 -710 -148 -710 -444c0 -298 236.667 -447 710 -447
c366.667 0 574.334 95.667 623.001 287l401 -78c-46.667 -167.333 -156.167 -293.166 -328.5 -377.499s-404.166 -126.5 -695.499 -126.5c-351.333 0 -622.666 65.167 -813.999 195.5s-287 312.5 -287 546.5z" />
    <glyph glyph-name="D" unicode="D" horiz-adv-x="2420" 
d="M240 0v1434h1134c293.333 0 518.333 -62.333 675 -187s235 -302 235 -532c0 -229.333 -78.333 -405.833 -235 -529.5s-381.667 -185.5 -675 -185.5h-1134zM1403 297c324.667 0 487 139.333 487 418c0 281.333 -162.333 422 -487 422h-778v-840h778z" />
    <glyph glyph-name="E" unicode="E" horiz-adv-x="2146" 
d="M240 0v1434h1767v-277h-1395v-289h1256v-272h-1256v-320h1409v-276h-1781z" />
    <glyph glyph-name="F" unicode="F" horiz-adv-x="2101" 
d="M240 0v1434h1765v-297h-1380v-338h1243v-295h-1243v-504h-385z" />
    <glyph glyph-name="G" unicode="G" horiz-adv-x="2473" 
d="M113 715c0 236 97.833 418.833 293.5 548.5s473.167 194.5 832.5 194.5c290 0 521.667 -38.333 695 -115s285.666 -189 337 -337l-401 -82c-33.333 80 -101.333 139.5 -204 178.5s-245.667 58.5 -429 58.5c-488.667 0 -733 -148.667 -733 -446
c0 -296.667 243.667 -445 731 -445c374.667 0 596.667 84 666 252h-709v260h1110v-782h-297l-35 258c-146 -188.667 -409.333 -283 -790 -283c-339.333 0 -602 64.667 -788 194s-279 311.333 -279 546z" />
    <glyph glyph-name="H" unicode="H" horiz-adv-x="2519" 
d="M240 0v1434h385v-551h1271v551h383v-1434h-383v588h-1271v-588h-385z" />
    <glyph glyph-name="I" unicode="I" horiz-adv-x="864" 
d="M240 0v1434h385v-1434h-385z" />
    <glyph glyph-name="J" unicode="J" horiz-adv-x="1431" 
d="M1219 612c0 -150 -24.6689 -271 -74.002 -363s-129 -160.667 -239 -206s-255.667 -68 -437 -68c-131.333 0 -257.666 10.333 -378.999 31l-12 297c126.667 -18 243.334 -27 350.001 -27c150 0 255.167 25 315.5 75s90.5 133.667 90.5 251v832h385v-822z" />
    <glyph glyph-name="K" unicode="K" horiz-adv-x="2273" 
d="M240 0v1434h381v-654l1030 654h567l-1055 -664l1127 -770h-615l-833 567l-221 -139v-428h-381z" />
    <glyph glyph-name="L" unicode="L" horiz-adv-x="1890" 
d="M240 0v1434h385v-1137h1179v-297h-1564z" />
    <glyph glyph-name="M" unicode="M" horiz-adv-x="2897" 
d="M240 0v1434h397l817 -922l811 922h393v-1434h-372v985l-672 -782h-328l-674 770v-973h-372z" />
    <glyph glyph-name="N" unicode="N" horiz-adv-x="2465" 
d="M240 0v1434h372l1252 -1045v1045h360v-1434h-371l-1253 1042v-1042h-360z" />
    <glyph glyph-name="O" unicode="O" horiz-adv-x="2461" 
d="M1231 -25c-356.667 0 -632.167 64.833 -826.5 194.5s-291.5 311.5 -291.5 545.5c0 235.333 97 418 291 548s469.667 195 827 195c356.667 0 632.167 -65 826.5 -195s291.5 -312.667 291.5 -548c0 -234 -97.167 -415.833 -291.5 -545.5s-469.833 -194.5 -826.5 -194.5z
M1231 272c483.333 0 725 147.667 725 443c0 297.333 -241.667 446 -725 446c-484.667 0 -727 -148.667 -727 -446c0 -295.333 242.333 -443 727 -443z" />
    <glyph glyph-name="P" unicode="P" horiz-adv-x="2217" 
d="M240 0v1434h1251c194.667 0 347.5 -46.833 458.5 -140.5s166.5 -222.5 166.5 -386.5c0 -162 -56 -289.167 -168 -381.5s-267 -138.5 -465 -138.5h-858v-387h-385zM1423 1139h-798v-459h798c200.667 0 301 75.667 301 227c0 154.667 -100.333 232 -301 232z" />
    <glyph glyph-name="Q" unicode="Q" horiz-adv-x="2506" 
d="M1231 -25c-356.667 0 -632.166 64.833 -826.499 194.5s-291.5 311.5 -291.5 545.5c0 235.333 97 418 291 548s469.667 195 827 195c356.667 0 632.167 -65 826.5 -195s291.5 -312.667 291.5 -548c0 -126.667 -29.167 -238.667 -87.5 -336s-143.833 -178 -256.5 -242
l287 -303h-445l-176 182c-130.667 -27.333 -277.334 -41 -440.001 -41zM1231 270c73.333 0 145.667 4.33301 217 13l-270 286h417l179 -188c121.333 72.667 182 184 182 334c0 297.333 -241.667 446 -725 446c-484.667 0 -727 -148.667 -727 -446
c0 -296.667 242.333 -445 727 -445z" />
    <glyph glyph-name="R" unicode="R" horiz-adv-x="2252" 
d="M240 0l0.000976562 1434h1278c187.333 0 330.666 -41.333 429.999 -124s149 -197 149 -343c0 -131.333 -44.333 -238.5 -133 -321.5s-213.667 -130.167 -375 -141.5l561 -504h-503l-517 475h-505v-475h-385zM1450 1151h-825v-393h825c172 0 258 65.333 258 196
c0 131.333 -86 197 -258 197z" />
    <glyph glyph-name="S" unicode="S" horiz-adv-x="2244" 
d="M100 422l403.997 60.998c46.667 -154 255.334 -231 626.001 -231c149.333 0 270 6.5 362 19.5s157.5 31.167 196.5 54.5s58.5 53.333 58.5 90c0 34 -10.167 60.333 -30.5 79s-55.666 33.5 -105.999 44.5s-124.166 19.5 -221.499 25.5l-621 27
c-213.333 12.667 -370.833 52.334 -472.5 119.001s-152.5 161.334 -152.5 284.001c0 149.333 81.167 263.833 243.5 343.5s403.5 119.5 723.5 119.5c576.667 0 906.334 -140.667 989.001 -422l-403 -61c-24 70.667 -83 122.834 -177 156.501s-231.667 50.5 -413 50.5
c-205.333 0 -351.833 -13 -439.5 -39s-131.5 -65.667 -131.5 -119c0 -44.667 24.167 -77.334 72.5 -98.001s135.166 -35 260.499 -43l641 -27c216 -13.333 374.5 -53.333 475.5 -120s151.5 -161.667 151.5 -285c0 -317.333 -336.667 -476 -1010 -476
c-602.667 0 -944.667 149 -1026 447z" />
    <glyph glyph-name="T" unicode="T" horiz-adv-x="2088" 
d="M852 0v1137h-795v297h1975v-297h-797v-1137h-383z" />
    <glyph glyph-name="U" unicode="U" horiz-adv-x="2347" 
d="M2157 727c0 -240.667 -85.499 -426.166 -256.499 -556.499s-414.167 -195.5 -729.5 -195.5c-314.667 0 -556.834 65 -726.501 195s-254.5 315.667 -254.5 557v707h385v-697c0 -156.667 49.167 -273.334 147.5 -350.001s247.833 -115 448.5 -115c202 0 353 38.5 453 115.5
s150 193.5 150 349.5v697h383v-707z" />
    <glyph glyph-name="V" unicode="V" horiz-adv-x="2234" 
d="M461 1434l663 -1076l670 1076h426l-905 -1434h-395l-906 1434h447z" />
    <glyph glyph-name="W" unicode="W" horiz-adv-x="3072" 
d="M653 0l-639 1434h412l442 -1037l482 1037h372l494 -1022l436 1022h406l-641 -1434h-371l-514 1065l-510 -1065h-369z" />
    <glyph glyph-name="X" unicode="X" horiz-adv-x="2068" 
d="M510 0h-498l768 727l-747 707h510l508 -488l495 488h490l-750 -707l768 -727h-510l-522 506z" />
    <glyph glyph-name="Y" unicode="Y" horiz-adv-x="2060" 
d="M842 0v551l-854 883h501l549 -578l559 578h476l-848 -881v-553h-383z" />
    <glyph glyph-name="Z" unicode="Z" horiz-adv-x="2103" 
d="M111 0v266l1271 881h-1257v287h1870v-252l-1297 -895h1297v-287h-1884z" />
    <glyph glyph-name="bracketleft" unicode="[" horiz-adv-x="1069" 
d="M240 -307v1741h780v-246h-432v-1249h432v-246h-780z" />
    <glyph glyph-name="backslash" unicode="\" horiz-adv-x="1134" 
d="M1147 -307h-379l-719 1741h377z" />
    <glyph glyph-name="bracketright" unicode="]" horiz-adv-x="1069" 
d="M827 -307h-780v246h432v1249h-432v246h780v-1741z" />
    <glyph glyph-name="asciicircum" unicode="^" horiz-adv-x="1544" 
d="M582 1434h381l487 -861h-367l-317 615l-317 -615h-353z" />
    <glyph glyph-name="underscore" unicode="_" horiz-adv-x="1437" 
d="M61 -297v297h1313v-297h-1313z" />
    <glyph glyph-name="grave" unicode="`" horiz-adv-x="1024" 
d="M674 1245h-328l-526 330h485z" />
    <glyph glyph-name="a" unicode="a" horiz-adv-x="1906" 
d="M111 801c42 120 127.502 207.667 256.502 263s313.167 83 552.5 83c191.333 0 344.666 -15.167 459.999 -45.5s199.166 -77 251.499 -140s78.5 -146.5 78.5 -250.5v-383c0 -30.667 6.33301 -53.334 19 -68.001s33.667 -22 63 -22c18 0 37 2 57 6l-8 -242
c-63.333 -18 -125.333 -27 -186 -27c-168 0 -263.667 76 -287 228c-77.333 -72 -179.833 -128 -307.5 -168s-268.834 -60 -423.501 -60c-182 0 -321.667 29.167 -419 87.5s-146 141.833 -146 250.5c0 106 45.833 186.333 137.5 241s239.5 88.334 443.5 101.001l707 37
c-3.33301 73.333 -38.333 125.833 -105 157.5s-179 47.5 -337 47.5c-141.333 0 -246.166 -12.5 -314.499 -37.5s-109.833 -65.167 -124.5 -120.5zM436.002 332c0 -41.333 22.668 -71.8311 68.001 -91.498s116.333 -29.5 213 -29.5c119.333 0 228.166 11.667 326.499 35
s176.333 56.166 234 98.499s86.5 89.833 86.5 142.5v9l-737 -45c-66 -5.33301 -114.333 -17.333 -145 -36s-46 -46.334 -46 -83.001z" />
    <glyph glyph-name="b" unicode="b" horiz-adv-x="2115" 
d="M532 0h-329.001v1536h364v-621c72.667 73.333 167.334 130.333 284.001 171s248.667 61 396 61c239.333 0 426.833 -52.167 562.5 -156.5s203.5 -247.5 203.5 -429.5c0 -183.333 -67.5 -326.833 -202.5 -430.5s-322.833 -155.5 -563.5 -155.5
c-152 0 -287.5 21.167 -406.5 63.5s-214.167 102.5 -285.5 180.5zM1120 244c345.333 0 518 105.668 518 317.001c0 212 -172.667 318 -518 318c-176.667 0 -313 -27.833 -409 -83.5s-144 -133.834 -144 -234.501s48 -178.667 144 -234s232.333 -83 409 -83z" />
    <glyph glyph-name="c" unicode="c" horiz-adv-x="1943" 
d="M1872 735l-373 -73c-21.333 74.667 -72.5 129.834 -153.5 165.501s-194.833 53.5 -341.5 53.5c-178 0 -310.333 -26.5 -397 -79.5s-130 -133.167 -130 -240.5c0 -106 43.333 -185.333 130 -238s219.667 -79 399 -79c152 0 268.333 18 349 54s130.667 93 150 171l371 -74
c-36.667 -136.667 -130 -240.834 -280 -312.501s-346.667 -107.5 -590 -107.5c-285.333 0 -507.333 51.5 -666 154.5s-238 246.833 -238 431.5s79.167 328.5 237.5 431.5s379.833 154.5 664.5 154.5c240 0 434.5 -35.167 583.5 -105.5s243.833 -172.5 284.5 -306.5z" />
    <glyph glyph-name="d" unicode="d" horiz-adv-x="2115" 
d="M868 -25c-240.667 0 -428.501 51.833 -563.501 155.5s-202.5 247.167 -202.5 430.5c0 181.333 68 324.333 204 429s323.333 157 562 157c146.667 0 278.5 -20.333 395.5 -61s211.833 -97.667 284.5 -171v621h367v-1536h-336l-20 215
c-71.333 -76 -166.666 -135 -285.999 -177s-254.333 -63 -405 -63zM994.999 244c176.667 0 313 27.666 409 82.999s144 133.333 144 234s-48 178.834 -144 234.501s-232.333 83.5 -409 83.5c-345.333 0 -518 -106 -518 -318c0 -211.333 172.667 -317 518 -317z" />
    <glyph glyph-name="e" unicode="e" horiz-adv-x="1990" 
d="M1014 -25c-288.667 0 -512.832 51.499 -672.499 154.499s-239.5 247.5 -239.5 433.5c0 180 79.667 322.333 239 427s379.333 157 660 157c276 0 493.5 -50 652.5 -150s238.5 -237 238.5 -411c0 -45.333 -3.33301 -81.666 -10 -108.999h-1411
c43.333 -164 224.333 -246 543 -246c153.333 0 270.5 12 351.5 36s131.833 61.333 152.5 112l368 -66c-47.333 -118 -138.833 -203.833 -274.5 -257.5s-334.834 -80.5 -597.501 -80.5zM1004 902.999c-155.333 0 -275.667 -18.167 -361 -54.5s-140.666 -92.5 -165.999 -168.5
h1039c-23.333 76 -76.833 132.167 -160.5 168.5s-200.834 54.5 -351.501 54.5z" />
    <glyph glyph-name="f" unicode="f" horiz-adv-x="1372" 
d="M29 1122l293 0.000976562c4 150.667 58 261.5 162 332.5s264.333 106.5 481 106.5c128 0 256.333 -11 385 -33l-13 -250c-108 18 -218.333 27 -331 27c-114.667 0 -195.5 -13.833 -242.5 -41.5s-72.167 -74.834 -75.5 -141.501h655v-264h-655v-858h-366v858h-293v264z
" />
    <glyph glyph-name="g" unicode="g" horiz-adv-x="1953" 
d="M932 1147c280 0 486.665 -37.667 619.998 -113c38 58 89 99.667 153 125s135.333 32.333 214 21l-16 -283c-68 14.667 -139.667 14.667 -215 0c14.667 -34.667 22 -71 22 -109c0 -114.667 -66.667 -202.667 -200 -264s-326 -92 -578 -92c-123.333 0 -236 8.33301 -338 25
c-76.667 -12 -115 -40.667 -115 -86c0 -59.333 62.333 -90 187 -92l686 -11c354.667 -4 532 -105 532 -303c0 -136 -78.167 -236.5 -234.5 -301.5s-398.166 -97.5 -725.499 -97.5c-299.333 0 -519.666 23.167 -660.999 69.5s-212 118.833 -212 217.5
c0 118 94.333 191.667 283 221c-66 17.333 -117 44.833 -153 82.5s-54 82.5 -54 134.5c0 117.333 81.333 192.333 244 225c-144.667 62 -217 152.667 -217 272c0 116 66.5 204.833 199.5 266.5s325.833 92.5 578.5 92.5zM1339 788c0 98.667 -135.667 148 -407 148
c-272 0 -408 -49.333 -408 -148c0 -96.667 136 -145 408 -145c271.333 0 407 48.333 407 145zM433.998 -88c0 -46.667 38.502 -80.166 115.502 -100.499s203.833 -30.5 380.5 -30.5c145.333 0 261.666 5.83301 348.999 17.5s148.666 28.167 183.999 49.5
s53 48.666 53 81.999c0 60 -58.333 91 -175 93l-727 2c-120 -4 -180 -41.667 -180 -113z" />
    <glyph glyph-name="h" unicode="h" horiz-adv-x="2048" 
d="M203 0l-0.00195312 1536h364v-664c72.667 86 166.834 153.333 282.501 202s242.834 73 381.501 73c205.333 0 361.833 -46.167 469.5 -138.5s161.5 -225.833 161.5 -400.5v-608h-365v537c0 105.333 -32.333 185.833 -97 241.5s-159.334 83.5 -284.001 83.5
c-167.333 0 -300.666 -38.167 -399.999 -114.5s-149 -179.5 -149 -309.5v-438h-364z" />
    <glyph glyph-name="i" unicode="i" 
d="M201 1257v283h370v-283h-370zM203 0v1122h364v-1122h-364z" />
    <glyph glyph-name="j" unicode="j" 
d="M199 1257v283h370v-283h-370zM203 49l-0.000976562 1073h364v-1050c0 -180.667 -40.667 -310.167 -122 -388.5s-212 -117.5 -392 -117.5c-85.333 0 -163.666 5.33301 -234.999 16l-13 268c60.667 -8 114.667 -12 162 -12c85.333 0 146 15.833 182 47.5
s54 86.167 54 163.5z" />
    <glyph glyph-name="k" unicode="k" horiz-adv-x="1867" 
d="M203 0v1536h364v-868l733 454h523l-809 -489l850 -633h-535l-602 453l-160 -101v-352h-364z" />
    <glyph glyph-name="l" unicode="l" 
d="M567 0h-364v1536h364v-1536z" />
    <glyph glyph-name="m" unicode="m" horiz-adv-x="3049" 
d="M203 0l0.000976562 1122h334l20 -245c65.333 84 149.166 150 251.499 198s213.833 72 334.5 72c131.333 0 241.833 -24.667 331.5 -74s155.167 -120.333 196.5 -213c63.333 89.333 149 159.5 257 210.5s228 76.5 360 76.5c180 0 320.833 -46.833 422.5 -140.5
s152.5 -224.5 152.5 -392.5v-614h-364v547c0 102 -28.833 179.667 -86.5 233s-141.5 80 -251.5 80c-136 0 -244.167 -37.667 -324.5 -113s-120.5 -177 -120.5 -305v-442h-366v551c0 100 -28.833 176.5 -86.5 229.5s-141.5 79.5 -251.5 79.5
c-136 0 -244.167 -37.667 -324.5 -113s-120.5 -177 -120.5 -305v-442h-364z" />
    <glyph glyph-name="n" unicode="n" horiz-adv-x="2048" 
d="M203 0v1122h329l25 -260c72.667 89.333 167.667 159.166 285 209.499s247 75.5 389 75.5c205.333 0 361.833 -46.167 469.5 -138.5s161.5 -225.833 161.5 -400.5v-608h-365v537c0 105.333 -32.333 185.833 -97 241.5s-159.334 83.5 -284.001 83.5
c-167.333 0 -300.666 -38.167 -399.999 -114.5s-149 -179.5 -149 -309.5v-438h-364z" />
    <glyph glyph-name="o" unicode="o" horiz-adv-x="2025" 
d="M1012 -25c-289.333 0 -513.333 51.167 -672 153.5s-238 246.5 -238 432.5s79.333 330.167 238 432.5s382.667 153.5 672 153.5c291.333 0 516 -51.167 674 -153.5s237 -246.5 237 -432.5c0 -187.333 -78.5 -331.833 -235.5 -433.5s-382.167 -152.5 -675.5 -152.5z
M1012 244c182.667 0 317.667 26 405 78s131 131.667 131 239s-43.833 187.5 -131.5 240.5s-222.5 79.5 -404.5 79.5c-181.333 0 -315.833 -26.5 -403.5 -79.5s-131.5 -133.167 -131.5 -240.5c0 -106.667 43.667 -186.167 131 -238.5s222 -78.5 404 -78.5z" />
    <glyph glyph-name="p" unicode="p" horiz-adv-x="2115" 
d="M537 1122l18.002 -219c71.333 77.333 166.666 137.333 285.999 180s254.666 64 405.999 64c238.667 0 426 -52.333 562 -157s204 -247.667 204 -429c0 -183.333 -67.5 -326.833 -202.5 -430.5s-322.833 -155.5 -563.5 -155.5c-148 0 -280.5 20.333 -397.5 61
s-211.167 97.667 -282.5 171v-617h-364v1532h334zM1120 244c345.333 0 518 105.668 518 317.001c0 212 -172.667 318 -518 318c-176.667 0 -313 -27.833 -409 -83.5s-144 -133.834 -144 -234.501s48 -178.667 144 -234s232.333 -83 409 -83z" />
    <glyph glyph-name="q" unicode="q" horiz-adv-x="2115" 
d="M868 -25c-240.667 0 -428.498 51.833 -563.498 155.5s-202.5 247.167 -202.5 430.5c0 181.333 68 324.333 204 429s323.333 157 562 157c151.333 0 286.666 -21.167 405.999 -63.5s215 -102.5 287 -180.5l18 219h336v-1532h-367v615
c-72.667 -72.667 -167.334 -129.167 -284.001 -169.5s-248.667 -60.5 -396 -60.5zM995.002 244c176.667 0 313 27.666 409 82.999s144 133.333 144 234s-48 178.834 -144 234.501s-232.333 83.5 -409 83.5c-345.333 0 -518 -106 -518 -318c0 -211.333 172.667 -317 518 -317
z" />
    <glyph glyph-name="r" unicode="r" horiz-adv-x="1382" 
d="M203 0l0.000976562 1122h334l24 -297c72.667 100 169.667 178.667 291 236s255 86 401 86c37.333 0 66 -2 86 -6l-12 -342c-48.667 13.333 -110 20 -184 20c-172.667 0 -311.334 -36.833 -416.001 -110.5s-158 -178.834 -160 -315.501v-393h-364z" />
    <glyph glyph-name="s" unicode="s" horiz-adv-x="1851" 
d="M911 915c-152.667 0 -263.835 -9.16895 -333.502 -27.502s-104.5 -47.166 -104.5 -86.499c0 -32.667 20 -56 60 -70s114.333 -23.667 223 -29l426 -16c208 -10 357.167 -40 447.5 -90s135.5 -126.333 135.5 -229c0 -261.333 -286.667 -392 -860 -392
c-251.333 0 -441.833 27.333 -571.5 82s-216.167 143 -259.5 265l362 59c16.667 -59.333 62.834 -102.833 138.501 -130.5s185.167 -41.5 328.5 -41.5c176.667 0 303.834 9.66699 381.501 29s116.5 49.333 116.5 90c0 33.333 -17.167 57.5 -51.5 72.5
s-97.833 24.833 -190.5 29.5l-428 16c-214 8.66699 -369.5 40.334 -466.5 95.001s-145.5 135 -145.5 241c0 117.333 67.833 207.5 203.5 270.5s331.834 94.5 588.501 94.5c250.667 0 441.167 -25.833 571.5 -77.5s215.166 -134.5 254.499 -248.5l-353 -57
c-16.667 53.333 -61.167 91.833 -133.5 115.5s-185.5 35.5 -339.5 35.5z" />
    <glyph glyph-name="t" unicode="t" horiz-adv-x="1480" 
d="M295 475l0.00195312 383.001h-275v264h179c24 0 43.167 0.833008 57.5 2.5s28.166 6.5 41.499 14.5s23.333 17.667 30 29s13.334 29.166 20.001 53.499s12 51 16 80s8.33301 67.5 13 115.5h285v-295h716v-264h-716v-358c0 -96.667 23.333 -162.167 70 -196.5
s132.334 -51.5 257.001 -51.5c137.333 0 272.666 14.333 405.999 43l-13 -275c-144 -30 -302.333 -45 -475 -45c-108 0 -199.333 8.5 -274 25.5s-137.834 45 -189.501 84s-89.334 90.333 -113.001 154s-35.5 142.5 -35.5 236.5z" />
    <glyph glyph-name="u" unicode="u" horiz-adv-x="1988" 
d="M1419 682v440.002h367v-1122h-330l-26 254c-69.333 -86.667 -160.5 -154.834 -273.5 -204.501s-236.5 -74.5 -370.5 -74.5c-192.667 0 -341.5 45.667 -446.5 137s-157.5 224 -157.5 398v612h365v-549c0 -102.667 30.5 -180.167 91.5 -232.5s145.833 -78.5 254.5 -78.5
c157.333 0 284.5 37.167 381.5 111.5s145.167 177.166 144.5 308.499z" />
    <glyph glyph-name="v" unicode="v" horiz-adv-x="1787" 
d="M741 0l-731 1122h422l477 -772l467 772h404l-721 -1122h-318z" />
    <glyph glyph-name="w" unicode="w" horiz-adv-x="2648" 
d="M592 0l-580 1122h400l366 -760l387 760h336l400 -753l356 753h377l-566 -1122h-321l-416 793l-418 -793h-321z" />
    <glyph glyph-name="x" unicode="x" horiz-adv-x="1884" 
d="M496 0h-471l663 578l-635 544h482l413 -358l424 358h461l-651 -544l678 -578h-496l-438 387z" />
    <glyph glyph-name="y" unicode="y" horiz-adv-x="1761" 
d="M1350 1122h399.003l-682 -1132c-50.667 -84 -97.834 -152.167 -141.501 -204.5s-91.667 -95.333 -144 -129s-108 -57.167 -167 -70.5s-129.5 -20 -211.5 -20c-86.667 0 -170.334 10.333 -251.001 31l-13 266c72 -12.667 141 -19 207 -19
c95.333 0 168.666 12.833 219.999 38.5s100.333 77.167 147 154.5l-701 1085h420l477 -772z" />
    <glyph glyph-name="z" unicode="z" horiz-adv-x="1783" 
d="M115 0v254l1011 614h-999v254h1544v-254l-1012 -612h1018v-256h-1562z" />
    <glyph glyph-name="braceleft" unicode="{" horiz-adv-x="1118" 
d="M403 563c97.333 -20.667 167.498 -57.168 210.498 -109.501s64.5 -128.5 64.5 -228.5v-114c0 -61.333 13.167 -104 39.5 -128s74.5 -36 144.5 -36c56 0 121.667 3.33301 197 10l12 -252c-83.333 -10.667 -162.333 -16 -237 -16c-163.333 0 -285.5 31.333 -366.5 94
s-121.5 161.667 -121.5 297v141c0 26.667 -1.16699 48.334 -3.5 65.001s-7.16602 33 -14.499 49s-17.333 28.833 -30 38.5s-30.5 18.834 -53.5 27.501s-50.167 15.834 -81.5 21.501s-70 10.834 -116 15.501v248c68.667 8 122.334 16.667 161.001 26s68.5 23.166 89.5 41.499
s34.333 38.166 40 59.499s8.5 52 8.5 92v142c0 135.333 40.5 234.333 121.5 297s203.167 94 366.5 94c69.333 0 148.333 -5.66699 237 -17l-12 -252c-83.333 7.33301 -149 11 -197 11c-68.667 0 -116.5 -12.333 -143.5 -37s-40.5 -67.667 -40.5 -129v-119
c0 -97.333 -21.667 -171.833 -65 -223.5s-113.333 -87.834 -210 -108.501z" />
    <glyph glyph-name="bar" unicode="|" horiz-adv-x="841" 
d="M600 -348h-360v1904h360v-1904z" />
    <glyph glyph-name="braceright" unicode="}" horiz-adv-x="1118" 
d="M1071 686l-0.00292969 -247.999c-46 -4.66699 -84.667 -9.83398 -116 -15.501s-58.5 -12.834 -81.5 -21.501s-40.833 -17.834 -53.5 -27.501s-22.667 -22.5 -30 -38.5s-12.166 -32.333 -14.499 -49s-3.5 -38.334 -3.5 -65.001v-141
c0 -135.333 -40.333 -234.333 -121 -297s-202.667 -94 -366 -94c-75.333 0 -154.666 5.33301 -237.999 16l12 252c75.333 -6.66699 141 -10 197 -10c69.333 0 117.333 12.167 144 36.5s40 66.833 40 127.5v114c0 100 21.667 176.167 65 228.5s114 88.833 212 109.5
c-98 20.667 -168.667 56.834 -212 108.501s-65 126.167 -65 223.5v119c0 61.333 -13.5 104.333 -40.5 129s-74.833 37 -143.5 37c-48 0 -113.667 -3.66699 -197 -11l-12 252c88.667 11.333 168 17 238 17c163.333 0 285.333 -31.333 366 -94s121 -161.667 121 -297v-142
c0 -40 2.83301 -70.667 8.5 -92s19 -41.166 40 -59.499s50.833 -32.166 89.5 -41.499s92.334 -18 161.001 -26z" />
    <glyph glyph-name="asciitilde" unicode="~" horiz-adv-x="1511" 
d="M455 676c-98.667 0 -206 -27.333 -322 -82v262c131.333 53.333 247.333 80 348 80c54 0 109.333 -6.83301 166 -20.5s104.667 -28.667 144 -45s83.333 -31.333 132 -45s93.334 -20.5 134.001 -20.5c93.333 0 200.333 28 321 84v-262c-136 -54.667 -252 -82 -348 -82
c-53.333 0 -107.5 6.83301 -162.5 20.5s-101.833 28.667 -140.5 45s-82.834 31.333 -132.501 45s-96.167 20.5 -139.5 20.5z" />
    <glyph glyph-name="uni00A0" unicode="&#xa0;" horiz-adv-x="671" 
 />
    <glyph glyph-name="exclamdown" unicode="&#xa1;" horiz-adv-x="868" 
d="M631 1122v-297h-393v297h393zM262 692h344l27 -1003h-395z" />
    <glyph glyph-name="cent" unicode="&#xa2;" horiz-adv-x="1939" 
d="M528 -164l93.0029 180.003c-166.667 39.333 -294.834 105.666 -384.501 198.999s-134.5 208.666 -134.5 345.999c0 184.667 79.167 328.5 237.5 431.5s379.833 154.5 664.5 154.5c74 0 137.333 -2.66699 190 -8l68 131h186l-80 -158c136 -28 246.667 -73.667 332 -137
s142.666 -143.333 171.999 -240l-373 -73c-28.667 101.333 -115.334 167.333 -260.001 198l-315 -616c18 -1.33301 45.333 -2 82 -2c151.333 0 267.5 18.333 348.5 55s131.167 94 150.5 172l371 -74c-36.667 -136.667 -130 -240.834 -280 -312.501
s-346.667 -107.5 -590 -107.5c-61.333 0 -132.333 3.66699 -213 11l-78 -150h-187zM477.003 561.003c0 -154 91 -252.333 273 -295l313 615h-59c-178 0 -310.333 -26.5 -397 -79.5s-130 -133.167 -130 -240.5z" />
    <glyph glyph-name="sterling" unicode="&#xa3;" horiz-adv-x="2054" 
d="M100 590l-0.000976562 161.996h273c-31.333 44.667 -55.666 87.167 -72.999 127.5s-26 86.5 -26 138.5c0 134.667 70.333 241.667 211 321s335.334 119 584.001 119c180 0 329.333 -15 448 -45s211 -74.5 277 -133.5s113.667 -135.833 143 -230.5l-436 -56
c-14.667 67.333 -56.334 117 -125.001 149s-169 48 -301 48c-256.667 0 -385 -64.333 -385 -193c0 -17.333 2.16699 -34.333 6.5 -51s11.5 -34.167 21.5 -52.5s18.667 -33.166 26 -44.499s19.166 -28.166 35.499 -50.499l33.5 -46.5h838v-162h-760c4 -20 6 -42 6 -66
c0 -52 -16.167 -100.167 -48.5 -144.5s-77.5 -80.166 -135.5 -107.499h1229v-272h-1842v272h74c104.667 0 184.834 18.833 240.501 56.5s83.5 89.834 83.5 156.501c0 34 -7.66699 69 -23 105h-375z" />
    <glyph glyph-name="currency" unicode="&#xa4;" horiz-adv-x="1296" 
d="M647 330c-82.667 0 -155 13.667 -217 41l-182 -183l-174 177l172 172c-28.667 52.667 -43 112.667 -43 180c0 68 14.333 127.333 43 178l-172 172l174 178l186 -186c63.333 26 134.333 39 213 39c80 0 151.667 -13 215 -39l185 186l176 -178l-172 -172
c28.667 -50.667 43 -110 43 -178c0 -64 -14.333 -124 -43 -180l172 -172l-176 -177l-181 185c-62 -28.667 -135 -43 -219 -43zM647 555c60.667 0 108 14.667 142 44s51 68.666 51 117.999s-17.167 87.833 -51.5 115.5s-81.5 41.5 -141.5 41.5
c-59.333 0 -106.166 -13.833 -140.499 -41.5s-51.5 -66.167 -51.5 -115.5s17.167 -88.666 51.5 -117.999s81.166 -44 140.499 -44z" />
    <glyph glyph-name="yen" unicode="&#xa5;" horiz-adv-x="2070" 
d="M147 422v156h674l-149 155h-529v156h377l-526 545h502l548 -578l560 578h475l-525 -545h392v-156h-541l-150 -155h684v-156h-708v-422h-383v422h-701z" />
    <glyph glyph-name="brokenbar" unicode="&#xa6;" horiz-adv-x="841" 
d="M600 727h-360v829h360v-829zM600 -348h-360v870h360v-870z" />
    <glyph glyph-name="section" unicode="&#xa7;" horiz-adv-x="2109" 
d="M1065 -434c-298.667 0 -526.331 35.001 -682.998 105.001s-250.667 179.667 -282 329l428 41c16.667 -74 69.167 -129 157.5 -165s218.833 -54 391.5 -54c120.667 0 217.667 6.33301 291 19s124.166 29.667 152.499 51s42.5 47.666 42.5 78.999
c0 30.667 -10.333 54.167 -31 70.5s-61.667 31.333 -123 45s-157.666 28.5 -288.999 44.5l-340 39c-150.667 18 -269.5 43.333 -356.5 76s-147.667 71.667 -182 117s-51.5 102.666 -51.5 171.999c0 64 21.5 121 64.5 171s104.833 91 185.5 123
c-86.667 30.667 -150 70.5 -190 119.5s-60 111.167 -60 186.5c0 132.667 73.667 236.834 221 312.501s365.333 113.5 654 113.5c280 0 495.667 -33.833 647 -101.5s240.666 -171.167 267.999 -310.5l-430 -41c-17.333 71.333 -63 122 -137 152s-191.333 45 -352 45
c-307.333 0 -461 -48 -461 -144c0 -23.333 8.33301 -42.333 25 -57s54 -29.5 112 -44.5s142.667 -29.5 254 -43.5l344 -41c223.333 -30 382 -73.5 476 -130.5s141 -140.5 141 -250.5c0 -62.667 -18.833 -119.5 -56.5 -170.5s-89.834 -92.5 -156.501 -124.5
c88.667 -33.333 149.667 -73.5 183 -120.5s50 -106.5 50 -178.5c0 -138 -76.167 -244.833 -228.5 -320.5s-378.5 -113.5 -678.5 -113.5zM1317 389.001c30 -4 72.333 -9.99805 127 -17.998c74.667 45.333 112 97.666 112 156.999c0 51.333 -30 90.833 -90 118.5
s-168.333 51.167 -325 70.5l-357 41c-14 1.33301 -37 4.66602 -69 9.99902c-87.333 -46.667 -131 -100 -131 -160c0 -48.667 29.167 -86 87.5 -112s163.5 -48.667 315.5 -68z" />
    <glyph glyph-name="dieresis" unicode="&#xa8;" horiz-adv-x="1024" 
d="M625 1257v295h403v-295h-403zM-6 1257v295h403v-295h-403z" />
    <glyph glyph-name="copyright" unicode="&#xa9;" horiz-adv-x="2361" 
d="M1182 -106c-172 0 -327.167 20.833 -465.5 62.5s-252.333 99.667 -342 174s-158.167 161.333 -205.5 261s-71 208.167 -71 325.5s23.667 225.833 71 325.5s115.833 186.667 205.5 261s203.667 132.333 342 174s293.5 62.5 465.5 62.5c171.333 0 326 -21 464 -63
s251.667 -100 341 -174s157.666 -160.833 205 -260.5c47.333 -99.667 71 -208.167 71 -325.5s-23.667 -225.833 -71 -325.5s-115.666 -186.5 -205 -260.5c-89.333 -74 -203 -132 -341 -174s-292.667 -63 -464 -63zM1182 39c148.667 0 281.334 16.667 398.001 50
s212.167 80.166 286.5 140.499s130.666 131.666 168.999 213.999s57.5 173.5 57.5 273.5s-19.167 191.167 -57.5 273.5s-94.666 153.666 -168.999 213.999s-169.833 107.166 -286.5 140.499s-249.334 50 -398.001 50c-149.333 0 -282.5 -16.667 -399.5 -50
s-212.667 -80.166 -287 -140.499s-130.833 -131.666 -169.5 -213.999s-58 -173.5 -58 -273.5s19.333 -191.167 58 -273.5s95.167 -153.666 169.5 -213.999s170 -107.166 287 -140.499s250.167 -50 399.5 -50zM1702 821l-232 -30c-29.333 88.667 -120 133 -272 133
c-92.667 0 -164 -17.833 -214 -53.5s-75 -86.167 -75 -151.5c0 -64.667 25 -114.667 75 -150s121.333 -53 214 -53c162.667 0 255 46.333 277 139l229 -28c-23.333 -85.333 -79.5 -151.5 -168.5 -198.5s-201.5 -70.5 -337.5 -70.5c-160.667 0 -287.834 32.5 -381.501 97.5
s-140.5 152.833 -140.5 263.5c0 111.333 46.833 199.5 140.5 264.5s220.834 97.5 381.501 97.5c280.667 0 448.667 -86.667 504 -260z" />
    <glyph glyph-name="ordfeminine" unicode="&#xaa;" horiz-adv-x="1267" 
d="M147 1229c21.333 72.667 74.333 128 159 166s195.667 57 333 57c307.333 0 461 -88 461 -264v-227c0 -32 17 -48 51 -48c10.667 0 24.334 1.66699 41.001 5l-6 -150c-43.333 -9.33301 -87 -14 -131 -14c-123.333 0 -197 38 -221 114c-82 -76 -207.667 -114 -377 -114
c-114.667 0 -200.667 18 -258 54s-86 84.667 -86 146c0 39.333 9.5 72 28.5 98s54.667 48.167 107 66.5s123.166 30.5 212.499 36.5l356 23v8c0 70.667 -62.667 106 -188 106c-120.667 0 -187 -29.333 -199 -88zM401 973c0 -44 41.666 -66 124.999 -66
c80.667 0 150.334 14.333 209.001 43s88 63.667 88 105l-340 -25c-54.667 -4 -82 -23 -82 -57z" />
    <glyph glyph-name="guillemotleft" unicode="&#xab;" horiz-adv-x="1968" 
d="M911 373v-338l-800 350v356l800 351v-330l-551 -199zM1833 373v-338l-801 350v356l801 351v-330l-551 -199z" />
    <glyph glyph-name="logicalnot" unicode="&#xac;" horiz-adv-x="1511" 
d="M133 856h1245v-588h-317v328h-928v260z" />
    <glyph glyph-name="uni00AD" unicode="&#xad;" horiz-adv-x="0" 
 />
    <glyph glyph-name="registered" unicode="&#xae;" horiz-adv-x="2318" 
d="M1161 -25c-136 0 -261.498 12.335 -376.498 37.002s-214.333 59.5 -298 104.5s-154.834 98.333 -213.501 160s-102.5 129.667 -131.5 204s-43.5 153.166 -43.5 236.499c0 104.667 23.167 201.834 69.5 291.501s113.166 168 200.499 235s199 119.5 335 157.5
s288.667 57 458 57c168.667 0 320.5 -19 455.5 -57s246.167 -90.5 333.5 -157.5s154.166 -145.333 200.499 -235s69.5 -186.834 69.5 -291.501s-23.167 -201.834 -69.5 -291.501s-113.166 -168 -200.499 -235s-198.5 -119.667 -333.5 -158s-286.833 -57.5 -455.5 -57.5z
M1161 119.002c146 0 275.833 14.8311 389.5 44.498s206.667 71.167 279 124.5s127.166 116.166 164.499 188.499s56 152.5 56 240.5s-18.667 168.167 -56 240.5s-92.166 135 -164.499 188s-165.333 94.167 -279 123.5s-243.5 44 -389.5 44
c-146.667 0 -277.167 -14.667 -391.5 -44s-207.833 -70.666 -280.5 -123.999s-127.667 -116 -165 -188s-56 -152 -56 -240c0 -88.667 18.667 -169.167 56 -241.5s92.5 -135.166 165.5 -188.499s166.5 -94.666 280.5 -123.999s244.333 -44 391 -44zM737.002 369v702h631
c90 0 159.667 -19.833 209 -59.5s74 -94.167 74 -163.5c0 -55.333 -16.667 -102 -50 -140s-80.333 -63.667 -141 -77l244 -262h-250l-207 225h-311v-225h-199zM1343 920h-407v-175h407c74 0 111 29.667 111 89c0 57.333 -37 86 -111 86z" />
    <glyph glyph-name="macron" unicode="&#xaf;" horiz-adv-x="1024" 
d="M4 1268v233h1016v-233h-1016z" />
    <glyph glyph-name="degree" unicode="&#xb0;" horiz-adv-x="1402" 
d="M702 1454c172.667 0 306.333 -32.334 401 -97.001s142 -151 142 -259c0 -107.333 -47.5 -193.666 -142.5 -258.999s-228.5 -98 -400.5 -98c-173.333 0 -307.333 32.5 -402 97.5s-142 151.5 -142 259.5c0 107.333 47.5 193.5 142.5 258.5s228.833 97.5 401.5 97.5z
M701.999 953.999c76.667 0 134.833 12.667 174.5 38s59.5 60.666 59.5 105.999c0 44.667 -20 79.667 -60 105s-98 38 -174 38c-77.333 0 -135.833 -12.5 -175.5 -37.5s-59.5 -60.167 -59.5 -105.5s19.833 -80.666 59.5 -105.999s98.167 -38 175.5 -38z" />
    <glyph glyph-name="plusminus" unicode="&#xb1;" horiz-adv-x="1511" 
d="M1378 745h-465v-325h-315v325h-465v261h465v325h315v-325h465v-261zM1378 4h-1245v260h1245v-260z" />
    <glyph glyph-name="twosuperior" unicode="&#xb2;" horiz-adv-x="1116" 
d="M74 1114l583 197c48 20 79.833 36.833 95.5 50.5s23.5 30.167 23.5 49.5c0 53.333 -72.333 80 -217 80c-82 0 -142.5 -8.66699 -181.5 -26s-62.5 -44.333 -70.5 -81l-248 43c39.333 160 203.333 240 492 240c162.667 0 284.167 -20.333 364.5 -61
s120.5 -98.667 120.5 -174c0 -38.667 -9.16699 -72.167 -27.5 -100.5s-54 -57 -107 -86s-126.833 -57.167 -221.5 -84.5l-164 -47h522v-176h-964v176z" />
    <glyph glyph-name="threesuperior" unicode="&#xb3;" horiz-adv-x="1136" 
d="M1071 1147c0 -71.333 -42.5 -126 -127.5 -164s-213.167 -57 -384.5 -57c-156.667 0 -276 17.667 -358 53s-132 89.333 -150 162l250 43c7.33301 -33.333 31.666 -57.333 72.999 -72s104.333 -22 189 -22c87.333 0 148.833 6.33301 184.5 19s53.5 32 53.5 58
c0 37.333 -34.333 56 -103 56h-321v153h323c66 0 99 18.667 99 56c0 47.333 -78.667 71 -236 71c-158 0 -244.667 -30.667 -260 -92l-240 45c36.667 140.667 202 211 496 211c164.667 0 288.834 -17.333 372.501 -52s125.5 -85 125.5 -151c0 -76 -50 -128.333 -150 -157
c109.333 -22.667 164 -76 164 -160z" />
    <glyph glyph-name="acute" unicode="&#xb4;" horiz-adv-x="1024" 
d="M348 1245l371 330h483l-524 -330h-330z" />
    <glyph glyph-name="paragraph" unicode="&#xb6;" horiz-adv-x="2283" 
d="M1186 -307h-377v934h-256c-136 0 -243 35.833 -321 107.5s-117 168.167 -117 289.5c0 125.333 39 225 117 299s185 111 321 111h633v-1741zM2044 -307h-379v1741h379v-1741z" />
    <glyph glyph-name="periodcentered" unicode="&#xb7;" horiz-adv-x="1024" 
d="M311 586v336h400v-336h-400z" />
    <glyph glyph-name="cedilla" unicode="&#xb8;" horiz-adv-x="1024" 
d="M1096 -248c0 -65.333 -37.167 -114.666 -111.5 -147.999s-195.5 -50 -363.5 -50c-132.667 0 -257.667 13.333 -375 40l10 146c126.667 -26 236 -39 328 -39c52 0 92.5 2.33301 121.5 7s48.333 10.667 58 18s14.5 17.333 14.5 30c0 31.333 -28.667 47 -86 47
c-42.667 0 -78.667 -8 -108 -24l-207 20l39 217h252l-21 -112c56.667 10.667 110 16 160 16c96.667 0 169 -14.833 217 -44.5s72 -70.834 72 -123.501z" />
    <glyph glyph-name="onesuperior" unicode="&#xb9;" horiz-adv-x="1052" 
d="M70 938v186h364v338l-338 -49v184l391 58h201v-531h313v-186h-931z" />
    <glyph glyph-name="ordmasculine" unicode="&#xba;" horiz-adv-x="1318" 
d="M659 754c-180.667 0 -316.167 30.832 -406.5 92.499s-135.5 146.834 -135.5 255.501c0 109.333 45.333 195 136 257s226 93 406 93s315.5 -31 406.5 -93s136.5 -147.667 136.5 -257c0 -108 -45.5 -193 -136.5 -255s-226.5 -93 -406.5 -93zM659 925.999
c82 0 143.833 15.167 185.5 45.5s62.5 73.833 62.5 130.5c0 57.333 -20.833 101.333 -62.5 132s-103.5 46 -185.5 46s-143.667 -15.5 -185 -46.5s-62 -74.833 -62 -131.5s20.5 -100.167 61.5 -130.5s102.833 -45.5 185.5 -45.5z" />
    <glyph glyph-name="guillemotright" unicode="&#xbb;" horiz-adv-x="1968" 
d="M934 385l-801 -350v327l551 199l-551 193v338l801 -351v-356zM1855 385l-800 -350v327l551 199l-551 193v338l800 -351v-356z" />
    <glyph glyph-name="onequarter" unicode="&#xbc;" horiz-adv-x="2848" 
d="M70 717v186h364v338l-338 -49v184l391 58h201v-531h313v-186h-931zM852 0h-346l1577 1434h346zM2628 0h-236v121h-678v151l711 447h203v-436h172v-162h-172v-121zM2007 283h385v245z" />
    <glyph glyph-name="onehalf" unicode="&#xbd;" horiz-adv-x="2863" 
d="M70 717v186h364v338l-338 -49v184l391 58h201v-531h313v-186h-931zM852 0h-346l1577 1434h346zM1821 176l583 197c48 20 79.833 36.833 95.5 50.5s23.5 30.167 23.5 49.5c0 53.333 -72.333 80 -217 80c-82 0 -142.5 -8.66699 -181.5 -26s-62.5 -44.333 -70.5 -81l-248 43
c39.333 160 203.333 240 492 240c162.667 0 284.167 -20.333 364.5 -61s120.5 -98.667 120.5 -174c0 -38.667 -9.16699 -72.167 -27.5 -100.5s-54 -57 -107 -86s-126.833 -57.167 -221.5 -84.5l-164 -47h522v-176h-964v176z" />
    <glyph glyph-name="threequarters" unicode="&#xbe;" horiz-adv-x="2828" 
d="M1071 926c0 -71.333 -42.5 -125.999 -127.5 -163.999s-213.167 -57 -384.5 -57c-156.667 0 -276 17.667 -358 53s-132 89.333 -150 162l250 43c7.33301 -33.333 31.666 -57.5 72.999 -72.5s104.333 -22.5 189 -22.5c87.333 0 148.833 6.5 184.5 19.5s53.5 32.5 53.5 58.5
c0 36.667 -34.333 55 -103 55h-321v154h323c66 0 99 18.333 99 55c0 48 -78.667 72 -236 72c-158 0 -244.667 -30.667 -260 -92l-240 45c36.667 140.667 202 211 496 211c164.667 0 288.834 -17.333 372.501 -52s125.5 -85 125.5 -151c0 -76.667 -50 -129.334 -150 -158.001
c109.333 -22.667 164 -75.667 164 -159zM831 0.000976562h-346l1577 1434h346zM2605 0.000976562h-235v121h-678v151l710 447h203v-436h172v-162h-172v-121zM1985 283.001h385v245z" />
    <glyph glyph-name="questiondown" unicode="&#xbf;" horiz-adv-x="1972" 
d="M1227 1122v-297h-393v297h393zM989 -47c329.333 0 508.328 85.3311 536.995 255.998l385 -62c-23.333 -151.333 -115.666 -269.666 -276.999 -354.999s-376.333 -128 -645 -128c-150 0 -283 11.333 -399 34s-209.833 54 -281.5 94s-125.667 86.333 -162 139
s-54.5 110.334 -54.5 173.001c0 61.333 13.667 114.833 41 160.5s62.833 81.5 106.5 107.5s91.834 48.333 144.501 67s105.5 35.167 158.5 49.5s101.5 29.5 145.5 45.5s79.833 37 107.5 63s41.834 57.667 42.501 95h387c-2 -66.667 -17.167 -125.167 -45.5 -175.5
s-64.166 -89.833 -107.499 -118.5s-91.166 -53.167 -143.499 -73.5s-104.5 -36.833 -156.5 -49.5s-99.5 -25.5 -142.5 -38.5s-77.833 -29.167 -104.5 -48.5s-40 -43 -40 -71c0 -109.333 168 -164 504 -164z" />
    <glyph glyph-name="Agrave" unicode="&#xc0;" horiz-adv-x="2336" 
d="M1331 1556h-327l-527 330h486zM1890 0l-192 295h-1073l-193 -295h-426l965 1434h393l967 -1434h-441zM805 569h713l-357 547z" />
    <glyph glyph-name="Aacute" unicode="&#xc1;" horiz-adv-x="2336" 
d="M1006 1556l370 330h484l-525 -330h-329zM1890 0l-192 295h-1073l-193 -295h-426l965 1434h393l967 -1434h-441zM805 569h713l-357 547z" />
    <glyph glyph-name="Acircumflex" unicode="&#xc2;" horiz-adv-x="2336" 
d="M1458 1556l-295 168l-286 -168h-287l364 330h441l354 -330h-291zM1890 0l-192 295h-1073l-193 -295h-426l965 1434h393l967 -1434h-441zM805 569h713l-357 547z" />
    <glyph glyph-name="Atilde" unicode="&#xc3;" horiz-adv-x="2336" 
d="M1663 1892c11.333 -120 -6.5 -209 -53.5 -267s-115.833 -87 -206.5 -87c-43.333 0 -87.833 7.66699 -133.5 23s-83.834 32.333 -114.501 51s-63 35.667 -97 51s-62.333 23 -85 23c-25.333 0 -44.166 -10.5 -56.499 -31.5s-16.166 -52.167 -11.499 -93.5h-233
c-9.33301 121.333 9.83398 211.333 57.501 270s117.834 88 210.501 88c38.667 0 80.167 -7.83301 124.5 -23.5s82.5 -33.167 114.5 -52.5s65.167 -36.833 99.5 -52.5s62.166 -23.5 83.499 -23.5c25.333 0 44.166 10.5 56.499 31.5s16.166 52.167 11.499 93.5h233zM1890 0
l-192 295h-1073l-193 -295h-426l965 1434h393l967 -1434h-441zM805 569h713l-357 547z" />
    <glyph glyph-name="Adieresis" unicode="&#xc4;" horiz-adv-x="2336" 
d="M1282 1569v295h404v-295h-404zM651 1569v295h404v-295h-404zM1890 0l-192 295h-1073l-193 -295h-426l965 1434h393l967 -1434h-441zM805 569h713l-357 547z" />
    <glyph glyph-name="Aring" unicode="&#xc5;" horiz-adv-x="2336" 
d="M1171 1528c-114.667 0 -203 20.833 -265 62.5s-93 101.167 -93 178.5c0 76 31.167 135 93.5 177s150.5 63 264.5 63c112.667 0 200 -21 262 -63s93 -101 93 -177c0 -76.667 -31 -136 -93 -178s-149.333 -63 -262 -63zM1171 1663c120.667 0 181 35.333 181 106
c0 70 -60.333 105 -181 105c-122.667 0 -184 -35 -184 -105c0 -70.667 61.333 -106 184 -106zM1890 0l-192 295h-1073l-193 -295h-426l965 1434h393l967 -1434h-441zM805 569h713l-357 547z" />
    <glyph glyph-name="AE" unicode="&#xc6;" horiz-adv-x="3629" 
d="M1810 0v317h-1071l-293 -317h-446l1319 1434h2171v-277h-1307v-289h1168v-272h-1168v-320h1323v-276h-1696zM993 592h817v565h-294z" />
    <glyph glyph-name="Ccedilla" unicode="&#xc7;" horiz-adv-x="2340" 
d="M113 717c0 232 96.666 413.5 289.999 544.5s463.666 196.5 810.999 196.5c287.333 0 518.666 -41.833 693.999 -125.5s286.333 -206.167 333 -367.5l-408 -80c-56.667 184 -263 276 -619 276c-473.333 0 -710 -148 -710 -444c0 -298 236.667 -447 710 -447
c366.667 0 574.334 95.667 623.001 287l401 -78c-44.667 -161.333 -148.167 -284.166 -310.5 -368.499s-380.166 -129.5 -653.499 -135.5l-12 -71c56.667 10.667 109.667 16 159 16c96.667 0 169 -14.833 217 -44.5s72 -70.834 72 -123.501
c0 -65.333 -37.167 -114.666 -111.5 -147.999s-195.5 -50 -363.5 -50c-132.667 0 -257.667 13.333 -375 40l10 146c126.667 -26 236 -39 328 -39c52 0 92.5 2.33301 121.5 7s48.5 10.667 58.5 18s15 17.333 15 30c0 31.333 -28.667 47 -86 47
c-43.333 0 -79.666 -8 -108.999 -24l-207 20l33 185c-292 22.667 -516.833 97.667 -674.5 225s-236.5 296.666 -236.5 507.999z" />
    <glyph glyph-name="Egrave" unicode="&#xc8;" horiz-adv-x="2146" 
d="M1298 1556h-327l-527 330h486zM240 0v1434h1767v-277h-1395v-289h1256v-272h-1256v-320h1409v-276h-1781z" />
    <glyph glyph-name="Eacute" unicode="&#xc9;" horiz-adv-x="2146" 
d="M918 1556l370 330h484l-525 -330h-329zM240 0v1434h1767v-277h-1395v-289h1256v-272h-1256v-320h1409v-276h-1781z" />
    <glyph glyph-name="Ecircumflex" unicode="&#xca;" horiz-adv-x="2146" 
d="M1413 1556l-295 168l-287 -168h-286l364 330h441l354 -330h-291zM240 0v1434h1767v-277h-1395v-289h1256v-272h-1256v-320h1409v-276h-1781z" />
    <glyph glyph-name="Edieresis" unicode="&#xcb;" horiz-adv-x="2146" 
d="M1237 1569v295h403v-295h-403zM606 1569v295h404v-295h-404zM240 0v1434h1767v-277h-1395v-289h1256v-272h-1256v-320h1409v-276h-1781z" />
    <glyph glyph-name="Igrave" unicode="&#xcc;" horiz-adv-x="864" 
d="M594 1556h-328l-526 330h485zM240 0v1434h385v-1434h-385z" />
    <glyph glyph-name="Iacute" unicode="&#xcd;" horiz-adv-x="864" 
d="M268 1556l371 330h483l-524 -330h-330zM240 0v1434h385v-1434h-385z" />
    <glyph glyph-name="Icircumflex" unicode="&#xce;" horiz-adv-x="864" 
d="M721 1556l-295 168l-287 -168h-286l364 330h440l355 -330h-291zM240 0v1434h385v-1434h-385z" />
    <glyph glyph-name="Idieresis" unicode="&#xcf;" horiz-adv-x="864" 
d="M545 1569v295h403v-295h-403zM-86 1569v295h403v-295h-403zM240 0v1434h385v-1434h-385z" />
    <glyph glyph-name="Eth" unicode="&#xd0;" horiz-adv-x="2453" 
d="M272 0v625h-260v186h260v623h1135c293.333 0 518.166 -62.333 674.499 -187s234.5 -302 234.5 -532c0 -229.333 -78.167 -405.833 -234.5 -529.5s-381.166 -185.5 -674.499 -185.5h-1135zM1436 297c324.667 0 487 139.333 487 418c0 281.333 -162.333 422 -487 422h-779
v-326h478v-186h-478v-328h779z" />
    <glyph glyph-name="Ntilde" unicode="&#xd1;" horiz-adv-x="2465" 
d="M1731 1892c11.333 -120 -6.66602 -209 -53.999 -267s-116.333 -87 -207 -87c-43.333 0 -87.833 7.66699 -133.5 23s-83.834 32.333 -114.501 51s-63 35.667 -97 51s-62.333 23 -85 23c-25.333 0 -44 -10.333 -56 -31s-15.667 -52 -11 -94h-234
c-9.33301 121.333 9.83398 211.333 57.501 270s118.167 88 211.5 88c38.667 0 80.167 -7.83301 124.5 -23.5s82.5 -33.167 114.5 -52.5s65.167 -36.833 99.5 -52.5s62.166 -23.5 83.499 -23.5c25.333 0 44 10.333 56 31s15.667 52 11 94h234zM240.001 0v1434h372l1252 -1045
v1045h360v-1434h-371l-1253 1042v-1042h-360z" />
    <glyph glyph-name="Ograve" unicode="&#xd2;" horiz-adv-x="2461" 
d="M1393 1556h-328l-526 330h485zM1231 -25c-356.667 0 -632.167 64.833 -826.5 194.5s-291.5 311.5 -291.5 545.5c0 235.333 97 418 291 548s469.667 195 827 195c356.667 0 632.167 -65 826.5 -195s291.5 -312.667 291.5 -548c0 -234 -97.167 -415.833 -291.5 -545.5
s-469.833 -194.5 -826.5 -194.5zM1231 272c483.333 0 725 147.667 725 443c0 297.333 -241.667 446 -725 446c-484.667 0 -727 -148.667 -727 -446c0 -295.333 242.333 -443 727 -443z" />
    <glyph glyph-name="Oacute" unicode="&#xd3;" horiz-adv-x="2461" 
d="M1067 1556l371 330h483l-524 -330h-330zM1231 -25c-356.667 0 -632.167 64.833 -826.5 194.5s-291.5 311.5 -291.5 545.5c0 235.333 97 418 291 548s469.667 195 827 195c356.667 0 632.167 -65 826.5 -195s291.5 -312.667 291.5 -548
c0 -234 -97.167 -415.833 -291.5 -545.5s-469.833 -194.5 -826.5 -194.5zM1231 272c483.333 0 725 147.667 725 443c0 297.333 -241.667 446 -725 446c-484.667 0 -727 -148.667 -727 -446c0 -295.333 242.333 -443 727 -443z" />
    <glyph glyph-name="Ocircumflex" unicode="&#xd4;" horiz-adv-x="2461" 
d="M1520 1556l-295 168l-287 -168h-287l365 330h440l354 -330h-290zM1231 -25c-356.667 0 -632.167 64.833 -826.5 194.5s-291.5 311.5 -291.5 545.5c0 235.333 97 418 291 548s469.667 195 827 195c356.667 0 632.167 -65 826.5 -195s291.5 -312.667 291.5 -548
c0 -234 -97.167 -415.833 -291.5 -545.5s-469.833 -194.5 -826.5 -194.5zM1231 272c483.333 0 725 147.667 725 443c0 297.333 -241.667 446 -725 446c-484.667 0 -727 -148.667 -727 -446c0 -295.333 242.333 -443 727 -443z" />
    <glyph glyph-name="Otilde" unicode="&#xd5;" horiz-adv-x="2461" 
d="M1724 1892c11.333 -120 -6.49805 -209 -53.498 -267s-115.833 -87 -206.5 -87c-43.333 0 -87.833 7.66699 -133.5 23s-83.834 32.333 -114.501 51s-63 35.667 -97 51s-62.333 23 -85 23c-25.333 0 -44 -10.333 -56 -31s-15.667 -52 -11 -94h-234
c-9.33301 121.333 9.83398 211.333 57.501 270s117.834 88 210.501 88c38.667 0 80.167 -7.83301 124.5 -23.5s82.5 -33.167 114.5 -52.5s65.167 -36.833 99.5 -52.5s62.166 -23.5 83.499 -23.5c25.333 0 44.166 10.5 56.499 31.5s16.166 52.167 11.499 93.5h233zM1231 -25
c-356.667 0 -632.167 64.833 -826.5 194.5s-291.5 311.5 -291.5 545.5c0 235.333 97 418 291 548s469.667 195 827 195c356.667 0 632.167 -65 826.5 -195s291.5 -312.667 291.5 -548c0 -234 -97.167 -415.833 -291.5 -545.5s-469.833 -194.5 -826.5 -194.5zM1231 272
c483.333 0 725 147.667 725 443c0 297.333 -241.667 446 -725 446c-484.667 0 -727 -148.667 -727 -446c0 -295.333 242.333 -443 727 -443z" />
    <glyph glyph-name="Odieresis" unicode="&#xd6;" horiz-adv-x="2461" 
d="M1343 1569v295h404v-295h-404zM713 1569v295h403v-295h-403zM1231 -25c-356.667 0 -632.167 64.833 -826.5 194.5s-291.5 311.5 -291.5 545.5c0 235.333 97 418 291 548s469.667 195 827 195c356.667 0 632.167 -65 826.5 -195s291.5 -312.667 291.5 -548
c0 -234 -97.167 -415.833 -291.5 -545.5s-469.833 -194.5 -826.5 -194.5zM1231 272c483.333 0 725 147.667 725 443c0 297.333 -241.667 446 -725 446c-484.667 0 -727 -148.667 -727 -446c0 -295.333 242.333 -443 727 -443z" />
    <glyph glyph-name="multiply" unicode="&#xd7;" horiz-adv-x="1511" 
d="M1167 246l-411 323l-412 -325l-174 198l373 295l-373 293l176 199l410 -324l411 324l174 -197l-372 -295l372 -295z" />
    <glyph glyph-name="Oslash" unicode="&#xd8;" horiz-adv-x="2461" 
d="M174 0l221 176c-188 130 -282 309.667 -282 539c0 235.333 97 418 291 548s469.667 195 827 195c258 0 473 -34 645 -102l96 78h316l-222 -177c188.667 -130 283 -310.667 283 -542c0 -234 -97.167 -415.833 -291.5 -545.5s-469.833 -194.5 -826.5 -194.5
c-256 0 -471 34.333 -645 103l-97 -78h-315zM504 715c0 -142 54.667 -249.333 164 -322l917 731c-96.667 24.667 -214.667 37 -354 37c-484.667 0 -727 -148.667 -727 -446zM1231 270c483.333 0 725 148.332 725 444.999c0 142.667 -54.667 250.334 -164 323.001l-918 -731
c96.667 -24.667 215.667 -37 357 -37z" />
    <glyph glyph-name="Ugrave" unicode="&#xd9;" horiz-adv-x="2347" 
d="M1337 1556h-327l-527 330h486zM2157 727c0 -240.667 -85.499 -426.166 -256.499 -556.499s-414.167 -195.5 -729.5 -195.5c-314.667 0 -556.834 65 -726.501 195s-254.5 315.667 -254.5 557v707h385v-697c0 -156.667 49.167 -273.334 147.5 -350.001
s247.833 -115 448.5 -115c202 0 353 38.5 453 115.5s150 193.5 150 349.5v697h383v-707z" />
    <glyph glyph-name="Uacute" unicode="&#xda;" horiz-adv-x="2347" 
d="M1010 1556l370 330h484l-525 -330h-329zM2157 727c0 -240.667 -85.499 -426.166 -256.499 -556.499s-414.167 -195.5 -729.5 -195.5c-314.667 0 -556.834 65 -726.501 195s-254.5 315.667 -254.5 557v707h385v-697c0 -156.667 49.167 -273.334 147.5 -350.001
s247.833 -115 448.5 -115c202 0 353 38.5 453 115.5s150 193.5 150 349.5v697h383v-707z" />
    <glyph glyph-name="Ucircumflex" unicode="&#xdb;" horiz-adv-x="2347" 
d="M1462 1556l-295 168l-286 -168h-287l364 330h441l354 -330h-291zM2157 727c0 -240.667 -85.499 -426.166 -256.499 -556.499s-414.167 -195.5 -729.5 -195.5c-314.667 0 -556.834 65 -726.501 195s-254.5 315.667 -254.5 557v707h385v-697
c0 -156.667 49.167 -273.334 147.5 -350.001s247.833 -115 448.5 -115c202 0 353 38.5 453 115.5s150 193.5 150 349.5v697h383v-707z" />
    <glyph glyph-name="Udieresis" unicode="&#xdc;" horiz-adv-x="2347" 
d="M1286 1569v295h404v-295h-404zM655 1569v295h404v-295h-404zM2157 727c0 -240.667 -85.499 -426.166 -256.499 -556.499s-414.167 -195.5 -729.5 -195.5c-314.667 0 -556.834 65 -726.501 195s-254.5 315.667 -254.5 557v707h385v-697
c0 -156.667 49.167 -273.334 147.5 -350.001s247.833 -115 448.5 -115c202 0 353 38.5 453 115.5s150 193.5 150 349.5v697h383v-707z" />
    <glyph glyph-name="Yacute" unicode="&#xdd;" horiz-adv-x="2060" 
d="M866 1556l371 330h483l-524 -330h-330zM842 0v551l-854 883h501l549 -578l559 578h476l-848 -881v-553h-383z" />
    <glyph glyph-name="Thorn" unicode="&#xde;" horiz-adv-x="2217" 
d="M240 0v1434h385v-187h866c194 0 346.667 -46.833 458 -140.5s167 -222.167 167 -385.5c0 -162.667 -56 -290.334 -168 -383.001s-267 -139 -465 -139h-858v-199h-385zM1423 952.001h-798v-458h798c200.667 0 301 75 301 225c0 155.333 -100.333 233 -301 233z" />
    <glyph glyph-name="germandbls" unicode="&#xdf;" horiz-adv-x="2289" 
d="M162 0v958.001c0 187.333 88.833 334.666 266.5 441.999s421.167 161 730.5 161c262 0 459.667 -35.667 593 -107s200 -173 200 -305c0 -66 -19.833 -124.833 -59.5 -176.5s-97.834 -93.167 -174.501 -124.5c324 -32.667 486 -161.667 486 -387
c0 -156 -75.833 -276 -227.5 -360s-370.167 -126 -655.5 -126c-253.333 0 -465 35 -635 105l92 260c146 -69.333 316.667 -104 512 -104c131.333 0 236.833 8.5 316.5 25.5s136 41.333 169 73s49.5 72.5 49.5 122.5c0 69.333 -28.5 119.333 -85.5 150s-159.5 46 -307.5 46
h-592v260h370c261.333 0 392 64.333 392 193c0 70 -33.5 121 -100.5 153s-182.5 48 -346.5 48c-205.333 0 -361.166 -28.833 -467.499 -86.5s-159.5 -142.167 -159.5 -253.5v-967h-366z" />
    <glyph glyph-name="agrave" unicode="&#xe0;" horiz-adv-x="1906" 
d="M1126 1245h-327l-527 330h486zM111 801c42 120 127.502 207.667 256.502 263s313.167 83 552.5 83c191.333 0 344.666 -15.167 459.999 -45.5s199.166 -77 251.499 -140s78.5 -146.5 78.5 -250.5v-383c0 -30.667 6.33301 -53.334 19 -68.001s33.667 -22 63 -22
c18 0 37 2 57 6l-8 -242c-63.333 -18 -125.333 -27 -186 -27c-168 0 -263.667 76 -287 228c-77.333 -72 -179.833 -128 -307.5 -168s-268.834 -60 -423.501 -60c-182 0 -321.667 29.167 -419 87.5s-146 141.833 -146 250.5c0 106 45.833 186.333 137.5 241
s239.5 88.334 443.5 101.001l707 37c-3.33301 73.333 -38.333 125.833 -105 157.5s-179 47.5 -337 47.5c-141.333 0 -246.166 -12.5 -314.499 -37.5s-109.833 -65.167 -124.5 -120.5zM436.002 332c0 -41.333 22.668 -71.8311 68.001 -91.498s116.333 -29.5 213 -29.5
c119.333 0 228.166 11.667 326.499 35s176.333 56.166 234 98.499s86.5 89.833 86.5 142.5v9l-737 -45c-66 -5.33301 -114.333 -17.333 -145 -36s-46 -46.334 -46 -83.001z" />
    <glyph glyph-name="aacute" unicode="&#xe1;" horiz-adv-x="1906" 
d="M801 1245l370 330h484l-525 -330h-329zM111 801c42 120 127.502 207.667 256.502 263s313.167 83 552.5 83c191.333 0 344.666 -15.167 459.999 -45.5s199.166 -77 251.499 -140s78.5 -146.5 78.5 -250.5v-383c0 -30.667 6.33301 -53.334 19 -68.001s33.667 -22 63 -22
c18 0 37 2 57 6l-8 -242c-63.333 -18 -125.333 -27 -186 -27c-168 0 -263.667 76 -287 228c-77.333 -72 -179.833 -128 -307.5 -168s-268.834 -60 -423.501 -60c-182 0 -321.667 29.167 -419 87.5s-146 141.833 -146 250.5c0 106 45.833 186.333 137.5 241
s239.5 88.334 443.5 101.001l707 37c-3.33301 73.333 -38.333 125.833 -105 157.5s-179 47.5 -337 47.5c-141.333 0 -246.166 -12.5 -314.499 -37.5s-109.833 -65.167 -124.5 -120.5zM436.002 332c0 -41.333 22.668 -71.8311 68.001 -91.498s116.333 -29.5 213 -29.5
c119.333 0 228.166 11.667 326.499 35s176.333 56.166 234 98.499s86.5 89.833 86.5 142.5v9l-737 -45c-66 -5.33301 -114.333 -17.333 -145 -36s-46 -46.334 -46 -83.001z" />
    <glyph glyph-name="acircumflex" unicode="&#xe2;" horiz-adv-x="1906" 
d="M1253 1245l-295 168l-286 -168h-287l365 330h440l354 -330h-291zM111 801c42 120 127.502 207.667 256.502 263s313.167 83 552.5 83c191.333 0 344.666 -15.167 459.999 -45.5s199.166 -77 251.499 -140s78.5 -146.5 78.5 -250.5v-383
c0 -30.667 6.33301 -53.334 19 -68.001s33.667 -22 63 -22c18 0 37 2 57 6l-8 -242c-63.333 -18 -125.333 -27 -186 -27c-168 0 -263.667 76 -287 228c-77.333 -72 -179.833 -128 -307.5 -168s-268.834 -60 -423.501 -60c-182 0 -321.667 29.167 -419 87.5
s-146 141.833 -146 250.5c0 106 45.833 186.333 137.5 241s239.5 88.334 443.5 101.001l707 37c-3.33301 73.333 -38.333 125.833 -105 157.5s-179 47.5 -337 47.5c-141.333 0 -246.166 -12.5 -314.499 -37.5s-109.833 -65.167 -124.5 -120.5zM436.002 332
c0 -41.333 22.668 -71.8311 68.001 -91.498s116.333 -29.5 213 -29.5c119.333 0 228.166 11.667 326.499 35s176.333 56.166 234 98.499s86.5 89.833 86.5 142.5v9l-737 -45c-66 -5.33301 -114.333 -17.333 -145 -36s-46 -46.334 -46 -83.001z" />
    <glyph glyph-name="atilde" unicode="&#xe3;" horiz-adv-x="1906" 
d="M1458 1581c11.333 -120 -6.5 -208.998 -53.5 -266.998s-115.833 -87 -206.5 -87c-43.333 0 -87.833 7.66699 -133.5 23s-83.834 32.166 -114.501 50.499s-63 35.166 -97 50.499s-62.333 23 -85 23c-25.333 0 -44.166 -10.5 -56.499 -31.5s-16.166 -52.167 -11.499 -93.5
h-233c-9.33301 121.333 9.83398 211.5 57.501 270.5s117.834 88.5 210.501 88.5c38.667 0 80.167 -8 124.5 -24s82.5 -33.333 114.5 -52s65.167 -36 99.5 -52s62.166 -24 83.499 -24c25.333 0 44.166 10.5 56.499 31.5s16.166 52.167 11.499 93.5h233zM111 801.002
c42 120 127.502 207.667 256.502 263s313.167 83 552.5 83c191.333 0 344.666 -15.167 459.999 -45.5s199.166 -77 251.499 -140s78.5 -146.5 78.5 -250.5v-383c0 -30.667 6.33301 -53.334 19 -68.001s33.667 -22 63 -22c18 0 37 2 57 6l-8 -242
c-63.333 -18 -125.333 -27 -186 -27c-168 0 -263.667 76 -287 228c-77.333 -72 -179.833 -128 -307.5 -168s-268.834 -60 -423.501 -60c-182 0 -321.667 29.167 -419 87.5s-146 141.833 -146 250.5c0 106 45.833 186.333 137.5 241s239.5 88.334 443.5 101.001l707 37
c-3.33301 73.333 -38.333 125.833 -105 157.5s-179 47.5 -337 47.5c-141.333 0 -246.166 -12.5 -314.499 -37.5s-109.833 -65.167 -124.5 -120.5zM436.002 332.002c0 -41.333 22.668 -71.8311 68.001 -91.498s116.333 -29.5 213 -29.5c119.333 0 228.166 11.667 326.499 35
s176.333 56.166 234 98.499s86.5 89.833 86.5 142.5v9l-737 -45c-66 -5.33301 -114.333 -17.333 -145 -36s-46 -46.334 -46 -83.001z" />
    <glyph glyph-name="adieresis" unicode="&#xe4;" horiz-adv-x="1906" 
d="M1077 1257v295h404v-295h-404zM446 1257v295h404v-295h-404zM111 801c42 120 127.502 207.667 256.502 263s313.167 83 552.5 83c191.333 0 344.666 -15.167 459.999 -45.5s199.166 -77 251.499 -140s78.5 -146.5 78.5 -250.5v-383c0 -30.667 6.33301 -53.334 19 -68.001
s33.667 -22 63 -22c18 0 37 2 57 6l-8 -242c-63.333 -18 -125.333 -27 -186 -27c-168 0 -263.667 76 -287 228c-77.333 -72 -179.833 -128 -307.5 -168s-268.834 -60 -423.501 -60c-182 0 -321.667 29.167 -419 87.5s-146 141.833 -146 250.5
c0 106 45.833 186.333 137.5 241s239.5 88.334 443.5 101.001l707 37c-3.33301 73.333 -38.333 125.833 -105 157.5s-179 47.5 -337 47.5c-141.333 0 -246.166 -12.5 -314.499 -37.5s-109.833 -65.167 -124.5 -120.5zM436.002 332c0 -41.333 22.668 -71.8311 68.001 -91.498
s116.333 -29.5 213 -29.5c119.333 0 228.166 11.667 326.499 35s176.333 56.166 234 98.499s86.5 89.833 86.5 142.5v9l-737 -45c-66 -5.33301 -114.333 -17.333 -145 -36s-46 -46.334 -46 -83.001z" />
    <glyph glyph-name="aring" unicode="&#xe5;" horiz-adv-x="1906" 
d="M967 1217c-114.667 0 -203.167 21 -265.5 63s-93.5 101.333 -93.5 178c0 76 31.333 135 94 177s151 63 265 63c112.667 0 199.834 -21 261.501 -63s92.5 -101 92.5 -177c0 -76.667 -30.833 -136 -92.5 -178s-148.834 -63 -261.501 -63zM967 1352
c120 0 180 35.333 180 106c0 70 -60 105 -180 105c-123.333 0 -185 -35 -185 -105c0 -70.667 61.667 -106 185 -106zM111 801c42 120 127.502 207.667 256.502 263s313.167 83 552.5 83c191.333 0 344.666 -15.167 459.999 -45.5s199.166 -77 251.499 -140
s78.5 -146.5 78.5 -250.5v-383c0 -30.667 6.33301 -53.334 19 -68.001s33.667 -22 63 -22c18 0 37 2 57 6l-8 -242c-63.333 -18 -125.333 -27 -186 -27c-168 0 -263.667 76 -287 228c-77.333 -72 -179.833 -128 -307.5 -168s-268.834 -60 -423.501 -60
c-182 0 -321.667 29.167 -419 87.5s-146 141.833 -146 250.5c0 106 45.833 186.333 137.5 241s239.5 88.334 443.5 101.001l707 37c-3.33301 73.333 -38.333 125.833 -105 157.5s-179 47.5 -337 47.5c-141.333 0 -246.166 -12.5 -314.499 -37.5
s-109.833 -65.167 -124.5 -120.5zM436.002 332c0 -41.333 22.668 -71.8311 68.001 -91.498s116.333 -29.5 213 -29.5c119.333 0 228.166 11.667 326.499 35s176.333 56.166 234 98.499s86.5 89.833 86.5 142.5v9l-737 -45c-66 -5.33301 -114.333 -17.333 -145 -36
s-46 -46.334 -46 -83.001z" />
    <glyph glyph-name="ae" unicode="&#xe6;" horiz-adv-x="3213" 
d="M760 -25c-103.333 0 -194.496 5.49805 -273.496 16.498s-144.5 26.167 -196.5 45.5s-94.333 43.5 -127 72.5s-56 60.167 -70 93.5s-21 70.666 -21 111.999c0 105.333 46 185.166 138 239.499s239.667 87.833 443 100.5l705 37c-6 72.667 -40.833 125 -104.5 157
s-170.834 48 -321.501 48c-140.667 0 -245.167 -12.5 -313.5 -37.5s-109.833 -65.167 -124.5 -120.5l-369 62c42 119.333 128.333 206.833 259 262.5s314 83.5 550 83.5c155.333 0 284.166 -14.167 386.499 -42.5s185.166 -74.166 248.499 -137.499
c153.333 120 377.333 180 672 180c271.333 0 484.833 -50.167 640.5 -150.5s233.5 -237.166 233.5 -410.499c0 -45.333 -3.33301 -81.666 -10 -108.999h-1385c41.333 -164 219.666 -246 534.999 -246c147.333 0 259.833 12 337.5 36s127.5 61.333 149.5 112l369 -66
c-48.667 -118 -139.834 -203.833 -273.5 -257.5c-133.667 -53.667 -327.834 -80.5 -582.501 -80.5c-163.333 0 -305.166 17.833 -425.499 53.5s-222.833 93.834 -307.5 174.501c-167.333 -152 -421.333 -228 -762 -228zM2241 902.998c-150 0 -266.5 -17.668 -349.5 -53.001
s-137.167 -90.666 -162.5 -165.999h1007c-26.667 78 -81.5 134 -164.5 168s-193.167 51 -330.5 51zM436.004 331.997c0 -42 25.167 -73 75.5 -93s130.5 -30 240.5 -30c195.333 0 347 26.333 455 79s160.333 121.334 157 206.001v2l-737 -45
c-66 -5.33301 -114.333 -17.333 -145 -36s-46 -46.334 -46 -83.001z" />
    <glyph glyph-name="ccedilla" unicode="&#xe7;" horiz-adv-x="1943" 
d="M1872 735l-373 -73.001c-21.333 74.667 -72.5 129.834 -153.5 165.501s-194.833 53.5 -341.5 53.5c-178 0 -310.333 -26.5 -397 -79.5s-130 -133.167 -130 -240.5c0 -106 43.333 -185.333 130 -238s219.667 -79 399 -79c152 0 268.333 18 349 54s130.667 93 150 171
l371 -74c-36 -132.667 -125 -234.834 -267 -306.501s-328.667 -109.5 -560 -113.5l-13 -71c56.667 10.667 110 16 160 16c96.667 0 169 -14.833 217 -44.5s72 -70.834 72 -123.501c0 -65.333 -37.167 -114.666 -111.5 -147.999s-195.5 -50 -363.5 -50
c-132.667 0 -257.667 13.333 -375 40l10 146c126.667 -26 236 -39 328 -39c52 0 92.5 2.33301 121.5 7s48.333 10.667 58 18s14.5 17.333 14.5 30c0 31.333 -28.667 47 -86 47c-42.667 0 -78.667 -8 -108 -24l-207 20l33 187c-222.667 23.333 -394.5 84.833 -515.5 184.5
s-181.5 229.834 -181.5 390.501c0 184.667 79.167 328.5 237.5 431.5s379.833 154.5 664.5 154.5c240 0 434.5 -35.167 583.5 -105.5s243.833 -172.5 284.5 -306.5z" />
    <glyph glyph-name="egrave" unicode="&#xe8;" horiz-adv-x="1990" 
d="M1157 1245h-328l-526 330h485zM1014 -25c-288.667 0 -512.832 51.499 -672.499 154.499s-239.5 247.5 -239.5 433.5c0 180 79.667 322.333 239 427s379.333 157 660 157c276 0 493.5 -50 652.5 -150s238.5 -237 238.5 -411c0 -45.333 -3.33301 -81.666 -10 -108.999
h-1411c43.333 -164 224.333 -246 543 -246c153.333 0 270.5 12 351.5 36s131.833 61.333 152.5 112l368 -66c-47.333 -118 -138.833 -203.833 -274.5 -257.5s-334.834 -80.5 -597.501 -80.5zM1004 902.999c-155.333 0 -275.667 -18.167 -361 -54.5
s-140.666 -92.5 -165.999 -168.5h1039c-23.333 76 -76.833 132.167 -160.5 168.5s-200.834 54.5 -351.501 54.5z" />
    <glyph glyph-name="eacute" unicode="&#xe9;" horiz-adv-x="1990" 
d="M831 1245l371 330h484l-525 -330h-330zM1014 -25c-288.667 0 -512.832 51.499 -672.499 154.499s-239.5 247.5 -239.5 433.5c0 180 79.667 322.333 239 427s379.333 157 660 157c276 0 493.5 -50 652.5 -150s238.5 -237 238.5 -411
c0 -45.333 -3.33301 -81.666 -10 -108.999h-1411c43.333 -164 224.333 -246 543 -246c153.333 0 270.5 12 351.5 36s131.833 61.333 152.5 112l368 -66c-47.333 -118 -138.833 -203.833 -274.5 -257.5s-334.834 -80.5 -597.501 -80.5zM1004 902.999
c-155.333 0 -275.667 -18.167 -361 -54.5s-140.666 -92.5 -165.999 -168.5h1039c-23.333 76 -76.833 132.167 -160.5 168.5s-200.834 54.5 -351.501 54.5z" />
    <glyph glyph-name="ecircumflex" unicode="&#xea;" horiz-adv-x="1990" 
d="M1284 1245l-295 168l-287 -168h-286l364 330h441l354 -330h-291zM1014 -25c-288.667 0 -512.832 51.499 -672.499 154.499s-239.5 247.5 -239.5 433.5c0 180 79.667 322.333 239 427s379.333 157 660 157c276 0 493.5 -50 652.5 -150s238.5 -237 238.5 -411
c0 -45.333 -3.33301 -81.666 -10 -108.999h-1411c43.333 -164 224.333 -246 543 -246c153.333 0 270.5 12 351.5 36s131.833 61.333 152.5 112l368 -66c-47.333 -118 -138.833 -203.833 -274.5 -257.5s-334.834 -80.5 -597.501 -80.5zM1004 902.999
c-155.333 0 -275.667 -18.167 -361 -54.5s-140.666 -92.5 -165.999 -168.5h1039c-23.333 76 -76.833 132.167 -160.5 168.5s-200.834 54.5 -351.501 54.5z" />
    <glyph glyph-name="edieresis" unicode="&#xeb;" horiz-adv-x="1990" 
d="M1108 1257v295h403v-295h-403zM477 1257v295h404v-295h-404zM1014 -25c-288.667 0 -512.832 51.499 -672.499 154.499s-239.5 247.5 -239.5 433.5c0 180 79.667 322.333 239 427s379.333 157 660 157c276 0 493.5 -50 652.5 -150s238.5 -237 238.5 -411
c0 -45.333 -3.33301 -81.666 -10 -108.999h-1411c43.333 -164 224.333 -246 543 -246c153.333 0 270.5 12 351.5 36s131.833 61.333 152.5 112l368 -66c-47.333 -118 -138.833 -203.833 -274.5 -257.5s-334.834 -80.5 -597.501 -80.5zM1004 902.999
c-155.333 0 -275.667 -18.167 -361 -54.5s-140.666 -92.5 -165.999 -168.5h1039c-23.333 76 -76.833 132.167 -160.5 168.5s-200.834 54.5 -351.501 54.5z" />
    <glyph glyph-name="igrave" unicode="&#xec;" 
d="M547 1245h-328l-526 330h485zM203 0v1122h364v-1122h-364z" />
    <glyph glyph-name="iacute" unicode="&#xed;" 
d="M221 1245l371 330h483l-524 -330h-330zM203 0v1122h364v-1122h-364z" />
    <glyph glyph-name="icircumflex" unicode="&#xee;" 
d="M674 1245l-295 168l-287 -168h-287l365 330h440l355 -330h-291zM203 0v1122h364v-1122h-364z" />
    <glyph glyph-name="idieresis" unicode="&#xef;" 
d="M498 1257v295h403v-295h-403zM-133 1257v295h403v-295h-403zM203 0v1122h364v-1122h-364z" />
    <glyph glyph-name="eth" unicode="&#xf0;" horiz-adv-x="2025" 
d="M1001 -25c-292 0 -514.167 43.999 -666.5 131.999s-228.5 211.333 -228.5 370c0 156 71.333 277.333 214 364s350 130 622 130c250.667 0 445.334 -51.333 584.001 -154c-22 60 -59.667 119.5 -113 178.5s-130.333 124.5 -231 196.5l-447 -115v176l258 66
c-56 35.333 -157 96 -303 182l438 55c67.333 -39.333 143.333 -87 228 -143l409 105v-177l-235 -59c143.333 -119.333 243.666 -235.5 300.999 -348.5s86 -232.5 86 -358.5c0 -187.333 -76.167 -334.166 -228.5 -440.499s-381.5 -159.5 -687.5 -159.5zM1008 241.999
c186 0 320.5 19.333 403.5 58s124.5 97.667 124.5 177c0 78.667 -42 137.334 -126 176.001s-218 58 -402 58c-186.667 0 -321.5 -19.333 -404.5 -58s-124.5 -97.334 -124.5 -176.001c0 -52.667 17.5 -96 52.5 -130s91.833 -60 170.5 -78s180.667 -27 306 -27z" />
    <glyph glyph-name="ntilde" unicode="&#xf1;" horiz-adv-x="2048" 
d="M1518 1581c11.333 -120 -6.66504 -208.998 -53.998 -266.998s-116.333 -87 -207 -87c-43.333 0 -87.833 7.66699 -133.5 23s-83.834 32.166 -114.501 50.499s-63 35.166 -97 50.499s-62.333 23 -85 23c-25.333 0 -44 -10.333 -56 -31s-15.667 -52 -11 -94h-234
c-9.33301 121.333 10 211.5 58 270.5s118.333 88.5 211 88.5c38.667 0 80.167 -8 124.5 -24s82.5 -33.333 114.5 -52s65.167 -36 99.5 -52s62.166 -24 83.499 -24c25.333 0 44 10.333 56 31s15.667 52 11 94h234zM203.002 0.00195312v1122h329l25 -260
c72.667 89.333 167.667 159.166 285 209.499s247 75.5 389 75.5c205.333 0 361.833 -46.167 469.5 -138.5s161.5 -225.833 161.5 -400.5v-608h-365v537c0 105.333 -32.333 185.833 -97 241.5s-159.334 83.5 -284.001 83.5c-167.333 0 -300.666 -38.167 -399.999 -114.5
s-149 -179.5 -149 -309.5v-438h-364z" />
    <glyph glyph-name="ograve" unicode="&#xf2;" horiz-adv-x="2025" 
d="M1174 1245h-328l-527 330h486zM1012 -25c-289.333 0 -513.333 51.167 -672 153.5s-238 246.5 -238 432.5s79.333 330.167 238 432.5s382.667 153.5 672 153.5c291.333 0 516 -51.167 674 -153.5s237 -246.5 237 -432.5c0 -187.333 -78.5 -331.833 -235.5 -433.5
s-382.167 -152.5 -675.5 -152.5zM1012 244c182.667 0 317.667 26 405 78s131 131.667 131 239s-43.833 187.5 -131.5 240.5s-222.5 79.5 -404.5 79.5c-181.333 0 -315.833 -26.5 -403.5 -79.5s-131.5 -133.167 -131.5 -240.5c0 -106.667 43.667 -186.167 131 -238.5
s222 -78.5 404 -78.5z" />
    <glyph glyph-name="oacute" unicode="&#xf3;" horiz-adv-x="2025" 
d="M848 1245l371 330h483l-524 -330h-330zM1012 -25c-289.333 0 -513.333 51.167 -672 153.5s-238 246.5 -238 432.5s79.333 330.167 238 432.5s382.667 153.5 672 153.5c291.333 0 516 -51.167 674 -153.5s237 -246.5 237 -432.5c0 -187.333 -78.5 -331.833 -235.5 -433.5
s-382.167 -152.5 -675.5 -152.5zM1012 244c182.667 0 317.667 26 405 78s131 131.667 131 239s-43.833 187.5 -131.5 240.5s-222.5 79.5 -404.5 79.5c-181.333 0 -315.833 -26.5 -403.5 -79.5s-131.5 -133.167 -131.5 -240.5c0 -106.667 43.667 -186.167 131 -238.5
s222 -78.5 404 -78.5z" />
    <glyph glyph-name="ocircumflex" unicode="&#xf4;" horiz-adv-x="2025" 
d="M1300 1245l-294 168l-287 -168h-287l365 330h440l354 -330h-291zM1012 -25c-289.333 0 -513.333 51.167 -672 153.5s-238 246.5 -238 432.5s79.333 330.167 238 432.5s382.667 153.5 672 153.5c291.333 0 516 -51.167 674 -153.5s237 -246.5 237 -432.5
c0 -187.333 -78.5 -331.833 -235.5 -433.5s-382.167 -152.5 -675.5 -152.5zM1012 244c182.667 0 317.667 26 405 78s131 131.667 131 239s-43.833 187.5 -131.5 240.5s-222.5 79.5 -404.5 79.5c-181.333 0 -315.833 -26.5 -403.5 -79.5s-131.5 -133.167 -131.5 -240.5
c0 -106.667 43.667 -186.167 131 -238.5s222 -78.5 404 -78.5z" />
    <glyph glyph-name="otilde" unicode="&#xf5;" horiz-adv-x="2025" 
d="M1505 1581c11.333 -120 -6.49805 -208.998 -53.498 -266.998s-115.833 -87 -206.5 -87c-43.333 0 -87.833 7.66699 -133.5 23s-83.834 32.166 -114.501 50.499s-63 35.166 -97 50.499s-62.333 23 -85 23c-25.333 0 -44 -10.333 -56 -31s-15.667 -52 -11 -94h-234
c-9.33301 121.333 9.83398 211.5 57.501 270.5s117.834 88.5 210.501 88.5c38.667 0 80.167 -8 124.5 -24s82.5 -33.333 114.5 -52s65.167 -36 99.5 -52s62.166 -24 83.499 -24c25.333 0 44.166 10.5 56.499 31.5s16.166 52.167 11.499 93.5h233zM1012 -24.998
c-289.333 0 -513.333 51.167 -672 153.5s-238 246.5 -238 432.5s79.333 330.167 238 432.5s382.667 153.5 672 153.5c291.333 0 516 -51.167 674 -153.5s237 -246.5 237 -432.5c0 -187.333 -78.5 -331.833 -235.5 -433.5s-382.167 -152.5 -675.5 -152.5zM1012 244.002
c182.667 0 317.667 26 405 78s131 131.667 131 239s-43.833 187.5 -131.5 240.5s-222.5 79.5 -404.5 79.5c-181.333 0 -315.833 -26.5 -403.5 -79.5s-131.5 -133.167 -131.5 -240.5c0 -106.667 43.667 -186.167 131 -238.5s222 -78.5 404 -78.5z" />
    <glyph glyph-name="odieresis" unicode="&#xf6;" horiz-adv-x="2025" 
d="M1124 1257v295h404v-295h-404zM494 1257v295h403v-295h-403zM1012 -25c-289.333 0 -513.333 51.167 -672 153.5s-238 246.5 -238 432.5s79.333 330.167 238 432.5s382.667 153.5 672 153.5c291.333 0 516 -51.167 674 -153.5s237 -246.5 237 -432.5
c0 -187.333 -78.5 -331.833 -235.5 -433.5s-382.167 -152.5 -675.5 -152.5zM1012 244c182.667 0 317.667 26 405 78s131 131.667 131 239s-43.833 187.5 -131.5 240.5s-222.5 79.5 -404.5 79.5c-181.333 0 -315.833 -26.5 -403.5 -79.5s-131.5 -133.167 -131.5 -240.5
c0 -106.667 43.667 -186.167 131 -238.5s222 -78.5 404 -78.5z" />
    <glyph glyph-name="divide" unicode="&#xf7;" horiz-adv-x="1511" 
d="M582 1024v279h348v-279h-348zM1378 596h-1245v260h1245v-260zM582 150v278h348v-278h-348z" />
    <glyph glyph-name="oslash" unicode="&#xf8;" horiz-adv-x="2025" 
d="M123 0l192 145c-142 102 -213 240.667 -213 416c0 186 79.333 330.167 238 432.5s382.667 153.5 672 153.5c209.333 0 384 -26.667 524 -80l74 55h293l-193 -145c142 -102 213 -240.667 213 -416c0 -187.333 -78.5 -331.833 -235.5 -433.5s-382.167 -152.5 -675.5 -152.5
c-208.667 0 -383 26.667 -523 80l-73 -55h-293zM475 561c0 -96 33.334 -169 100.001 -219l689 518c-78.667 15.333 -162.667 23 -252 23c-182.667 0 -317.834 -26.667 -405.501 -80s-131.5 -134 -131.5 -242zM1012 240c183.333 0 318.834 26.5 406.501 79.5
s131.5 133.5 131.5 241.5c0 96 -33.333 169 -100 219l-688 -518c73.333 -14.667 156.666 -22 249.999 -22z" />
    <glyph glyph-name="ugrave" unicode="&#xf9;" horiz-adv-x="1988" 
d="M1155 1245h-328l-526 330h485zM1419 682v440.002h367v-1122h-330l-26 254c-69.333 -86.667 -160.5 -154.834 -273.5 -204.501s-236.5 -74.5 -370.5 -74.5c-192.667 0 -341.5 45.667 -446.5 137s-157.5 224 -157.5 398v612h365v-549c0 -102.667 30.5 -180.167 91.5 -232.5
s145.833 -78.5 254.5 -78.5c157.333 0 284.5 37.167 381.5 111.5s145.167 177.166 144.5 308.499z" />
    <glyph glyph-name="uacute" unicode="&#xfa;" horiz-adv-x="1988" 
d="M829 1245l371 330h483l-524 -330h-330zM1419 682v440.002h367v-1122h-330l-26 254c-69.333 -86.667 -160.5 -154.834 -273.5 -204.501s-236.5 -74.5 -370.5 -74.5c-192.667 0 -341.5 45.667 -446.5 137s-157.5 224 -157.5 398v612h365v-549
c0 -102.667 30.5 -180.167 91.5 -232.5s145.833 -78.5 254.5 -78.5c157.333 0 284.5 37.167 381.5 111.5s145.167 177.166 144.5 308.499z" />
    <glyph glyph-name="ucircumflex" unicode="&#xfb;" horiz-adv-x="1988" 
d="M1282 1245l-295 168l-287 -168h-286l364 330h441l354 -330h-291zM1419 682v440.002h367v-1122h-330l-26 254c-69.333 -86.667 -160.5 -154.834 -273.5 -204.501s-236.5 -74.5 -370.5 -74.5c-192.667 0 -341.5 45.667 -446.5 137s-157.5 224 -157.5 398v612h365v-549
c0 -102.667 30.5 -180.167 91.5 -232.5s145.833 -78.5 254.5 -78.5c157.333 0 284.5 37.167 381.5 111.5s145.167 177.166 144.5 308.499z" />
    <glyph glyph-name="udieresis" unicode="&#xfc;" horiz-adv-x="1988" 
d="M1106 1257v295h403v-295h-403zM475 1257v295h404v-295h-404zM1419 682v440.002h367v-1122h-330l-26 254c-69.333 -86.667 -160.5 -154.834 -273.5 -204.501s-236.5 -74.5 -370.5 -74.5c-192.667 0 -341.5 45.667 -446.5 137s-157.5 224 -157.5 398v612h365v-549
c0 -102.667 30.5 -180.167 91.5 -232.5s145.833 -78.5 254.5 -78.5c157.333 0 284.5 37.167 381.5 111.5s145.167 177.166 144.5 308.499z" />
    <glyph glyph-name="yacute" unicode="&#xfd;" horiz-adv-x="1761" 
d="M717 1245l370 330h484l-524 -330h-330zM1350 1122h399.003l-682 -1132c-50.667 -84 -97.834 -152.167 -141.501 -204.5s-91.667 -95.333 -144 -129s-108 -57.167 -167 -70.5s-129.5 -20 -211.5 -20c-86.667 0 -170.334 10.333 -251.001 31l-13 266
c72 -12.667 141 -19 207 -19c95.333 0 168.666 12.833 219.999 38.5s100.333 77.167 147 154.5l-701 1085h420l477 -772z" />
    <glyph glyph-name="thorn" unicode="&#xfe;" horiz-adv-x="2115" 
d="M1247 -25c-148 0 -280.498 20.5 -397.498 61.5s-211.167 98.5 -282.5 172.5v-619h-364v1946h364v-623c71.333 74 165.666 131.5 282.999 172.5s249.666 61.5 396.999 61.5c238.667 0 426 -52.333 562 -157s204 -247.667 204 -429
c0 -183.333 -67.5 -326.833 -202.5 -430.5s-322.833 -155.5 -563.5 -155.5zM1120 244c345.333 0 518 105.668 518 317.001c0 212 -172.667 318 -518 318c-176.667 0 -313 -27.833 -409 -83.5s-144 -133.834 -144 -234.501s48 -178.667 144 -234s232.333 -83 409 -83z" />
    <glyph glyph-name="ydieresis" unicode="&#xff;" horiz-adv-x="1761" 
d="M993 1257v295h404v-295h-404zM362 1257v295h404v-295h-404zM1350 1122h399.003l-682 -1132c-50.667 -84 -97.834 -152.167 -141.501 -204.5s-91.667 -95.333 -144 -129s-108 -57.167 -167 -70.5s-129.5 -20 -211.5 -20c-86.667 0 -170.334 10.333 -251.001 31l-13 266
c72 -12.667 141 -19 207 -19c95.333 0 168.666 12.833 219.999 38.5s100.333 77.167 147 154.5l-701 1085h420l477 -772z" />
    <glyph glyph-name="Amacron" unicode="&#x100;" horiz-adv-x="2336" 
d="M662 1579v233h1015v-233h-1015zM1890 0l-192 295h-1073l-193 -295h-426l965 1434h393l967 -1434h-441zM805 569h713l-357 547z" />
    <glyph glyph-name="amacron" unicode="&#x101;" horiz-adv-x="1906" 
d="M457 1268v233h1016v-233h-1016zM111 801c42 120 127.502 207.667 256.502 263s313.167 83 552.5 83c191.333 0 344.666 -15.167 459.999 -45.5s199.166 -77 251.499 -140s78.5 -146.5 78.5 -250.5v-383c0 -30.667 6.33301 -53.334 19 -68.001s33.667 -22 63 -22
c18 0 37 2 57 6l-8 -242c-63.333 -18 -125.333 -27 -186 -27c-168 0 -263.667 76 -287 228c-77.333 -72 -179.833 -128 -307.5 -168s-268.834 -60 -423.501 -60c-182 0 -321.667 29.167 -419 87.5s-146 141.833 -146 250.5c0 106 45.833 186.333 137.5 241
s239.5 88.334 443.5 101.001l707 37c-3.33301 73.333 -38.333 125.833 -105 157.5s-179 47.5 -337 47.5c-141.333 0 -246.166 -12.5 -314.499 -37.5s-109.833 -65.167 -124.5 -120.5zM436.002 332c0 -41.333 22.668 -71.8311 68.001 -91.498s116.333 -29.5 213 -29.5
c119.333 0 228.166 11.667 326.499 35s176.333 56.166 234 98.499s86.5 89.833 86.5 142.5v9l-737 -45c-66 -5.33301 -114.333 -17.333 -145 -36s-46 -46.334 -46 -83.001z" />
    <glyph glyph-name="Abreve" unicode="&#x102;" horiz-adv-x="2336" 
d="M1382 1882h293c0 -226.667 -168 -340 -504 -340c-339.333 0 -509 113.333 -509 340h292c0 -99.333 72.333 -149 217 -149c140.667 0 211 49.667 211 149zM1890 0l-192 295h-1073l-193 -295h-426l965 1434h393l967 -1434h-441zM805 569h713l-357 547z" />
    <glyph glyph-name="abreve" unicode="&#x103;" horiz-adv-x="1906" 
d="M1178 1571h292c0 -226.667 -167.667 -340 -503 -340c-340 0 -510 113.333 -510 340h293c0 -100 72.333 -150 217 -150c140.667 0 211 50 211 150zM111 801c42 120 127.502 207.667 256.502 263s313.167 83 552.5 83c191.333 0 344.666 -15.167 459.999 -45.5
s199.166 -77 251.499 -140s78.5 -146.5 78.5 -250.5v-383c0 -30.667 6.33301 -53.334 19 -68.001s33.667 -22 63 -22c18 0 37 2 57 6l-8 -242c-63.333 -18 -125.333 -27 -186 -27c-168 0 -263.667 76 -287 228c-77.333 -72 -179.833 -128 -307.5 -168
s-268.834 -60 -423.501 -60c-182 0 -321.667 29.167 -419 87.5s-146 141.833 -146 250.5c0 106 45.833 186.333 137.5 241s239.5 88.334 443.5 101.001l707 37c-3.33301 73.333 -38.333 125.833 -105 157.5s-179 47.5 -337 47.5c-141.333 0 -246.166 -12.5 -314.499 -37.5
s-109.833 -65.167 -124.5 -120.5zM436.002 332c0 -41.333 22.668 -71.8311 68.001 -91.498s116.333 -29.5 213 -29.5c119.333 0 228.166 11.667 326.499 35s176.333 56.166 234 98.499s86.5 89.833 86.5 142.5v9l-737 -45c-66 -5.33301 -114.333 -17.333 -145 -36
s-46 -46.334 -46 -83.001z" />
    <glyph glyph-name="Aogonek" unicode="&#x104;" horiz-adv-x="2336" 
d="M1669 -219c0 104 69 183 207 237l-180 277h-1071l-193 -295h-426l965 1434h393l967 -1434c-239.333 -26 -359 -71.667 -359 -137c0 -40 39.667 -60 119 -60c70.667 0 150.667 13.667 240 41l-7 -247c-93.333 -30.667 -195 -46 -305 -46
c-112.667 0 -199.167 19.5 -259.5 58.5s-90.5 96.167 -90.5 171.5zM805 569h713l-357 547z" />
    <glyph glyph-name="aogonek" unicode="&#x105;" horiz-adv-x="1906" 
d="M1837 -403c-90.667 -30.667 -191 -45.9971 -301 -45.9971c-113.333 0 -200.666 19.833 -261.999 59.5s-92 97.834 -92 174.501c0 57.333 20.167 106.666 60.5 147.999s108.833 76.666 205.5 105.999c-43.333 39.333 -70 95.333 -80 168
c-76.667 -72.667 -179 -129.5 -307 -170.5s-269.333 -61.5 -424 -61.5c-182 0 -321.667 29.167 -419 87.5s-146 141.833 -146 250.5c0 105.333 46 185.166 138 239.499s239.667 87.833 443 100.5l707 39c-3.33301 73.333 -37.333 125.833 -102 157.5
s-173.334 47.5 -326.001 47.5c-149.333 0 -258.5 -12.5 -327.5 -37.5s-110.833 -65.167 -125.5 -120.5l-368 62c42 120.667 127.833 208.5 257.5 263.5s318.167 82.5 565.5 82.5c188 0 338.667 -15.167 452 -45.5s195.666 -77 246.999 -140s77 -146.5 77 -250.5v-383
c0 -30.667 6.33301 -53.334 19 -68.001s33.667 -22 63 -22c18 0 37 2 57 6l-8 -242c-27.333 -8 -61.166 -16.5 -101.499 -25.5l-99.5 -22.5c-26 -6 -52 -13.333 -78 -22s-45.333 -18.667 -58 -30s-19 -24.333 -19 -39c0 -40 39.667 -60 119 -60c70 0 149.667 13.667 239 41z
M436 332.003c0 -42 22.501 -72.665 67.501 -91.998s116.167 -29 213.5 -29c119.333 0 228.166 11.667 326.499 35s176.333 56.166 234 98.499s86.5 89.833 86.5 142.5v7l-737 -45c-66 -4 -114.333 -15.333 -145 -34s-46 -46.334 -46 -83.001z" />
    <glyph glyph-name="Cacute" unicode="&#x106;" horiz-adv-x="2340" 
d="M1016 1556l370 330h484l-524 -330h-330zM113 717c0 232 96.666 413.499 289.999 544.499s463.666 196.5 810.999 196.5c287.333 0 518.666 -41.833 693.999 -125.5s286.333 -206.167 333 -367.5l-408 -80c-56.667 184 -263 276 -619 276c-473.333 0 -710 -148 -710 -444
c0 -298 236.667 -447 710 -447c366.667 0 574.334 95.667 623.001 287l401 -78c-46.667 -167.333 -156.167 -293.166 -328.5 -377.499s-404.166 -126.5 -695.499 -126.5c-351.333 0 -622.666 65.167 -813.999 195.5s-287 312.5 -287 546.5z" />
    <glyph glyph-name="cacute" unicode="&#x107;" horiz-adv-x="1943" 
d="M807 1245l371 330h483l-524 -330h-330zM1872 735l-373 -73c-21.333 74.667 -72.5 129.834 -153.5 165.501s-194.833 53.5 -341.5 53.5c-178 0 -310.333 -26.5 -397 -79.5s-130 -133.167 -130 -240.5c0 -106 43.333 -185.333 130 -238s219.667 -79 399 -79
c152 0 268.333 18 349 54s130.667 93 150 171l371 -74c-36.667 -136.667 -130 -240.834 -280 -312.501s-346.667 -107.5 -590 -107.5c-285.333 0 -507.333 51.5 -666 154.5s-238 246.833 -238 431.5s79.167 328.5 237.5 431.5s379.833 154.5 664.5 154.5
c240 0 434.5 -35.167 583.5 -105.5s243.833 -172.5 284.5 -306.5z" />
    <glyph glyph-name="Ccircumflex" unicode="&#x108;" horiz-adv-x="2340" 
d="M1470 1556l-294 168l-287 -168h-287l365 330h440l354 -330h-291zM113 717c0 232 96.666 413.499 289.999 544.499s463.666 196.5 810.999 196.5c287.333 0 518.666 -41.833 693.999 -125.5s286.333 -206.167 333 -367.5l-408 -80c-56.667 184 -263 276 -619 276
c-473.333 0 -710 -148 -710 -444c0 -298 236.667 -447 710 -447c366.667 0 574.334 95.667 623.001 287l401 -78c-46.667 -167.333 -156.167 -293.166 -328.5 -377.499s-404.166 -126.5 -695.499 -126.5c-351.333 0 -622.666 65.167 -813.999 195.5s-287 312.5 -287 546.5z
" />
    <glyph glyph-name="ccircumflex" unicode="&#x109;" horiz-adv-x="1943" 
d="M1262 1245l-295 168l-287 -168h-287l365 330h440l354 -330h-290zM1872 735l-373 -73c-21.333 74.667 -72.5 129.834 -153.5 165.501s-194.833 53.5 -341.5 53.5c-178 0 -310.333 -26.5 -397 -79.5s-130 -133.167 -130 -240.5c0 -106 43.333 -185.333 130 -238
s219.667 -79 399 -79c152 0 268.333 18 349 54s130.667 93 150 171l371 -74c-36.667 -136.667 -130 -240.834 -280 -312.501s-346.667 -107.5 -590 -107.5c-285.333 0 -507.333 51.5 -666 154.5s-238 246.833 -238 431.5s79.167 328.5 237.5 431.5
s379.833 154.5 664.5 154.5c240 0 434.5 -35.167 583.5 -105.5s243.833 -172.5 284.5 -306.5z" />
    <glyph glyph-name="Cdotaccent" unicode="&#x10a;" horiz-adv-x="2340" 
d="M987 1569v329h387v-329h-387zM113 717c0 232 96.666 413.499 289.999 544.499s463.666 196.5 810.999 196.5c287.333 0 518.666 -41.833 693.999 -125.5s286.333 -206.167 333 -367.5l-408 -80c-56.667 184 -263 276 -619 276c-473.333 0 -710 -148 -710 -444
c0 -298 236.667 -447 710 -447c366.667 0 574.334 95.667 623.001 287l401 -78c-46.667 -167.333 -156.167 -293.166 -328.5 -377.499s-404.166 -126.5 -695.499 -126.5c-351.333 0 -622.666 65.167 -813.999 195.5s-287 312.5 -287 546.5z" />
    <glyph glyph-name="cdotaccent" unicode="&#x10b;" horiz-adv-x="1943" 
d="M782 1257v330h387v-330h-387zM1872 735l-373 -73c-21.333 74.667 -72.5 129.834 -153.5 165.501s-194.833 53.5 -341.5 53.5c-178 0 -310.333 -26.5 -397 -79.5s-130 -133.167 -130 -240.5c0 -106 43.333 -185.333 130 -238s219.667 -79 399 -79c152 0 268.333 18 349 54
s130.667 93 150 171l371 -74c-36.667 -136.667 -130 -240.834 -280 -312.501s-346.667 -107.5 -590 -107.5c-285.333 0 -507.333 51.5 -666 154.5s-238 246.833 -238 431.5s79.167 328.5 237.5 431.5s379.833 154.5 664.5 154.5c240 0 434.5 -35.167 583.5 -105.5
s243.833 -172.5 284.5 -306.5z" />
    <glyph glyph-name="Ccaron" unicode="&#x10c;" horiz-adv-x="2340" 
d="M1761 1886l-364 -330h-443l-352 330h291l295 -166l287 166h286zM113 717c0 232 96.666 413.499 289.999 544.499s463.666 196.5 810.999 196.5c287.333 0 518.666 -41.833 693.999 -125.5s286.333 -206.167 333 -367.5l-408 -80c-56.667 184 -263 276 -619 276
c-473.333 0 -710 -148 -710 -444c0 -298 236.667 -447 710 -447c366.667 0 574.334 95.667 623.001 287l401 -78c-46.667 -167.333 -156.167 -293.166 -328.5 -377.499s-404.166 -126.5 -695.499 -126.5c-351.333 0 -622.666 65.167 -813.999 195.5s-287 312.5 -287 546.5z
" />
    <glyph glyph-name="ccaron" unicode="&#x10d;" horiz-adv-x="1943" 
d="M1552 1575l-364 -330h-443l-352 330h291l295 -166l287 166h286zM1872 735l-373 -73c-21.333 74.667 -72.5 129.834 -153.5 165.501s-194.833 53.5 -341.5 53.5c-178 0 -310.333 -26.5 -397 -79.5s-130 -133.167 -130 -240.5c0 -106 43.333 -185.333 130 -238
s219.667 -79 399 -79c152 0 268.333 18 349 54s130.667 93 150 171l371 -74c-36.667 -136.667 -130 -240.834 -280 -312.501s-346.667 -107.5 -590 -107.5c-285.333 0 -507.333 51.5 -666 154.5s-238 246.833 -238 431.5s79.167 328.5 237.5 431.5
s379.833 154.5 664.5 154.5c240 0 434.5 -35.167 583.5 -105.5s243.833 -172.5 284.5 -306.5z" />
    <glyph glyph-name="Dcaron" unicode="&#x10e;" horiz-adv-x="2420" 
d="M1790 1886l-365 -330h-442l-352 330h291l295 -166l286 166h287zM240 0v1434h1134c293.333 0 518.333 -62.333 675 -187s235 -302 235 -532c0 -229.333 -78.333 -405.833 -235 -529.5s-381.667 -185.5 -675 -185.5h-1134zM1403 297c324.667 0 487 139.333 487 418
c0 281.333 -162.333 422 -487 422h-778v-840h778z" />
    <glyph glyph-name="dcaron" unicode="&#x10f;" horiz-adv-x="2347" 
d="M868 -25c-240.667 0 -428.501 51.833 -563.501 155.5s-202.5 247.167 -202.5 430.5c0 181.333 68 324.333 204 429s323.333 157 562 157c146.667 0 278.5 -20.333 395.5 -61s211.833 -97.667 284.5 -171v621h367v-1536h-336l-20 215
c-71.333 -76 -166.666 -135 -285.999 -177s-254.333 -63 -405 -63zM2116 1085v451h338l-105 -451h-233zM994.999 244c176.667 0 313 27.666 409 82.999s144 133.333 144 234s-48 178.834 -144 234.501s-232.333 83.5 -409 83.5c-345.333 0 -518 -106 -518 -318
c0 -211.333 172.667 -317 518 -317z" />
    <glyph glyph-name="Dcroat" unicode="&#x110;" horiz-adv-x="2453" 
d="M272 0v625h-260v186h260v623h1135c293.333 0 518.166 -62.333 674.499 -187s234.5 -302 234.5 -532c0 -229.333 -78.167 -405.833 -234.5 -529.5s-381.166 -185.5 -674.499 -185.5h-1135zM1436 297c324.667 0 487 139.333 487 418c0 281.333 -162.333 422 -487 422h-779
v-326h478v-186h-478v-328h779z" />
    <glyph glyph-name="dcroat" unicode="&#x111;" horiz-adv-x="2115" 
d="M868 -25c-240.667 0 -428.5 50.332 -563.5 150.999s-202.5 240.334 -202.5 419.001c0 176.667 68 315.667 204 417s323.333 152 562 152c147.333 0 279.5 -19.833 396.5 -59.5s211.5 -95.5 283.5 -167.5v352h-501v154h501v143h367v-143h194v-154h-194v-1239h-336l-20 211
c-70 -74.667 -165 -132.667 -285 -174s-255.333 -62 -406 -62zM995 243.999c176 0 312.167 26.167 408.5 78.5s144.5 125.833 144.5 220.5c0 95.333 -48 169.333 -144 222s-232.333 79 -409 79c-345.333 0 -518 -99.667 -518 -299c0 -200.667 172.667 -301 518 -301z" />
    <glyph glyph-name="Emacron" unicode="&#x112;" horiz-adv-x="2146" 
d="M616 1579v233h1016v-233h-1016zM240 0v1434h1767v-277h-1395v-289h1256v-272h-1256v-320h1409v-276h-1781z" />
    <glyph glyph-name="emacron" unicode="&#x113;" horiz-adv-x="1990" 
d="M487 1268v233h1016v-233h-1016zM1014 -25c-288.667 0 -512.832 51.499 -672.499 154.499s-239.5 247.5 -239.5 433.5c0 180 79.667 322.333 239 427s379.333 157 660 157c276 0 493.5 -50 652.5 -150s238.5 -237 238.5 -411c0 -45.333 -3.33301 -81.666 -10 -108.999
h-1411c43.333 -164 224.333 -246 543 -246c153.333 0 270.5 12 351.5 36s131.833 61.333 152.5 112l368 -66c-47.333 -118 -138.833 -203.833 -274.5 -257.5s-334.834 -80.5 -597.501 -80.5zM1004 902.999c-155.333 0 -275.667 -18.167 -361 -54.5
s-140.666 -92.5 -165.999 -168.5h1039c-23.333 76 -76.833 132.167 -160.5 168.5s-200.834 54.5 -351.501 54.5z" />
    <glyph glyph-name="Ebreve" unicode="&#x114;" horiz-adv-x="2146" 
d="M1337 1882h293c0 -226.667 -168 -340 -504 -340c-340 0 -510 113.333 -510 340h293c0 -99.333 72.333 -149 217 -149c140.667 0 211 49.667 211 149zM240 0v1434h1767v-277h-1395v-289h1256v-272h-1256v-320h1409v-276h-1781z" />
    <glyph glyph-name="ebreve" unicode="&#x115;" horiz-adv-x="1990" 
d="M1208 1571h293c0 -226.667 -168 -340 -504 -340c-340 0 -510 113.333 -510 340h293c0 -100 72.333 -150 217 -150c140.667 0 211 50 211 150zM1014 -25c-288.667 0 -512.832 51.499 -672.499 154.499s-239.5 247.5 -239.5 433.5c0 180 79.667 322.333 239 427
s379.333 157 660 157c276 0 493.5 -50 652.5 -150s238.5 -237 238.5 -411c0 -45.333 -3.33301 -81.666 -10 -108.999h-1411c43.333 -164 224.333 -246 543 -246c153.333 0 270.5 12 351.5 36s131.833 61.333 152.5 112l368 -66
c-47.333 -118 -138.833 -203.833 -274.5 -257.5s-334.834 -80.5 -597.501 -80.5zM1004 902.999c-155.333 0 -275.667 -18.167 -361 -54.5s-140.666 -92.5 -165.999 -168.5h1039c-23.333 76 -76.833 132.167 -160.5 168.5s-200.834 54.5 -351.501 54.5z" />
    <glyph glyph-name="Edotaccent" unicode="&#x116;" horiz-adv-x="2146" 
d="M930 1569v329h387v-329h-387zM240 0v1434h1767v-277h-1395v-289h1256v-272h-1256v-320h1409v-276h-1781z" />
    <glyph glyph-name="edotaccent" unicode="&#x117;" horiz-adv-x="1990" 
d="M801 1257v330h387v-330h-387zM1014 -25c-288.667 0 -512.832 51.499 -672.499 154.499s-239.5 247.5 -239.5 433.5c0 180 79.667 322.333 239 427s379.333 157 660 157c276 0 493.5 -50 652.5 -150s238.5 -237 238.5 -411c0 -45.333 -3.33301 -81.666 -10 -108.999h-1411
c43.333 -164 224.333 -246 543 -246c153.333 0 270.5 12 351.5 36s131.833 61.333 152.5 112l368 -66c-47.333 -118 -138.833 -203.833 -274.5 -257.5s-334.834 -80.5 -597.501 -80.5zM1004 902.999c-155.333 0 -275.667 -18.167 -361 -54.5s-140.666 -92.5 -165.999 -168.5
h1039c-23.333 76 -76.833 132.167 -160.5 168.5s-200.834 54.5 -351.501 54.5z" />
    <glyph glyph-name="Eogonek" unicode="&#x118;" horiz-adv-x="2146" 
d="M240 0v1434h1767v-277h-1395v-289h1256v-272h-1256v-320h1409v-276c-238.667 -25.333 -358 -69.666 -358 -132.999c0 -42.667 39.667 -64 119 -64c70 0 149.667 13.667 239 41l-6 -247c-96 -30.667 -192.333 -46 -289 -46c-244 0 -366 74.667 -366 224
c0 96.667 55.333 171.667 166 225h-1286z" />
    <glyph glyph-name="eogonek" unicode="&#x119;" horiz-adv-x="1990" 
d="M1876 -403c-96 -30.667 -194.332 -45.999 -294.999 -45.999c-115.333 0 -203.833 19 -265.5 57s-92.5 93.667 -92.5 167c0 86.667 51 161.667 153 225c-104 -16.667 -224.667 -25 -362 -25c-288.667 0 -512.834 51.5 -672.501 154.5s-239.5 247.5 -239.5 433.5
c0 180 79.667 322.333 239 427s379.333 157 660 157c276 0 493.5 -50 652.5 -150s238.5 -237 238.5 -411c0 -45.333 -3.33301 -81.666 -10 -108.999h-1411c43.333 -164 224.333 -246 543 -246c153.333 0 270.5 12 351.5 36s131.833 61.333 152.5 112l368 -66
c-24 -52.667 -53 -101.167 -87 -145.5s-66.333 -80 -97 -107l-87.5 -74.5c-27.667 -22.667 -49.667 -43.834 -66 -63.501s-24.5 -38.834 -24.5 -57.501c0 -41.333 40.333 -62 121 -62c70 0 149.667 13.667 239 41zM1004 903.001c-155.333 0 -275.668 -18.167 -361.001 -54.5
s-140.666 -92.5 -165.999 -168.5h1041c-23.333 76 -76.833 132.167 -160.5 168.5s-201.5 54.5 -353.5 54.5z" />
    <glyph glyph-name="Ecaron" unicode="&#x11a;" horiz-adv-x="2146" 
d="M1704 1886l-365 -330h-442l-352 330h291l294 -166l287 166h287zM240 0v1434h1767v-277h-1395v-289h1256v-272h-1256v-320h1409v-276h-1781z" />
    <glyph glyph-name="ecaron" unicode="&#x11b;" horiz-adv-x="1990" 
d="M1575 1575l-365 -330h-442l-352 330h291l294 -166l287 166h287zM1014 -25c-288.667 0 -512.832 51.499 -672.499 154.499s-239.5 247.5 -239.5 433.5c0 180 79.667 322.333 239 427s379.333 157 660 157c276 0 493.5 -50 652.5 -150s238.5 -237 238.5 -411
c0 -45.333 -3.33301 -81.666 -10 -108.999h-1411c43.333 -164 224.333 -246 543 -246c153.333 0 270.5 12 351.5 36s131.833 61.333 152.5 112l368 -66c-47.333 -118 -138.833 -203.833 -274.5 -257.5s-334.834 -80.5 -597.501 -80.5zM1004 902.999
c-155.333 0 -275.667 -18.167 -361 -54.5s-140.666 -92.5 -165.999 -168.5h1039c-23.333 76 -76.833 132.167 -160.5 168.5s-200.834 54.5 -351.501 54.5z" />
    <glyph glyph-name="Gcircumflex" unicode="&#x11c;" horiz-adv-x="2473" 
d="M1499 1556l-295 168l-286 -168h-287l364 330h441l354 -330h-291zM113 715c0 236 97.833 418.833 293.5 548.5s473.167 194.5 832.5 194.5c290 0 521.667 -38.333 695 -115s285.666 -189 337 -337l-401 -82c-33.333 80 -101.333 139.5 -204 178.5s-245.667 58.5 -429 58.5
c-488.667 0 -733 -148.667 -733 -446c0 -296.667 243.667 -445 731 -445c374.667 0 596.667 84 666 252h-709v260h1110v-782h-297l-35 258c-146 -188.667 -409.333 -283 -790 -283c-339.333 0 -602 64.667 -788 194s-279 311.333 -279 546z" />
    <glyph glyph-name="gcircumflex" unicode="&#x11d;" horiz-adv-x="1953" 
d="M1227 1245l-295 168l-287 -168h-287l365 330h440l355 -330h-291zM932 1147c280 0 486.665 -37.667 619.998 -113c38 58 89 99.667 153 125s135.333 32.333 214 21l-16 -283c-68 14.667 -139.667 14.667 -215 0c14.667 -34.667 22 -71 22 -109
c0 -114.667 -66.667 -202.667 -200 -264s-326 -92 -578 -92c-123.333 0 -236 8.33301 -338 25c-76.667 -12 -115 -40.667 -115 -86c0 -59.333 62.333 -90 187 -92l686 -11c354.667 -4 532 -105 532 -303c0 -136 -78.167 -236.5 -234.5 -301.5s-398.166 -97.5 -725.499 -97.5
c-299.333 0 -519.666 23.167 -660.999 69.5s-212 118.833 -212 217.5c0 118 94.333 191.667 283 221c-66 17.333 -117 44.833 -153 82.5s-54 82.5 -54 134.5c0 117.333 81.333 192.333 244 225c-144.667 62 -217 152.667 -217 272c0 116 66.5 204.833 199.5 266.5
s325.833 92.5 578.5 92.5zM1339 788c0 98.667 -135.667 148 -407 148c-272 0 -408 -49.333 -408 -148c0 -96.667 136 -145 408 -145c271.333 0 407 48.333 407 145zM433.998 -88c0 -46.667 38.502 -80.166 115.502 -100.499s203.833 -30.5 380.5 -30.5
c145.333 0 261.666 5.83301 348.999 17.5s148.666 28.167 183.999 49.5s53 48.666 53 81.999c0 60 -58.333 91 -175 93l-727 2c-120 -4 -180 -41.667 -180 -113z" />
    <glyph glyph-name="Gbreve" unicode="&#x11e;" horiz-adv-x="2473" 
d="M1423 1882h293c0 -226.667 -168 -340 -504 -340c-340 0 -510 113.333 -510 340h293c0 -99.333 72.333 -149 217 -149c140.667 0 211 49.667 211 149zM113 715c0 236 97.833 418.833 293.5 548.5s473.167 194.5 832.5 194.5c290 0 521.667 -38.333 695 -115
s285.666 -189 337 -337l-401 -82c-33.333 80 -101.333 139.5 -204 178.5s-245.667 58.5 -429 58.5c-488.667 0 -733 -148.667 -733 -446c0 -296.667 243.667 -445 731 -445c374.667 0 596.667 84 666 252h-709v260h1110v-782h-297l-35 258
c-146 -188.667 -409.333 -283 -790 -283c-339.333 0 -602 64.667 -788 194s-279 311.333 -279 546z" />
    <glyph glyph-name="gbreve" unicode="&#x11f;" horiz-adv-x="1953" 
d="M1151 1571h293c0 -226.667 -168 -340 -504 -340c-340 0 -510 113.333 -510 340h293c0 -100 72.333 -150 217 -150c140.667 0 211 50 211 150zM932 1147c280 0 486.665 -37.667 619.998 -113c38 58 89 99.667 153 125s135.333 32.333 214 21l-16 -283
c-68 14.667 -139.667 14.667 -215 0c14.667 -34.667 22 -71 22 -109c0 -114.667 -66.667 -202.667 -200 -264s-326 -92 -578 -92c-123.333 0 -236 8.33301 -338 25c-76.667 -12 -115 -40.667 -115 -86c0 -59.333 62.333 -90 187 -92l686 -11c354.667 -4 532 -105 532 -303
c0 -136 -78.167 -236.5 -234.5 -301.5s-398.166 -97.5 -725.499 -97.5c-299.333 0 -519.666 23.167 -660.999 69.5s-212 118.833 -212 217.5c0 118 94.333 191.667 283 221c-66 17.333 -117 44.833 -153 82.5s-54 82.5 -54 134.5c0 117.333 81.333 192.333 244 225
c-144.667 62 -217 152.667 -217 272c0 116 66.5 204.833 199.5 266.5s325.833 92.5 578.5 92.5zM1339 788c0 98.667 -135.667 148 -407 148c-272 0 -408 -49.333 -408 -148c0 -96.667 136 -145 408 -145c271.333 0 407 48.333 407 145zM433.998 -88
c0 -46.667 38.502 -80.166 115.502 -100.499s203.833 -30.5 380.5 -30.5c145.333 0 261.666 5.83301 348.999 17.5s148.666 28.167 183.999 49.5s53 48.666 53 81.999c0 60 -58.333 91 -175 93l-727 2c-120 -4 -180 -41.667 -180 -113z" />
    <glyph glyph-name="Gdotaccent" unicode="&#x120;" horiz-adv-x="2473" 
d="M1016 1569v329h387v-329h-387zM113 715c0 236 97.833 418.833 293.5 548.5s473.167 194.5 832.5 194.5c290 0 521.667 -38.333 695 -115s285.666 -189 337 -337l-401 -82c-33.333 80 -101.333 139.5 -204 178.5s-245.667 58.5 -429 58.5
c-488.667 0 -733 -148.667 -733 -446c0 -296.667 243.667 -445 731 -445c374.667 0 596.667 84 666 252h-709v260h1110v-782h-297l-35 258c-146 -188.667 -409.333 -283 -790 -283c-339.333 0 -602 64.667 -788 194s-279 311.333 -279 546z" />
    <glyph glyph-name="gdotaccent" unicode="&#x121;" horiz-adv-x="1953" 
d="M741 1257v330h387v-330h-387zM932 1147c280 0 486.665 -37.667 619.998 -113c38 58 89 99.667 153 125s135.333 32.333 214 21l-16 -283c-68 14.667 -139.667 14.667 -215 0c14.667 -34.667 22 -71 22 -109c0 -114.667 -66.667 -202.667 -200 -264s-326 -92 -578 -92
c-123.333 0 -236 8.33301 -338 25c-76.667 -12 -115 -40.667 -115 -86c0 -59.333 62.333 -90 187 -92l686 -11c354.667 -4 532 -105 532 -303c0 -136 -78.167 -236.5 -234.5 -301.5s-398.166 -97.5 -725.499 -97.5c-299.333 0 -519.666 23.167 -660.999 69.5
s-212 118.833 -212 217.5c0 118 94.333 191.667 283 221c-66 17.333 -117 44.833 -153 82.5s-54 82.5 -54 134.5c0 117.333 81.333 192.333 244 225c-144.667 62 -217 152.667 -217 272c0 116 66.5 204.833 199.5 266.5s325.833 92.5 578.5 92.5zM1339 788
c0 98.667 -135.667 148 -407 148c-272 0 -408 -49.333 -408 -148c0 -96.667 136 -145 408 -145c271.333 0 407 48.333 407 145zM433.998 -88c0 -46.667 38.502 -80.166 115.502 -100.499s203.833 -30.5 380.5 -30.5c145.333 0 261.666 5.83301 348.999 17.5
s148.666 28.167 183.999 49.5s53 48.666 53 81.999c0 60 -58.333 91 -175 93l-727 2c-120 -4 -180 -41.667 -180 -113z" />
    <glyph glyph-name="Gcommaaccent" unicode="&#x122;" horiz-adv-x="2473" 
d="M113 715c0 236 97.833 418.833 293.5 548.5s473.167 194.5 832.5 194.5c290 0 521.667 -38.333 695 -115s285.666 -189 337 -337l-401 -82c-33.333 80 -101.333 139.5 -204 178.5s-245.667 58.5 -429 58.5c-488.667 0 -733 -148.667 -733 -446
c0 -296.667 243.667 -445 731 -445c374.667 0 596.667 84 666 252h-709v260h1110v-782h-297l-35 258c-146 -188.667 -409.333 -283 -790 -283c-339.333 0 -602 64.667 -788 194s-279 311.333 -279 546zM797 -418l186 297h424l-320 -297h-290z" />
    <glyph glyph-name="gcommaaccent" unicode="&#x123;" horiz-adv-x="1953" 
d="M1391 1554l-250 -309h-432l391 309h291zM932 1147c280 0 486.665 -37.667 619.998 -113c38 58 89 99.667 153 125s135.333 32.333 214 21l-16 -283c-68 14.667 -139.667 14.667 -215 0c14.667 -34.667 22 -71 22 -109c0 -114.667 -66.667 -202.667 -200 -264
s-326 -92 -578 -92c-123.333 0 -236 8.33301 -338 25c-76.667 -12 -115 -40.667 -115 -86c0 -59.333 62.333 -90 187 -92l686 -11c354.667 -4 532 -105 532 -303c0 -136 -78.167 -236.5 -234.5 -301.5s-398.166 -97.5 -725.499 -97.5
c-299.333 0 -519.666 23.167 -660.999 69.5s-212 118.833 -212 217.5c0 118 94.333 191.667 283 221c-66 17.333 -117 44.833 -153 82.5s-54 82.5 -54 134.5c0 117.333 81.333 192.333 244 225c-144.667 62 -217 152.667 -217 272c0 116 66.5 204.833 199.5 266.5
s325.833 92.5 578.5 92.5zM1339 788c0 98.667 -135.667 148 -407 148c-272 0 -408 -49.333 -408 -148c0 -96.667 136 -145 408 -145c271.333 0 407 48.333 407 145zM433.998 -88c0 -46.667 38.502 -80.166 115.502 -100.499s203.833 -30.5 380.5 -30.5
c145.333 0 261.666 5.83301 348.999 17.5s148.666 28.167 183.999 49.5s53 48.666 53 81.999c0 60 -58.333 91 -175 93l-727 2c-120 -4 -180 -41.667 -180 -113z" />
    <glyph glyph-name="Hcircumflex" unicode="&#x124;" horiz-adv-x="2519" 
d="M1552 1556l-295 168l-286 -168h-287l365 330h440l354 -330h-291zM240 0v1434h385v-551h1271v551h383v-1434h-383v588h-1271v-588h-385z" />
    <glyph glyph-name="hcircumflex" unicode="&#x125;" horiz-adv-x="2048" 
d="M1071 1659l-295 168l-287 -168h-286l364 330h441l354 -330h-291zM203 0l-0.00195312 1536h364v-664c72.667 86 166.834 153.333 282.501 202s242.834 73 381.501 73c205.333 0 361.833 -46.167 469.5 -138.5s161.5 -225.833 161.5 -400.5v-608h-365v537
c0 105.333 -32.333 185.833 -97 241.5s-159.334 83.5 -284.001 83.5c-167.333 0 -300.666 -38.167 -399.999 -114.5s-149 -179.5 -149 -309.5v-438h-364z" />
    <glyph glyph-name="Hbar" unicode="&#x126;" horiz-adv-x="2519" 
d="M240 0v1077h-224v156h224v201h385v-201h1271v201h383v-201h226v-156h-226v-1077h-383v588h-1271v-588h-385zM625 883h1271v194h-1271v-194z" />
    <glyph glyph-name="hbar" unicode="&#x127;" horiz-adv-x="2048" 
d="M203 0l-0.000976562 1239h-197v154h197v143h364v-143h500v-154h-500v-399c72 86 165.833 153.167 281.5 201.5s243.167 72.5 382.5 72.5c205.333 0 361.833 -46.5 469.5 -139.5s161.5 -226.833 161.5 -401.5v-573h-365v502c0 105.333 -32.5 186.166 -97.5 242.499
s-159.5 84.5 -283.5 84.5c-167.333 0 -300.666 -38.333 -399.999 -115s-149 -180.334 -149 -311.001v-403h-364z" />
    <glyph glyph-name="Itilde" unicode="&#x128;" horiz-adv-x="864" 
d="M926 1892c11.333 -120 -6.50098 -209 -53.501 -267s-115.833 -87 -206.5 -87c-43.333 0 -87.833 7.66699 -133.5 23s-83.834 32.333 -114.501 51s-63 35.667 -97 51s-62.333 23 -85 23c-25.333 0 -44.166 -10.5 -56.499 -31.5s-16.166 -52.167 -11.499 -93.5h-234
c-9.33301 121.333 9.83398 211.333 57.501 270s118.167 88 211.5 88c38.667 0 80.167 -7.83301 124.5 -23.5s82.5 -33.167 114.5 -52.5s65.167 -36.833 99.5 -52.5s62.166 -23.5 83.499 -23.5c25.333 0 44 10.333 56 31s15.667 52 11 94h234zM239.999 0v1434h385v-1434h-385
z" />
    <glyph glyph-name="itilde" unicode="&#x129;" 
d="M879 1581c11.333 -120 -6.66504 -208.998 -53.998 -266.998s-116.333 -87 -207 -87c-43.333 0 -87.833 7.66699 -133.5 23s-83.834 32.166 -114.501 50.499s-63 35.166 -97 50.499s-62.333 23 -85 23c-25.333 0 -44 -10.333 -56 -31s-15.667 -52 -11 -94h-234
c-9.33301 121.333 10 211.5 58 270.5s118.333 88.5 211 88.5c38.667 0 80.167 -8 124.5 -24s82.5 -33.333 114.5 -52s65.167 -36 99.5 -52s62.166 -24 83.499 -24c25.333 0 44 10.333 56 31s15.667 52 11 94h234zM203.002 0.00195312v1122h364v-1122h-364z" />
    <glyph glyph-name="Imacron" unicode="&#x12a;" horiz-adv-x="864" 
d="M-76 1579v233h1016v-233h-1016zM240 0v1434h385v-1434h-385z" />
    <glyph glyph-name="imacron" unicode="&#x12b;" 
d="M-123 1268v233h1016v-233h-1016zM203 0v1122h364v-1122h-364z" />
    <glyph glyph-name="Ibreve" unicode="&#x12c;" horiz-adv-x="864" 
d="M645 1882h293c0 -226.667 -168 -340 -504 -340c-340 0 -510 113.333 -510 340h293c0 -99.333 72.333 -149 217 -149c140.667 0 211 49.667 211 149zM240 0v1434h385v-1434h-385z" />
    <glyph glyph-name="ibreve" unicode="&#x12d;" 
d="M598 1571h293c0 -226.667 -168 -340 -504 -340c-340 0 -510 113.333 -510 340h293c0 -100 72.333 -150 217 -150c140.667 0 211 50 211 150zM203 0v1122h364v-1122h-364z" />
    <glyph glyph-name="Iogonek" unicode="&#x12e;" horiz-adv-x="864" 
d="M33 -215c0 116 69 200.666 207 253.999v1395h385v-1434c-106.667 -12.667 -181.5 -29.667 -224.5 -51s-64.5 -47.333 -64.5 -78c0 -45.333 45.667 -68 137 -68c74.667 0 152.667 13.667 234 41l-9 -247c-90.667 -30.667 -191.667 -46 -303 -46
c-117.333 0 -207 19.833 -269 59.5s-93 97.834 -93 174.501z" />
    <glyph glyph-name="iogonek" unicode="&#x12f;" 
d="M201 1257v283h370v-283h-370zM-23 -219c0 116.667 75.333 202.668 226 258.001v1083h364v-1122c-102.667 -12.667 -176.334 -31.334 -221.001 -56.001s-67 -51.667 -67 -81c0 -40 42.333 -60 127 -60c72 0 153.667 13.667 245 41l-8 -247
c-93.333 -30.667 -196.333 -46 -309 -46c-115.333 0 -203.666 19.5 -264.999 58.5s-92 96.167 -92 171.5z" />
    <glyph glyph-name="Idotaccent" unicode="&#x130;" horiz-adv-x="864" 
d="M238 1569v329h387v-329h-387zM240 0v1434h385v-1434h-385z" />
    <glyph glyph-name="dotlessi" unicode="&#x131;" 
d="M203 0v1122h364v-1122h-364z" />
    <glyph glyph-name="IJ" unicode="&#x132;" horiz-adv-x="2295" 
d="M240 0v1434h385v-1434h-385zM2083 612c0 -150 -24.6689 -271 -74.002 -363s-129 -160.667 -239 -206s-255.667 -68 -437 -68c-131.333 0 -257.666 10.333 -378.999 31l-12 297c126.667 -18 243.334 -27 350.001 -27c150 0 255.167 25 315.5 75s90.5 133.667 90.5 251v832
h385v-822z" />
    <glyph glyph-name="ij" unicode="&#x133;" horiz-adv-x="1540" 
d="M201 1257v283h370v-283h-370zM969 1257v283h370v-283h-370zM203 0v1122h364v-1122h-364zM973 49l-0.000976562 1073h364v-1050c0 -180.667 -40.667 -310.167 -122 -388.5s-212 -117.5 -392 -117.5c-85.333 0 -163.666 5.33301 -234.999 16l-13 268
c60.667 -8 114.667 -12 162 -12c85.333 0 146 15.833 182 47.5s54 86.167 54 163.5z" />
    <glyph glyph-name="Jcircumflex" unicode="&#x134;" horiz-adv-x="1431" 
d="M1315 1556l-295 168l-287 -168h-287l365 330h440l355 -330h-291zM1219 612c0 -150 -24.6689 -271 -74.002 -363s-129 -160.667 -239 -206s-255.667 -68 -437 -68c-131.333 0 -257.666 10.333 -378.999 31l-12 297c126.667 -18 243.334 -27 350.001 -27
c150 0 255.167 25 315.5 75s90.5 133.667 90.5 251v832h385v-822z" />
    <glyph glyph-name="jcircumflex" unicode="&#x135;" 
d="M674 1245l-295 168l-287 -168h-287l365 330h440l355 -330h-291zM203 49l-0.000976562 1073h364v-1050c0 -180.667 -40.667 -310.167 -122 -388.5s-212 -117.5 -392 -117.5c-85.333 0 -163.666 5.33301 -234.999 16l-13 268c60.667 -8 114.667 -12 162 -12
c85.333 0 146 15.833 182 47.5s54 86.167 54 163.5z" />
    <glyph glyph-name="Kcommaaccent" unicode="&#x136;" horiz-adv-x="2273" 
d="M240 0v1434h381v-654l1030 654h567l-1055 -664l1127 -770h-615l-833 567l-221 -139v-428h-381zM748 -418l186 297h424l-320 -297h-290z" />
    <glyph glyph-name="kcommaaccent" unicode="&#x137;" horiz-adv-x="1867" 
d="M203 0v1536h364v-868l733 454h523l-809 -489l850 -633h-535l-602 453l-160 -101v-352h-364zM578 -418l186 297h424l-320 -297h-290z" />
    <glyph glyph-name="kgreenlandic" unicode="&#x138;" horiz-adv-x="1867" 
d="M203 0v1122h364v-454l733 454h523l-809 -489l850 -633h-531l-606 453l-160 -101v-352h-364z" />
    <glyph glyph-name="Lacute" unicode="&#x139;" horiz-adv-x="1890" 
d="M268 1556l371 330h483l-524 -330h-330zM240 0v1434h385v-1137h1179v-297h-1564z" />
    <glyph glyph-name="lacute" unicode="&#x13a;" 
d="M221 1659l371 330h483l-524 -330h-330zM567 0h-364v1536h364v-1536z" />
    <glyph glyph-name="Lcommaaccent" unicode="&#x13b;" horiz-adv-x="1890" 
d="M240 0v1434h385v-1137h1179v-297h-1564zM623 -418l186 297h424l-320 -297h-290z" />
    <glyph glyph-name="lcommaaccent" unicode="&#x13c;" 
d="M567 0h-364v1536h364v-1536zM-16 -418l186 297h424l-320 -297h-290z" />
    <glyph glyph-name="Lcaron" unicode="&#x13d;" horiz-adv-x="1890" 
d="M240 0v1434h385v-1137h1179v-297h-1564zM967 983v451h338l-105 -451h-233z" />
    <glyph glyph-name="lcaron" unicode="&#x13e;" horiz-adv-x="999" 
d="M567 0h-364v1536h364v-1536zM768 1085v451h338l-105 -451h-233z" />
    <glyph glyph-name="Ldot" unicode="&#x13f;" horiz-adv-x="1890" 
d="M240 0v1434h385v-1137h1179v-297h-1564zM1176 647v336h399v-336h-399z" />
    <glyph glyph-name="ldot" unicode="&#x140;" horiz-adv-x="1167" 
d="M567 0h-364v1536h364v-1536zM768 608v336h399v-336h-399z" />
    <glyph glyph-name="Lslash" unicode="&#x141;" horiz-adv-x="1925" 
d="M274 0v598l-262 -78v189l262 77v648h383v-535l449 131v-188l-449 -131v-416h1180v-295h-1563z" />
    <glyph glyph-name="lslash" unicode="&#x142;" horiz-adv-x="899" 
d="M16 532v185l250 71v748h367v-641l250 72v-187l-250 -71v-709h-367v604z" />
    <glyph glyph-name="Nacute" unicode="&#x143;" horiz-adv-x="2465" 
d="M1073 1556l371 330h483l-524 -330h-330zM240 0v1434h372l1252 -1045v1045h360v-1434h-371l-1253 1042v-1042h-360z" />
    <glyph glyph-name="nacute" unicode="&#x144;" horiz-adv-x="2048" 
d="M860 1245l371 330h483l-524 -330h-330zM203 0v1122h329l25 -260c72.667 89.333 167.667 159.166 285 209.499s247 75.5 389 75.5c205.333 0 361.833 -46.167 469.5 -138.5s161.5 -225.833 161.5 -400.5v-608h-365v537c0 105.333 -32.333 185.833 -97 241.5
s-159.334 83.5 -284.001 83.5c-167.333 0 -300.666 -38.167 -399.999 -114.5s-149 -179.5 -149 -309.5v-438h-364z" />
    <glyph glyph-name="Ncommaaccent" unicode="&#x145;" horiz-adv-x="2465" 
d="M240 0v1434h372l1252 -1045v1045h360v-1434h-371l-1253 1042v-1042h-360zM840 -418l186 297h424l-320 -297h-290z" />
    <glyph glyph-name="ncommaaccent" unicode="&#x146;" horiz-adv-x="2048" 
d="M203 0v1122h329l25 -260c72.667 89.333 167.667 159.166 285 209.499s247 75.5 389 75.5c205.333 0 361.833 -46.167 469.5 -138.5s161.5 -225.833 161.5 -400.5v-608h-365v537c0 105.333 -32.333 185.833 -97 241.5s-159.334 83.5 -284.001 83.5
c-167.333 0 -300.666 -38.167 -399.999 -114.5s-149 -179.5 -149 -309.5v-438h-364zM653 -417.999l187 297h424l-320 -297h-291z" />
    <glyph glyph-name="Ncaron" unicode="&#x147;" horiz-adv-x="2465" 
d="M1817 1886l-365 -330h-442l-353 330h291l295 -166l287 166h287zM240 0v1434h372l1252 -1045v1045h360v-1434h-371l-1253 1042v-1042h-360z" />
    <glyph glyph-name="ncaron" unicode="&#x148;" horiz-adv-x="2048" 
d="M1604 1575l-365 -330h-442l-353 330h291l295 -166l287 166h287zM203 0v1122h329l25 -260c72.667 89.333 167.667 159.166 285 209.499s247 75.5 389 75.5c205.333 0 361.833 -46.167 469.5 -138.5s161.5 -225.833 161.5 -400.5v-608h-365v537
c0 105.333 -32.333 185.833 -97 241.5s-159.334 83.5 -284.001 83.5c-167.333 0 -300.666 -38.167 -399.999 -114.5s-149 -179.5 -149 -309.5v-438h-364z" />
    <glyph glyph-name="napostrophe" unicode="&#x149;" horiz-adv-x="2048" 
d="M203 1243l186 297h424l-319 -297h-291zM203 0v1122h329l25 -260c72.667 89.333 167.667 159.166 285 209.499s247 75.5 389 75.5c205.333 0 361.833 -46.167 469.5 -138.5s161.5 -225.833 161.5 -400.5v-608h-365v537c0 105.333 -32.333 185.833 -97 241.5
s-159.334 83.5 -284.001 83.5c-167.333 0 -300.666 -38.167 -399.999 -114.5s-149 -179.5 -149 -309.5v-438h-364z" />
    <glyph glyph-name="Eng" unicode="&#x14a;" horiz-adv-x="2465" 
d="M240 0l-0.000976562 1434h372l1252 -1037v1037h360v-1248c0 -112.667 -13 -207.5 -39 -284.5s-68.5 -140.833 -127.5 -191.5s-134.833 -87.334 -227.5 -110.001s-207 -34 -343 -34c-129.333 0 -251 10.333 -365 31l-12 282c127.333 -16 241.333 -24 342 -24
c112 0 198.833 13.167 260.5 39.5s103.834 68.166 126.501 125.499l-1239 1027v-1047h-360z" />
    <glyph glyph-name="eng" unicode="&#x14b;" horiz-adv-x="2048" 
d="M203 0v1122h329l25 -260c72.667 89.333 167.667 159.166 285 209.499s247 75.5 389 75.5c205.333 0 361.833 -46.167 469.5 -138.5s161.5 -225.833 161.5 -400.5v-536c0 -180.667 -40.667 -310.167 -122 -388.5s-212 -117.5 -392 -117.5c-86 0 -164.667 5.33301 -236 16
l-12 268c61.333 -8 115.333 -12 162 -12c85.333 0 145.833 15.833 181.5 47.5s53.5 86.167 53.5 163.5v488c0 105.333 -32.333 185.833 -97 241.5s-159.334 83.5 -284.001 83.5c-167.333 0 -300.666 -38.167 -399.999 -114.5s-149 -179.5 -149 -309.5v-438h-364z" />
    <glyph glyph-name="Omacron" unicode="&#x14c;" horiz-adv-x="2461" 
d="M723 1579v233h1016v-233h-1016zM1231 -25c-356.667 0 -632.167 64.833 -826.5 194.5s-291.5 311.5 -291.5 545.5c0 235.333 97 418 291 548s469.667 195 827 195c356.667 0 632.167 -65 826.5 -195s291.5 -312.667 291.5 -548c0 -234 -97.167 -415.833 -291.5 -545.5
s-469.833 -194.5 -826.5 -194.5zM1231 272c483.333 0 725 147.667 725 443c0 297.333 -241.667 446 -725 446c-484.667 0 -727 -148.667 -727 -446c0 -295.333 242.333 -443 727 -443z" />
    <glyph glyph-name="omacron" unicode="&#x14d;" horiz-adv-x="2025" 
d="M504 1268v233h1016v-233h-1016zM1012 -25c-289.333 0 -513.333 51.167 -672 153.5s-238 246.5 -238 432.5s79.333 330.167 238 432.5s382.667 153.5 672 153.5c291.333 0 516 -51.167 674 -153.5s237 -246.5 237 -432.5c0 -187.333 -78.5 -331.833 -235.5 -433.5
s-382.167 -152.5 -675.5 -152.5zM1012 244c182.667 0 317.667 26 405 78s131 131.667 131 239s-43.833 187.5 -131.5 240.5s-222.5 79.5 -404.5 79.5c-181.333 0 -315.833 -26.5 -403.5 -79.5s-131.5 -133.167 -131.5 -240.5c0 -106.667 43.667 -186.167 131 -238.5
s222 -78.5 404 -78.5z" />
    <glyph glyph-name="Obreve" unicode="&#x14e;" horiz-adv-x="2461" 
d="M1444 1882h293c0 -226.667 -168 -340 -504 -340c-340 0 -510 113.333 -510 340h293c0 -99.333 72.333 -149 217 -149c140.667 0 211 49.667 211 149zM1231 -25c-356.667 0 -632.167 64.833 -826.5 194.5s-291.5 311.5 -291.5 545.5c0 235.333 97 418 291 548
s469.667 195 827 195c356.667 0 632.167 -65 826.5 -195s291.5 -312.667 291.5 -548c0 -234 -97.167 -415.833 -291.5 -545.5s-469.833 -194.5 -826.5 -194.5zM1231 272c483.333 0 725 147.667 725 443c0 297.333 -241.667 446 -725 446c-484.667 0 -727 -148.667 -727 -446
c0 -295.333 242.333 -443 727 -443z" />
    <glyph glyph-name="obreve" unicode="&#x14f;" horiz-adv-x="2025" 
d="M1225 1571h293c0 -226.667 -168 -340 -504 -340c-340 0 -510 113.333 -510 340h293c0 -100 72.333 -150 217 -150c140.667 0 211 50 211 150zM1012 -25c-289.333 0 -513.333 51.167 -672 153.5s-238 246.5 -238 432.5s79.333 330.167 238 432.5s382.667 153.5 672 153.5
c291.333 0 516 -51.167 674 -153.5s237 -246.5 237 -432.5c0 -187.333 -78.5 -331.833 -235.5 -433.5s-382.167 -152.5 -675.5 -152.5zM1012 244c182.667 0 317.667 26 405 78s131 131.667 131 239s-43.833 187.5 -131.5 240.5s-222.5 79.5 -404.5 79.5
c-181.333 0 -315.833 -26.5 -403.5 -79.5s-131.5 -133.167 -131.5 -240.5c0 -106.667 43.667 -186.167 131 -238.5s222 -78.5 404 -78.5z" />
    <glyph glyph-name="Ohungarumlaut" unicode="&#x150;" horiz-adv-x="2461" 
d="M805 1556l248 330h413l-366 -330h-295zM1339 1556l250 330h414l-367 -330h-297zM1231 -25c-356.667 0 -632.167 64.833 -826.5 194.5s-291.5 311.5 -291.5 545.5c0 235.333 97 418 291 548s469.667 195 827 195c356.667 0 632.167 -65 826.5 -195
s291.5 -312.667 291.5 -548c0 -234 -97.167 -415.833 -291.5 -545.5s-469.833 -194.5 -826.5 -194.5zM1231 272c483.333 0 725 147.667 725 443c0 297.333 -241.667 446 -725 446c-484.667 0 -727 -148.667 -727 -446c0 -295.333 242.333 -443 727 -443z" />
    <glyph glyph-name="ohungarumlaut" unicode="&#x151;" horiz-adv-x="2025" 
d="M584 1245l247 330h414l-366 -330h-295zM1118 1245l250 330h414l-367 -330h-297zM1012 -25c-289.333 0 -513.333 51.167 -672 153.5s-238 246.5 -238 432.5s79.333 330.167 238 432.5s382.667 153.5 672 153.5c291.333 0 516 -51.167 674 -153.5s237 -246.5 237 -432.5
c0 -187.333 -78.5 -331.833 -235.5 -433.5s-382.167 -152.5 -675.5 -152.5zM1012 244c182.667 0 317.667 26 405 78s131 131.667 131 239s-43.833 187.5 -131.5 240.5s-222.5 79.5 -404.5 79.5c-181.333 0 -315.833 -26.5 -403.5 -79.5s-131.5 -133.167 -131.5 -240.5
c0 -106.667 43.667 -186.167 131 -238.5s222 -78.5 404 -78.5z" />
    <glyph glyph-name="OE" unicode="&#x152;" horiz-adv-x="3604" 
d="M113 715c0 228 98.332 404.833 294.999 530.5s476.334 188.5 839.001 188.5h2218v-277h-1306v-289h1167v-272h-1167v-320h1321v-276h-2233c-362 -0 -641.5 62.333 -838.5 187s-295.5 300.667 -295.5 528zM1247 274h539v883h-539c-495.333 0 -743 -147.333 -743 -442
c0 -294 247.667 -441 743 -441z" />
    <glyph glyph-name="oe" unicode="&#x153;" horiz-adv-x="3418" 
d="M1004 -25c-286 0 -507.832 51.333 -665.499 154s-236.5 246.667 -236.5 432s78.833 329.333 236.5 432s379.5 154 665.5 154c326 0 569.667 -69.667 731 -209c159.333 139.333 395.333 209 707.999 209c272 0 486.167 -49.833 642.5 -149.5
s234.5 -236.834 234.5 -411.501c0 -45.333 -3.33301 -81.666 -10 -108.999h-1387c40.667 -164 219 -246 535 -246c147.333 0 260.166 12 338.5 36c78.333 24 128.5 61.333 150.5 112l369 -66c-48 -118.667 -139.167 -204.667 -273.5 -258s-329.166 -80 -584.5 -80
c-324 0 -565.667 69.667 -725 209c-158 -139.333 -401 -209 -729 -209zM2443 903c-150 0 -266.5 -17.668 -349.5 -53.001s-137.167 -90.666 -162.5 -165.999h1012c-26.667 78 -82.167 134 -166.5 168s-195.5 51 -333.5 51zM1004 241.999
c179.333 0 312.168 26.333 398.501 79s129.5 132.667 129.5 240s-43.333 187.5 -130 240.5s-219.334 79.5 -398.001 79.5c-178 0 -310.333 -26.5 -397 -79.5s-130 -133.167 -130 -240.5c0 -106.667 43.333 -186.5 130 -239.5s219 -79.5 397 -79.5z" />
    <glyph glyph-name="Racute" unicode="&#x154;" horiz-adv-x="2252" 
d="M963 1556l370 330h484l-525 -330h-329zM240 0l0.000976562 1434h1278c187.333 0 330.666 -41.333 429.999 -124s149 -197 149 -343c0 -131.333 -44.333 -238.5 -133 -321.5s-213.667 -130.167 -375 -141.5l561 -504h-503l-517 475h-505v-475h-385zM1450 1151h-825v-393
h825c172 0 258 65.333 258 196c0 131.333 -86 197 -258 197z" />
    <glyph glyph-name="racute" unicode="&#x155;" horiz-adv-x="1382" 
d="M537 1245l370 330h484l-525 -330h-329zM203 0l0.000976562 1122h334l24 -297c72.667 100 169.667 178.667 291 236s255 86 401 86c37.333 0 66 -2 86 -6l-12 -342c-48.667 13.333 -110 20 -184 20c-172.667 0 -311.334 -36.833 -416.001 -110.5
s-158 -178.834 -160 -315.501v-393h-364z" />
    <glyph glyph-name="Rcommaaccent" unicode="&#x156;" horiz-adv-x="2252" 
d="M240 0l0.000976562 1434h1278c187.333 0 330.666 -41.333 429.999 -124s149 -197 149 -343c0 -131.333 -44.333 -238.5 -133 -321.5s-213.667 -130.167 -375 -141.5l561 -504h-503l-517 475h-505v-475h-385zM1450 1151h-825v-393h825c172 0 258 65.333 258 196
c0 131.333 -86 197 -258 197zM727.001 -418l186 297h424l-319 -297h-291z" />
    <glyph glyph-name="rcommaaccent" unicode="&#x157;" horiz-adv-x="1382" 
d="M203 0l0.000976562 1122h334l24 -297c72.667 100 169.667 178.667 291 236s255 86 401 86c37.333 0 66 -2 86 -6l-12 -342c-48.667 13.333 -110 20 -184 20c-172.667 0 -311.334 -36.833 -416.001 -110.5s-158 -178.834 -160 -315.501v-393h-364zM-15.999 -417.999
l186 297h424l-320 -297h-290z" />
    <glyph glyph-name="Rcaron" unicode="&#x158;" horiz-adv-x="2252" 
d="M1706 1886l-365 -330h-442l-352 330h291l295 -166l286 166h287zM240 0l0.000976562 1434h1278c187.333 0 330.666 -41.333 429.999 -124s149 -197 149 -343c0 -131.333 -44.333 -238.5 -133 -321.5s-213.667 -130.167 -375 -141.5l561 -504h-503l-517 475h-505v-475h-385
zM1450 1151h-825v-393h825c172 0 258 65.333 258 196c0 131.333 -86 197 -258 197z" />
    <glyph glyph-name="rcaron" unicode="&#x159;" horiz-adv-x="1382" 
d="M1303 1575l-365 -330h-442l-353 330h291l295 -166l287 166h287zM203 0l0.000976562 1122h334l24 -297c72.667 100 169.667 178.667 291 236s255 86 401 86c37.333 0 66 -2 86 -6l-12 -342c-48.667 13.333 -110 20 -184 20c-172.667 0 -311.334 -36.833 -416.001 -110.5
s-158 -178.834 -160 -315.501v-393h-364z" />
    <glyph glyph-name="Sacute" unicode="&#x15a;" horiz-adv-x="2244" 
d="M946 1556l371 330h483l-524 -330h-330zM100 422l403.997 60.998c46.667 -154 255.334 -231 626.001 -231c149.333 0 270 6.5 362 19.5s157.5 31.167 196.5 54.5s58.5 53.333 58.5 90c0 34 -10.167 60.333 -30.5 79s-55.666 33.5 -105.999 44.5
s-124.166 19.5 -221.499 25.5l-621 27c-213.333 12.667 -370.833 52.334 -472.5 119.001s-152.5 161.334 -152.5 284.001c0 149.333 81.167 263.833 243.5 343.5s403.5 119.5 723.5 119.5c576.667 0 906.334 -140.667 989.001 -422l-403 -61
c-24 70.667 -83 122.834 -177 156.501s-231.667 50.5 -413 50.5c-205.333 0 -351.833 -13 -439.5 -39s-131.5 -65.667 -131.5 -119c0 -44.667 24.167 -77.334 72.5 -98.001s135.166 -35 260.499 -43l641 -27c216 -13.333 374.5 -53.333 475.5 -120
s151.5 -161.667 151.5 -285c0 -317.333 -336.667 -476 -1010 -476c-602.667 0 -944.667 149 -1026 447z" />
    <glyph glyph-name="sacute" unicode="&#x15b;" horiz-adv-x="1851" 
d="M756 1245l370 330h484l-525 -330h-329zM911 915c-152.667 0 -263.835 -9.16895 -333.502 -27.502s-104.5 -47.166 -104.5 -86.499c0 -32.667 20 -56 60 -70s114.333 -23.667 223 -29l426 -16c208 -10 357.167 -40 447.5 -90s135.5 -126.333 135.5 -229
c0 -261.333 -286.667 -392 -860 -392c-251.333 0 -441.833 27.333 -571.5 82s-216.167 143 -259.5 265l362 59c16.667 -59.333 62.834 -102.833 138.501 -130.5s185.167 -41.5 328.5 -41.5c176.667 0 303.834 9.66699 381.501 29s116.5 49.333 116.5 90
c0 33.333 -17.167 57.5 -51.5 72.5s-97.833 24.833 -190.5 29.5l-428 16c-214 8.66699 -369.5 40.334 -466.5 95.001s-145.5 135 -145.5 241c0 117.333 67.833 207.5 203.5 270.5s331.834 94.5 588.501 94.5c250.667 0 441.167 -25.833 571.5 -77.5
s215.166 -134.5 254.499 -248.5l-353 -57c-16.667 53.333 -61.167 91.833 -133.5 115.5s-185.5 35.5 -339.5 35.5z" />
    <glyph glyph-name="Scircumflex" unicode="&#x15c;" horiz-adv-x="2244" 
d="M1399 1556l-295 168l-287 -168h-287l365 330h440l355 -330h-291zM100 422l403.997 60.998c46.667 -154 255.334 -231 626.001 -231c149.333 0 270 6.5 362 19.5s157.5 31.167 196.5 54.5s58.5 53.333 58.5 90c0 34 -10.167 60.333 -30.5 79s-55.666 33.5 -105.999 44.5
s-124.166 19.5 -221.499 25.5l-621 27c-213.333 12.667 -370.833 52.334 -472.5 119.001s-152.5 161.334 -152.5 284.001c0 149.333 81.167 263.833 243.5 343.5s403.5 119.5 723.5 119.5c576.667 0 906.334 -140.667 989.001 -422l-403 -61
c-24 70.667 -83 122.834 -177 156.501s-231.667 50.5 -413 50.5c-205.333 0 -351.833 -13 -439.5 -39s-131.5 -65.667 -131.5 -119c0 -44.667 24.167 -77.334 72.5 -98.001s135.166 -35 260.499 -43l641 -27c216 -13.333 374.5 -53.333 475.5 -120
s151.5 -161.667 151.5 -285c0 -317.333 -336.667 -476 -1010 -476c-602.667 0 -944.667 149 -1026 447z" />
    <glyph glyph-name="scircumflex" unicode="&#x15d;" horiz-adv-x="1851" 
d="M1212 1245l-294 168l-287 -168h-287l365 330h440l354 -330h-291zM911 915c-152.667 0 -263.835 -9.16895 -333.502 -27.502s-104.5 -47.166 -104.5 -86.499c0 -32.667 20 -56 60 -70s114.333 -23.667 223 -29l426 -16c208 -10 357.167 -40 447.5 -90
s135.5 -126.333 135.5 -229c0 -261.333 -286.667 -392 -860 -392c-251.333 0 -441.833 27.333 -571.5 82s-216.167 143 -259.5 265l362 59c16.667 -59.333 62.834 -102.833 138.501 -130.5s185.167 -41.5 328.5 -41.5c176.667 0 303.834 9.66699 381.501 29
s116.5 49.333 116.5 90c0 33.333 -17.167 57.5 -51.5 72.5s-97.833 24.833 -190.5 29.5l-428 16c-214 8.66699 -369.5 40.334 -466.5 95.001s-145.5 135 -145.5 241c0 117.333 67.833 207.5 203.5 270.5s331.834 94.5 588.501 94.5c250.667 0 441.167 -25.833 571.5 -77.5
s215.166 -134.5 254.499 -248.5l-353 -57c-16.667 53.333 -61.167 91.833 -133.5 115.5s-185.5 35.5 -339.5 35.5z" />
    <glyph glyph-name="Scedilla" unicode="&#x15e;" horiz-adv-x="2244" 
d="M100 422l403.997 60.998c46.667 -154 255.334 -231 626.001 -231c149.333 0 270 6.5 362 19.5s157.5 31.167 196.5 54.5s58.5 53.333 58.5 90c0 34 -10.167 60.333 -30.5 79s-55.666 33.5 -105.999 44.5s-124.166 19.5 -221.499 25.5l-621 27
c-213.333 12.667 -370.833 52.334 -472.5 119.001s-152.5 161.334 -152.5 284.001c0 149.333 81.167 263.833 243.5 343.5s403.5 119.5 723.5 119.5c576.667 0 906.334 -140.667 989.001 -422l-403 -61c-24 70.667 -83 122.834 -177 156.501s-231.667 50.5 -413 50.5
c-205.333 0 -351.833 -13 -439.5 -39s-131.5 -65.667 -131.5 -119c0 -44.667 24.167 -77.334 72.5 -98.001s135.166 -35 260.499 -43l641 -27c216 -13.333 374.5 -53.333 475.5 -120s151.5 -161.667 151.5 -285c0 -296.667 -295 -454.667 -885 -474l-14 -73
c56.667 10.667 110 16 160 16c96.667 0 169 -14.833 217 -44.5s72 -70.834 72 -123.501c0 -65.333 -37.333 -114.666 -112 -147.999s-196 -50 -364 -50c-132 0 -256.667 13.333 -374 40l10 146c126.667 -26 236 -39 328 -39c52 0 92.5 2.33301 121.5 7s48.333 10.667 58 18
s14.5 17.333 14.5 30c0 31.333 -28.667 47 -86 47c-42.667 0 -78.667 -8 -108 -24l-207 20l32 178c-524 20 -823.667 168.333 -899 445z" />
    <glyph glyph-name="scedilla" unicode="&#x15f;" horiz-adv-x="1851" 
d="M911 915c-152.667 0 -263.837 -9.16895 -333.504 -27.502s-104.5 -47.166 -104.5 -86.499c0 -32.667 20 -56 60 -70s114.333 -23.667 223 -29l426 -16c208 -10 357.167 -40 447.5 -90s135.5 -126.333 135.5 -229c0 -242 -246.333 -372 -739 -390l-14 -73
c56.667 10.667 109.667 16 159 16c96.667 0 169 -14.833 217 -44.5s72 -70.834 72 -123.501c0 -65.333 -37.167 -114.666 -111.5 -147.999s-195.5 -50 -363.5 -50c-132.667 0 -257.667 13.333 -375 40l11 146c126.667 -26 235.667 -39 327 -39c52 0 92.5 2.33301 121.5 7
s48.5 10.667 58.5 18s15 17.333 15 30c0 31.333 -28.667 47 -86 47c-43.333 0 -79.666 -8 -108.999 -24l-207 20l33 178c-206.667 8.66699 -365.167 40.667 -475.5 96s-185.166 138.333 -224.499 249l362 59c16.667 -59.333 62.834 -102.833 138.501 -130.5
s185.167 -41.5 328.5 -41.5c176.667 0 303.834 9.66699 381.501 29s116.5 49.333 116.5 90c0 33.333 -17.167 57.5 -51.5 72.5s-97.833 24.833 -190.5 29.5l-428 16c-214 8.66699 -369.5 40.334 -466.5 95.001s-145.5 135 -145.5 241c0 117.333 67.833 207.5 203.5 270.5
s331.834 94.5 588.501 94.5c250.667 0 441.167 -25.833 571.5 -77.5s215.166 -134.5 254.499 -248.5l-353 -57c-16.667 53.333 -61.167 91.833 -133.5 115.5s-185.5 35.5 -339.5 35.5z" />
    <glyph glyph-name="Scaron" unicode="&#x160;" horiz-adv-x="2244" 
d="M1690 1886l-365 -330h-442l-353 330h291l295 -166l287 166h287zM100 422l403.997 60.998c46.667 -154 255.334 -231 626.001 -231c149.333 0 270 6.5 362 19.5s157.5 31.167 196.5 54.5s58.5 53.333 58.5 90c0 34 -10.167 60.333 -30.5 79s-55.666 33.5 -105.999 44.5
s-124.166 19.5 -221.499 25.5l-621 27c-213.333 12.667 -370.833 52.334 -472.5 119.001s-152.5 161.334 -152.5 284.001c0 149.333 81.167 263.833 243.5 343.5s403.5 119.5 723.5 119.5c576.667 0 906.334 -140.667 989.001 -422l-403 -61
c-24 70.667 -83 122.834 -177 156.501s-231.667 50.5 -413 50.5c-205.333 0 -351.833 -13 -439.5 -39s-131.5 -65.667 -131.5 -119c0 -44.667 24.167 -77.334 72.5 -98.001s135.166 -35 260.499 -43l641 -27c216 -13.333 374.5 -53.333 475.5 -120
s151.5 -161.667 151.5 -285c0 -317.333 -336.667 -476 -1010 -476c-602.667 0 -944.667 149 -1026 447z" />
    <glyph glyph-name="scaron" unicode="&#x161;" horiz-adv-x="1851" 
d="M1503 1575l-364 -330h-443l-352 330h291l295 -166l287 166h286zM911 915c-152.667 0 -263.835 -9.16895 -333.502 -27.502s-104.5 -47.166 -104.5 -86.499c0 -32.667 20 -56 60 -70s114.333 -23.667 223 -29l426 -16c208 -10 357.167 -40 447.5 -90
s135.5 -126.333 135.5 -229c0 -261.333 -286.667 -392 -860 -392c-251.333 0 -441.833 27.333 -571.5 82s-216.167 143 -259.5 265l362 59c16.667 -59.333 62.834 -102.833 138.501 -130.5s185.167 -41.5 328.5 -41.5c176.667 0 303.834 9.66699 381.501 29
s116.5 49.333 116.5 90c0 33.333 -17.167 57.5 -51.5 72.5s-97.833 24.833 -190.5 29.5l-428 16c-214 8.66699 -369.5 40.334 -466.5 95.001s-145.5 135 -145.5 241c0 117.333 67.833 207.5 203.5 270.5s331.834 94.5 588.501 94.5c250.667 0 441.167 -25.833 571.5 -77.5
s215.166 -134.5 254.499 -248.5l-353 -57c-16.667 53.333 -61.167 91.833 -133.5 115.5s-185.5 35.5 -339.5 35.5z" />
    <glyph glyph-name="uni0162" unicode="&#x162;" horiz-adv-x="2088" 
d="M852 0v1137h-795v297h1975v-297h-797v-1137h-383zM643 -418l186 297h424l-319 -297h-291z" />
    <glyph glyph-name="uni0163" unicode="&#x163;" horiz-adv-x="1480" 
d="M295 475l0.00195312 383.001h-275v264h179c24 0 43.167 0.833008 57.5 2.5s28.166 6.5 41.499 14.5s23.333 17.667 30 29s13.334 29.166 20.001 53.499s12 51 16 80s8.33301 67.5 13 115.5h285v-295h716v-264h-716v-358c0 -96.667 23.333 -162.167 70 -196.5
s132.334 -51.5 257.001 -51.5c137.333 0 272.666 14.333 405.999 43l-13 -275c-144 -30 -302.333 -45 -475 -45c-108 0 -199.333 8.5 -274 25.5s-137.834 45 -189.501 84s-89.334 90.333 -113.001 154s-35.5 142.5 -35.5 236.5zM403.002 -417.999l187 297h424l-320 -297
h-291z" />
    <glyph glyph-name="Tcaron" unicode="&#x164;" horiz-adv-x="2088" 
d="M1624 1886l-364 -330h-443l-352 330h291l295 -166l286 166h287zM852 0v1137h-795v297h1975v-297h-797v-1137h-383z" />
    <glyph glyph-name="tcaron" unicode="&#x165;" horiz-adv-x="1480" 
d="M793 1233v450h337l-104 -450h-233zM295 475l0.00195312 383.001h-275v264h179c24 0 43.167 0.833008 57.5 2.5s28.166 6.5 41.499 14.5s23.333 17.667 30 29s13.334 29.166 20.001 53.499s12 51 16 80s8.33301 67.5 13 115.5h285v-295h716v-264h-716v-358
c0 -96.667 23.333 -162.167 70 -196.5s132.334 -51.5 257.001 -51.5c137.333 0 272.666 14.333 405.999 43l-13 -275c-144 -30 -302.333 -45 -475 -45c-108 0 -199.333 8.5 -274 25.5s-137.834 45 -189.501 84s-89.334 90.333 -113.001 154s-35.5 142.5 -35.5 236.5z" />
    <glyph glyph-name="Tbar" unicode="&#x166;" horiz-adv-x="2088" 
d="M440 592v158h412v387h-795v297h1975v-297h-797v-387h412v-158h-412v-592h-383v592h-412z" />
    <glyph glyph-name="tbar" unicode="&#x167;" horiz-adv-x="1480" 
d="M45 487l0.00390625 156.001h250v215h-275v264h179c24 0 43.167 0.833008 57.5 2.5s28.166 6.5 41.499 14.5s23.333 17.667 30 29s13.334 29.166 20.001 53.499s12 51 16 80s8.33301 67.5 13 115.5h285v-295h716v-264h-716v-215h532v-156h-532
c2 -90.667 26.667 -152.5 74 -185.5s131.666 -49.5 252.999 -49.5c137.333 0 272.666 14.333 405.999 43l-13 -275c-144 -30 -302.333 -45 -475 -45c-108 0 -199.333 8.5 -274 25.5s-137.834 45 -189.501 84s-89.334 90.333 -113.001 154s-35.5 142.5 -35.5 236.5v12h-250z
" />
    <glyph glyph-name="Utilde" unicode="&#x168;" horiz-adv-x="2347" 
d="M1667 1892c11.333 -120 -6.5 -209 -53.5 -267s-115.833 -87 -206.5 -87c-43.333 0 -87.833 7.66699 -133.5 23s-83.834 32.333 -114.501 51s-63 35.667 -97 51s-62.333 23 -85 23c-25.333 0 -44.166 -10.5 -56.499 -31.5s-16.166 -52.167 -11.499 -93.5h-233
c-9.33301 121.333 9.83398 211.333 57.501 270s117.834 88 210.501 88c38.667 0 80.167 -7.83301 124.5 -23.5s82.5 -33.167 114.5 -52.5s65.167 -36.833 99.5 -52.5s62.166 -23.5 83.499 -23.5c25.333 0 44.166 10.5 56.499 31.5s16.166 52.167 11.499 93.5h233zM2157 727
c0 -240.667 -85.499 -426.166 -256.499 -556.499s-414.167 -195.5 -729.5 -195.5c-314.667 0 -556.834 65 -726.501 195s-254.5 315.667 -254.5 557v707h385v-697c0 -156.667 49.167 -273.334 147.5 -350.001s247.833 -115 448.5 -115c202 0 353 38.5 453 115.5
s150 193.5 150 349.5v697h383v-707z" />
    <glyph glyph-name="utilde" unicode="&#x169;" horiz-adv-x="1988" 
d="M1487 1581c11.333 -120 -6.50195 -208.998 -53.502 -266.998s-115.833 -87 -206.5 -87c-43.333 0 -87.833 7.66699 -133.5 23s-83.834 32.166 -114.501 50.499s-63 35.166 -97 50.499s-62.333 23 -85 23c-25.333 0 -44.166 -10.5 -56.499 -31.5
s-16.166 -52.167 -11.499 -93.5h-233c-9.33301 121.333 9.83398 211.5 57.501 270.5s117.834 88.5 210.501 88.5c38.667 0 80.167 -8 124.5 -24s82.5 -33.333 114.5 -52s65.167 -36 99.5 -52s62.166 -24 83.499 -24c25.333 0 44 10.333 56 31s15.667 52 11 94h234z
M1419 682.002v440.002h367v-1122h-330l-26 254c-69.333 -86.667 -160.5 -154.834 -273.5 -204.501s-236.5 -74.5 -370.5 -74.5c-192.667 0 -341.5 45.667 -446.5 137s-157.5 224 -157.5 398v612h365v-549c0 -102.667 30.5 -180.167 91.5 -232.5s145.833 -78.5 254.5 -78.5
c157.333 0 284.5 37.167 381.5 111.5s145.167 177.166 144.5 308.499z" />
    <glyph glyph-name="Umacron" unicode="&#x16a;" horiz-adv-x="2347" 
d="M666 1579v233h1015v-233h-1015zM2157 727c0 -240.667 -85.499 -426.166 -256.499 -556.499s-414.167 -195.5 -729.5 -195.5c-314.667 0 -556.834 65 -726.501 195s-254.5 315.667 -254.5 557v707h385v-697c0 -156.667 49.167 -273.334 147.5 -350.001
s247.833 -115 448.5 -115c202 0 353 38.5 453 115.5s150 193.5 150 349.5v697h383v-707z" />
    <glyph glyph-name="umacron" unicode="&#x16b;" horiz-adv-x="1988" 
d="M485 1268v233h1016v-233h-1016zM1419 682v440.002h367v-1122h-330l-26 254c-69.333 -86.667 -160.5 -154.834 -273.5 -204.501s-236.5 -74.5 -370.5 -74.5c-192.667 0 -341.5 45.667 -446.5 137s-157.5 224 -157.5 398v612h365v-549
c0 -102.667 30.5 -180.167 91.5 -232.5s145.833 -78.5 254.5 -78.5c157.333 0 284.5 37.167 381.5 111.5s145.167 177.166 144.5 308.499z" />
    <glyph glyph-name="Ubreve" unicode="&#x16c;" horiz-adv-x="2347" 
d="M1386 1882h293c0 -226.667 -167.667 -340 -503 -340c-340 0 -510 113.333 -510 340h292c0 -99.333 72.667 -149 218 -149c140 0 210 49.667 210 149zM2157 727c0 -240.667 -85.499 -426.166 -256.499 -556.499s-414.167 -195.5 -729.5 -195.5
c-314.667 0 -556.834 65 -726.501 195s-254.5 315.667 -254.5 557v707h385v-697c0 -156.667 49.167 -273.334 147.5 -350.001s247.833 -115 448.5 -115c202 0 353 38.5 453 115.5s150 193.5 150 349.5v697h383v-707z" />
    <glyph glyph-name="ubreve" unicode="&#x16d;" horiz-adv-x="1988" 
d="M1206 1571h293c0 -226.667 -168 -340 -504 -340c-340 0 -510 113.333 -510 340h293c0 -100 72.333 -150 217 -150c140.667 0 211 50 211 150zM1419 682v440.002h367v-1122h-330l-26 254c-69.333 -86.667 -160.5 -154.834 -273.5 -204.501s-236.5 -74.5 -370.5 -74.5
c-192.667 0 -341.5 45.667 -446.5 137s-157.5 224 -157.5 398v612h365v-549c0 -102.667 30.5 -180.167 91.5 -232.5s145.833 -78.5 254.5 -78.5c157.333 0 284.5 37.167 381.5 111.5s145.167 177.166 144.5 308.499z" />
    <glyph glyph-name="Uring" unicode="&#x16e;" horiz-adv-x="2347" 
d="M1176 1528c-114.667 0 -203.167 21 -265.5 63s-93.5 101.333 -93.5 178c0 76 31.333 135 94 177s151 63 265 63c112.667 0 199.834 -21 261.501 -63s92.5 -101 92.5 -177c0 -76.667 -30.833 -136 -92.5 -178s-148.834 -63 -261.501 -63zM1176 1663
c120 0 180 35.333 180 106c0 70 -60 105 -180 105c-123.333 0 -185 -35 -185 -105c0 -70.667 61.667 -106 185 -106zM2157 727c0 -240.667 -85.499 -426.166 -256.499 -556.499s-414.167 -195.5 -729.5 -195.5c-314.667 0 -556.834 65 -726.501 195
s-254.5 315.667 -254.5 557v707h385v-697c0 -156.667 49.167 -273.334 147.5 -350.001s247.833 -115 448.5 -115c202 0 353 38.5 453 115.5s150 193.5 150 349.5v697h383v-707z" />
    <glyph glyph-name="uring" unicode="&#x16f;" horiz-adv-x="1988" 
d="M995 1217c-114.667 0 -203 20.833 -265 62.5s-93 101.167 -93 178.5c0 76 31.167 135 93.5 177s150.5 63 264.5 63c112.667 0 200 -21 262 -63s93 -101 93 -177c0 -76.667 -31 -136 -93 -178s-149.333 -63 -262 -63zM995 1352c120.667 0 181 35.333 181 106
c0 70 -60.333 105 -181 105c-122.667 0 -184 -35 -184 -105c0 -70.667 61.333 -106 184 -106zM1419 682v440.002h367v-1122h-330l-26 254c-69.333 -86.667 -160.5 -154.834 -273.5 -204.501s-236.5 -74.5 -370.5 -74.5c-192.667 0 -341.5 45.667 -446.5 137
s-157.5 224 -157.5 398v612h365v-549c0 -102.667 30.5 -180.167 91.5 -232.5s145.833 -78.5 254.5 -78.5c157.333 0 284.5 37.167 381.5 111.5s145.167 177.166 144.5 308.499z" />
    <glyph glyph-name="Uhungarumlaut" unicode="&#x170;" horiz-adv-x="2347" 
d="M748 1556l247 330h414l-367 -330h-294zM1282 1556l250 330h414l-367 -330h-297zM2157 727c0 -240.667 -85.499 -426.166 -256.499 -556.499s-414.167 -195.5 -729.5 -195.5c-314.667 0 -556.834 65 -726.501 195s-254.5 315.667 -254.5 557v707h385v-697
c0 -156.667 49.167 -273.334 147.5 -350.001s247.833 -115 448.5 -115c202 0 353 38.5 453 115.5s150 193.5 150 349.5v697h383v-707z" />
    <glyph glyph-name="uhungarumlaut" unicode="&#x171;" horiz-adv-x="1988" 
d="M565 1245l248 330h414l-367 -330h-295zM1100 1245l250 330h413l-366 -330h-297zM1419 682v440.002h367v-1122h-330l-26 254c-69.333 -86.667 -160.5 -154.834 -273.5 -204.501s-236.5 -74.5 -370.5 -74.5c-192.667 0 -341.5 45.667 -446.5 137s-157.5 224 -157.5 398v612
h365v-549c0 -102.667 30.5 -180.167 91.5 -232.5s145.833 -78.5 254.5 -78.5c157.333 0 284.5 37.167 381.5 111.5s145.167 177.166 144.5 308.499z" />
    <glyph glyph-name="Uogonek" unicode="&#x172;" horiz-adv-x="2347" 
d="M1288 -449c-114 0 -201.499 19 -262.499 57s-91.5 93 -91.5 165c0 86.667 45.667 154.667 137 204c-283.333 14.667 -501 86.334 -653 215.001s-228 307 -228 535v707h385v-697c0 -156.667 49.333 -273.667 148 -351s248 -116 448 -116
c201.333 0 351.833 38.667 451.5 116s149.5 194.333 149.5 351v697h385v-707c0 -156.667 -37.333 -290.667 -112 -402s-183.667 -196.333 -327 -255c-39.333 -16.667 -90.833 -34 -154.5 -52s-117.334 -32.667 -161.001 -44s-82.167 -26.333 -115.5 -45
s-50 -39.334 -50 -62.001c0 -42.667 39 -64 117 -64c70.667 0 151.667 13.667 243 41l-8 -247c-90.667 -30.667 -191 -46 -301 -46z" />
    <glyph glyph-name="uogonek" unicode="&#x173;" horiz-adv-x="1988" 
d="M1124 -225c0 63.333 24.833 118.335 74.5 165.002s133.5 85.667 251.5 117l-20 197c-69.333 -86.667 -160.5 -154.834 -273.5 -204.501s-236.5 -74.5 -370.5 -74.5c-192.667 0 -341.5 45.667 -446.5 137s-157.5 224 -157.5 398v612h365v-549
c0 -102.667 30.5 -180.167 91.5 -232.5s145.833 -78.5 254.5 -78.5c157.333 0 284.5 37.167 381.5 111.5s145.167 177.166 144.5 308.499v440h367v-1122c-239.333 -26 -359 -70.333 -359 -133c0 -42.667 39.667 -64 119 -64c70.667 0 150.667 13.667 240 41l-6 -247
c-96 -30.667 -192.333 -46 -289 -46c-244.667 0 -367 74.667 -367 224z" />
    <glyph glyph-name="Wcircumflex" unicode="&#x174;" horiz-adv-x="3072" 
d="M1825 1556l-295 168l-287 -168h-287l365 330h440l355 -330h-291zM653 0l-639 1434h412l442 -1037l482 1037h372l494 -1022l436 1022h406l-641 -1434h-371l-514 1065l-510 -1065h-369z" />
    <glyph glyph-name="wcircumflex" unicode="&#x175;" horiz-adv-x="2648" 
d="M1612 1245l-295 168l-287 -168h-287l365 330h440l355 -330h-291zM592 0l-580 1122h400l366 -760l387 760h336l400 -753l356 753h377l-566 -1122h-321l-416 793l-418 -793h-321z" />
    <glyph glyph-name="Ycircumflex" unicode="&#x176;" horiz-adv-x="2060" 
d="M1319 1556l-295 168l-287 -168h-286l364 330h440l355 -330h-291zM842 0v551l-854 883h501l549 -578l559 578h476l-848 -881v-553h-383z" />
    <glyph glyph-name="ycircumflex" unicode="&#x177;" horiz-adv-x="1761" 
d="M1169 1245l-295 168l-286 -168h-287l365 330h440l354 -330h-291zM1350 1122h399.003l-682 -1132c-50.667 -84 -97.834 -152.167 -141.501 -204.5s-91.667 -95.333 -144 -129s-108 -57.167 -167 -70.5s-129.5 -20 -211.5 -20c-86.667 0 -170.334 10.333 -251.001 31
l-13 266c72 -12.667 141 -19 207 -19c95.333 0 168.666 12.833 219.999 38.5s100.333 77.167 147 154.5l-701 1085h420l477 -772z" />
    <glyph glyph-name="Ydieresis" unicode="&#x178;" horiz-adv-x="2060" 
d="M1143 1569v295h403v-295h-403zM512 1569v295h403v-295h-403zM842 0v551l-854 883h501l549 -578l559 578h476l-848 -881v-553h-383z" />
    <glyph glyph-name="Zacute" unicode="&#x179;" horiz-adv-x="2103" 
d="M879 1556l370 330h484l-525 -330h-329zM111 0v266l1271 881h-1257v287h1870v-252l-1297 -895h1297v-287h-1884z" />
    <glyph glyph-name="zacute" unicode="&#x17a;" horiz-adv-x="1783" 
d="M727 1245l371 330h483l-524 -330h-330zM115 0v254l1011 614h-999v254h1544v-254l-1012 -612h1018v-256h-1562z" />
    <glyph glyph-name="Zdotaccent" unicode="&#x17b;" horiz-adv-x="2103" 
d="M856 1569v329h387v-329h-387zM111 0v266l1271 881h-1257v287h1870v-252l-1297 -895h1297v-287h-1884z" />
    <glyph glyph-name="zdotaccent" unicode="&#x17c;" horiz-adv-x="1783" 
d="M698 1257v330h387v-330h-387zM115 0v254l1011 614h-999v254h1544v-254l-1012 -612h1018v-256h-1562z" />
    <glyph glyph-name="Zcaron" unicode="&#x17d;" horiz-adv-x="2103" 
d="M1630 1886l-364 -330h-443l-352 330h291l295 -166l286 166h287zM111 0v266l1271 881h-1257v287h1870v-252l-1297 -895h1297v-287h-1884z" />
    <glyph glyph-name="zcaron" unicode="&#x17e;" horiz-adv-x="1783" 
d="M1473 1575l-365 -330h-442l-353 330h291l295 -166l287 166h287zM115 0v254l1011 614h-999v254h1544v-254l-1012 -612h1018v-256h-1562z" />
    <glyph glyph-name="uni0191" unicode="&#x191;" horiz-adv-x="2101" 
d="M240 1434l1765 -0.000976562v-297h-1380v-338h1243v-295h-1243v-311c0 -209.333 -53.167 -366.166 -159.5 -470.499s-269.833 -156.5 -490.5 -156.5c-70.667 0 -166.667 10.333 -288 31l-13 297c100 -18 179.333 -27 238 -27c117.333 0 201.333 24.5 252 73.5
s76 133.167 76 252.5v1241z" />
    <glyph glyph-name="uni0192" unicode="&#x192;" horiz-adv-x="1378" 
d="M326 49l0.00195312 809.001h-293v264h293c4 150.667 58 261.5 162 332.5s264.333 106.5 481 106.5c127.333 0 256.333 -11 387 -33l-15 -250c-108 18 -218.333 27 -331 27c-114.667 0 -195.5 -13.833 -242.5 -41.5s-72.167 -74.834 -75.5 -141.501h656v-264h-656v-786
c0 -180.667 -40.833 -310.167 -122.5 -388.5s-212.834 -117.5 -393.501 -117.5c-89.333 0 -167 5.33301 -233 16l-13 268c59.333 -8 112.666 -12 159.999 -12c85.333 0 146 15.833 182 47.5s54 86.167 54 163.5z" />
    <glyph glyph-name="uni0218" unicode="&#x218;" horiz-adv-x="2244" 
d="M100 422l403.997 60.998c46.667 -154 255.334 -231 626.001 -231c149.333 0 270 6.5 362 19.5s157.5 31.167 196.5 54.5s58.5 53.333 58.5 90c0 34 -10.167 60.333 -30.5 79s-55.666 33.5 -105.999 44.5s-124.166 19.5 -221.499 25.5l-621 27
c-213.333 12.667 -370.833 52.334 -472.5 119.001s-152.5 161.334 -152.5 284.001c0 149.333 81.167 263.833 243.5 343.5s403.5 119.5 723.5 119.5c576.667 0 906.334 -140.667 989.001 -422l-403 -61c-24 70.667 -83 122.834 -177 156.501s-231.667 50.5 -413 50.5
c-205.333 0 -351.833 -13 -439.5 -39s-131.5 -65.667 -131.5 -119c0 -44.667 24.167 -77.334 72.5 -98.001s135.166 -35 260.499 -43l641 -27c216 -13.333 374.5 -53.333 475.5 -120s151.5 -161.667 151.5 -285c0 -317.333 -336.667 -476 -1010 -476
c-602.667 0 -944.667 149 -1026 447zM736.997 -418.002l187 297h424l-320 -297h-291z" />
    <glyph glyph-name="uni0219" unicode="&#x219;" horiz-adv-x="1851" 
d="M911 915c-152.667 0 -263.835 -9.16895 -333.502 -27.502s-104.5 -47.166 -104.5 -86.499c0 -32.667 20 -56 60 -70s114.333 -23.667 223 -29l426 -16c208 -10 357.167 -40 447.5 -90s135.5 -126.333 135.5 -229c0 -261.333 -286.667 -392 -860 -392
c-251.333 0 -441.833 27.333 -571.5 82s-216.167 143 -259.5 265l362 59c16.667 -59.333 62.834 -102.833 138.501 -130.5s185.167 -41.5 328.5 -41.5c176.667 0 303.834 9.66699 381.501 29s116.5 49.333 116.5 90c0 33.333 -17.167 57.5 -51.5 72.5
s-97.833 24.833 -190.5 29.5l-428 16c-214 8.66699 -369.5 40.334 -466.5 95.001s-145.5 135 -145.5 241c0 117.333 67.833 207.5 203.5 270.5s331.834 94.5 588.501 94.5c250.667 0 441.167 -25.833 571.5 -77.5s215.166 -134.5 254.499 -248.5l-353 -57
c-16.667 53.333 -61.167 91.833 -133.5 115.5s-185.5 35.5 -339.5 35.5zM538.999 -418.002l186 297h424l-320 -297h-290z" />
    <glyph glyph-name="uni021A" unicode="&#x21a;" horiz-adv-x="2088" 
d="M852 0v1137h-795v297h1975v-297h-797v-1137h-383zM643 -418l186 297h424l-319 -297h-291z" />
    <glyph glyph-name="uni021B" unicode="&#x21b;" horiz-adv-x="1480" 
d="M295 475l0.00195312 383.001h-275v264h179c24 0 43.167 0.833008 57.5 2.5s28.166 6.5 41.499 14.5s23.333 17.667 30 29s13.334 29.166 20.001 53.499s12 51 16 80s8.33301 67.5 13 115.5h285v-295h716v-264h-716v-358c0 -96.667 23.333 -162.167 70 -196.5
s132.334 -51.5 257.001 -51.5c137.333 0 272.666 14.333 405.999 43l-13 -275c-144 -30 -302.333 -45 -475 -45c-108 0 -199.333 8.5 -274 25.5s-137.834 45 -189.501 84s-89.334 90.333 -113.001 154s-35.5 142.5 -35.5 236.5zM403.002 -417.999l187 297h424l-320 -297
h-291z" />
    <glyph glyph-name="dotlessj" unicode="&#x237;" 
d="M203 49l-0.000976562 1073h364v-1050c0 -180.667 -40.667 -310.167 -122 -388.5s-212 -117.5 -392 -117.5c-85.333 0 -163.666 5.33301 -234.999 16l-13 268c60.667 -8 114.667 -12 162 -12c85.333 0 146 15.833 182 47.5s54 86.167 54 163.5z" />
    <glyph glyph-name="uni02BC" unicode="&#x2bc;" horiz-adv-x="776" 
d="M186 1434h398v-279c0 -152 -31.667 -260.333 -95 -325s-173 -99 -329 -103l-15 199c88 0 145.833 11.667 173.5 35s41.5 71 41.5 143h-174v330z" />
    <glyph glyph-name="circumflex" unicode="&#x2c6;" horiz-adv-x="1024" 
d="M801 1245l-295 168l-287 -168h-287l365 330h440l355 -330h-291z" />
    <glyph glyph-name="caron" unicode="&#x2c7;" horiz-adv-x="1024" 
d="M1092 1575l-365 -330h-442l-353 330h291l295 -166l287 166h287z" />
    <glyph glyph-name="breve" unicode="&#x2d8;" horiz-adv-x="1024" 
d="M725 1571h293c0 -226.667 -168 -340 -504 -340c-340 0 -510 113.333 -510 340h293c0 -100 72.333 -150 217 -150c140.667 0 211 50 211 150z" />
    <glyph glyph-name="dotaccent" unicode="&#x2d9;" horiz-adv-x="1024" 
d="M317 1257v330h388v-330h-388z" />
    <glyph glyph-name="ring" unicode="&#x2da;" horiz-adv-x="1024" 
d="M514 1217c-114.667 0 -203 20.833 -265 62.5s-93 101.167 -93 178.5c0 76 31.167 135 93.5 177s150.5 63 264.5 63c112.667 0 199.834 -21 261.501 -63s92.5 -101 92.5 -177c0 -76.667 -30.833 -136 -92.5 -178s-148.834 -63 -261.501 -63zM514 1352
c120 0 180 35.333 180 106c0 70 -60 105 -180 105c-122.667 0 -184 -35 -184 -105c0 -70.667 61.333 -106 184 -106z" />
    <glyph glyph-name="ogonek" unicode="&#x2db;" horiz-adv-x="1024" 
d="M295 -225c0 38.667 8.49902 73.499 25.499 104.499s45.333 60.5 85 88.5s94.834 53 165.501 75s156.667 40.333 258 55l127 -98c-238.667 -25.333 -358 -69.666 -358 -132.999c0 -42.667 39.667 -64 119 -64c70 0 149.667 13.667 239 41l-6 -247
c-96 -30.667 -192 -46 -288 -46c-244.667 0 -367 74.667 -367 224z" />
    <glyph glyph-name="tilde" unicode="&#x2dc;" horiz-adv-x="1024" 
d="M1006 1581c11.333 -120 -6.66504 -208.998 -53.998 -266.998s-116.333 -87 -207 -87c-43.333 0 -87.833 7.66699 -133.5 23s-83.834 32.166 -114.501 50.499s-63 35.166 -97 50.499s-62.333 23 -85 23c-25.333 0 -44 -10.333 -56 -31s-15.667 -52 -11 -94h-234
c-9.33301 121.333 10 211.5 58 270.5s118.333 88.5 211 88.5c38.667 0 80.167 -8 124.5 -24s82.5 -33.333 114.5 -52s65.167 -36 99.5 -52s62.166 -24 83.499 -24c25.333 0 44 10.333 56 31s15.667 52 11 94h234z" />
    <glyph glyph-name="hungarumlaut" unicode="&#x2dd;" horiz-adv-x="1024" 
d="M84 1245l248 330h413l-366 -330h-295zM618 1245l250 330h414l-367 -330h-297z" />
    <glyph glyph-name="pi" unicode="&#x3c0;" horiz-adv-x="2146" 
d="M51 870v252h2044v-252h-244v-870h-376v870h-809v-870h-377v870h-238z" />
    <glyph glyph-name="uni0400" unicode="&#x400;" horiz-adv-x="2146" 
d="M1303 1559h-328l-526 329h485zM240 0v1434h1767v-277h-1395v-289h1256v-272h-1256v-320h1409v-276h-1781z" />
    <glyph glyph-name="afii10023" unicode="&#x401;" horiz-adv-x="2146" 
d="M1239 1567v295h403v-295h-403zM608 1567v295h404v-295h-404zM240 0v1434h1767v-277h-1395v-289h1256v-272h-1256v-320h1409v-276h-1781z" />
    <glyph glyph-name="afii10051" unicode="&#x402;" horiz-adv-x="2797" 
d="M852 0l0.00195312 1137h-795v297h1975v-297h-797v-490c80 90 185.5 159.667 316.5 209s278.833 74 443.5 74c199.333 0 354.666 -40.5 465.999 -121.5s167 -193.5 167 -337.5v-47c0 -149.333 -51.667 -261.5 -155 -336.5s-256 -112.5 -458 -112.5
c-114.667 0 -221.667 10.333 -321 31l-11 258c100.667 -16 192.334 -24 275.001 -24c192.667 0 289 61.333 289 184v31c0 66.667 -30.833 118.167 -92.5 154.5s-150.5 54.5 -266.5 54.5c-114.667 0 -222.334 -17.667 -323.001 -53s-180.834 -83.666 -240.501 -144.999
s-89.5 -127.333 -89.5 -198v-268h-383z" />
    <glyph glyph-name="afii10052" unicode="&#x403;" horiz-adv-x="1933" 
d="M846 1569l371 329h483l-524 -329h-330zM240 0v1434h1626v-297h-1241v-1137h-385z" />
    <glyph glyph-name="afii10053" unicode="&#x404;" horiz-adv-x="2340" 
d="M113 717c0 232 96.665 413.499 289.998 544.499s463.666 196.5 810.999 196.5c287.333 0 518.666 -41.833 693.999 -125.5s286.333 -206.167 333 -367.5l-408 -80c-56.667 185.333 -263 278 -619 278c-389.333 0 -618.666 -101 -687.999 -303h1049v-260h-1057
c56 -220 288 -330 696 -330c185.333 0 329.333 23.5 432 70.5s166.334 119.167 191.001 216.5l401 -78c-46.667 -167.333 -156.167 -293.166 -328.5 -377.499s-404.166 -126.5 -695.499 -126.5c-351.333 0 -622.666 65.167 -813.999 195.5s-287 312.5 -287 546.5z" />
    <glyph glyph-name="afii10054" unicode="&#x405;" horiz-adv-x="2244" 
d="M100 422l403.997 60.998c46.667 -154 255.334 -231 626.001 -231c149.333 0 270 6.5 362 19.5s157.5 31.167 196.5 54.5s58.5 53.333 58.5 90c0 34 -10.167 60.333 -30.5 79s-55.666 33.5 -105.999 44.5s-124.166 19.5 -221.499 25.5l-621 27
c-213.333 12.667 -370.833 52.334 -472.5 119.001s-152.5 161.334 -152.5 284.001c0 149.333 81.167 263.833 243.5 343.5s403.5 119.5 723.5 119.5c576.667 0 906.334 -140.667 989.001 -422l-403 -61c-24 70.667 -83 122.834 -177 156.501s-231.667 50.5 -413 50.5
c-205.333 0 -351.833 -13 -439.5 -39s-131.5 -65.667 -131.5 -119c0 -44.667 24.167 -77.334 72.5 -98.001s135.166 -35 260.499 -43l641 -27c216 -13.333 374.5 -53.333 475.5 -120s151.5 -161.667 151.5 -285c0 -317.333 -336.667 -476 -1010 -476
c-602.667 0 -944.667 149 -1026 447z" />
    <glyph glyph-name="afii10055" unicode="&#x406;" horiz-adv-x="864" 
d="M240 0v1434h385v-1434h-385z" />
    <glyph glyph-name="afii10056" unicode="&#x407;" horiz-adv-x="864" 
d="M545 1569v295h403v-295h-403zM-86 1569v295h403v-295h-403zM240 0v1434h385v-1434h-385z" />
    <glyph glyph-name="afii10057" unicode="&#x408;" horiz-adv-x="1431" 
d="M1219 612c0 -150 -24.6689 -271 -74.002 -363s-129 -160.667 -239 -206s-255.667 -68 -437 -68c-131.333 0 -257.666 10.333 -378.999 31l-12 297c126.667 -18 243.334 -27 350.001 -27c150 0 255.167 25 315.5 75s90.5 133.667 90.5 251v832h385v-822z" />
    <glyph glyph-name="afii10058" unicode="&#x409;" horiz-adv-x="3710" 
d="M8 293c68.667 4.66699 126 15.666 172 32.999s83.667 46.666 113 87.999c42 57.333 69.833 136.833 83.5 238.5s24.167 278.834 31.5 531.501l8 250h1728v-445h908c176 0 315.833 -44.5 419.5 -133.5s155.5 -208.833 155.5 -359.5
c0 -151.333 -51.833 -271.833 -155.5 -361.5s-243.5 -134.5 -419.5 -134.5h-1293v1137h-968c-9.33301 -284 -26.833 -493 -52.5 -627s-74.5 -242.667 -146.5 -326c-62.667 -72.667 -137 -124.667 -223 -156s-196.667 -46.666 -332 -45.999zM2988 704.999h-844v-420h844
c168 0 252 70.333 252 211c0 139.333 -84 209 -252 209z" />
    <glyph glyph-name="afii10059" unicode="&#x40a;" horiz-adv-x="3921" 
d="M240 0v1434h385v-527h1278v527h385v-525h983c174 0 312 -40.833 414 -122.5s153 -192.167 153 -331.5c0 -138.667 -51.167 -249.167 -153.5 -331.5s-240.166 -123.5 -413.5 -123.5h-1368v612h-1278v-612h-385zM3215 629h-927v-348h927c157.333 0 236 58 236 174
s-78.667 174 -236 174z" />
    <glyph glyph-name="afii10060" unicode="&#x40b;" horiz-adv-x="2748" 
d="M850 0l-0.000976562 1137h-795v297h1973v-297h-795v-492c74.667 83.333 170.834 148.5 288.501 195.5s247.5 70.5 389.5 70.5c213.333 0 375.833 -46.167 487.5 -138.5s167.5 -224.166 167.5 -395.499v-377h-385v297c0 108 -32.667 190 -98 246s-161.666 84 -288.999 84
c-172.667 0 -309.334 -38.5 -410.001 -115.5s-151 -180.5 -151 -310.5v-201h-383z" />
    <glyph glyph-name="afii10061" unicode="&#x40c;" horiz-adv-x="2258" 
d="M907 1565l371 329h483l-524 -329h-330zM240 0v1434h381v-641l1038 641h579l-1126 -678l1159 -756h-616l-1034 672v-672h-381z" />
    <glyph glyph-name="uni040D" unicode="&#x40d;" horiz-adv-x="2482" 
d="M1440 1565h-328l-526 329h485zM240 0v1434h378v-1020l1246 1020h377v-1434h-377v1018l-1246 -1018h-378z" />
    <glyph glyph-name="afii10062" unicode="&#x40e;" horiz-adv-x="2099" 
d="M1317 1901h346c0 -129.333 -53 -230.333 -159 -303s-253.667 -109 -443 -109c-188 0 -334.667 36.333 -440 109s-158 173.667 -158 303h346c0 -57.333 22.5 -102.5 67.5 -135.5s106.5 -49.5 184.5 -49.5c79.333 0 141.833 16.5 187.5 49.5s68.5 78.167 68.5 135.5zM553 0
l315 408l-872 1026h455l636 -746l578 746h438l-1102 -1434h-448z" />
    <glyph glyph-name="afii10145" unicode="&#x40f;" horiz-adv-x="2347" 
d="M240 0v1434h385v-1139h1099v1139h383v-1434h-749v-350h-367v350h-751z" />
    <glyph glyph-name="afii10017" unicode="&#x410;" horiz-adv-x="2336" 
d="M1890 0l-192 295h-1073l-193 -295h-426l965 1434h393l967 -1434h-441zM805 569h713l-357 547z" />
    <glyph glyph-name="afii10018" unicode="&#x411;" horiz-adv-x="2269" 
d="M240 0v1434h1777v-285h-1407v-266h1002c162.667 0 290 -39.333 382 -118s138 -187 138 -325c0 -137.333 -46 -245 -138 -323s-219.333 -117 -382 -117h-1372zM1552 608h-942v-332h942c135.333 0 203 54.667 203 164c0 112 -67.667 168 -203 168z" />
    <glyph glyph-name="afii10019" unicode="&#x412;" horiz-adv-x="2359" 
d="M240 0l0.000976562 1434h1390c161.333 0 288.666 -32.333 381.999 -97s140 -154.667 140 -270c0 -74 -22 -139.5 -66 -196.5s-110 -100.167 -198 -129.5c109.333 -25.333 192 -68.333 248 -129s84 -135 84 -223c0 -122.667 -47.5 -218.167 -142.5 -286.5
s-229.167 -102.5 -402.5 -102.5h-1435zM1552 1174l-936 -0.000976562v-320h940c66.667 0 118.167 13.833 154.5 41.5s54.5 67.834 54.5 120.501c0 105.333 -71 158 -213 158zM1587 591.999h-971v-332h971c80 0 139 13.5 177 40.5s57 68.167 57 123.5c0 112 -78 168 -234 168
z" />
    <glyph glyph-name="afii10020" unicode="&#x413;" horiz-adv-x="1933" 
d="M240 0v1434h1626v-297h-1241v-1137h-385z" />
    <glyph glyph-name="afii10021" unicode="&#x414;" horiz-adv-x="2469" 
d="M31 -354v649h162c56.667 40.667 100.5 92 131.5 154s55.333 152 73 270s29.167 279 34.5 483l6 232h1700v-1139h240v-649h-365v354h-1616v-354h-366zM705 465c-26.667 -65.333 -63.001 -121.999 -109.001 -169.999h1161v842h-956
c-5.33301 -166.667 -15.166 -301.334 -29.499 -404.001s-36.5 -192 -66.5 -268z" />
    <glyph glyph-name="afii10022" unicode="&#x415;" horiz-adv-x="2146" 
d="M240 0v1434h1767v-277h-1395v-289h1256v-272h-1256v-320h1409v-276h-1781z" />
    <glyph glyph-name="afii10024" unicode="&#x416;" horiz-adv-x="3065" 
d="M1341 0v698l-827 -698h-528l927 778l-895 656h517l806 -625v625h381v-623l813 623h517l-898 -652l926 -782h-530l-828 702v-702h-381z" />
    <glyph glyph-name="afii10025" unicode="&#x417;" horiz-adv-x="2324" 
d="M2187 420c0 -150 -88.333 -261.666 -265 -334.999s-444.667 -110 -804 -110c-308 0 -542.667 37.833 -704 113.5s-260.333 191.5 -297 347.5l403 76c18.667 -92 75.834 -159.667 171.501 -203s237.834 -65 426.501 -65c216 0 375.833 15.833 479.5 47.5
s155.5 79.834 155.5 144.501c0 56 -25.167 96.333 -75.5 121s-132.833 37 -247.5 37h-676v268h649c112.667 0 195.5 12.667 248.5 38s79.5 64.666 79.5 117.999c0 58 -49.5 101.167 -148.5 129.5s-253.167 42.5 -462.5 42.5c-182 0 -321.167 -20.5 -417.5 -61.5
s-155.833 -104.5 -178.5 -190.5l-377 80c77.333 293.333 401.666 440 972.999 440c684 0 1026 -133.667 1026 -401c0 -78.667 -24.833 -143.167 -74.5 -193.5s-129.834 -90.5 -240.501 -120.5c237.333 -40.667 356 -148.334 356 -323.001z" />
    <glyph glyph-name="afii10026" unicode="&#x418;" horiz-adv-x="2482" 
d="M240 0v1434h378v-1020l1246 1020h377v-1434h-377v1018l-1246 -1018h-378z" />
    <glyph glyph-name="afii10027" unicode="&#x419;" horiz-adv-x="2482" 
d="M1524 1898h346c0 -129.333 -53 -230.166 -159 -302.499s-253.667 -108.5 -443 -108.5c-188 0 -334.667 36.167 -440 108.5s-158 173.166 -158 302.499h346c0 -57.333 22.5 -102.333 67.5 -135s106.5 -49 184.5 -49c79.333 0 141.833 16.333 187.5 49
s68.5 77.667 68.5 135zM240 0v1434h378v-1020l1246 1020h377v-1434h-377v1018l-1246 -1018h-378z" />
    <glyph glyph-name="afii10028" unicode="&#x41a;" horiz-adv-x="2258" 
d="M240 0v1434h381v-641l1038 641h579l-1126 -678l1159 -756h-616l-1034 672v-672h-381z" />
    <glyph glyph-name="afii10029" unicode="&#x41b;" horiz-adv-x="2383" 
d="M8 293c68.667 4.66699 126 15.666 172 32.999s83.667 46.666 113 87.999c42 57.333 69.833 136.833 83.5 238.5s24.167 278.834 31.5 531.501l8 250h1726v-1434h-383v1137h-968c-9.33301 -284 -26.833 -493 -52.5 -627s-74.5 -242.667 -146.5 -326
c-62.667 -72.667 -137 -124.667 -223 -156s-196.667 -46.666 -332 -45.999z" />
    <glyph glyph-name="afii10030" unicode="&#x41c;" horiz-adv-x="2897" 
d="M240 0v1434h397l817 -922l811 922h393v-1434h-372v985l-672 -782h-328l-674 770v-973h-372z" />
    <glyph glyph-name="afii10031" unicode="&#x41d;" horiz-adv-x="2519" 
d="M240 0v1434h385v-551h1271v551h383v-1434h-383v588h-1271v-588h-385z" />
    <glyph glyph-name="afii10032" unicode="&#x41e;" horiz-adv-x="2461" 
d="M1231 -25c-356.667 0 -632.167 64.833 -826.5 194.5s-291.5 311.5 -291.5 545.5c0 235.333 97 418 291 548s469.667 195 827 195c356.667 0 632.167 -65 826.5 -195s291.5 -312.667 291.5 -548c0 -234 -97.167 -415.833 -291.5 -545.5s-469.833 -194.5 -826.5 -194.5z
M1231 272c483.333 0 725 147.667 725 443c0 297.333 -241.667 446 -725 446c-484.667 0 -727 -148.667 -727 -446c0 -295.333 242.333 -443 727 -443z" />
    <glyph glyph-name="afii10033" unicode="&#x41f;" horiz-adv-x="2465" 
d="M240 0v1434h1986v-1434h-385v1137h-1216v-1137h-385z" />
    <glyph glyph-name="afii10034" unicode="&#x420;" horiz-adv-x="2217" 
d="M240 0v1434h1251c194.667 0 347.5 -46.833 458.5 -140.5s166.5 -222.5 166.5 -386.5c0 -162 -56 -289.167 -168 -381.5s-267 -138.5 -465 -138.5h-858v-387h-385zM1423 1139h-798v-459h798c200.667 0 301 75.667 301 227c0 154.667 -100.333 232 -301 232z" />
    <glyph glyph-name="afii10035" unicode="&#x421;" horiz-adv-x="2340" 
d="M113 717c0 232 96.666 413.499 289.999 544.499s463.666 196.5 810.999 196.5c287.333 0 518.666 -41.833 693.999 -125.5s286.333 -206.167 333 -367.5l-408 -80c-56.667 184 -263 276 -619 276c-473.333 0 -710 -148 -710 -444c0 -298 236.667 -447 710 -447
c366.667 0 574.334 95.667 623.001 287l401 -78c-46.667 -167.333 -156.167 -293.166 -328.5 -377.499s-404.166 -126.5 -695.499 -126.5c-351.333 0 -622.666 65.167 -813.999 195.5s-287 312.5 -287 546.5z" />
    <glyph glyph-name="afii10036" unicode="&#x422;" horiz-adv-x="2088" 
d="M852 0v1137h-795v297h1975v-297h-797v-1137h-383z" />
    <glyph glyph-name="afii10037" unicode="&#x423;" horiz-adv-x="2099" 
d="M553 0l315 408l-872 1026h455l636 -746l578 746h438l-1102 -1434h-448z" />
    <glyph glyph-name="afii10038" unicode="&#x424;" horiz-adv-x="2656" 
d="M1128 -59l-0.000976562 196h-143c-288 0 -509.833 51.5 -665.5 154.5s-233.5 247.5 -233.5 433.5c0 184.667 78.167 328.834 234.5 432.501s377.833 155.5 664.5 155.5h143v180h388v-180h155c286.667 0 508.167 -51.833 664.501 -155.5
c156.333 -103.667 234.5 -247.834 234.5 -432.501c0 -186 -77.833 -330.5 -233.5 -433.5s-377.5 -154.5 -665.5 -154.5h-155v-196h-388zM2200 725c0 102.667 -41.5 179.833 -124.5 231.5s-212.833 77.5 -389.5 77.5h-175v-616h175c177.333 0 307.333 25.667 390 77
s124 128 124 230zM456.999 724.999c0 -102 41.333 -178.666 124 -229.999s212.667 -77 390 -77h162v616h-162c-176.667 0 -306.5 -25.833 -389.5 -77.5s-124.5 -128.834 -124.5 -231.501z" />
    <glyph glyph-name="afii10039" unicode="&#x425;" horiz-adv-x="2068" 
d="M510 0h-498l768 727l-747 707h510l508 -488l495 488h490l-750 -707l768 -727h-510l-522 506z" />
    <glyph glyph-name="afii10040" unicode="&#x426;" horiz-adv-x="2418" 
d="M240 0v1434h385v-1139h1149v1139h383v-1139h206v-649h-366v354h-1757z" />
    <glyph glyph-name="afii10041" unicode="&#x427;" horiz-adv-x="2287" 
d="M188 995l-0.000976562 439.001h383v-349c0 -120 37.333 -205.167 112 -255.5s197.334 -75.5 368.001 -75.5c101.333 0 197 6.5 287 19.5s198.333 35.833 325 68.5v592h385v-1434h-385v561c-251.333 -74.667 -489 -112 -713 -112c-262 0 -454.5 43.667 -577.5 131
s-184.5 225.666 -184.5 414.999z" />
    <glyph glyph-name="afii10042" unicode="&#x428;" horiz-adv-x="3295" 
d="M240 0v1434h385v-1137h831v1137h383v-1137h832v1137h383v-1434h-2814z" />
    <glyph glyph-name="afii10043" unicode="&#x429;" horiz-adv-x="3317" 
d="M240 0v1434h385v-1137h831v1137h383v-1137h832v1137h383v-1137h206v-651h-366v354h-2654z" />
    <glyph glyph-name="afii10044" unicode="&#x42a;" horiz-adv-x="2469" 
d="M588 0l-0.000976562 1149h-561v285h934v-445h849c176.667 0 317.167 -44.5 421.501 -133.5c104.333 -89 156.5 -208.833 156.5 -359.5c0 -151.333 -52.167 -271.833 -156.5 -361.5s-244.833 -134.5 -421.5 -134.5h-1222zM1747 705h-786v-420h786
c169.333 0 254 70.333 254 211c0 139.333 -84.667 209 -254 209z" />
    <glyph glyph-name="afii10045" unicode="&#x42b;" horiz-adv-x="2942" 
d="M2318 0v1434h385v-1434h-385zM240 0v1434h385v-445h907c176 0 315.833 -44.5 419.5 -133.5s155.5 -208.833 155.5 -359.5c0 -151.333 -51.833 -271.833 -155.5 -361.5s-243.5 -134.5 -419.5 -134.5h-1292zM1468 705h-843v-420h843c168 0 252 70.333 252 211
c0 139.333 -84 209 -252 209z" />
    <glyph glyph-name="afii10046" unicode="&#x42c;" horiz-adv-x="2191" 
d="M240 0v1434h385v-445h907c176 0 315.833 -44.5 419.5 -133.5s155.5 -208.833 155.5 -359.5c0 -151.333 -51.833 -271.833 -155.5 -361.5s-243.5 -134.5 -419.5 -134.5h-1292zM1468 705h-843v-420h843c168 0 252 70.333 252 211c0 139.333 -84 209 -252 209z" />
    <glyph glyph-name="afii10047" unicode="&#x42d;" horiz-adv-x="2332" 
d="M496 903l-372.996 80.001c46.667 155.333 157.5 273.333 332.5 354s406.167 121 693.5 121c220 0 410 -28.5 570 -85.5s283.5 -141.333 370.5 -253s130.5 -245.834 130.5 -402.501c0 -234 -94.667 -416.167 -284 -546.5s-452.333 -195.5 -789 -195.5
c-299.333 0 -537.5 41.333 -714.5 124s-288.5 206 -334.5 370l396 76c25.333 -98 91.666 -170.667 198.999 -218s258.666 -71 453.999 -71c398.667 0 624.667 114.667 678 344h-1030v260h1022c-62.667 212 -285.334 318 -668.001 318
c-374.667 0 -592.334 -91.667 -653.001 -275z" />
    <glyph glyph-name="afii10048" unicode="&#x42e;" horiz-adv-x="3213" 
d="M240 0v1434h385v-549h260c44 183.333 160.167 324.666 348.5 423.999s437.833 149 748.5 149c357.333 0 633.166 -65 827.5 -195c194.333 -130 291.5 -312.667 291.5 -548c0 -234.667 -97.167 -416.667 -291.5 -546s-470.166 -194 -827.5 -194
c-325.333 0 -583.833 54.333 -775.5 163s-303.167 262.667 -334.5 462h-247v-600h-385zM1982 270.001c483.333 0 725 148.333 725 445c0 298.667 -241.667 448 -725 448s-725 -149.333 -725 -448c0 -296.667 241.667 -445 725 -445z" />
    <glyph glyph-name="afii10049" unicode="&#x42f;" horiz-adv-x="2281" 
d="M2042 0h-385v471h-494l-547 -471h-483l569 485c-168 11.333 -300.333 58.5 -397 141.5s-145 191.5 -145 325.5c0 148.667 53 266.167 159 352.5s250.333 129.5 433 129.5h1290v-1434zM817 743h839.999v418h-840c-86 0 -151.5 -17.667 -196.5 -53
s-67.5 -87.333 -67.5 -156c0 -69.333 22.333 -121.5 67 -156.5s110.334 -52.5 197.001 -52.5z" />
    <glyph glyph-name="afii10065" unicode="&#x430;" horiz-adv-x="1906" 
d="M111 801c42 120 127.502 207.667 256.502 263s313.167 83 552.5 83c191.333 0 344.666 -15.167 459.999 -45.5s199.166 -77 251.499 -140s78.5 -146.5 78.5 -250.5v-383c0 -30.667 6.33301 -53.334 19 -68.001s33.667 -22 63 -22c18 0 37 2 57 6l-8 -242
c-63.333 -18 -125.333 -27 -186 -27c-168 0 -263.667 76 -287 228c-77.333 -72 -179.833 -128 -307.5 -168s-268.834 -60 -423.501 -60c-182 0 -321.667 29.167 -419 87.5s-146 141.833 -146 250.5c0 106 45.833 186.333 137.5 241s239.5 88.334 443.5 101.001l707 37
c-3.33301 73.333 -38.333 125.833 -105 157.5s-179 47.5 -337 47.5c-141.333 0 -246.166 -12.5 -314.499 -37.5s-109.833 -65.167 -124.5 -120.5zM436.002 332c0 -41.333 22.668 -71.8311 68.001 -91.498s116.333 -29.5 213 -29.5c119.333 0 228.166 11.667 326.499 35
s176.333 56.166 234 98.499s86.5 89.833 86.5 142.5v9l-737 -45c-66 -5.33301 -114.333 -17.333 -145 -36s-46 -46.334 -46 -83.001z" />
    <glyph glyph-name="afii10066" unicode="&#x431;" horiz-adv-x="2050" 
d="M1032 -25c-310 0 -540.334 58.166 -691.001 174.499s-226 289.833 -226 520.5v43c0 269.333 71.167 468.666 213.5 597.999s370.166 199 683.499 209l479 12c116.667 3.33301 222.334 14.333 317.001 33l27 -260c-91.333 -24.667 -202.666 -39 -333.999 -43l-487 -11
c-196 -5.33301 -337 -39.666 -423 -102.999s-136.333 -173 -151 -329c64 78.667 159.5 139.334 286.5 182.001s273.167 64 438.5 64c258 0 452.667 -45.167 584 -135.5s197 -222.833 197 -397.5c0 -174 -80.5 -310.333 -241.5 -409s-385.167 -148 -672.5 -148zM1038 241.999
c186 0 321.333 24.666 406 73.999s127 122.333 127 219s-41.667 168.834 -125 216.501s-217.333 71.5 -402 71.5c-366.667 0 -550 -94.667 -550 -284c0 -198 181.333 -297 544 -297z" />
    <glyph glyph-name="afii10067" unicode="&#x432;" horiz-adv-x="1998" 
d="M203 0l-0.000976562 1122h1235c126 0 223 -24.333 291 -73s102 -117.667 102 -207c0 -67.333 -20.5 -122.5 -61.5 -165.5s-104.5 -75.833 -190.5 -98.5c211.333 -30.667 317 -125 317 -283c0 -93.333 -38.167 -165.833 -114.5 -217.5s-184.166 -77.5 -323.499 -77.5
h-1255zM1303 903h-750v-229h747c106.667 0 160 39 160 117c0 74.667 -52.333 112 -157 112zM1331 459h-778v-240h782c110.667 0 166 40.333 166 121c0 40.667 -13.667 70.667 -41 90s-70.333 29 -129 29z" />
    <glyph glyph-name="afii10068" unicode="&#x433;" horiz-adv-x="1589" 
d="M203 0v1122h1353v-276h-989v-846h-364z" />
    <glyph glyph-name="afii10069" unicode="&#x434;" horiz-adv-x="2052" 
d="M31 -332v592.001h164c71.333 52 120.333 131.667 147 239s41 281.666 43 522.999l2 100h1405v-862h205v-592h-348v332h-1272v-332h-346zM662 408.001c-23.333 -57.333 -53.667 -106.668 -91 -148.001h873v610h-719c-3.33301 -112 -9.5 -203.167 -18.5 -273.5
s-23.833 -133.166 -44.5 -188.499z" />
    <glyph glyph-name="afii10070" unicode="&#x435;" horiz-adv-x="1990" 
d="M1014 -25c-288.667 0 -512.832 51.499 -672.499 154.499s-239.5 247.5 -239.5 433.5c0 180 79.667 322.333 239 427s379.333 157 660 157c276 0 493.5 -50 652.5 -150s238.5 -237 238.5 -411c0 -45.333 -3.33301 -81.666 -10 -108.999h-1411
c43.333 -164 224.333 -246 543 -246c153.333 0 270.5 12 351.5 36s131.833 61.333 152.5 112l368 -66c-47.333 -118 -138.833 -203.833 -274.5 -257.5s-334.834 -80.5 -597.501 -80.5zM1004 902.999c-155.333 0 -275.667 -18.167 -361 -54.5s-140.666 -92.5 -165.999 -168.5
h1039c-23.333 76 -76.833 132.167 -160.5 168.5s-200.834 54.5 -351.501 54.5z" />
    <glyph glyph-name="afii10072" unicode="&#x436;" horiz-adv-x="2566" 
d="M1098 0v528l-600 -528h-496l731 625l-713 497h492l586 -442v442h360v-450l596 450h490l-711 -497l729 -625h-494l-610 539v-539h-360z" />
    <glyph glyph-name="afii10073" unicode="&#x437;" horiz-adv-x="1925" 
d="M1821 326c0 -120.667 -73.335 -209.332 -220.002 -265.999s-370.334 -85 -671.001 -85c-129.333 0 -243 6.66699 -341 20s-184 34.166 -258 62.499s-132.5 66 -175.5 113s-70.833 103.5 -83.5 169.5l370 70c8 -48 28.5 -86.333 61.5 -115s83.833 -50.167 152.5 -64.5
s160 -21.5 274 -21.5c168 0 291.167 11.167 369.5 33.5s117.5 57.5 117.5 105.5c0 42 -23.167 71.667 -69.5 89s-117.166 26 -212.499 26h-471v223h469c178.667 0 268 37 268 111c0 42.667 -35 73 -105 91s-191.333 27 -364 27c-163.333 0 -281.5 -14.667 -354.5 -44
s-117.5 -78 -133.5 -146l-348 72c14.667 62 44.167 115.5 88.5 160.5s102.833 81.333 175.5 109s156.334 48 251.001 61s202.334 19.5 323.001 19.5c294 0 510.167 -24.833 648.5 -74.5s207.5 -126.5 207.5 -230.5c0 -68 -24.833 -122.5 -74.5 -163.5
s-127.167 -72.5 -232.5 -94.5c115.333 -16 200.5 -44.5 255.5 -85.5s82.5 -98.5 82.5 -172.5z" />
    <glyph glyph-name="afii10074" unicode="&#x438;" horiz-adv-x="2064" 
d="M203 0v1122h362v-753l934 753h365v-1122h-365v752l-934 -752h-362z" />
    <glyph glyph-name="afii10075" unicode="&#x439;" horiz-adv-x="2064" 
d="M1284 1595h333.999c0 -118 -51.667 -208.5 -155 -271.5s-240 -94.5 -410 -94.5s-306.833 31.5 -410.5 94.5s-155.5 153.5 -155.5 271.5h334c0 -49.333 20.333 -88.166 61 -116.499s97.667 -42.5 171 -42.5c72.667 0 129.334 14.167 170.001 42.5s61 67.166 61 116.499z
M202.999 0v1122h362v-753l934 753h365v-1122h-365v752l-934 -752h-362z" />
    <glyph glyph-name="afii10076" unicode="&#x43a;" horiz-adv-x="1914" 
d="M203 0v1122h364v-473l793 473h528l-880 -510l903 -612h-547l-797 543v-543h-364z" />
    <glyph glyph-name="afii10077" unicode="&#x43b;" horiz-adv-x="1976" 
d="M35 248c96 4 167 32.6699 213 86.0029c34 38 57.667 95.167 71 171.5s21 193.166 23 350.499l4 266h1428v-1122h-365v844h-717v-31c-2.66699 -190.667 -18 -340.334 -46 -449.001s-72 -192.334 -132 -251.001c-46.667 -48 -107.167 -82.667 -181.5 -104
s-167.5 -31 -279.5 -29z" />
    <glyph glyph-name="afii10078" unicode="&#x43c;" horiz-adv-x="2476" 
d="M557 0h-354v1122h397l641 -702l635 702h399v-1122h-356v756l-520 -584h-320l-522 582v-754z" />
    <glyph glyph-name="afii10079" unicode="&#x43d;" horiz-adv-x="2060" 
d="M203 0v1122h364v-387h926v387h365v-1122h-365v459h-926v-459h-364z" />
    <glyph glyph-name="afii10080" unicode="&#x43e;" horiz-adv-x="2025" 
d="M1012 -25c-289.333 0 -513.333 51.167 -672 153.5s-238 246.5 -238 432.5s79.333 330.167 238 432.5s382.667 153.5 672 153.5c291.333 0 516 -51.167 674 -153.5s237 -246.5 237 -432.5c0 -187.333 -78.5 -331.833 -235.5 -433.5s-382.167 -152.5 -675.5 -152.5z
M1012 244c182.667 0 317.667 26 405 78s131 131.667 131 239s-43.833 187.5 -131.5 240.5s-222.5 79.5 -404.5 79.5c-181.333 0 -315.833 -26.5 -403.5 -79.5s-131.5 -133.167 -131.5 -240.5c0 -106.667 43.667 -186.167 131 -238.5s222 -78.5 404 -78.5z" />
    <glyph glyph-name="afii10081" unicode="&#x43f;" horiz-adv-x="2021" 
d="M203 0v1122h1616v-1122h-365v844h-887v-844h-364z" />
    <glyph glyph-name="afii10082" unicode="&#x440;" horiz-adv-x="2115" 
d="M537 1122l18.002 -219c71.333 77.333 166.666 137.333 285.999 180s254.666 64 405.999 64c238.667 0 426 -52.333 562 -157s204 -247.667 204 -429c0 -183.333 -67.5 -326.833 -202.5 -430.5s-322.833 -155.5 -563.5 -155.5c-148 0 -280.5 20.333 -397.5 61
s-211.167 97.667 -282.5 171v-617h-364v1532h334zM1120 244c345.333 0 518 105.668 518 317.001c0 212 -172.667 318 -518 318c-176.667 0 -313 -27.833 -409 -83.5s-144 -133.834 -144 -234.501s48 -178.667 144 -234s232.333 -83 409 -83z" />
    <glyph glyph-name="afii10083" unicode="&#x441;" horiz-adv-x="1943" 
d="M1872 735l-373 -73c-21.333 74.667 -72.5 129.834 -153.5 165.501s-194.833 53.5 -341.5 53.5c-178 0 -310.333 -26.5 -397 -79.5s-130 -133.167 -130 -240.5c0 -106 43.333 -185.333 130 -238s219.667 -79 399 -79c152 0 268.333 18 349 54s130.667 93 150 171l371 -74
c-36.667 -136.667 -130 -240.834 -280 -312.501s-346.667 -107.5 -590 -107.5c-285.333 0 -507.333 51.5 -666 154.5s-238 246.833 -238 431.5s79.167 328.5 237.5 431.5s379.833 154.5 664.5 154.5c240 0 434.5 -35.167 583.5 -105.5s243.833 -172.5 284.5 -306.5z" />
    <glyph glyph-name="afii10084" unicode="&#x442;" horiz-adv-x="1755" 
d="M694 0v844h-655v278h1677v-278h-657v-844h-365z" />
    <glyph glyph-name="afii10085" unicode="&#x443;" horiz-adv-x="1761" 
d="M1350 1122h399.003l-682 -1132c-50.667 -84 -97.834 -152.167 -141.501 -204.5s-91.667 -95.333 -144 -129s-108 -57.167 -167 -70.5s-129.5 -20 -211.5 -20c-86.667 0 -170.334 10.333 -251.001 31l-13 266c72 -12.667 141 -19 207 -19
c95.333 0 168.666 12.833 219.999 38.5s100.333 77.167 147 154.5l-701 1085h420l477 -772z" />
    <glyph glyph-name="afii10086" unicode="&#x444;" horiz-adv-x="2404" 
d="M1022 -410v387c-300.667 4.66699 -529.5 57.334 -686.5 158.001s-235.5 242 -235.5 424c0 184 78.167 326.5 234.5 427.5s385.5 154.5 687.5 160.5v389h360v-389c302 -6 531.167 -59.5 687.5 -160.5s234.5 -243.5 234.5 -427.5c0 -182 -78.5 -323.333 -235.5 -424
s-385.833 -153.334 -686.5 -158.001v-387h-360zM459 559c0 -109.333 44.667 -191.167 134 -245.5s232.333 -83.833 429 -88.5v672c-196.667 -4.66699 -339.667 -34.5 -429 -89.5s-134 -137.833 -134 -248.5zM1946 558.999c0 110.667 -44.833 193.501 -134.5 248.501
s-232.834 84.833 -429.501 89.5v-672c196.667 4.66699 339.834 34.167 429.501 88.5s134.5 136.166 134.5 245.499z" />
    <glyph glyph-name="afii10087" unicode="&#x445;" horiz-adv-x="1884" 
d="M496 0h-471l663 578l-635 544h482l413 -358l424 358h461l-651 -544l678 -578h-496l-438 387z" />
    <glyph glyph-name="afii10088" unicode="&#x446;" horiz-adv-x="2048" 
d="M203 0v1122h364v-843h869v843h366v-843h207v-611h-346v332h-1460z" />
    <glyph glyph-name="afii10089" unicode="&#x447;" horiz-adv-x="1894" 
d="M502 895c0 -101.333 28.001 -173.167 84.001 -215.5s151.333 -63.5 286 -63.5c155.333 0 307 26.667 455 80v426h365v-1122h-365v453c-196.667 -67.333 -383 -101 -559 -101c-214.667 0 -373.834 41 -477.501 123s-155.5 207 -155.5 375v272h367v-227z" />
    <glyph glyph-name="afii10090" unicode="&#x448;" horiz-adv-x="2699" 
d="M203 0v1122h356v-843h612v843h357v-843h612v843h357v-1122h-2294z" />
    <glyph glyph-name="afii10091" unicode="&#x449;" horiz-adv-x="2744" 
d="M203 0v1122h356v-843h612v843h357v-843h612v843h357v-843h208v-611h-346v332h-2156z" />
    <glyph glyph-name="afii10092" unicode="&#x44a;" horiz-adv-x="2111" 
d="M473 0v856h-453v266h811v-311h682c164.667 0 292 -35.5 382 -106.5s135 -170.5 135 -298.5c0 -129.333 -45 -229.333 -135 -300s-217.333 -106 -382 -106h-1040zM1468 571h-637v-331h637c140.667 0 211 55.333 211 166c0 110 -70.333 165 -211 165z" />
    <glyph glyph-name="afii10093" unicode="&#x44b;" horiz-adv-x="2564" 
d="M1997 0v1122h366v-1122h-366zM203 0v1122h364v-311h746c164.667 0 291.834 -35.333 381.501 -106s134.5 -170.334 134.5 -299.001c0 -129.333 -44.833 -229.333 -134.5 -300s-216.834 -106 -381.501 -106h-1110zM1268 571.001h-701v-331h701
c140.667 0 211 55.333 211 166c0 110 -70.333 165 -211 165z" />
    <glyph glyph-name="afii10094" unicode="&#x44c;" horiz-adv-x="1910" 
d="M203 0v1122h364v-311h746c164.667 0 291.834 -35.333 381.501 -106s134.5 -170.334 134.5 -299.001c0 -129.333 -44.833 -229.333 -134.5 -300s-216.834 -106 -381.501 -106h-1110zM1268 571.001h-701v-331h701c140.667 0 211 55.333 211 166c0 110 -70.333 165 -211 165
z" />
    <glyph glyph-name="afii10095" unicode="&#x44d;" horiz-adv-x="1951" 
d="M428 690l-350.004 74c77.333 255.333 366 383 866 383c284.667 0 506.334 -51.667 665.001 -155s238 -247 238 -431s-79.667 -327.667 -239 -431s-381.333 -155 -666 -155c-263.333 0 -465.666 32 -606.999 96s-229.666 162 -264.999 294l354 73
c20 -78.667 70.667 -134.167 152 -166.5s203.333 -48.5 366 -48.5c159.333 0 283.333 18.667 372 56s145 96 169 176h-813v227h809c-28 75.333 -85.833 130.333 -173.5 165s-208.167 52 -361.5 52c-157.333 0 -278.166 -16.167 -362.499 -48.5s-135.5 -85.833 -153.5 -160.5
z" />
    <glyph glyph-name="afii10096" unicode="&#x44e;" horiz-adv-x="2701" 
d="M203 0l-0.000976562 1122h364v-401h234c42 136.667 139.333 241.834 292 315.501s351 110.5 595 110.5c290 0 514 -51.167 672 -153.5s237 -246.5 237 -432.5c0 -187.333 -78.5 -331.833 -235.5 -433.5s-381.5 -152.5 -673.5 -152.5c-256 0 -461.167 40.5 -615.5 121.5
s-248.166 196.167 -281.499 345.5h-224v-442h-364zM1688 241.999c181.333 0 316 26.333 404 79s132 132.667 132 240s-44 187.5 -132 240.5s-222.667 79.5 -404 79.5s-315.833 -26.5 -403.5 -79.5s-131.5 -133.167 -131.5 -240.5s43.833 -187.333 131.5 -240
s222.167 -79 403.5 -79z" />
    <glyph glyph-name="afii10097" unicode="&#x44f;" horiz-adv-x="1953" 
d="M106 750c0 118.667 46 210.333 138 275s221.667 97 389 97h1118v-1122h-362v373h-392l-454 -373h-455l485 399c-158 12.667 -275.333 48 -352 106s-115 139.667 -115 245zM664 607.999h725v281h-725c-136.667 0 -205 -46.333 -205 -139c0 -94.667 68.333 -142 205 -142z
" />
    <glyph glyph-name="uni0450" unicode="&#x450;" horiz-adv-x="1990" 
d="M1161 1245h-327l-527 330h486zM1014 -25c-288.667 0 -512.832 51.499 -672.499 154.499s-239.5 247.5 -239.5 433.5c0 180 79.667 322.333 239 427s379.333 157 660 157c276 0 493.5 -50 652.5 -150s238.5 -237 238.5 -411c0 -45.333 -3.33301 -81.666 -10 -108.999
h-1411c43.333 -164 224.333 -246 543 -246c153.333 0 270.5 12 351.5 36s131.833 61.333 152.5 112l368 -66c-47.333 -118 -138.833 -203.833 -274.5 -257.5s-334.834 -80.5 -597.501 -80.5zM1004 902.999c-155.333 0 -275.667 -18.167 -361 -54.5
s-140.666 -92.5 -165.999 -168.5h1039c-23.333 76 -76.833 132.167 -160.5 168.5s-200.834 54.5 -351.501 54.5z" />
    <glyph glyph-name="afii10071" unicode="&#x451;" horiz-adv-x="1990" 
d="M1108 1257v295h403v-295h-403zM477 1257v295h404v-295h-404zM1014 -25c-288.667 0 -512.832 51.499 -672.499 154.499s-239.5 247.5 -239.5 433.5c0 180 79.667 322.333 239 427s379.333 157 660 157c276 0 493.5 -50 652.5 -150s238.5 -237 238.5 -411
c0 -45.333 -3.33301 -81.666 -10 -108.999h-1411c43.333 -164 224.333 -246 543 -246c153.333 0 270.5 12 351.5 36s131.833 61.333 152.5 112l368 -66c-47.333 -118 -138.833 -203.833 -274.5 -257.5s-334.834 -80.5 -597.501 -80.5zM1004 902.999
c-155.333 0 -275.667 -18.167 -361 -54.5s-140.666 -92.5 -165.999 -168.5h1039c-23.333 76 -76.833 132.167 -160.5 168.5s-200.834 54.5 -351.501 54.5z" />
    <glyph glyph-name="afii10099" unicode="&#x452;" horiz-adv-x="2070" 
d="M236 0l-0.000976562 1083h-222v250h222v203h364v-203h551v-250h-551v-381c72.667 86 166.5 153.333 281.5 202s241.833 73 380.5 73c204.667 0 360.5 -46.167 467.5 -138.5s160.5 -225.833 160.5 -400.5v-358c0 -184.667 -40.667 -316.5 -122 -395.5
s-216.666 -118.5 -405.999 -118.5c-96.667 0 -176.667 6 -240 18l-12 266c57.333 -8 112 -12 164 -12c91.333 0 155.833 16 193.5 48s56.5 87.667 56.5 167v314c0 104 -32.333 184.167 -97 240.5s-158 84.5 -280 84.5c-167.333 0 -300.333 -38.167 -399 -114.5
s-148 -179.5 -148 -309.5v-268h-364z" />
    <glyph glyph-name="afii10100" unicode="&#x453;" horiz-adv-x="1589" 
d="M659 1245l371 330h483l-524 -330h-330zM203 0v1122h1353v-276h-989v-846h-364z" />
    <glyph glyph-name="afii10101" unicode="&#x454;" horiz-adv-x="1953" 
d="M1282 676v-216.998h-813c50 -158.667 226.667 -238 530 -238c155.333 0 275 17.167 359 51.5s135.667 88.166 155 161.499l373 -72c-38 -126.667 -132.833 -222.834 -284.5 -288.501s-352.5 -98.5 -602.5 -98.5c-282 0 -502 52 -660 156s-237 247.333 -237 430
c0 184 79 327.667 237 431s378 155 660 155c248 0 447.5 -32 598.5 -96s245.833 -157.667 284.5 -281l-373 -76c-46 138 -216 207 -510 207c-298.667 0 -474 -75 -526 -225h809z" />
    <glyph glyph-name="afii10102" unicode="&#x455;" horiz-adv-x="1851" 
d="M911 915c-152.667 0 -263.835 -9.16895 -333.502 -27.502s-104.5 -47.166 -104.5 -86.499c0 -32.667 20 -56 60 -70s114.333 -23.667 223 -29l426 -16c208 -10 357.167 -40 447.5 -90s135.5 -126.333 135.5 -229c0 -261.333 -286.667 -392 -860 -392
c-251.333 0 -441.833 27.333 -571.5 82s-216.167 143 -259.5 265l362 59c16.667 -59.333 62.834 -102.833 138.501 -130.5s185.167 -41.5 328.5 -41.5c176.667 0 303.834 9.66699 381.501 29s116.5 49.333 116.5 90c0 33.333 -17.167 57.5 -51.5 72.5
s-97.833 24.833 -190.5 29.5l-428 16c-214 8.66699 -369.5 40.334 -466.5 95.001s-145.5 135 -145.5 241c0 117.333 67.833 207.5 203.5 270.5s331.834 94.5 588.501 94.5c250.667 0 441.167 -25.833 571.5 -77.5s215.166 -134.5 254.499 -248.5l-353 -57
c-16.667 53.333 -61.167 91.833 -133.5 115.5s-185.5 35.5 -339.5 35.5z" />
    <glyph glyph-name="afii10103" unicode="&#x456;" 
d="M201 1257v283h370v-283h-370zM203 0v1122h364v-1122h-364z" />
    <glyph glyph-name="afii10104" unicode="&#x457;" 
d="M14 1257v295h305v-295h-305zM451 1257v295h305v-295h-305zM203 0v1122h364v-1122h-364z" />
    <glyph glyph-name="afii10105" unicode="&#x458;" 
d="M199 1257v283h370v-283h-370zM203 49l-0.000976562 1073h364v-1050c0 -180.667 -40.667 -310.167 -122 -388.5s-212 -117.5 -392 -117.5c-85.333 0 -163.666 5.33301 -234.999 16l-13 268c60.667 -8 114.667 -12 162 -12c85.333 0 146 15.833 182 47.5
s54 86.167 54 163.5z" />
    <glyph glyph-name="afii10106" unicode="&#x459;" horiz-adv-x="3117" 
d="M35 248c96 4 167 32.6709 213 86.0039c34 38 57.667 95.167 71 171.5s21 193.166 23 350.499l4 266h1428v-311h745c164.667 0 291.834 -35.333 381.5 -106c89.667 -70.667 134.5 -170.334 134.5 -299.001c0 -129.333 -44.833 -229.333 -134.5 -300
s-216.834 -106 -381.5 -106h-1110v844h-717v-31c-2.66699 -190.667 -18 -340.334 -46 -449.001s-72 -192.334 -132 -251.001c-46.667 -48 -107.167 -82.667 -181.5 -104s-167.5 -31 -279.5 -29zM2474 571.004h-700v-331h700c140.667 0 211 55.333 211 166
c0 110 -70.333 165 -211 165z" />
    <glyph glyph-name="afii10107" unicode="&#x45a;" horiz-adv-x="3229" 
d="M203 0v1122h364v-379h926v379h365v-377h804c155.333 0 275.5 -32.5 360.5 -97.5s127.5 -155.833 127.5 -272.5c0 -119.333 -42.5 -211.666 -127.5 -276.999s-205.167 -98 -360.5 -98h-1169v467h-926v-467h-364zM2613 505.999h-755v-266h755c123.333 0 185 45 185 135
c0 87.333 -61.667 131 -185 131z" />
    <glyph glyph-name="afii10108" unicode="&#x45b;" horiz-adv-x="2072" 
d="M236 0v1083h-220v250h220v203h366v-203h549v-250h-549v-378c71.333 85.333 164.5 152 279.5 200s241.833 72 380.5 72c204.667 0 360.5 -46.167 467.5 -138.5s160.5 -225.833 160.5 -400.5v-438h-366v367c0 104 -32.333 184.167 -97 240.5s-158 84.5 -280 84.5
c-167.333 0 -300 -38.167 -398 -114.5s-147 -179.5 -147 -309.5v-268h-366z" />
    <glyph glyph-name="afii10109" unicode="&#x45c;" horiz-adv-x="1914" 
d="M735 1245l371 330h483l-524 -330h-330zM203 0v1122h364v-473l793 473h528l-880 -510l903 -612h-547l-797 543v-543h-364z" />
    <glyph glyph-name="uni045D" unicode="&#x45d;" horiz-adv-x="2064" 
d="M1229 1245h-328l-526 330h485zM203 0v1122h362v-753l934 753h365v-1122h-365v752l-934 -752h-362z" />
    <glyph glyph-name="afii10110" unicode="&#x45e;" horiz-adv-x="1761" 
d="M1130 1597h334c0 -116 -49.5 -206.667 -148.5 -272s-237.167 -98 -414.5 -98s-315.5 32.667 -414.5 98s-148.5 156 -148.5 272h334c0 -50 20 -89 60 -117s96.333 -42 169 -42c71.333 0 127.333 14 168 42s61 67 61 117zM1350 1122h399.002l-682 -1132
c-50.667 -84 -97.834 -152.167 -141.501 -204.5s-91.667 -95.333 -144 -129s-108 -57.167 -167 -70.5s-129.5 -20 -211.5 -20c-86.667 0 -170.334 10.333 -251.001 31l-13 266c72 -12.667 141 -19 207 -19c96 0 169.167 12.667 219.5 38s99.5 77 147.5 155l-701 1085h420
l477 -772z" />
    <glyph glyph-name="afii10193" unicode="&#x45f;" horiz-adv-x="2025" 
d="M203 0v1122h364v-843h889v843h367v-1122h-637v-332h-346v332h-637z" />
    <glyph glyph-name="afii10146" unicode="&#x462;" horiz-adv-x="2242" 
d="M313 0v1042h-280v240h280v154h371v-154h702v-240h-702v-182h942c166.667 0 297.834 -38 393.501 -114s143.5 -180.667 143.5 -314c0 -134 -47.833 -239.5 -143.5 -316.5s-226.834 -115.5 -393.501 -115.5h-1313zM1573 596h-889v-332h889c140.667 0 211 55.333 211 166
s-70.333 166 -211 166z" />
    <glyph glyph-name="afii10194" unicode="&#x463;" horiz-adv-x="1880" 
d="M246 0v1012h-226v237h226v287h360v-287h520v-237h-520v-236h676c164.667 0 292.167 -34 382.5 -102s135.5 -163.667 135.5 -287s-45.167 -218.666 -135.5 -285.999s-217.833 -101 -382.5 -101h-1036zM1243 538.999h-637v-301h637c136.667 0 205 49.667 205 149
c0 101.333 -68.333 152 -205 152z" />
    <glyph glyph-name="afii10147" unicode="&#x472;" horiz-adv-x="2498" 
d="M1231 -25c-356.667 0 -632.167 64.833 -826.5 194.5s-291.5 311.5 -291.5 545.5c0 235.333 97 418 291 548s469.667 195 827 195c356.667 0 632.167 -65 826.5 -195s291.5 -312.667 291.5 -548c0 -234 -97.167 -415.833 -291.5 -545.5s-469.833 -194.5 -826.5 -194.5z
M1231 1171c-410 0 -650.333 -104.333 -721 -313h1442c-70.667 208.667 -311 313 -721 313zM1231 262c423.333 0 665.668 109.333 727.001 328h-1454c61.333 -218.667 303.666 -328 726.999 -328z" />
    <glyph glyph-name="afii10195" unicode="&#x473;" horiz-adv-x="2025" 
d="M1012 -25c-289.333 0 -513.333 51.167 -672 153.5s-238 246.5 -238 432.5s79.333 330.167 238 432.5s382.667 153.5 672 153.5c291.333 0 516 -51.167 674 -153.5s237 -246.5 237 -432.5c0 -187.333 -78.5 -331.833 -235.5 -433.5s-382.167 -152.5 -675.5 -152.5z
M1012 889c-306 0 -482.333 -76.667 -529 -230h1061c-46.667 153.333 -224 230 -532 230zM1012 233c305.333 0 482.667 76 532 228h-1061c48.667 -152 225 -228 529 -228z" />
    <glyph glyph-name="afii10148" unicode="&#x474;" horiz-adv-x="2197" 
d="M879 0l-872.998 1434h443l632 -1074l451 746c79.333 135.333 154.666 227.833 225.999 277.5s164.666 74.5 279.999 74.5c42.667 0 82.334 -3.33301 119.001 -10l14 -322c-77.333 7.33301 -137.833 0.5 -181.5 -20.5s-86.834 -64.5 -129.501 -130.5l-588 -975h-393z" />
    <glyph glyph-name="afii10196" unicode="&#x475;" horiz-adv-x="1810" 
d="M741 0l-730.999 1122h422l479 -784l320 532c62.667 104.667 123.5 177 182.5 217s131.833 60 218.5 60c49.333 0 93.666 -4 132.999 -12l11 -289c-65.333 6 -113.833 1.33301 -145.5 -14s-66.5 -51 -104.5 -107l-467 -725h-318z" />
    <glyph glyph-name="afii10050" unicode="&#x490;" horiz-adv-x="1933" 
d="M240 0v1434h1259v305h367v-602h-1241v-1137h-385z" />
    <glyph glyph-name="afii10098" unicode="&#x491;" horiz-adv-x="1589" 
d="M203 0v1122h1007v299h346v-575h-989v-846h-364z" />
    <glyph glyph-name="Wgrave" unicode="&#x1e80;" horiz-adv-x="3072" 
d="M1698 1556h-328l-526 330h485zM653 0l-639 1434h412l442 -1037l482 1037h372l494 -1022l436 1022h406l-641 -1434h-371l-514 1065l-510 -1065h-369z" />
    <glyph glyph-name="wgrave" unicode="&#x1e81;" horiz-adv-x="2648" 
d="M1485 1245h-328l-526 330h485zM592 0l-580 1122h400l366 -760l387 760h336l400 -753l356 753h377l-566 -1122h-321l-416 793l-418 -793h-321z" />
    <glyph glyph-name="Wacute" unicode="&#x1e82;" horiz-adv-x="3072" 
d="M1372 1556l371 330h483l-524 -330h-330zM653 0l-639 1434h412l442 -1037l482 1037h372l494 -1022l436 1022h406l-641 -1434h-371l-514 1065l-510 -1065h-369z" />
    <glyph glyph-name="wacute" unicode="&#x1e83;" horiz-adv-x="2648" 
d="M1159 1245l371 330h483l-524 -330h-330zM592 0l-580 1122h400l366 -760l387 760h336l400 -753l356 753h377l-566 -1122h-321l-416 793l-418 -793h-321z" />
    <glyph glyph-name="Wdieresis" unicode="&#x1e84;" horiz-adv-x="3072" 
d="M1649 1569v295h403v-295h-403zM1018 1569v295h403v-295h-403zM653 0l-639 1434h412l442 -1037l482 1037h372l494 -1022l436 1022h406l-641 -1434h-371l-514 1065l-510 -1065h-369z" />
    <glyph glyph-name="wdieresis" unicode="&#x1e85;" horiz-adv-x="2648" 
d="M1436 1257v295h403v-295h-403zM805 1257v295h403v-295h-403zM592 0l-580 1122h400l366 -760l387 760h336l400 -753l356 753h377l-566 -1122h-321l-416 793l-418 -793h-321z" />
    <glyph glyph-name="uni1E9E" unicode="&#x1e9e;" horiz-adv-x="2631" 
d="M213 0l0.000976562 795c0 442 314 663 942 663c268.667 0 541 -14.333 817 -43v-268l-358 -283l399 -22c101.333 -8.66699 187.333 -23.834 258 -45.501s126.167 -49.667 166.5 -84s69.5 -72.833 87.5 -115.5s27 -92 27 -148c0 -58 -11 -111 -33 -159
s-57 -91.667 -105 -131s-108.5 -72.5 -181.5 -99.5s-162.333 -47.833 -268 -62.5s-225.167 -22 -358.5 -22c-312.667 0 -577.667 42.333 -795 127l109 277c181.333 -82 399.666 -123 654.999 -123c113.333 0 209.5 4.33301 288.5 13s140.167 21.5 183.5 38.5
s74.166 35.833 92.499 56.5s27.5 44.667 27.5 72c0 42 -15.5 73.333 -46.5 94s-87.167 34.334 -168.5 41.001l-746 39v230l400 317c-121.333 8 -271.666 12 -450.999 12c-196 0 -337.833 -30.333 -425.5 -91s-131.5 -155.667 -131.5 -285v-793h-385z" />
    <glyph glyph-name="Ygrave" unicode="&#x1ef2;" horiz-adv-x="2060" 
d="M1192 1556h-328l-526 330h485zM842 0v551l-854 883h501l549 -578l559 578h476l-848 -881v-553h-383z" />
    <glyph glyph-name="ygrave" unicode="&#x1ef3;" horiz-adv-x="1761" 
d="M1042 1245h-327l-527 330h486zM1350 1122h399.003l-682 -1132c-50.667 -84 -97.834 -152.167 -141.501 -204.5s-91.667 -95.333 -144 -129s-108 -57.167 -167 -70.5s-129.5 -20 -211.5 -20c-86.667 0 -170.334 10.333 -251.001 31l-13 266c72 -12.667 141 -19 207 -19
c95.333 0 168.666 12.833 219.999 38.5s100.333 77.167 147 154.5l-701 1085h420l477 -772z" />
    <glyph glyph-name="endash" unicode="&#x2013;" horiz-adv-x="1697" 
d="M100 457v297h1497v-297h-1497z" />
    <glyph glyph-name="emdash" unicode="&#x2014;" horiz-adv-x="3393" 
d="M100 457v297h3193v-297h-3193z" />
    <glyph glyph-name="quoteleft" unicode="&#x2018;" horiz-adv-x="776" 
d="M565 725h-397v281c0 152 31.667 260.333 95 325s173 99 329 103l16 -201c-88.667 0 -146.667 -11.5 -174 -34.5s-41 -70.833 -41 -143.5h172v-330z" />
    <glyph glyph-name="quoteright" unicode="&#x2019;" horiz-adv-x="776" 
d="M211 1434h397v-279c0 -152 -31.833 -260.5 -95.5 -325.5s-173.167 -99.833 -328.5 -104.5l-16 201c88.667 0 146.667 11.5 174 34.5s41 70.833 41 143.5h-172v330z" />
    <glyph glyph-name="quotesinglbase" unicode="&#x201a;" horiz-adv-x="776" 
d="M186 330h398v-279c0 -152 -31.667 -260.333 -95 -325s-173 -99 -329 -103l-15 199c88 0 145.833 11.667 173.5 35s41.5 71 41.5 143h-174v330z" />
    <glyph glyph-name="quotedblleft" unicode="&#x201c;" horiz-adv-x="1382" 
d="M168 725v281c0 152 31.667 260.333 95 325s173 99 329 103l16 -201c-88.667 0 -146.667 -11.5 -174 -34.5s-41 -70.833 -41 -143.5h172v-330h-397zM774 725v281c0 152 32 260.333 96 325s174 99 330 103l14 -201c-88 0 -145.833 -11.667 -173.5 -35s-41.5 -71 -41.5 -143
h175v-330h-400z" />
    <glyph glyph-name="quotedblright" unicode="&#x201d;" horiz-adv-x="1382" 
d="M211 1434h397v-279c0 -152 -31.833 -260.5 -95.5 -325.5s-173.167 -99.833 -328.5 -104.5l-16 201c88.667 0 146.667 11.5 174 34.5s41 70.833 41 143.5h-172v330zM817 1434h397v-279c0 -152 -31.5 -260.5 -94.5 -325.5s-172.5 -99.833 -328.5 -104.5l-17 201
c88.667 0 146.667 11.5 174 34.5s41 70.833 41 143.5h-172v330z" />
    <glyph glyph-name="quotedblbase" unicode="&#x201e;" horiz-adv-x="1382" 
d="M186 330h398v-279c0 -152 -31.667 -260.333 -95 -325s-173 -99 -329 -103l-15 199c88 0 145.833 11.667 173.5 35s41.5 71 41.5 143h-174v330zM795 330h397v-279c0 -152 -31.667 -260.333 -95 -325s-173 -99 -329 -103l-16 199c88.667 0 146.667 11.5 174 34.5
s41 70.833 41 143.5h-172v330z" />
    <glyph glyph-name="dagger" unicode="&#x2020;" horiz-adv-x="1587" 
d="M1479 809h-510v-1116h-348v1116h-510v303h510v424h348v-424h510v-303z" />
    <glyph glyph-name="daggerdbl" unicode="&#x2021;" horiz-adv-x="1656" 
d="M143 422h512v387h-512v303h512v424h349v-424h509v-303h-509v-387h509v-305h-509v-424h-349v424h-512v305z" />
    <glyph glyph-name="bullet" unicode="&#x2022;" horiz-adv-x="825" 
d="M182 453v473h461v-473h-461z" />
    <glyph glyph-name="ellipsis" unicode="&#x2026;" horiz-adv-x="2351" 
d="M190 0v330h394v-330h-394zM977 0v330h393v-330h-393zM1765 0v330h394v-330h-394z" />
    <glyph glyph-name="perthousand" unicode="&#x2030;" horiz-adv-x="3493" 
d="M645 741c-173.333 0 -307.5 32.499 -402.5 97.499s-142.5 151.5 -142.5 259.5c0 107.333 47.667 193.5 143 258.5s229.333 97.5 402 97.5c173.333 0 307.5 -32.333 402.5 -97s142.5 -151 142.5 -259c0 -107.333 -47.667 -193.666 -143 -258.999s-229.333 -98 -402 -98z
M672 -0.000976562h-459l1792 1434h461zM645 953.999c76.667 0 134.834 12.667 174.501 38s59.5 60.666 59.5 105.999c0 44.667 -19.833 79.667 -59.5 105s-97.834 38 -174.501 38s-134.667 -12.667 -174 -38s-59 -60.333 -59 -105c0 -45.333 19.667 -80.666 59 -105.999
s97.333 -38 174 -38zM2034 -20.001c-173.333 0 -307.5 32.333 -402.5 97s-142.5 151 -142.5 259c0 107.333 47.667 193.5 143 258.5s229.333 97.5 402 97.5c174.667 0 306.334 -36 395 -108c93.333 72 225 108 395 108c172.667 0 306.667 -32.5 402 -97.5
s143 -151.167 143 -258.5c0 -108 -47.5 -194.333 -142.5 -259s-229.167 -97 -402.5 -97c-174 0 -305.667 35.333 -395 106c-91.333 -70.667 -223 -106 -395 -106zM2034 192.999c76.667 0 135 12.667 175 38s60 60.333 60 105s-20 79.667 -60 105s-98.333 38 -175 38
s-134.834 -12.667 -174.501 -38s-59.5 -60.333 -59.5 -105s19.833 -79.667 59.5 -105s97.834 -38 174.501 -38zM2824 192.999c76.667 0 135.167 12.667 175.5 38s60.5 60.333 60.5 105s-20.167 79.667 -60.5 105s-98.833 38 -175.5 38s-134.667 -12.667 -174 -38
s-59 -60.333 -59 -105s19.667 -79.667 59 -105s97.333 -38 174 -38z" />
    <glyph glyph-name="guilsinglleft" unicode="&#x2039;" horiz-adv-x="1044" 
d="M911 373v-338l-800 350v356l800 351v-330l-551 -199z" />
    <glyph glyph-name="guilsinglright" unicode="&#x203a;" horiz-adv-x="1044" 
d="M934 385l-801 -350v327l551 199l-551 193v338l801 -351v-356z" />
    <glyph glyph-name="fraction" unicode="&#x2044;" horiz-adv-x="1923" 
d="M346 0h-346l1577 1434h346z" />
    <glyph glyph-name="zerosuperior" unicode="&#x2070;" horiz-adv-x="1226" 
d="M614 926c-175.333 0 -311.001 32.667 -407.001 98s-144 156 -144 272c0 116.667 48 207.667 144 273s231.667 98 407 98c174.667 0 309.834 -32.667 405.501 -98s143.5 -156.333 143.5 -273c0 -116 -48 -206.667 -144 -272s-231 -98 -405 -98zM613.999 1110
c188.667 0 283 62 283 186c0 123.333 -94.333 185 -283 185c-188 0 -282 -61.667 -282 -185c0 -124 94 -186 282 -186z" />
    <glyph glyph-name="foursuperior" unicode="&#x2074;" horiz-adv-x="1187" 
d="M965 938h-236v121h-678v151l711 447h203v-436h172v-162h-172v-121zM344 1221h385v245z" />
    <glyph glyph-name="fivesuperior" unicode="&#x2075;" horiz-adv-x="1103" 
d="M555 926c-145.333 0 -258.333 14.333 -339 43s-134.334 76.334 -161.001 143.001l248 51c13.333 -28 38.5 -47.667 75.5 -59s95.167 -17 174.5 -17c86.667 0 148 7.5 184 22.5s54 37.833 54 68.5c0 30 -18 52.167 -54 66.5s-97.333 21.5 -184 21.5
c-68.667 0 -120.834 -3.5 -156.501 -10.5s-69.5 -19.167 -101.5 -36.5l-207 26l53 410h844v-156h-641l-18 -135c76.667 31.333 175.667 47 297 47c140.667 -1.33301 245.834 -20.833 315.501 -58.5s104.834 -95.834 105.501 -174.501c0 -168 -163 -252 -489 -252z" />
    <glyph glyph-name="sixsuperior" unicode="&#x2076;" horiz-adv-x="1148" 
d="M63 1286c0 122 47.001 216 141.001 282s226 99 396 99c261.333 0 423 -57.333 485 -172l-245 -61c-46.667 48.667 -127.334 73 -242.001 73c-92 0 -160.833 -14.667 -206.5 -44s-72.5 -74.666 -80.5 -135.999c78 45.333 190.667 68 338 68
c295.333 0 443 -73.667 443 -221c0 -78 -41.5 -138.833 -124.5 -182.5s-208.833 -65.5 -377.5 -65.5c-173.333 0 -304.5 30.167 -393.5 90.5s-133.5 150.166 -133.5 269.499zM586.001 1087c165.333 0 248 29 248 87c0 54 -82.667 81 -248 81s-248 -26.333 -248 -79
c0 -59.333 82.667 -89 248 -89z" />
    <glyph glyph-name="sevensuperior" unicode="&#x2077;" horiz-adv-x="1011" 
d="M961 1507l-461 -569h-291l469 543h-629v174h912v-148z" />
    <glyph glyph-name="eightsuperior" unicode="&#x2078;" horiz-adv-x="1183" 
d="M592 926c-175.333 0 -308 18.5 -398 55.5s-135 91.5 -135 163.5c0 76.667 65.667 132 197 166c-109.333 34.667 -164 85.667 -164 153c0 65.333 43.5 115.5 130.5 150.5s210.167 52.5 369.5 52.5c158 0 280.5 -17.5 367.5 -52.5s130.5 -85.167 130.5 -150.5
c0 -70 -54 -121 -162 -153c130.667 -34.667 196 -90 196 -166c0 -146 -177.333 -219 -532 -219zM592 1518c-83.333 0 -142.833 -5.33301 -178.5 -16s-53.5 -28 -53.5 -52c0 -24.667 18 -42.834 54 -54.501s95.333 -17.5 178 -17.5c82 0 140.667 5.83301 176 17.5
s53 29.834 53 54.501c0 24 -17.667 41.333 -53 52s-94 16 -176 16zM592 1075c94 0 161.167 6 201.5 18s60.5 32 60.5 60c0 26 -20.5 45.5 -61.5 58.5s-107.833 19.5 -200.5 19.5c-94.667 0 -162 -6.16699 -202 -18.5s-60 -32.166 -60 -59.499
c0 -26.667 20.333 -46.334 61 -59.001s107.667 -19 201 -19z" />
    <glyph glyph-name="ninesuperior" unicode="&#x2079;" horiz-adv-x="1148" 
d="M1085 1307c0 -122 -46.834 -216 -140.501 -282s-225.5 -99 -395.5 -99c-262 0 -424 56.667 -486 170l246 63c46.667 -50.667 127.334 -76 242.001 -76c92 0 160.833 15 206.5 45s72.5 76 80.5 138c-78 -45.333 -191.333 -68 -340 -68c-294 0 -441 73.667 -441 221
c0 78 41.333 138.833 124 182.5s208 65.5 376 65.5c352 0 528 -120 528 -360zM560.999 1503c-164 0 -246 -28 -246 -84c0 -54.667 82 -82 246 -82c166.667 0 250 26 250 78c0 58.667 -83.333 88 -250 88z" />
    <glyph glyph-name="zeroinferior" unicode="&#x2080;" horiz-adv-x="1226" 
d="M614 -233c-175.333 0 -311.001 32.667 -407.001 98s-144 156 -144 272c0 116.667 48 207.667 144 273s231.667 98 407 98c174.667 0 309.834 -32.667 405.501 -98s143.5 -156.333 143.5 -273c0 -116 -48 -206.667 -144 -272s-231 -98 -405 -98zM613.999 -49
c188.667 0 283 62 283 186c0 123.333 -94.333 185 -283 185c-188 0 -282 -61.667 -282 -185c0 -124 94 -186 282 -186z" />
    <glyph glyph-name="oneinferior" unicode="&#x2081;" horiz-adv-x="1052" 
d="M70 -221v186h364v338l-338 -49v184l391 58h201v-531h313v-186h-931z" />
    <glyph glyph-name="twoinferior" unicode="&#x2082;" horiz-adv-x="1116" 
d="M74 -45l583 197c48 20 79.833 36.833 95.5 50.5s23.5 30.167 23.5 49.5c0 53.333 -72.333 80 -217 80c-82 0 -142.5 -8.66699 -181.5 -26s-62.5 -44.333 -70.5 -81l-248 43c39.333 160 203.333 240 492 240c162.667 0 284.167 -20.5 364.5 -61.5
s120.5 -99.167 120.5 -174.5c0 -38.667 -9.16699 -72.167 -27.5 -100.5s-54 -56.833 -107 -85.5s-126.833 -56.667 -221.5 -84l-164 -47h522v-176h-964v176z" />
    <glyph glyph-name="threeinferior" unicode="&#x2083;" horiz-adv-x="1136" 
d="M1071 -12c0 -71.333 -42.5 -125.999 -127.5 -163.999s-213.167 -57 -384.5 -57c-156.667 0 -276 17.667 -358 53s-132 89.333 -150 162l250 43c7.33301 -33.333 31.666 -57.5 72.999 -72.5s104.333 -22.5 189 -22.5c87.333 0 148.833 6.5 184.5 19.5s53.5 32.5 53.5 58.5
c0 36.667 -34.333 55 -103 55h-321v154h323c66 0 99 18.333 99 55c0 48 -78.667 72 -236 72c-158 0 -244.667 -30.667 -260 -92l-240 45c36.667 140.667 202 211 496 211c164.667 0 288.834 -17.333 372.501 -52s125.5 -85 125.5 -151c0 -76.667 -50 -129.334 -150 -158.001
c109.333 -22.667 164 -75.667 164 -159z" />
    <glyph glyph-name="fourinferior" unicode="&#x2084;" horiz-adv-x="1187" 
d="M965 -221h-236v121h-678v151l711 447h203v-437h172v-161h-172v-121zM344 61h385v246z" />
    <glyph glyph-name="fiveinferior" unicode="&#x2085;" horiz-adv-x="1103" 
d="M555 -233c-145.333 0 -258.333 14.3311 -339 42.998s-134.334 76.334 -161.001 143.001l248 51c13.333 -28 38.5 -47.667 75.5 -59s95.167 -17 174.5 -17c87.333 0 148.833 7.33301 184.5 22s53.5 37.334 53.5 68.001c0 30 -18 52.167 -54 66.5s-97.333 21.5 -184 21.5
c-68.667 0 -120.834 -3.5 -156.501 -10.5s-69.5 -19.167 -101.5 -36.5l-207 27l53 410h844v-156h-641l-18 -135c76.667 31.333 175.667 47 297 47c140.667 -1.33301 245.834 -21 315.501 -59s104.834 -96.333 105.501 -175c0 -167.333 -163 -251 -489 -251z" />
    <glyph glyph-name="sixinferior" unicode="&#x2086;" horiz-adv-x="1148" 
d="M63 127c0 122 47 216 141 282s226 99 396 99c261.333 0 423 -57.333 485 -172l-245 -62c-47.333 49.333 -128 74 -242 74c-92 0 -160.833 -14.667 -206.5 -44s-72.5 -74.666 -80.5 -135.999c78 45.333 190.667 68 338 68c295.333 0 443 -74 443 -222
c0 -78 -41.5 -138.667 -124.5 -182s-208.833 -65 -377.5 -65c-173.333 0 -304.5 30.167 -393.5 90.5s-133.5 150.166 -133.5 269.499zM586 -72c165.333 0 248 28.667 248 86c0 54.667 -82.667 82 -248 82s-248 -26.667 -248 -80c0 -58.667 82.667 -88 248 -88z" />
    <glyph glyph-name="seveninferior" unicode="&#x2087;" horiz-adv-x="1011" 
d="M961 348l-461 -569h-291l469 543h-629v174h912v-148z" />
    </font>
</defs>
</svg>
